<?xml version='1.0' encoding='UTF-8' standalone='no'?>
<!-- Created with Fritzing (http://www.fritzing.org/) -->
<svg xmlns="http://www.w3.org/2000/svg"  width="0.7in" x="0in" version="1.2" y="0in" height="1.933in" viewBox="0 0 50.4 139.176" baseProfile="tiny">
 <desc >Fritzing footprint generated by brd2svg</desc>
 <g  id="silkscreen">
  <path  fill="none" stroke="white" stroke-width="0.576" d="M0.288,136.522L50.112,136.522L50.112,0.288L0.288,0.288L0.288,136.522M14.5598,131.976a0.704126,0.704126,0,1,1,1.40826,0,0.704126,0.704126,0,1,1,-1.40826,0zM14.5598,133.416a0.704126,0.704126,0,1,1,1.40826,0,0.704126,0.704126,0,1,1,-1.40826,0zM34.4318,131.976a0.704126,0.704126,0,1,1,1.40826,0,0.704126,0.704126,0,1,1,-1.40826,0zM34.4318,133.416a0.704126,0.704126,0,1,1,1.40826,0,0.704126,0.704126,0,1,1,-1.40826,0zM17.0798,125.064a0.704126,0.704126,0,1,1,1.40826,0,0.704126,0.704126,0,1,1,-1.40826,0zM17.7998,125.064a0.704126,0.704126,0,1,1,1.40826,0,0.704126,0.704126,0,1,1,-1.40826,0zM31.1918,125.064a0.704126,0.704126,0,1,1,1.40826,0,0.704126,0.704126,0,1,1,-1.40826,0zM31.9118,125.064a0.704126,0.704126,0,1,1,1.40826,0,0.704126,0.704126,0,1,1,-1.40826,0zM2.18722,133.2a1.41278,1.41278,0,1,1,2.82558,0,1.41278,1.41278,0,1,1,-2.82558,0zM45.3872,133.2a1.41278,1.41278,0,1,1,2.82558,0,1.41278,1.41278,0,1,1,-2.82558,0zM2.18722,3.6a1.41278,1.41278,0,1,1,2.82558,0,1.41278,1.41278,0,1,1,-2.82558,0zM45.3872,3.6a1.41278,1.41278,0,1,1,2.82558,0,1.41278,1.41278,0,1,1,-2.82558,0z"/>
  <line  stroke="white" stroke-linecap="round" y1="26.64" x1="8.64" y2="25.2" stroke-width="0.864" x2="6.48"/>
  <line  stroke="white" stroke-linecap="round" y1="25.2" x1="6.48" y2="23.76" stroke-width="0.864" x2="8.64"/>
  <line  stroke="white" stroke-linecap="round" y1="23.76" x1="8.64" y2="26.64" stroke-width="0.864" x2="8.64"/>
  <line  stroke="white" stroke-linecap="round" y1="30.96" x1="6.48" y2="32.4" stroke-width="0.864" x2="8.568"/>
  <line  stroke="white" stroke-linecap="round" y1="30.96" x1="6.48" y2="33.84" stroke-width="0.864" x2="6.48"/>
  <line  stroke="white" stroke-linecap="round" y1="33.84" x1="6.48" y2="32.4" stroke-width="0.864" x2="8.568"/>
  <line  stroke="white" stroke-linecap="round" y1="25.488" x1="7.776" y2="24.912" stroke-width="1.152" x2="7.776"/>
  <line  stroke="white" stroke-linecap="round" y1="32.616" x1="7.344" y2="32.112" stroke-width="1.152" x2="7.344"/>
  <circle  fill="none" cx="43.2" cy="25.2" stroke="white" r="0.509103" stroke-width="1.152"/>
  <g >
   <title >element:C11</title>
   <g >
    <title >package:C0402</title>
   </g>
  </g>
  <g >
   <title >element:D2</title>
   <g >
    <title >package:MINIMELF</title>
   </g>
  </g>
  <g >
   <title >element:F1</title>
   <g >
    <title >package:L1812</title>
   </g>
  </g>
  <g >
   <title >element:J3</title>
   <g >
    <title >package:CON2_USB_MICRO_B_AT</title>
    <line  stroke="white" stroke-linecap="round" y1="136.8" x1="13.68" y2="136.8" stroke-width="0.144" x2="16.7178"/>
    <line  stroke="white" stroke-linecap="round" y1="136.8" x1="19.5525" y2="136.8" stroke-width="0.144" x2="22.5902"/>
    <line  stroke="white" stroke-linecap="round" y1="136.8" x1="25.4249" y2="136.8" stroke-width="0.144" x2="28.4627"/>
    <line  stroke="white" stroke-linecap="round" y1="136.8" x1="31.2973" y2="136.8" stroke-width="0.144" x2="34.3351"/>
    <line  stroke="white" stroke-linecap="round" y1="136.8" x1="37.1698" y2="136.8" stroke-width="0.144" x2="40.2075"/>
    <line  stroke="white" stroke-linecap="round" y1="136.8" x1="43.0422" y2="136.8" stroke-width="0.144" x2="46.08"/>
    <line  stroke="white" stroke-linecap="round" y1="124.776" x1="15.12" y2="124.776" stroke-width="0.72" x2="35.28"/>
    <line  stroke="white" stroke-linecap="round" y1="124.776" x1="35.28" y2="129.816" stroke-width="0.72" x2="35.28"/>
    <line  stroke="white" stroke-linecap="round" y1="129.816" x1="35.28" y2="129.816" stroke-width="0.72" x2="37.44"/>
    <line  stroke="white" stroke-linecap="round" y1="129.816" x1="37.44" y2="135.576" stroke-width="0.72" x2="37.44"/>
    <line  stroke="white" stroke-linecap="round" y1="135.576" x1="37.44" y2="135.576" stroke-width="0.72" x2="35.28"/>
    <line  stroke="white" stroke-linecap="round" y1="135.576" x1="35.28" y2="139.176" stroke-width="0.72" x2="35.28"/>
    <line  stroke="white" stroke-linecap="round" y1="139.176" x1="35.28" y2="139.176" stroke-width="0.72" x2="15.12"/>
    <line  stroke="white" stroke-linecap="round" y1="139.176" x1="15.12" y2="135.576" stroke-width="0.72" x2="15.12"/>
    <line  stroke="white" stroke-linecap="round" y1="135.576" x1="15.12" y2="135.576" stroke-width="0.72" x2="12.96"/>
    <line  stroke="white" stroke-linecap="round" y1="135.576" x1="12.96" y2="129.816" stroke-width="0.72" x2="12.96"/>
    <line  stroke="white" stroke-linecap="round" y1="129.816" x1="12.96" y2="129.816" stroke-width="0.72" x2="15.12"/>
    <line  stroke="white" stroke-linecap="round" y1="129.816" x1="15.12" y2="124.776" stroke-width="0.72" x2="15.12"/>
   </g>
  </g>
  <g >
   <title >element:J4</title>
   <g >
    <title >package:2X03</title>
    <line  stroke="white" stroke-linecap="round" y1="25.2" x1="41.4" y2="23.4" stroke-width="0.432" x2="43.2"/>
    <line  stroke="white" stroke-linecap="round" y1="19.8" x1="43.2" y2="18" stroke-width="0.432" x2="41.4"/>
    <line  stroke="white" stroke-linecap="round" y1="18" x1="41.4" y2="16.2" stroke-width="0.432" x2="43.2"/>
    <line  stroke="white" stroke-linecap="round" y1="12.6" x1="43.2" y2="10.8" stroke-width="0.432" x2="41.4"/>
    <line  stroke="white" stroke-linecap="round" y1="25.2" x1="41.4" y2="25.2" stroke-width="0.432" x2="30.6"/>
    <line  stroke="white" stroke-linecap="round" y1="25.2" x1="30.6" y2="23.4" stroke-width="0.432" x2="28.8"/>
    <line  stroke="white" stroke-linecap="round" y1="23.4" x1="28.8" y2="19.8" stroke-width="0.432" x2="28.8"/>
    <line  stroke="white" stroke-linecap="round" y1="19.8" x1="28.8" y2="18" stroke-width="0.432" x2="30.6"/>
    <line  stroke="white" stroke-linecap="round" y1="18" x1="30.6" y2="16.2" stroke-width="0.432" x2="28.8"/>
    <line  stroke="white" stroke-linecap="round" y1="16.2" x1="28.8" y2="12.6" stroke-width="0.432" x2="28.8"/>
    <line  stroke="white" stroke-linecap="round" y1="12.6" x1="28.8" y2="10.8" stroke-width="0.432" x2="30.6"/>
    <line  stroke="white" stroke-linecap="round" y1="18" x1="30.6" y2="18" stroke-width="0.432" x2="41.4"/>
    <line  stroke="white" stroke-linecap="round" y1="10.8" x1="30.6" y2="10.8" stroke-width="0.432" x2="41.4"/>
    <line  stroke="white" stroke-linecap="round" y1="16.2" x1="43.2" y2="12.6" stroke-width="0.432" x2="43.2"/>
    <line  stroke="white" stroke-linecap="round" y1="23.4" x1="43.2" y2="19.8" stroke-width="0.432" x2="43.2"/>
    <line  stroke="white" stroke-linecap="round" y1="10.8" x1="41.4" y2="9" stroke-width="0.432" x2="43.2"/>
    <line  stroke="white" stroke-linecap="round" y1="5.4" x1="43.2" y2="3.6" stroke-width="0.432" x2="41.4"/>
    <line  stroke="white" stroke-linecap="round" y1="10.8" x1="30.6" y2="9" stroke-width="0.432" x2="28.8"/>
    <line  stroke="white" stroke-linecap="round" y1="9" x1="28.8" y2="5.4" stroke-width="0.432" x2="28.8"/>
    <line  stroke="white" stroke-linecap="round" y1="5.4" x1="28.8" y2="3.6" stroke-width="0.432" x2="30.6"/>
    <line  stroke="white" stroke-linecap="round" y1="3.6" x1="30.6" y2="3.6" stroke-width="0.432" x2="41.4"/>
    <line  stroke="white" stroke-linecap="round" y1="9" x1="43.2" y2="5.4" stroke-width="0.432" x2="43.2"/>
   </g>
  </g>
  <g >
   <title >element:J5</title>
   <g >
    <title >package:HEAD17-NOSS</title>
   </g>
  </g>
  <g >
   <title >element:J6</title>
   <g >
    <title >package:HEAD17-NOSS-1</title>
   </g>
  </g>
  <g >
   <title >element:R2</title>
   <g >
    <title >package:R0402</title>
   </g>
  </g>
  <g >
   <title >element:RESET</title>
   <g >
    <title >package:TS42</title>
    <line  stroke="white" stroke-linecap="round" y1="23.1988" x1="9.45072" y2="23.1988" stroke-width="0.36" x2="25.8293"/>
    <line  stroke="white" stroke-linecap="round" y1="6.32126" x1="25.8293" y2="6.32126" stroke-width="0.36" x2="19.0573"/>
    <line  stroke="white" stroke-linecap="round" y1="6.32126" x1="16.2227" y2="6.32126" stroke-width="0.36" x2="9.45072"/>
    <line  stroke="white" stroke-linecap="round" y1="6.32126" x1="19.0573" y2="5.6126" stroke-width="0.36" x2="19.0573"/>
    <line  stroke="white" stroke-linecap="round" y1="5.6126" x1="19.0573" y2="5.6126" stroke-width="0.36" x2="16.2227"/>
    <line  stroke="white" stroke-linecap="round" y1="5.6126" x1="16.2227" y2="6.32126" stroke-width="0.36" x2="16.2227"/>
    <line  stroke="white" stroke-linecap="round" y1="11.9254" x1="25.2624" y2="17.5946" stroke-width="0.36" x2="25.2624"/>
    <line  stroke="white" stroke-linecap="round" y1="17.5946" x1="25.2624" y2="17.5946" stroke-width="0.36" x2="25.8293"/>
    <line  stroke="white" stroke-linecap="round" y1="17.5946" x1="25.8293" y2="17.5946" stroke-width="0.36" x2="26.3962"/>
    <line  stroke="white" stroke-linecap="round" y1="17.5946" x1="26.3962" y2="11.9254" stroke-width="0.36" x2="26.3962"/>
    <line  stroke="white" stroke-linecap="round" y1="11.9254" x1="26.3962" y2="11.9254" stroke-width="0.36" x2="25.8293"/>
    <line  stroke="white" stroke-linecap="round" y1="11.9254" x1="25.8293" y2="11.9254" stroke-width="0.36" x2="25.2624"/>
    <line  stroke="white" stroke-linecap="round" y1="11.9254" x1="8.88379" y2="17.5946" stroke-width="0.36" x2="8.88379"/>
    <line  stroke="white" stroke-linecap="round" y1="17.5946" x1="8.88379" y2="17.5946" stroke-width="0.36" x2="9.45072"/>
    <line  stroke="white" stroke-linecap="round" y1="17.5946" x1="9.45072" y2="17.5946" stroke-width="0.36" x2="10.0176"/>
    <line  stroke="white" stroke-linecap="round" y1="17.5946" x1="10.0176" y2="11.9254" stroke-width="0.36" x2="10.0176"/>
    <line  stroke="white" stroke-linecap="round" y1="11.9254" x1="10.0176" y2="11.9254" stroke-width="0.36" x2="9.45072"/>
    <line  stroke="white" stroke-linecap="round" y1="11.9254" x1="9.45072" y2="11.9254" stroke-width="0.36" x2="8.88379"/>
    <line  stroke="white" stroke-linecap="round" y1="6.32126" x1="25.8293" y2="11.9254" stroke-width="0.36" x2="25.8293"/>
    <line  stroke="white" stroke-linecap="round" y1="17.5946" x1="25.8293" y2="23.1988" stroke-width="0.36" x2="25.8293"/>
    <line  stroke="white" stroke-linecap="round" y1="17.5946" x1="9.45072" y2="23.1988" stroke-width="0.36" x2="9.45072"/>
    <line  stroke="white" stroke-linecap="round" y1="11.9254" x1="9.45072" y2="6.32126" stroke-width="0.36" x2="9.45072"/>
    <circle  fill="none" cx="17.64" cy="14.76" stroke="white" r="4.25197" stroke-width="0.36"/>
    <circle  fill="none" cx="17.64" cy="14.76" stroke="white" r="3.40158" stroke-width="0.36"/>
   </g>
  </g>
  <g >
   <title >element:RX</title>
   <g >
    <title >package:CHIPLED_0805</title>
    <rect  width="0.566929" x="12.3931" y="36.2835" fill="white" height="0.566929" stroke="none" stroke-width="0"/>
   </g>
  </g>
  <g >
   <title >element:T1</title>
   <g >
    <title >package:SOT-23</title>
   </g>
  </g>
  <g >
   <title >element:T2</title>
   <g >
    <title >package:SOT-23</title>
   </g>
  </g>
  <g >
   <title >element:TX</title>
   <g >
    <title >package:CHIPLED_0805</title>
    <rect  width="0.566929" x="12.3931" y="41.6835" fill="white" height="0.566929" stroke="none" stroke-width="0"/>
   </g>
  </g>
  <g >
   <title >element:U1</title>
   <g >
    <title >package:QFN44ML7X7</title>
   </g>
  </g>
  <g >
   <title >element:U2</title>
   <g >
    <title >package:SOT223</title>
   </g>
  </g>
  <g >
   <title >element:U4</title>
   <g >
    <title >package:SOT23-DBV</title>
   </g>
  </g>
  <g >
   <title >element:Y3</title>
   <g >
    <title >package:CRYSTAL-3.2-2.5</title>
    <line  stroke="white" stroke-linecap="round" y1="47.6646" x1="8.69666" y2="47.6646" stroke-width="0.36" x2="15.7833"/>
    <line  stroke="white" stroke-linecap="round" y1="47.6646" x1="15.7833" y2="56.7354" stroke-width="0.36" x2="15.7833"/>
    <line  stroke="white" stroke-linecap="round" y1="56.7354" x1="15.7833" y2="56.7354" stroke-width="0.36" x2="8.69666"/>
    <line  stroke="white" stroke-linecap="round" y1="56.7354" x1="8.69666" y2="47.6646" stroke-width="0.36" x2="8.69666"/>
   </g>
  </g>
  <g >
   <title >element:Z1</title>
   <g >
    <title >package:CT/CN0603</title>
   </g>
  </g>
  <g >
   <title >element:Z2</title>
   <g >
    <title >package:CT/CN0603</title>
   </g>
  </g>
  <line  fill="none" stroke="white" fill-opacity="1" y1="138.888" x1="12.96" y2="138.888" stroke-width="0.576" x2="46.08"/>
  <line  fill="none" stroke="white" fill-opacity="1" y1="138.888" x1="12.96" y2="136.8" stroke-width="0.576" x2="12.96"/>
  <line  fill="none" stroke="white" fill-opacity="1" y1="138.888" x1="46.08" y2="136.8" stroke-width="0.576" x2="46.08"/>
 </g>
 <g  id="copper1">
  <g  id="copper0">
   <circle  fill="none" cx="39.6" cy="21.6" connectorname="MISO" stroke="#F7BD13" r="1.77846" id="connector41pad" stroke-width="0.864"/>
   <circle  fill="none" cx="32.4" cy="21.6" connectorname="+5V" stroke="#F7BD13" r="1.77846" id="connector42pad" stroke-width="0.864"/>
   <circle  fill="none" cx="39.6" cy="14.4" connectorname="SCK" stroke="#F7BD13" r="1.77846" id="connector43pad" stroke-width="0.864"/>
   <circle  fill="none" cx="32.4" cy="14.4" connectorname="MOSI" stroke="#F7BD13" r="1.77846" id="connector44pad" stroke-width="0.864"/>
   <circle  fill="none" cx="39.6" cy="7.2" connectorname="RESET" stroke="#F7BD13" r="1.77846" id="connector45pad" stroke-width="0.864"/>
   <circle  fill="none" cx="32.4" cy="7.2" connectorname="GND" stroke="#F7BD13" r="1.77846" id="connector46pad" stroke-width="0.864"/>
   <circle  fill="none" cx="3.6" cy="10.8" connectorname="MOSI" stroke="#F7BD13" r="1.764" id="connector47pad" stroke-width="0.936"/>
   <rect  width="3.528" x="1.836" y="9.036" fill="none" height="3.528" stroke="#F7BD13" stroke-width="0.936"/>
   <circle  fill="none" cx="3.6" cy="18" connectorname="RXLED/SS" stroke="#F7BD13" r="1.764" id="connector48pad" stroke-width="0.936"/>
   <circle  fill="none" cx="3.6" cy="25.2" connectorname="D1/TX" stroke="#F7BD13" r="1.764" id="connector49pad" stroke-width="0.936"/>
   <circle  fill="none" cx="3.6" cy="32.4" connectorname="D0/RX" stroke="#F7BD13" r="1.764" id="connector50pad" stroke-width="0.936"/>
   <circle  fill="none" cx="3.6" cy="39.6" connectorname="RESET" stroke="#F7BD13" r="1.764" id="connector51pad" stroke-width="0.936"/>
   <circle  fill="none" cx="3.6" cy="46.8" connectorname="GND" stroke="#F7BD13" r="1.764" id="connector52pad" stroke-width="0.936"/>
   <circle  fill="none" cx="3.6" cy="54" connectorname="D2/SDA" stroke="#F7BD13" r="1.764" id="connector53pad" stroke-width="0.936"/>
   <circle  fill="none" cx="3.6" cy="61.2" connectorname="D3/SCL" stroke="#F7BD13" r="1.764" id="connector54pad" stroke-width="0.936"/>
   <circle  fill="none" cx="3.6" cy="68.4" connectorname="D4*" stroke="#F7BD13" r="1.764" id="connector55pad" stroke-width="0.936"/>
   <circle  fill="none" cx="3.6" cy="75.6" connectorname="D5*" stroke="#F7BD13" r="1.764" id="connector56pad" stroke-width="0.936"/>
   <circle  fill="none" cx="3.6" cy="82.8" connectorname="D6*" stroke="#F7BD13" r="1.764" id="connector57pad" stroke-width="0.936"/>
   <circle  fill="none" cx="3.6" cy="90" connectorname="D7" stroke="#F7BD13" r="1.764" id="connector58pad" stroke-width="0.936"/>
   <circle  fill="none" cx="3.6" cy="97.2" connectorname="IO8" stroke="#F7BD13" r="1.764" id="connector59pad" stroke-width="0.936"/>
   <circle  fill="none" cx="3.6" cy="104.4" connectorname="IO9*" stroke="#F7BD13" r="1.764" id="connector60pad" stroke-width="0.936"/>
   <circle  fill="none" cx="3.6" cy="111.6" connectorname="IO10*" stroke="#F7BD13" r="1.764" id="connector61pad" stroke-width="0.936"/>
   <circle  fill="none" cx="3.6" cy="118.8" connectorname="IO11*" stroke="#F7BD13" r="1.764" id="connector62pad" stroke-width="0.936"/>
   <circle  fill="none" cx="3.6" cy="126" connectorname="IO12*" stroke="#F7BD13" r="1.764" id="connector63pad" stroke-width="0.936"/>
   <circle  fill="none" cx="46.8" cy="10.8" connectorname="SCK" stroke="#F7BD13" r="1.764" id="connector64pad" stroke-width="0.936"/>
   <circle  fill="none" cx="46.8" cy="18" connectorname="MISO" stroke="#F7BD13" r="1.764" id="connector65pad" stroke-width="0.936"/>
   <circle  fill="none" cx="46.8" cy="25.2" connectorname="VIN" stroke="#F7BD13" r="1.764" id="connector66pad" stroke-width="0.936"/>
   <circle  fill="none" cx="46.8" cy="32.4" connectorname="GND" stroke="#F7BD13" r="1.764" id="connector67pad" stroke-width="0.936"/>
   <circle  fill="none" cx="46.8" cy="39.6" connectorname="RESET" stroke="#F7BD13" r="1.764" id="connector68pad" stroke-width="0.936"/>
   <circle  fill="none" cx="46.8" cy="46.8" connectorname="+5V" stroke="#F7BD13" r="1.764" id="connector69pad" stroke-width="0.936"/>
   <circle  fill="none" cx="46.8" cy="68.4" connectorname="A5" stroke="#F7BD13" r="1.764" id="connector72pad" stroke-width="0.936"/>
   <circle  fill="none" cx="46.8" cy="75.6" connectorname="A4" stroke="#F7BD13" r="1.764" id="connector73pad" stroke-width="0.936"/>
   <circle  fill="none" cx="46.8" cy="82.8" connectorname="A3" stroke="#F7BD13" r="1.764" id="connector74pad" stroke-width="0.936"/>
   <circle  fill="none" cx="46.8" cy="90" connectorname="A2" stroke="#F7BD13" r="1.764" id="connector75pad" stroke-width="0.936"/>
   <circle  fill="none" cx="46.8" cy="97.2" connectorname="A1" stroke="#F7BD13" r="1.764" id="connector76pad" stroke-width="0.936"/>
   <circle  fill="none" cx="46.8" cy="104.4" connectorname="A0" stroke="#F7BD13" r="1.764" id="connector77pad" stroke-width="0.936"/>
   <circle  fill="none" cx="46.8" cy="111.6" connectorname="AREF" stroke="#F7BD13" r="1.764" id="connector78pad" stroke-width="0.936"/>
   <circle  fill="none" cx="46.8" cy="118.8" connectorname="3V3" stroke="#F7BD13" r="1.764" id="connector79pad" stroke-width="0.936"/>
   <circle  fill="none" cx="46.8" cy="126" connectorname="IO13*" stroke="#F7BD13" r="1.764" id="connector80pad" stroke-width="0.936"/>
  </g>
 </g>
</svg>
