<?xml version='1.0' encoding='UTF-8' standalone='no'?>
<!-- Created with Fritzing (http://www.fritzing.org/) -->
<svg xmlns="http://www.w3.org/2000/svg"  width="0.7in" x="0in" version="1.2" y="0in" height="1.772in" viewBox="0 0 50.4 127.584" baseProfile="tiny">
 <desc >Fritzing footprint generated by brd2svg</desc>
 <g  id="silkscreen">
  <path  fill="none" stroke="white" stroke-width="0.576" d="M0.288,122.136L50.112,122.136L50.112,0.288L0.288,0.288L0.288,122.136M30.5728,110.604a0.864,0.864,0,1,1,1.728,0,0.864,0.864,0,1,1,-1.728,0zM18.1004,110.604a0.864,0.864,0,1,1,1.728,0,0.864,0.864,0,1,1,-1.728,0zM1.548,118.8a2.052,2.052,0,1,1,4.104,0,2.052,2.052,0,1,1,-4.104,0zM44.748,118.8a2.052,2.052,0,1,1,4.104,0,2.052,2.052,0,1,1,-4.104,0zM44.748,3.6a2.052,2.052,0,1,1,4.104,0,2.052,2.052,0,1,1,-4.104,0zM1.548,3.6a2.052,2.052,0,1,1,4.104,0,2.052,2.052,0,1,1,-4.104,0z"/>
  <line  stroke="white" stroke-linecap="round" y1="12.168" x1="12.168" y2="10.872" stroke-width="1.152" x2="10.584"/>
  <line  stroke="white" stroke-linecap="round" y1="10.872" x1="10.584" y2="9.576" stroke-width="1.152" x2="12.168"/>
  <line  stroke="white" stroke-linecap="round" y1="9.576" x1="12.168" y2="12.168" stroke-width="1.152" x2="12.168"/>
  <line  stroke="white" stroke-linecap="round" y1="16.704" x1="10.584" y2="18" stroke-width="1.152" x2="12.168"/>
  <line  stroke="white" stroke-linecap="round" y1="16.704" x1="10.584" y2="19.296" stroke-width="1.152" x2="10.584"/>
  <line  stroke="white" stroke-linecap="round" y1="19.296" x1="10.584" y2="18" stroke-width="1.152" x2="12.168"/>
  <line  stroke="white" stroke-linecap="round" y1="11.448" x1="11.52" y2="10.44" stroke-width="1.152" x2="11.52"/>
  <line  stroke="white" stroke-linecap="round" y1="18.72" x1="11.16" y2="17.496" stroke-width="1.152" x2="11.16"/>
  <g >
   <title >element:J1</title>
   <g >
    <title >package:HEAD15-NOSS</title>
   </g>
  </g>
  <g >
   <title >element:J2</title>
   <g >
    <title >package:HEAD15-NOSS-1</title>
   </g>
  </g>
  <g >
   <title >element:J3</title>
   <g >
    <title >package:USB-MINI-B_2</title>
    <line  stroke="white" stroke-linecap="round" y1="122.184" x1="29.736" y2="122.184" stroke-width="0.36" x2="20.736"/>
   </g>
  </g>
  <g >
   <title >element:J4</title>
   <g >
    <title >package:HEAD3X2</title>
    <line  stroke="white" stroke-linecap="round" y1="0.288" x1="36" y2="14.688" stroke-width="0.576" x2="36"/>
    <line  stroke="white" stroke-linecap="round" y1="14.688" x1="36" y2="14.688" stroke-width="0.576" x2="14.4"/>
    <line  stroke="white" stroke-linecap="round" y1="14.688" x1="14.4" y2="0.288" stroke-width="0.576" x2="14.4"/>
    <line  stroke="white" stroke-linecap="round" y1="0.288" x1="14.4" y2="0.288" stroke-width="0.576" x2="36"/>
   </g>
  </g>
  <g >
   <title >element:U1</title>
   <g >
    <title >package:QFP032</title>
    <circle  fill="none" cx="25.043" cy="61.9998" stroke="white" r="1.13839" stroke-width="0.576"/>
   </g>
  </g>
  <g >
   <title >element:U2</title>
   <g >
    <title >package:SSOP28</title>
   </g>
  </g>
  <g >
   <title >element:U3</title>
   <g >
    <title >package:SOT223</title>
   </g>
  </g>
  <line  fill="none" stroke="white" fill-opacity="1" y1="127.296" x1="9.216" y2="127.296" stroke-width="0.576" x2="41.256"/>
  <line  fill="none" stroke="white" fill-opacity="1" y1="127.296" x1="9.216" y2="122.4" stroke-width="0.576" x2="9.216"/>
  <line  fill="none" stroke="white" fill-opacity="1" y1="127.296" x1="41.256" y2="122.4" stroke-width="0.576" x2="41.256"/>
 </g>
 <g  id="copper1">
  <g  id="copper0">
   <circle  fill="none" cx="3.6" cy="10.8" connectorname="D1/TX" stroke="#F7BD13" r="1.908" id="connector16pad" stroke-width="1.224"/>
   <rect  width="3.816" x="1.692" y="8.892" fill="none" height="3.816" stroke="#F7BD13" stroke-width="1.224"/>
   <circle  fill="none" cx="3.6" cy="18" connectorname="D0/RX" stroke="#F7BD13" r="1.908" id="connector17pad" stroke-width="1.224"/>
   <circle  fill="none" cx="3.6" cy="25.2" connectorname="RESET" stroke="#F7BD13" r="1.908" id="connector18pad" stroke-width="1.224"/>
   <circle  fill="none" cx="3.6" cy="32.4" connectorname="COM" stroke="#F7BD13" r="1.908" id="connector19pad" stroke-width="1.224"/>
   <circle  fill="none" cx="3.6" cy="39.6" connectorname="D2" stroke="#F7BD13" r="1.908" id="connector20pad" stroke-width="1.224"/>
   <circle  fill="none" cx="3.6" cy="46.8" connectorname="D3" stroke="#F7BD13" r="1.908" id="connector21pad" stroke-width="1.224"/>
   <circle  fill="none" cx="3.6" cy="54" connectorname="D4" stroke="#F7BD13" r="1.908" id="connector22pad" stroke-width="1.224"/>
   <circle  fill="none" cx="3.6" cy="61.2" connectorname="D5" stroke="#F7BD13" r="1.908" id="connector23pad" stroke-width="1.224"/>
   <circle  fill="none" cx="3.6" cy="68.4" connectorname="D6" stroke="#F7BD13" r="1.908" id="connector24pad" stroke-width="1.224"/>
   <circle  fill="none" cx="3.6" cy="75.6" connectorname="D7" stroke="#F7BD13" r="1.908" id="connector25pad" stroke-width="1.224"/>
   <circle  fill="none" cx="3.6" cy="82.8" connectorname="D8" stroke="#F7BD13" r="1.908" id="connector26pad" stroke-width="1.224"/>
   <circle  fill="none" cx="3.6" cy="90" connectorname="D9" stroke="#F7BD13" r="1.908" id="connector27pad" stroke-width="1.224"/>
   <circle  fill="none" cx="3.6" cy="97.2" connectorname="D10" stroke="#F7BD13" r="1.908" id="connector28pad" stroke-width="1.224"/>
   <circle  fill="none" cx="3.6" cy="104.4" connectorname="D11/MOSI" stroke="#F7BD13" r="1.908" id="connector29pad" stroke-width="1.224"/>
   <circle  fill="none" cx="3.6" cy="111.6" connectorname="D12/MISO" stroke="#F7BD13" r="1.908" id="connector30pad" stroke-width="1.224"/>
   <circle  fill="none" cx="46.8" cy="10.8" connectorname="VIN" stroke="#F7BD13" r="1.908" id="connector31pad" stroke-width="1.224"/>
   <circle  fill="none" cx="46.8" cy="18" connectorname="COM" stroke="#F7BD13" r="1.908" id="connector32pad" stroke-width="1.224"/>
   <circle  fill="none" cx="46.8" cy="25.2" connectorname="RESET" stroke="#F7BD13" r="1.908" id="connector33pad" stroke-width="1.224"/>
   <circle  fill="none" cx="46.8" cy="32.4" connectorname="+5V" stroke="#F7BD13" r="1.908" id="connector34pad" stroke-width="1.224"/>
   <circle  fill="none" cx="46.8" cy="39.6" connectorname="A7" stroke="#F7BD13" r="1.908" id="connector35pad" stroke-width="1.224"/>
   <circle  fill="none" cx="46.8" cy="46.8" connectorname="A6" stroke="#F7BD13" r="1.908" id="connector36pad" stroke-width="1.224"/>
   <circle  fill="none" cx="46.8" cy="54" connectorname="A5" stroke="#F7BD13" r="1.908" id="connector37pad" stroke-width="1.224"/>
   <circle  fill="none" cx="46.8" cy="61.2" connectorname="A4" stroke="#F7BD13" r="1.908" id="connector38pad" stroke-width="1.224"/>
   <circle  fill="none" cx="46.8" cy="68.4" connectorname="A3" stroke="#F7BD13" r="1.908" id="connector39pad" stroke-width="1.224"/>
   <circle  fill="none" cx="46.8" cy="75.6" connectorname="A2" stroke="#F7BD13" r="1.908" id="connector40pad" stroke-width="1.224"/>
   <circle  fill="none" cx="46.8" cy="82.8" connectorname="A1" stroke="#F7BD13" r="1.908" id="connector41pad" stroke-width="1.224"/>
   <circle  fill="none" cx="46.8" cy="90" connectorname="A0" stroke="#F7BD13" r="1.908" id="connector42pad" stroke-width="1.224"/>
   <circle  fill="none" cx="46.8" cy="97.2" connectorname="AREF" stroke="#F7BD13" r="1.908" id="connector43pad" stroke-width="1.224"/>
   <circle  fill="none" cx="46.8" cy="104.4" connectorname="3V3" stroke="#F7BD13" r="1.908" id="connector44pad" stroke-width="1.224"/>
   <circle  fill="none" cx="46.8" cy="111.6" connectorname="D13/SCK" stroke="#F7BD13" r="1.908" id="connector45pad" stroke-width="1.224"/>
   <circle  fill="none" cx="32.4" cy="3.888" connectorname="D12/MISO" stroke="#F7BD13" r="1.908" id="connector55pad" stroke-width="1.224"/>
   <rect  width="3.816" x="30.492" y="1.98" fill="none" height="3.816" stroke="#F7BD13" stroke-width="1.224"/>
   <circle  fill="none" cx="32.4" cy="11.088" connectorname="+5V" stroke="#F7BD13" r="1.908" id="connector56pad" stroke-width="1.224"/>
   <circle  fill="none" cx="25.2" cy="3.888" connectorname="D13/SCK" stroke="#F7BD13" r="1.908" id="connector57pad" stroke-width="1.224"/>
   <circle  fill="none" cx="25.2" cy="11.088" connectorname="D11/MOSI" stroke="#F7BD13" r="1.908" id="connector58pad" stroke-width="1.224"/>
   <circle  fill="none" cx="18" cy="3.888" connectorname="RESET" stroke="#F7BD13" r="1.908" id="connector59pad" stroke-width="1.224"/>
   <circle  fill="none" cx="18" cy="11.088" connectorname="COM" stroke="#F7BD13" r="1.908" id="connector60pad" stroke-width="1.224"/>
  </g>
 </g>
</svg>
