<?xml version="1.0" encoding="utf-8"?>
<!-- Generator: Adobe Illustrator 16.0.0, SVG Export Plug-In . SVG Version: 6.00 Build 0)  -->
<!DOCTYPE svg PUBLIC "-//W3C//DTD SVG 1.1//EN" "http://www.w3.org/Graphics/SVG/1.1/DTD/svg11.dtd">
<svg version="1.1" id="_x30_" xmlns:xml="http://www.w3.org/XML/1998/namespace"
	 xmlns="http://www.w3.org/2000/svg" xmlns:xlink="http://www.w3.org/1999/xlink" x="0px" y="0px" width="148.354px"
	 height="151.583px" viewBox="0 0 148.354 151.583" enable-background="new 0 0 148.354 151.583" xml:space="preserve">
<g id="silkscreen">
	<path id="_x30_.2.0" fill="none" stroke="#FFFFFF" stroke-width="0.576" d="M0.713,0.288v150.645h139.882v-7.174l7.172-7.175
		V43.329l-7.172-7.173V3.875l-3.586-3.586L0.713,0.288"/>
	<g id="_x30_.2.6">
		<title  oldid="0.2.6.0" id="0.2.6.0">element:B1</title>
		<g id="_x30_.2.6.1">
			<title  oldid="0.2.6.1.0" id="0.2.6.1.0">package:BUZZER-12MM-NS</title>
		</g>
	</g>
	<g id="_x30_.2.7">
		<title  oldid="0.2.7.0" id="0.2.7.0">element:J1</title>
		<g id="_x30_.2.7.1">
			<title  oldid="0.2.7.1.0" id="0.2.7.1.0">package:1X08</title>
			
				<line id="_x30_.2.7.1.1" fill="none" stroke="#FFFFFF" stroke-width="0.576" stroke-linecap="round" x1="92.256" y1="10.8" x2="88.656" y2="10.8"/>
			
				<line id="_x30_.2.7.1.2" fill="none" stroke="#FFFFFF" stroke-width="0.576" stroke-linecap="round" x1="88.656" y1="10.8" x2="86.855" y2="9"/>
			
				<line id="_x30_.2.7.1.3" fill="none" stroke="#FFFFFF" stroke-width="0.576" stroke-linecap="round" x1="86.855" y1="5.4" x2="88.656" y2="3.6"/>
			
				<line id="_x30_.2.7.1.4" fill="none" stroke="#FFFFFF" stroke-width="0.576" stroke-linecap="round" x1="101.256" y1="9" x2="99.455" y2="10.8"/>
			
				<line id="_x30_.2.7.1.5" fill="none" stroke="#FFFFFF" stroke-width="0.576" stroke-linecap="round" x1="99.455" y1="10.8" x2="95.854" y2="10.8"/>
			
				<line id="_x30_.2.7.1.6" fill="none" stroke="#FFFFFF" stroke-width="0.576" stroke-linecap="round" x1="95.854" y1="10.8" x2="94.057" y2="9"/>
			
				<line id="_x30_.2.7.1.7" fill="none" stroke="#FFFFFF" stroke-width="0.576" stroke-linecap="round" x1="94.057" y1="5.4" x2="95.854" y2="3.6"/>
			
				<line id="_x30_.2.7.1.8" fill="none" stroke="#FFFFFF" stroke-width="0.576" stroke-linecap="round" x1="95.854" y1="3.6" x2="99.455" y2="3.6"/>
			
				<line id="_x30_.2.7.1.9" fill="none" stroke="#FFFFFF" stroke-width="0.576" stroke-linecap="round" x1="99.455" y1="3.6" x2="101.256" y2="5.4"/>
			
				<line id="_x30_.2.7.1.10" fill="none" stroke="#FFFFFF" stroke-width="0.576" stroke-linecap="round" x1="92.256" y1="10.8" x2="94.057" y2="9"/>
			
				<line id="_x30_.2.7.1.11" fill="none" stroke="#FFFFFF" stroke-width="0.576" stroke-linecap="round" x1="94.057" y1="5.4" x2="92.256" y2="3.6"/>
			
				<line id="_x30_.2.7.1.12" fill="none" stroke="#FFFFFF" stroke-width="0.576" stroke-linecap="round" x1="88.656" y1="3.6" x2="92.256" y2="3.6"/>
			
				<line id="_x30_.2.7.1.13" fill="none" stroke="#FFFFFF" stroke-width="0.576" stroke-linecap="round" x1="113.854" y1="10.8" x2="110.256" y2="10.8"/>
			
				<line id="_x30_.2.7.1.14" fill="none" stroke="#FFFFFF" stroke-width="0.576" stroke-linecap="round" x1="110.256" y1="10.8" x2="108.455" y2="9"/>
			
				<line id="_x30_.2.7.1.15" fill="none" stroke="#FFFFFF" stroke-width="0.576" stroke-linecap="round" x1="108.455" y1="5.4" x2="110.256" y2="3.6"/>
			
				<line id="_x30_.2.7.1.16" fill="none" stroke="#FFFFFF" stroke-width="0.576" stroke-linecap="round" x1="108.455" y1="9" x2="106.656" y2="10.8"/>
			
				<line id="_x30_.2.7.1.17" fill="none" stroke="#FFFFFF" stroke-width="0.576" stroke-linecap="round" x1="106.656" y1="10.8" x2="103.057" y2="10.8"/>
			
				<line id="_x30_.2.7.1.18" fill="none" stroke="#FFFFFF" stroke-width="0.576" stroke-linecap="round" x1="103.057" y1="10.8" x2="101.256" y2="9"/>
			
				<line id="_x30_.2.7.1.19" fill="none" stroke="#FFFFFF" stroke-width="0.576" stroke-linecap="round" x1="101.256" y1="5.4" x2="103.057" y2="3.6"/>
			
				<line id="_x30_.2.7.1.20" fill="none" stroke="#FFFFFF" stroke-width="0.576" stroke-linecap="round" x1="103.057" y1="3.6" x2="106.656" y2="3.6"/>
			
				<line id="_x30_.2.7.1.21" fill="none" stroke="#FFFFFF" stroke-width="0.576" stroke-linecap="round" x1="106.656" y1="3.6" x2="108.455" y2="5.4"/>
			
				<line id="_x30_.2.7.1.22" fill="none" stroke="#FFFFFF" stroke-width="0.576" stroke-linecap="round" x1="122.854" y1="9" x2="121.057" y2="10.8"/>
			
				<line id="_x30_.2.7.1.23" fill="none" stroke="#FFFFFF" stroke-width="0.576" stroke-linecap="round" x1="121.057" y1="10.8" x2="117.455" y2="10.8"/>
			
				<line id="_x30_.2.7.1.24" fill="none" stroke="#FFFFFF" stroke-width="0.576" stroke-linecap="round" x1="117.455" y1="10.8" x2="115.656" y2="9"/>
			
				<line id="_x30_.2.7.1.25" fill="none" stroke="#FFFFFF" stroke-width="0.576" stroke-linecap="round" x1="115.656" y1="5.4" x2="117.455" y2="3.6"/>
			
				<line id="_x30_.2.7.1.26" fill="none" stroke="#FFFFFF" stroke-width="0.576" stroke-linecap="round" x1="117.455" y1="3.6" x2="121.057" y2="3.6"/>
			
				<line id="_x30_.2.7.1.27" fill="none" stroke="#FFFFFF" stroke-width="0.576" stroke-linecap="round" x1="121.057" y1="3.6" x2="122.854" y2="5.4"/>
			
				<line id="_x30_.2.7.1.28" fill="none" stroke="#FFFFFF" stroke-width="0.576" stroke-linecap="round" x1="113.854" y1="10.8" x2="115.656" y2="9"/>
			
				<line id="_x30_.2.7.1.29" fill="none" stroke="#FFFFFF" stroke-width="0.576" stroke-linecap="round" x1="115.656" y1="5.4" x2="113.854" y2="3.6"/>
			
				<line id="_x30_.2.7.1.30" fill="none" stroke="#FFFFFF" stroke-width="0.576" stroke-linecap="round" x1="110.256" y1="3.6" x2="113.854" y2="3.6"/>
			
				<line id="_x30_.2.7.1.31" fill="none" stroke="#FFFFFF" stroke-width="0.576" stroke-linecap="round" x1="135.455" y1="10.8" x2="131.854" y2="10.8"/>
			
				<line id="_x30_.2.7.1.32" fill="none" stroke="#FFFFFF" stroke-width="0.576" stroke-linecap="round" x1="131.854" y1="10.8" x2="130.057" y2="9"/>
			
				<line id="_x30_.2.7.1.33" fill="none" stroke="#FFFFFF" stroke-width="0.576" stroke-linecap="round" x1="130.057" y1="5.4" x2="131.854" y2="3.6"/>
			
				<line id="_x30_.2.7.1.34" fill="none" stroke="#FFFFFF" stroke-width="0.576" stroke-linecap="round" x1="130.057" y1="9" x2="128.256" y2="10.8"/>
			
				<line id="_x30_.2.7.1.35" fill="none" stroke="#FFFFFF" stroke-width="0.576" stroke-linecap="round" x1="128.256" y1="10.8" x2="124.656" y2="10.8"/>
			
				<line id="_x30_.2.7.1.36" fill="none" stroke="#FFFFFF" stroke-width="0.576" stroke-linecap="round" x1="124.656" y1="10.8" x2="122.854" y2="9"/>
			
				<line id="_x30_.2.7.1.37" fill="none" stroke="#FFFFFF" stroke-width="0.576" stroke-linecap="round" x1="122.854" y1="5.4" x2="124.656" y2="3.6"/>
			
				<line id="_x30_.2.7.1.38" fill="none" stroke="#FFFFFF" stroke-width="0.576" stroke-linecap="round" x1="124.656" y1="3.6" x2="128.256" y2="3.6"/>
			
				<line id="_x30_.2.7.1.39" fill="none" stroke="#FFFFFF" stroke-width="0.576" stroke-linecap="round" x1="128.256" y1="3.6" x2="130.057" y2="5.4"/>
			
				<line id="_x30_.2.7.1.40" fill="none" stroke="#FFFFFF" stroke-width="0.576" stroke-linecap="round" x1="137.256" y1="9" x2="137.256" y2="5.4"/>
			
				<line id="_x30_.2.7.1.41" fill="none" stroke="#FFFFFF" stroke-width="0.576" stroke-linecap="round" x1="135.455" y1="10.8" x2="137.256" y2="9"/>
			
				<line id="_x30_.2.7.1.42" fill="none" stroke="#FFFFFF" stroke-width="0.576" stroke-linecap="round" x1="137.256" y1="5.4" x2="135.455" y2="3.6"/>
			
				<line id="_x30_.2.7.1.43" fill="none" stroke="#FFFFFF" stroke-width="0.576" stroke-linecap="round" x1="131.854" y1="3.6" x2="135.455" y2="3.6"/>
			
				<line id="_x30_.2.7.1.44" fill="none" stroke="#FFFFFF" stroke-width="0.576" stroke-linecap="round" x1="85.057" y1="10.8" x2="81.457" y2="10.8"/>
			
				<line id="_x30_.2.7.1.45" fill="none" stroke="#FFFFFF" stroke-width="0.576" stroke-linecap="round" x1="81.457" y1="10.8" x2="79.656" y2="9"/>
			
				<line id="_x30_.2.7.1.46" fill="none" stroke="#FFFFFF" stroke-width="0.576" stroke-linecap="round" x1="79.656" y1="9" x2="79.656" y2="5.4"/>
			
				<line id="_x30_.2.7.1.47" fill="none" stroke="#FFFFFF" stroke-width="0.576" stroke-linecap="round" x1="79.656" y1="5.4" x2="81.457" y2="3.6"/>
			
				<line id="_x30_.2.7.1.48" fill="none" stroke="#FFFFFF" stroke-width="0.576" stroke-linecap="round" x1="85.057" y1="10.8" x2="86.855" y2="9"/>
			
				<line id="_x30_.2.7.1.49" fill="none" stroke="#FFFFFF" stroke-width="0.576" stroke-linecap="round" x1="86.855" y1="5.4" x2="85.057" y2="3.6"/>
			
				<line id="_x30_.2.7.1.50" fill="none" stroke="#FFFFFF" stroke-width="0.576" stroke-linecap="round" x1="81.457" y1="3.6" x2="85.057" y2="3.6"/>
		</g>
	</g>
	<g id="_x30_.2.8">
		<title  oldid="0.2.8.0" id="0.2.8.0">element:J2</title>
		<g id="_x30_.2.8.1">
			<title  oldid="0.2.8.1.0" id="0.2.8.1.0">package:1X06</title>
			
				<line id="_x30_.2.8.1.1" fill="none" stroke="#FFFFFF" stroke-width="0.576" stroke-linecap="round" x1="130.057" y1="142.2" x2="131.854" y2="140.4"/>
			
				<line id="_x30_.2.8.1.2" fill="none" stroke="#FFFFFF" stroke-width="0.576" stroke-linecap="round" x1="131.854" y1="140.4" x2="135.455" y2="140.4"/>
			
				<line id="_x30_.2.8.1.3" fill="none" stroke="#FFFFFF" stroke-width="0.576" stroke-linecap="round" x1="135.455" y1="140.4" x2="137.256" y2="142.2"/>
			
				<line id="_x30_.2.8.1.4" fill="none" stroke="#FFFFFF" stroke-width="0.576" stroke-linecap="round" x1="137.256" y1="145.799" x2="135.455" y2="147.6"/>
			
				<line id="_x30_.2.8.1.5" fill="none" stroke="#FFFFFF" stroke-width="0.576" stroke-linecap="round" x1="135.455" y1="147.6" x2="131.854" y2="147.6"/>
			
				<line id="_x30_.2.8.1.6" fill="none" stroke="#FFFFFF" stroke-width="0.576" stroke-linecap="round" x1="131.854" y1="147.6" x2="130.057" y2="145.799"/>
			
				<line id="_x30_.2.8.1.7" fill="none" stroke="#FFFFFF" stroke-width="0.576" stroke-linecap="round" x1="117.455" y1="140.4" x2="121.057" y2="140.4"/>
			
				<line id="_x30_.2.8.1.8" fill="none" stroke="#FFFFFF" stroke-width="0.576" stroke-linecap="round" x1="121.057" y1="140.4" x2="122.854" y2="142.2"/>
			
				<line id="_x30_.2.8.1.9" fill="none" stroke="#FFFFFF" stroke-width="0.576" stroke-linecap="round" x1="122.854" y1="145.799" x2="121.057" y2="147.6"/>
			
				<line id="_x30_.2.8.1.10" fill="none" stroke="#FFFFFF" stroke-width="0.576" stroke-linecap="round" x1="122.854" y1="142.2" x2="124.656" y2="140.4"/>
			
				<line id="_x30_.2.8.1.11" fill="none" stroke="#FFFFFF" stroke-width="0.576" stroke-linecap="round" x1="124.656" y1="140.4" x2="128.256" y2="140.4"/>
			
				<line id="_x30_.2.8.1.12" fill="none" stroke="#FFFFFF" stroke-width="0.576" stroke-linecap="round" x1="128.256" y1="140.4" x2="130.057" y2="142.2"/>
			
				<line id="_x30_.2.8.1.13" fill="none" stroke="#FFFFFF" stroke-width="0.576" stroke-linecap="round" x1="130.057" y1="145.799" x2="128.256" y2="147.6"/>
			
				<line id="_x30_.2.8.1.14" fill="none" stroke="#FFFFFF" stroke-width="0.576" stroke-linecap="round" x1="128.256" y1="147.6" x2="124.656" y2="147.6"/>
			
				<line id="_x30_.2.8.1.15" fill="none" stroke="#FFFFFF" stroke-width="0.576" stroke-linecap="round" x1="124.656" y1="147.6" x2="122.854" y2="145.799"/>
			
				<line id="_x30_.2.8.1.16" fill="none" stroke="#FFFFFF" stroke-width="0.576" stroke-linecap="round" x1="108.455" y1="142.2" x2="110.256" y2="140.4"/>
			
				<line id="_x30_.2.8.1.17" fill="none" stroke="#FFFFFF" stroke-width="0.576" stroke-linecap="round" x1="110.256" y1="140.4" x2="113.854" y2="140.4"/>
			
				<line id="_x30_.2.8.1.18" fill="none" stroke="#FFFFFF" stroke-width="0.576" stroke-linecap="round" x1="113.854" y1="140.4" x2="115.656" y2="142.2"/>
			
				<line id="_x30_.2.8.1.19" fill="none" stroke="#FFFFFF" stroke-width="0.576" stroke-linecap="round" x1="115.656" y1="145.799" x2="113.854" y2="147.6"/>
			
				<line id="_x30_.2.8.1.20" fill="none" stroke="#FFFFFF" stroke-width="0.576" stroke-linecap="round" x1="113.854" y1="147.6" x2="110.256" y2="147.6"/>
			
				<line id="_x30_.2.8.1.21" fill="none" stroke="#FFFFFF" stroke-width="0.576" stroke-linecap="round" x1="110.256" y1="147.6" x2="108.455" y2="145.799"/>
			
				<line id="_x30_.2.8.1.22" fill="none" stroke="#FFFFFF" stroke-width="0.576" stroke-linecap="round" x1="117.455" y1="140.4" x2="115.656" y2="142.2"/>
			
				<line id="_x30_.2.8.1.23" fill="none" stroke="#FFFFFF" stroke-width="0.576" stroke-linecap="round" x1="115.656" y1="145.799" x2="117.455" y2="147.6"/>
			
				<line id="_x30_.2.8.1.24" fill="none" stroke="#FFFFFF" stroke-width="0.576" stroke-linecap="round" x1="121.057" y1="147.6" x2="117.455" y2="147.6"/>
			
				<line id="_x30_.2.8.1.25" fill="none" stroke="#FFFFFF" stroke-width="0.576" stroke-linecap="round" x1="95.854" y1="140.4" x2="99.455" y2="140.4"/>
			
				<line id="_x30_.2.8.1.26" fill="none" stroke="#FFFFFF" stroke-width="0.576" stroke-linecap="round" x1="99.455" y1="140.4" x2="101.256" y2="142.2"/>
			
				<line id="_x30_.2.8.1.27" fill="none" stroke="#FFFFFF" stroke-width="0.576" stroke-linecap="round" x1="101.256" y1="145.799" x2="99.455" y2="147.6"/>
			
				<line id="_x30_.2.8.1.28" fill="none" stroke="#FFFFFF" stroke-width="0.576" stroke-linecap="round" x1="101.256" y1="142.2" x2="103.057" y2="140.4"/>
			
				<line id="_x30_.2.8.1.29" fill="none" stroke="#FFFFFF" stroke-width="0.576" stroke-linecap="round" x1="103.057" y1="140.4" x2="106.656" y2="140.4"/>
			
				<line id="_x30_.2.8.1.30" fill="none" stroke="#FFFFFF" stroke-width="0.576" stroke-linecap="round" x1="106.656" y1="140.4" x2="108.455" y2="142.2"/>
			
				<line id="_x30_.2.8.1.31" fill="none" stroke="#FFFFFF" stroke-width="0.576" stroke-linecap="round" x1="108.455" y1="145.799" x2="106.656" y2="147.6"/>
			
				<line id="_x30_.2.8.1.32" fill="none" stroke="#FFFFFF" stroke-width="0.576" stroke-linecap="round" x1="106.656" y1="147.6" x2="103.057" y2="147.6"/>
			
				<line id="_x30_.2.8.1.33" fill="none" stroke="#FFFFFF" stroke-width="0.576" stroke-linecap="round" x1="103.057" y1="147.6" x2="101.256" y2="145.799"/>
			
				<line id="_x30_.2.8.1.34" fill="none" stroke="#FFFFFF" stroke-width="0.576" stroke-linecap="round" x1="94.057" y1="142.2" x2="94.057" y2="145.799"/>
			
				<line id="_x30_.2.8.1.35" fill="none" stroke="#FFFFFF" stroke-width="0.576" stroke-linecap="round" x1="95.854" y1="140.4" x2="94.057" y2="142.2"/>
			
				<line id="_x30_.2.8.1.36" fill="none" stroke="#FFFFFF" stroke-width="0.576" stroke-linecap="round" x1="94.057" y1="145.799" x2="95.854" y2="147.6"/>
			
				<line id="_x30_.2.8.1.37" fill="none" stroke="#FFFFFF" stroke-width="0.576" stroke-linecap="round" x1="99.455" y1="147.6" x2="95.854" y2="147.6"/>
			
				<line id="_x30_.2.8.1.38" fill="none" stroke="#FFFFFF" stroke-width="0.576" stroke-linecap="round" x1="137.256" y1="142.2" x2="137.256" y2="145.799"/>
		</g>
	</g>
	<g id="_x30_.2.9">
		<title  oldid="0.2.9.0" id="0.2.9.0">element:J3</title>
		<g id="_x30_.2.9.1">
			<title  oldid="0.2.9.1.0" id="0.2.9.1.0">package:1X08</title>
			
				<line id="_x30_.2.9.1.1" fill="none" stroke="#FFFFFF" stroke-width="0.576" stroke-linecap="round" x1="29.976" y1="10.8" x2="26.375" y2="10.8"/>
			
				<line id="_x30_.2.9.1.2" fill="none" stroke="#FFFFFF" stroke-width="0.576" stroke-linecap="round" x1="26.375" y1="10.8" x2="24.577" y2="9"/>
			
				<line id="_x30_.2.9.1.3" fill="none" stroke="#FFFFFF" stroke-width="0.576" stroke-linecap="round" x1="24.577" y1="5.4" x2="26.375" y2="3.6"/>
			
				<line id="_x30_.2.9.1.4" fill="none" stroke="#FFFFFF" stroke-width="0.576" stroke-linecap="round" x1="38.976" y1="9" x2="37.177" y2="10.8"/>
			
				<line id="_x30_.2.9.1.5" fill="none" stroke="#FFFFFF" stroke-width="0.576" stroke-linecap="round" x1="37.177" y1="10.8" x2="33.577" y2="10.8"/>
			
				<line id="_x30_.2.9.1.6" fill="none" stroke="#FFFFFF" stroke-width="0.576" stroke-linecap="round" x1="33.577" y1="10.8" x2="31.776" y2="9"/>
			
				<line id="_x30_.2.9.1.7" fill="none" stroke="#FFFFFF" stroke-width="0.576" stroke-linecap="round" x1="31.776" y1="5.4" x2="33.577" y2="3.6"/>
			
				<line id="_x30_.2.9.1.8" fill="none" stroke="#FFFFFF" stroke-width="0.576" stroke-linecap="round" x1="33.577" y1="3.6" x2="37.177" y2="3.6"/>
			
				<line id="_x30_.2.9.1.9" fill="none" stroke="#FFFFFF" stroke-width="0.576" stroke-linecap="round" x1="37.177" y1="3.6" x2="38.976" y2="5.4"/>
			
				<line id="_x30_.2.9.1.10" fill="none" stroke="#FFFFFF" stroke-width="0.576" stroke-linecap="round" x1="29.976" y1="10.8" x2="31.776" y2="9"/>
			
				<line id="_x30_.2.9.1.11" fill="none" stroke="#FFFFFF" stroke-width="0.576" stroke-linecap="round" x1="31.776" y1="5.4" x2="29.976" y2="3.6"/>
			
				<line id="_x30_.2.9.1.12" fill="none" stroke="#FFFFFF" stroke-width="0.576" stroke-linecap="round" x1="26.375" y1="3.6" x2="29.976" y2="3.6"/>
			
				<line id="_x30_.2.9.1.13" fill="none" stroke="#FFFFFF" stroke-width="0.576" stroke-linecap="round" x1="51.577" y1="10.8" x2="47.976" y2="10.8"/>
			
				<line id="_x30_.2.9.1.14" fill="none" stroke="#FFFFFF" stroke-width="0.576" stroke-linecap="round" x1="47.976" y1="10.8" x2="46.177" y2="9"/>
			
				<line id="_x30_.2.9.1.15" fill="none" stroke="#FFFFFF" stroke-width="0.576" stroke-linecap="round" x1="46.177" y1="5.4" x2="47.976" y2="3.6"/>
			
				<line id="_x30_.2.9.1.16" fill="none" stroke="#FFFFFF" stroke-width="0.576" stroke-linecap="round" x1="46.177" y1="9" x2="44.375" y2="10.8"/>
			
				<line id="_x30_.2.9.1.17" fill="none" stroke="#FFFFFF" stroke-width="0.576" stroke-linecap="round" x1="44.375" y1="10.8" x2="40.776" y2="10.8"/>
			
				<line id="_x30_.2.9.1.18" fill="none" stroke="#FFFFFF" stroke-width="0.576" stroke-linecap="round" x1="40.776" y1="10.8" x2="38.976" y2="9"/>
			
				<line id="_x30_.2.9.1.19" fill="none" stroke="#FFFFFF" stroke-width="0.576" stroke-linecap="round" x1="38.976" y1="5.4" x2="40.776" y2="3.6"/>
			
				<line id="_x30_.2.9.1.20" fill="none" stroke="#FFFFFF" stroke-width="0.576" stroke-linecap="round" x1="40.776" y1="3.6" x2="44.375" y2="3.6"/>
			
				<line id="_x30_.2.9.1.21" fill="none" stroke="#FFFFFF" stroke-width="0.576" stroke-linecap="round" x1="44.375" y1="3.6" x2="46.177" y2="5.4"/>
			
				<line id="_x30_.2.9.1.22" fill="none" stroke="#FFFFFF" stroke-width="0.576" stroke-linecap="round" x1="60.577" y1="9" x2="58.776" y2="10.8"/>
			
				<line id="_x30_.2.9.1.23" fill="none" stroke="#FFFFFF" stroke-width="0.576" stroke-linecap="round" x1="58.776" y1="10.8" x2="55.177" y2="10.8"/>
			
				<line id="_x30_.2.9.1.24" fill="none" stroke="#FFFFFF" stroke-width="0.576" stroke-linecap="round" x1="55.177" y1="10.8" x2="53.375" y2="9"/>
			
				<line id="_x30_.2.9.1.25" fill="none" stroke="#FFFFFF" stroke-width="0.576" stroke-linecap="round" x1="53.375" y1="5.4" x2="55.177" y2="3.6"/>
			
				<line id="_x30_.2.9.1.26" fill="none" stroke="#FFFFFF" stroke-width="0.576" stroke-linecap="round" x1="55.177" y1="3.6" x2="58.776" y2="3.6"/>
			
				<line id="_x30_.2.9.1.27" fill="none" stroke="#FFFFFF" stroke-width="0.576" stroke-linecap="round" x1="58.776" y1="3.6" x2="60.577" y2="5.4"/>
			
				<line id="_x30_.2.9.1.28" fill="none" stroke="#FFFFFF" stroke-width="0.576" stroke-linecap="round" x1="51.577" y1="10.8" x2="53.375" y2="9"/>
			
				<line id="_x30_.2.9.1.29" fill="none" stroke="#FFFFFF" stroke-width="0.576" stroke-linecap="round" x1="53.375" y1="5.4" x2="51.577" y2="3.6"/>
			
				<line id="_x30_.2.9.1.30" fill="none" stroke="#FFFFFF" stroke-width="0.576" stroke-linecap="round" x1="47.976" y1="3.6" x2="51.577" y2="3.6"/>
			
				<line id="_x30_.2.9.1.31" fill="none" stroke="#FFFFFF" stroke-width="0.576" stroke-linecap="round" x1="73.176" y1="10.8" x2="69.577" y2="10.8"/>
			
				<line id="_x30_.2.9.1.32" fill="none" stroke="#FFFFFF" stroke-width="0.576" stroke-linecap="round" x1="69.577" y1="10.8" x2="67.775" y2="9"/>
			
				<line id="_x30_.2.9.1.33" fill="none" stroke="#FFFFFF" stroke-width="0.576" stroke-linecap="round" x1="67.775" y1="5.4" x2="69.577" y2="3.6"/>
			
				<line id="_x30_.2.9.1.34" fill="none" stroke="#FFFFFF" stroke-width="0.576" stroke-linecap="round" x1="67.775" y1="9" x2="65.976" y2="10.8"/>
			
				<line id="_x30_.2.9.1.35" fill="none" stroke="#FFFFFF" stroke-width="0.576" stroke-linecap="round" x1="65.976" y1="10.8" x2="62.375" y2="10.8"/>
			
				<line id="_x30_.2.9.1.36" fill="none" stroke="#FFFFFF" stroke-width="0.576" stroke-linecap="round" x1="62.375" y1="10.8" x2="60.577" y2="9"/>
			
				<line id="_x30_.2.9.1.37" fill="none" stroke="#FFFFFF" stroke-width="0.576" stroke-linecap="round" x1="60.577" y1="5.4" x2="62.375" y2="3.6"/>
			
				<line id="_x30_.2.9.1.38" fill="none" stroke="#FFFFFF" stroke-width="0.576" stroke-linecap="round" x1="62.375" y1="3.6" x2="65.976" y2="3.6"/>
			
				<line id="_x30_.2.9.1.39" fill="none" stroke="#FFFFFF" stroke-width="0.576" stroke-linecap="round" x1="65.976" y1="3.6" x2="67.775" y2="5.4"/>
			
				<line id="_x30_.2.9.1.40" fill="none" stroke="#FFFFFF" stroke-width="0.576" stroke-linecap="round" x1="74.976" y1="9" x2="74.976" y2="5.4"/>
			
				<line id="_x30_.2.9.1.41" fill="none" stroke="#FFFFFF" stroke-width="0.576" stroke-linecap="round" x1="73.176" y1="10.8" x2="74.976" y2="9"/>
			
				<line id="_x30_.2.9.1.42" fill="none" stroke="#FFFFFF" stroke-width="0.576" stroke-linecap="round" x1="74.976" y1="5.4" x2="73.176" y2="3.6"/>
			
				<line id="_x30_.2.9.1.43" fill="none" stroke="#FFFFFF" stroke-width="0.576" stroke-linecap="round" x1="69.577" y1="3.6" x2="73.176" y2="3.6"/>
			
				<line id="_x30_.2.9.1.44" fill="none" stroke="#FFFFFF" stroke-width="0.576" stroke-linecap="round" x1="22.776" y1="10.8" x2="19.177" y2="10.8"/>
			
				<line id="_x30_.2.9.1.45" fill="none" stroke="#FFFFFF" stroke-width="0.576" stroke-linecap="round" x1="19.177" y1="10.8" x2="17.375" y2="9"/>
			
				<line id="_x30_.2.9.1.46" fill="none" stroke="#FFFFFF" stroke-width="0.576" stroke-linecap="round" x1="17.375" y1="9" x2="17.375" y2="5.4"/>
			
				<line id="_x30_.2.9.1.47" fill="none" stroke="#FFFFFF" stroke-width="0.576" stroke-linecap="round" x1="17.375" y1="5.4" x2="19.177" y2="3.6"/>
			
				<line id="_x30_.2.9.1.48" fill="none" stroke="#FFFFFF" stroke-width="0.576" stroke-linecap="round" x1="22.776" y1="10.8" x2="24.577" y2="9"/>
			
				<line id="_x30_.2.9.1.49" fill="none" stroke="#FFFFFF" stroke-width="0.576" stroke-linecap="round" x1="24.577" y1="5.4" x2="22.776" y2="3.6"/>
			
				<line id="_x30_.2.9.1.50" fill="none" stroke="#FFFFFF" stroke-width="0.576" stroke-linecap="round" x1="19.177" y1="3.6" x2="22.776" y2="3.6"/>
		</g>
	</g>
	<g id="_x30_.2.10">
		<title  oldid="0.2.10.0" id="0.2.10.0">element:JP1</title>
		<g id="_x30_.2.10.1">
			<title  oldid="0.2.10.1.0" id="0.2.10.1.0">package:S2B-PH</title>
		</g>
	</g>
	<g id="_x30_.2.11">
		<title  oldid="0.2.11.0" id="0.2.11.0">element:JP2</title>
		<g id="_x30_.2.11.1">
			<title  oldid="0.2.11.1.0" id="0.2.11.1.0">package:1X06</title>
			
				<line id="_x30_.2.11.1.1" fill="none" stroke="#FFFFFF" stroke-width="0.576" stroke-linecap="round" x1="79.656" y1="142.2" x2="81.457" y2="140.4"/>
			
				<line id="_x30_.2.11.1.2" fill="none" stroke="#FFFFFF" stroke-width="0.576" stroke-linecap="round" x1="81.457" y1="140.4" x2="85.057" y2="140.4"/>
			
				<line id="_x30_.2.11.1.3" fill="none" stroke="#FFFFFF" stroke-width="0.576" stroke-linecap="round" x1="85.057" y1="140.4" x2="86.855" y2="142.2"/>
			
				<line id="_x30_.2.11.1.4" fill="none" stroke="#FFFFFF" stroke-width="0.576" stroke-linecap="round" x1="86.855" y1="145.799" x2="85.057" y2="147.6"/>
			
				<line id="_x30_.2.11.1.5" fill="none" stroke="#FFFFFF" stroke-width="0.576" stroke-linecap="round" x1="85.057" y1="147.6" x2="81.457" y2="147.6"/>
			
				<line id="_x30_.2.11.1.6" fill="none" stroke="#FFFFFF" stroke-width="0.576" stroke-linecap="round" x1="81.457" y1="147.6" x2="79.656" y2="145.799"/>
			
				<line id="_x30_.2.11.1.7" fill="none" stroke="#FFFFFF" stroke-width="0.576" stroke-linecap="round" x1="67.057" y1="140.4" x2="70.656" y2="140.4"/>
			
				<line id="_x30_.2.11.1.8" fill="none" stroke="#FFFFFF" stroke-width="0.576" stroke-linecap="round" x1="70.656" y1="140.4" x2="72.457" y2="142.2"/>
			
				<line id="_x30_.2.11.1.9" fill="none" stroke="#FFFFFF" stroke-width="0.576" stroke-linecap="round" x1="72.457" y1="145.799" x2="70.656" y2="147.6"/>
			
				<line id="_x30_.2.11.1.10" fill="none" stroke="#FFFFFF" stroke-width="0.576" stroke-linecap="round" x1="72.457" y1="142.2" x2="74.256" y2="140.4"/>
			
				<line id="_x30_.2.11.1.11" fill="none" stroke="#FFFFFF" stroke-width="0.576" stroke-linecap="round" x1="74.256" y1="140.4" x2="77.855" y2="140.4"/>
			
				<line id="_x30_.2.11.1.12" fill="none" stroke="#FFFFFF" stroke-width="0.576" stroke-linecap="round" x1="77.855" y1="140.4" x2="79.656" y2="142.2"/>
			
				<line id="_x30_.2.11.1.13" fill="none" stroke="#FFFFFF" stroke-width="0.576" stroke-linecap="round" x1="79.656" y1="145.799" x2="77.855" y2="147.6"/>
			
				<line id="_x30_.2.11.1.14" fill="none" stroke="#FFFFFF" stroke-width="0.576" stroke-linecap="round" x1="77.855" y1="147.6" x2="74.256" y2="147.6"/>
			
				<line id="_x30_.2.11.1.15" fill="none" stroke="#FFFFFF" stroke-width="0.576" stroke-linecap="round" x1="74.256" y1="147.6" x2="72.457" y2="145.799"/>
			
				<line id="_x30_.2.11.1.16" fill="none" stroke="#FFFFFF" stroke-width="0.576" stroke-linecap="round" x1="58.057" y1="142.2" x2="59.856" y2="140.4"/>
			
				<line id="_x30_.2.11.1.17" fill="none" stroke="#FFFFFF" stroke-width="0.576" stroke-linecap="round" x1="59.856" y1="140.4" x2="63.456" y2="140.4"/>
			
				<line id="_x30_.2.11.1.18" fill="none" stroke="#FFFFFF" stroke-width="0.576" stroke-linecap="round" x1="63.456" y1="140.4" x2="65.256" y2="142.2"/>
			
				<line id="_x30_.2.11.1.19" fill="none" stroke="#FFFFFF" stroke-width="0.576" stroke-linecap="round" x1="65.256" y1="145.799" x2="63.456" y2="147.6"/>
			
				<line id="_x30_.2.11.1.20" fill="none" stroke="#FFFFFF" stroke-width="0.576" stroke-linecap="round" x1="63.456" y1="147.6" x2="59.856" y2="147.6"/>
			
				<line id="_x30_.2.11.1.21" fill="none" stroke="#FFFFFF" stroke-width="0.576" stroke-linecap="round" x1="59.856" y1="147.6" x2="58.057" y2="145.799"/>
			
				<line id="_x30_.2.11.1.22" fill="none" stroke="#FFFFFF" stroke-width="0.576" stroke-linecap="round" x1="67.057" y1="140.4" x2="65.256" y2="142.2"/>
			
				<line id="_x30_.2.11.1.23" fill="none" stroke="#FFFFFF" stroke-width="0.576" stroke-linecap="round" x1="65.256" y1="145.799" x2="67.057" y2="147.6"/>
			
				<line id="_x30_.2.11.1.24" fill="none" stroke="#FFFFFF" stroke-width="0.576" stroke-linecap="round" x1="70.656" y1="147.6" x2="67.057" y2="147.6"/>
			
				<line id="_x30_.2.11.1.25" fill="none" stroke="#FFFFFF" stroke-width="0.576" stroke-linecap="round" x1="45.456" y1="140.4" x2="49.057" y2="140.4"/>
			
				<line id="_x30_.2.11.1.26" fill="none" stroke="#FFFFFF" stroke-width="0.576" stroke-linecap="round" x1="49.057" y1="140.4" x2="50.856" y2="142.2"/>
			
				<line id="_x30_.2.11.1.27" fill="none" stroke="#FFFFFF" stroke-width="0.576" stroke-linecap="round" x1="50.856" y1="145.799" x2="49.057" y2="147.6"/>
			
				<line id="_x30_.2.11.1.28" fill="none" stroke="#FFFFFF" stroke-width="0.576" stroke-linecap="round" x1="50.856" y1="142.2" x2="52.657" y2="140.4"/>
			
				<line id="_x30_.2.11.1.29" fill="none" stroke="#FFFFFF" stroke-width="0.576" stroke-linecap="round" x1="52.657" y1="140.4" x2="56.257" y2="140.4"/>
			
				<line id="_x30_.2.11.1.30" fill="none" stroke="#FFFFFF" stroke-width="0.576" stroke-linecap="round" x1="56.257" y1="140.4" x2="58.057" y2="142.2"/>
			
				<line id="_x30_.2.11.1.31" fill="none" stroke="#FFFFFF" stroke-width="0.576" stroke-linecap="round" x1="58.057" y1="145.799" x2="56.257" y2="147.6"/>
			
				<line id="_x30_.2.11.1.32" fill="none" stroke="#FFFFFF" stroke-width="0.576" stroke-linecap="round" x1="56.257" y1="147.6" x2="52.657" y2="147.6"/>
			
				<line id="_x30_.2.11.1.33" fill="none" stroke="#FFFFFF" stroke-width="0.576" stroke-linecap="round" x1="52.657" y1="147.6" x2="50.856" y2="145.799"/>
			
				<line id="_x30_.2.11.1.34" fill="none" stroke="#FFFFFF" stroke-width="0.576" stroke-linecap="round" x1="43.657" y1="142.2" x2="43.657" y2="145.799"/>
			
				<line id="_x30_.2.11.1.35" fill="none" stroke="#FFFFFF" stroke-width="0.576" stroke-linecap="round" x1="45.456" y1="140.4" x2="43.657" y2="142.2"/>
			
				<line id="_x30_.2.11.1.36" fill="none" stroke="#FFFFFF" stroke-width="0.576" stroke-linecap="round" x1="43.657" y1="145.799" x2="45.456" y2="147.6"/>
			
				<line id="_x30_.2.11.1.37" fill="none" stroke="#FFFFFF" stroke-width="0.576" stroke-linecap="round" x1="49.057" y1="147.6" x2="45.456" y2="147.6"/>
			
				<line id="_x30_.2.11.1.38" fill="none" stroke="#FFFFFF" stroke-width="0.576" stroke-linecap="round" x1="86.855" y1="142.2" x2="86.855" y2="145.799"/>
		</g>
	</g>
	<g id="_x30_.1.0.1">
		<title  oldid="0.2.0.1.0" id="0.2.0.1.0">layer 21</title>
		<g id="_x30_.1.0.1.6">
			<title  oldid="0.2.0.1.6.0" id="0.2.0.1.6.0">text:VCC</title>
			<g id="_x30_.2.0.1.6.1" transform="matrix(1, 0, 0, 1, 71.4076, 139.198)">
				<g id="_x30_.1.0.1.6.1">
					<g id="_x30_.2.0.1.6.1.0.0" transform="rotate(270)">
						<g id="_x30_.1.0.1.6.1.0">
							<g id="_x30_.2.0.1.6.1.0.0.0.0" transform="matrix(1 0 0 1 2.441406e-004 3.662109e-004)">
								
									<text id="_x30_.1.0.1.6.1.0.0" transform="matrix(1 0 0 1 0 -8.1731)" fill="#FFFFFF" font-family="'OCRA'" font-size="4.176">VCC</text>
							</g>
						</g>
					</g>
				</g>
			</g>
		</g>
		<g id="_x30_.1.0.1.11">
			<title  oldid="0.2.0.1.11.0" id="0.2.0.1.11.0">text:AREF</title>
			<g id="_x30_.2.0.1.11.1" transform="matrix(1, 0, 0, 1, 30.9521, 25.9574)">
				<g id="_x30_.1.0.1.11.1">
					<g id="_x30_.2.0.1.11.1.0.0" transform="rotate(270)">
						<g id="_x30_.1.0.1.11.1.0">
							<g id="_x30_.2.0.1.11.1.0.0.0.0" transform="matrix(1 0 0 1 -1.220703e-004 -1.983643e-004)">
								
									<text id="_x30_.1.0.1.11.1.0.0" transform="matrix(1 0 0 1 0 -8.1731)" fill="#FFFFFF" font-family="'OCRA'" font-size="4.6035">AREF</text>
							</g>
						</g>
					</g>
				</g>
			</g>
		</g>
		<g id="_x30_.1.0.1.13">
			<title  oldid="0.2.0.1.13.0" id="0.2.0.1.13.0">text:GND</title>
			<g id="_x30_.2.0.1.13.1" transform="matrix(1, 0, 0, 1, 37.8227, 22.2854)">
				<g id="_x30_.1.0.1.13.1">
					<g id="_x30_.2.0.1.13.1.0.0" transform="rotate(270)">
						<g id="_x30_.1.0.1.13.1.0">
							<g id="_x30_.2.0.1.13.1.0.0.0.0" transform="matrix(1 0 0 1 -2.441406e-004 3.051758e-004)">
								
									<text id="_x30_.1.0.1.13.1.0.0" transform="matrix(1 0 0 1 0 -8.1731)" fill="#FFFFFF" font-family="'OCRA'" font-size="4.6035">GND</text>
							</g>
						</g>
					</g>
				</g>
			</g>
		</g>
		<g id="_x30_.1.0.1.15">
			<title  oldid="0.2.0.1.15.0" id="0.2.0.1.15.0">text:TX</title>
			<g id="_x30_.2.0.1.15.1" transform="matrix(1, 0, 0, 1, 136.171, 23.6409)">
				<g id="_x30_.1.0.1.15.1">
					<g id="_x30_.2.0.1.15.1.0.0" transform="rotate(270)">
						<g id="_x30_.1.0.1.15.1.0">
							<g id="_x30_.2.0.1.15.1.0.0.0.0" transform="matrix(1 0 0 1 -2.136230e-004 -3.662109e-004)">
								
									<text id="_x30_.1.0.1.15.1.0.0" transform="matrix(1 0 0 1 0 -8.1726)" fill="#FFFFFF" font-family="'OCRA'" font-size="4.6035">TX</text>
							</g>
						</g>
					</g>
				</g>
			</g>
		</g>
		<g id="_x30_.1.0.1.16">
			<title  oldid="0.2.0.1.16.0" id="0.2.0.1.16.0">text:RX</title>
			<g id="_x30_.2.0.1.16.1" transform="matrix(1, 0, 0, 1, 143.541, 23.6409)">
				<g id="_x30_.1.0.1.16.1">
					<g id="_x30_.2.0.1.16.1.0.0" transform="rotate(270)">
						<g id="_x30_.1.0.1.16.1.0">
							<g id="_x30_.2.0.1.16.1.0.0.0.0" transform="matrix(1 0 0 1 -2.136230e-004 -2.441406e-004)">
								
									<text id="_x30_.1.0.1.16.1.0.0" transform="matrix(1 0 0 1 0 -8.1736)" fill="#FFFFFF" font-family="'OCRA'" font-size="4.6035">RX</text>
							</g>
						</g>
					</g>
				</g>
			</g>
		</g>
		<g id="_x30_.1.0.1.18">
			<title  oldid="0.2.0.1.18.0" id="0.2.0.1.18.0">text:GND</title>
			<g id="_x30_.2.0.1.18.1" transform="matrix(1 0 0 1 75.509 139.0103)">
				
					<text id="_x30_.1.0.1.18.1" transform="matrix(1 0 0 1 -8.1736 -6.103516e-005)" fill="#FFFFFF" font-family="'OCRA'" font-size="4.176">GND</text>
			</g>
		</g>
		<g id="_x30_.1.0.1.18_1_">
			<title  oldid="0.2.0.1.18.0" id="0.2.0.1.18.0">text:GND</title>
		</g>
		<g id="_x30_.1.0.1.19">
			<title  oldid="0.2.0.1.19.0" id="0.2.0.1.19.0">text:Batt</title>
			<g id="_x30_.2.0.1.19.1" transform="matrix(1, 0, 0, 1, 92.6474, 139.026)">
				<g id="_x30_.1.0.1.19.1">
					<g id="_x30_.2.0.1.19.1.0.0" transform="rotate(270)">
						<g id="_x30_.1.0.1.19.1.0">
							<g id="_x30_.2.0.1.19.1.0.0.0.0" transform="matrix(1 0 0 1 1.220703e-004 -1.831055e-004)">
								
									<text id="_x30_.1.0.1.19.1.0.0" transform="matrix(1 0 0 1 0 -8.1726)" fill="#FFFFFF" font-family="'OCRA'" font-size="4.176">Batt</text>
							</g>
						</g>
					</g>
				</g>
			</g>
		</g>
		<g id="_x30_.1.0.1.23">
			<title  oldid="0.2.0.1.23.0" id="0.2.0.1.23.0">text:5/3.3V</title>
			<g id="_x30_.2.0.1.23.1" transform="matrix(1, 0, 0, 1, 64.1707, 139.164)">
				<g id="_x30_.1.0.1.23.1">
					<g id="_x30_.2.0.1.23.1.0.0" transform="rotate(270)">
						<g id="_x30_.1.0.1.23.1.0">
							<g id="_x30_.2.0.1.23.1.0.0.0.0" transform="matrix(1 0 0 1 -5.493164e-004 -6.103516e-005)">
								
									<text id="_x30_.1.0.1.23.1.0.0" transform="matrix(1 0 0 1 0 -8.1731)" fill="#FFFFFF" font-family="'OCRA'" font-size="4.176">5/3.3V</text>
							</g>
						</g>
					</g>
				</g>
			</g>
		</g>
		<g id="_x30_.1.0.1.24">
			<title  oldid="0.2.0.1.24.0" id="0.2.0.1.24.0">text:RESET</title>
			<g id="_x30_.2.0.1.24.1" transform="matrix(1, 0, 0, 1, 56.5172, 139.164)">
				<g id="_x30_.1.0.1.24.1">
					<g id="_x30_.2.0.1.24.1.0.0" transform="rotate(270)">
						<g id="_x30_.1.0.1.24.1.0">
							<g id="_x30_.2.0.1.24.1.0.0.0.0" transform="matrix(1 0 0 1 -5.493164e-004 1.220703e-004)">
								
									<text id="_x30_.1.0.1.24.1.0.0" transform="matrix(1 0 0 1 0 -8.1731)" fill="#FFFFFF" font-family="'OCRA'" font-size="4.176">RST</text>
							</g>
						</g>
					</g>
				</g>
			</g>
		</g>
		<g id="_x30_.1.0.1.53">
			<title  oldid="0.2.0.1.53.0" id="0.2.0.1.53.0">text:Released under the Creative Commons Attribution Share-Alike 3.0 License
				</title>
		</g>
		<g id="_x30_.1.0.1.54">
			<title  oldid="0.2.0.1.54.0" id="0.2.0.1.54.0">text:http://creativecommons.org/licenses/by-sa/3.0</title>
		</g>
		<g id="_x30_.1.0.1.55">
			<title  oldid="0.2.0.1.55.0" id="0.2.0.1.55.0">element:B1</title>
			<g id="_x30_.1.0.1.55.1">
				<title  oldid="0.2.0.1.55.1.0" id="0.2.0.1.55.1.0">package:BUZZER-12MM-NS</title>
			</g>
		</g>
		<g id="_x30_.1.0.1.56">
			<title  oldid="0.2.0.1.56.0" id="0.2.0.1.56.0">element:C1</title>
			<g id="_x30_.1.0.1.56.1">
				<title  oldid="0.2.0.1.56.1.0" id="0.2.0.1.56.1.0">package:C0402</title>
			</g>
		</g>
		<g id="_x30_.1.0.1.57">
			<title  oldid="0.2.0.1.57.0" id="0.2.0.1.57.0">element:C2</title>
			<g id="_x30_.1.0.1.57.1">
				<title  oldid="0.2.0.1.57.1.0" id="0.2.0.1.57.1.0">package:C0402</title>
			</g>
		</g>
		<g id="_x30_.1.0.1.58">
			<title  oldid="0.2.0.1.58.0" id="0.2.0.1.58.0">element:C3</title>
			<g id="_x30_.1.0.1.58.1">
				<title  oldid="0.2.0.1.58.1.0" id="0.2.0.1.58.1.0">package:C0402</title>
			</g>
		</g>
		<g id="_x30_.1.0.1.59">
			<title  oldid="0.2.0.1.59.0" id="0.2.0.1.59.0">element:C10</title>
			<g id="_x30_.1.0.1.59.1">
				<title  oldid="0.2.0.1.59.1.0" id="0.2.0.1.59.1.0">package:C0402</title>
			</g>
		</g>
		<g id="_x30_.1.0.1.65">
			<title  oldid="0.2.0.1.65.0" id="0.2.0.1.65.0">element:JP1</title>
			<g id="_x30_.1.0.1.65.1">
				<title  oldid="0.2.0.1.65.1.0" id="0.2.0.1.65.1.0">package:S2B-PH</title>
			</g>
		</g>
		<g id="_x30_.1.0.1.73">
			<title  oldid="0.2.0.1.73.0" id="0.2.0.1.73.0">element:R1</title>
			<g id="_x30_.1.0.1.73.1">
				<title  oldid="0.2.0.1.73.1.0" id="0.2.0.1.73.1.0">package:C0402</title>
			</g>
		</g>
		<g id="_x30_.1.0.1.74">
			<title  oldid="0.2.0.1.74.0" id="0.2.0.1.74.0">element:R2</title>
			<g id="_x30_.1.0.1.74.1">
				<title  oldid="0.2.0.1.74.1.0" id="0.2.0.1.74.1.0">package:C0402</title>
			</g>
		</g>
		<g id="_x30_.1.0.1.75">
			<title  oldid="0.2.0.1.75.0" id="0.2.0.1.75.0">element:R3</title>
			<g id="_x30_.1.0.1.75.1">
				<title  oldid="0.2.0.1.75.1.0" id="0.2.0.1.75.1.0">package:C0402</title>
			</g>
		</g>
		<g id="_x30_.1.0.1.76">
			<title  oldid="0.2.0.1.76.0" id="0.2.0.1.76.0">element:R6</title>
			<g id="_x30_.1.0.1.76.1">
				<title  oldid="0.2.0.1.76.1.0" id="0.2.0.1.76.1.0">package:C0402</title>
			</g>
		</g>
		<g id="_x30_.1.0.1.77">
			<title  oldid="0.2.0.1.77.0" id="0.2.0.1.77.0">element:R11</title>
			<g id="_x30_.1.0.1.77.1">
				<title  oldid="0.2.0.1.77.1.0" id="0.2.0.1.77.1.0">package:C0402</title>
			</g>
		</g>
		<g id="_x30_.1.0.1.80">
			<title  oldid="0.2.0.1.80.0" id="0.2.0.1.80.0">element:U$1</title>
			<g id="_x30_.1.0.1.80.1">
				<title  oldid="0.2.0.1.80.1.0" id="0.2.0.1.80.1.0">package:STAND-OFF</title>
			</g>
		</g>
		<g id="_x30_.1.0.1.81">
			<title  oldid="0.2.0.1.81.0" id="0.2.0.1.81.0">element:U$2</title>
			<g id="_x30_.1.0.1.81.1">
				<title  oldid="0.2.0.1.81.1.0" id="0.2.0.1.81.1.0">package:FIDUCIAL-1X2</title>
			</g>
		</g>
		<g id="_x30_.1.0.1.82">
			<title  oldid="0.2.0.1.82.0" id="0.2.0.1.82.0">element:U$3</title>
			<g id="_x30_.1.0.1.82.1">
				<title  oldid="0.2.0.1.82.1.0" id="0.2.0.1.82.1.0">package:STAND-OFF</title>
			</g>
		</g>
		<g id="_x30_.1.0.1.83">
			<title  oldid="0.2.0.1.83.0" id="0.2.0.1.83.0">element:U$4</title>
			<g id="_x30_.1.0.1.83.1">
				<title  oldid="0.2.0.1.83.1.0" id="0.2.0.1.83.1.0">package:FIDUCIAL-1X2</title>
			</g>
		</g>
		<g id="_x30_.1.0.1.84">
			<title  oldid="0.2.0.1.84.0" id="0.2.0.1.84.0">element:U$9</title>
			<g id="_x30_.1.0.1.84.1">
				<title  oldid="0.2.0.1.84.1.0" id="0.2.0.1.84.1.0">package:STAND-OFF</title>
			</g>
		</g>
		<g id="_x30_.1.0.1.85">
			<title  oldid="0.2.0.1.85.0" id="0.2.0.1.85.0">element:U$10</title>
			<g id="_x30_.1.0.1.85.1">
				<title  oldid="0.2.0.1.85.1.0" id="0.2.0.1.85.1.0">package:STAND-OFF</title>
			</g>
		</g>
		<g id="_x30_.2.0.1.18.1_1_" transform="matrix(1 0 0 1 75.509 139.0103)">
			<text id="_x30_.1.0.1.18.1_1_" transform="matrix(1 0 0 1 19.4461 0.041)" fill="#FFFFFF" font-family="'OCRA'" font-size="4">A0</text>
		</g>
		<g id="_x30_.2.0.1.18.1_2_" transform="matrix(1 0 0 1 75.509 139.0103)">
			<text id="_x30_.1.0.1.18.1_2_" transform="matrix(1 0 0 1 26.6472 0.041)" fill="#FFFFFF" font-family="'OCRA'" font-size="4">A1</text>
		</g>
		<g id="_x30_.2.0.1.18.1_3_" transform="matrix(1 0 0 1 75.509 139.0103)">
			<text id="_x30_.1.0.1.18.1_3_" transform="matrix(1 0 0 1 33.8465 0.041)" fill="#FFFFFF" font-family="'OCRA'" font-size="4">A2</text>
		</g>
		<g id="_x30_.2.0.1.18.1_4_" transform="matrix(1 0 0 1 75.509 139.0103)">
			<text id="_x30_.1.0.1.18.1_4_" transform="matrix(1 0 0 1 41.0467 0.041)" fill="#FFFFFF" font-family="'OCRA'" font-size="4">A3</text>
		</g>
		<g id="_x30_.2.0.1.18.1_5_" transform="matrix(1 0 0 1 75.509 139.0103)">
			<text id="_x30_.1.0.1.18.1_5_" transform="matrix(1 0 0 1 47.8133 0.041)" fill="#FFFFFF" font-family="'OCRA'" font-size="4">A4</text>
		</g>
		<g id="_x30_.2.0.1.18.1_6_" transform="matrix(1 0 0 1 75.509 139.0103)">
			<text id="_x30_.1.0.1.18.1_6_" transform="matrix(1 0 0 1 55.0945 0.041)" fill="#FFFFFF" font-family="'OCRA'" font-size="4">A5</text>
		</g>
		<g id="_x30_.2.0.1.18.1_12_" transform="matrix(1 0 0 1 75.509 139.0103)">
			
				<text id="_x30_.1.0.1.18.1_12_" transform="matrix(1 0 0 1 20.3445 -123.1973)" fill="#FFFFFF" font-family="'OCRA'" font-size="4">5</text>
		</g>
		<g id="_x30_.2.0.1.18.1_11_" transform="matrix(1 0 0 1 75.509 139.0103)">
			
				<text id="_x30_.1.0.1.18.1_11_" transform="matrix(1 0 0 1 27.5476 -123.1973)" fill="#FFFFFF" font-family="'OCRA'" font-size="4">4</text>
		</g>
		<g id="_x30_.2.0.1.18.1_14_" transform="matrix(1 0 0 1 75.509 139.0103)">
			
				<text id="_x30_.1.0.1.18.1_14_" transform="matrix(1 0 0 1 5.948 -123.1973)" fill="#FFFFFF" font-family="'OCRA'" font-size="4">7</text>
		</g>
		<g id="_x30_.2.0.1.18.1_13_" transform="matrix(1 0 0 1 75.509 139.0103)">
			
				<text id="_x30_.1.0.1.18.1_13_" transform="matrix(1 0 0 1 13.075 -123.1973)" fill="#FFFFFF" font-family="'OCRA'" font-size="4">6</text>
		</g>
		<g id="_x30_.2.0.1.18.1_10_" transform="matrix(1 0 0 1 75.509 139.0103)">
			
				<text id="_x30_.1.0.1.18.1_10_" transform="matrix(1 0 0 1 35.2488 -123.1094)" fill="#FFFFFF" font-family="'OCRA'" font-size="4">3</text>
		</g>
		<g id="_x30_.2.0.1.18.1_9_" transform="matrix(1 0 0 1 75.509 139.0103)">
			
				<text id="_x30_.1.0.1.18.1_9_" transform="matrix(1 0 0 1 41.9461 -123.1973)" fill="#FFFFFF" font-family="'OCRA'" font-size="4">2</text>
		</g>
		<g id="_x30_.2.0.1.18.1_8_" transform="matrix(1 0 0 1 75.509 139.0103)">
			
				<text id="_x30_.1.0.1.18.1_8_" transform="matrix(1 0 0 1 49.3035 -123.1973)" fill="#FFFFFF" font-family="'OCRA'" font-size="4">1</text>
		</g>
		<g id="_x30_.2.0.1.18.1_7_" transform="matrix(1 0 0 1 75.509 139.0103)">
			
				<text id="_x30_.1.0.1.18.1_7_" transform="matrix(1 0 0 1 56.5847 -123.1973)" fill="#FFFFFF" font-family="'OCRA'" font-size="4">0</text>
		</g>
		<g id="_x30_.2.0.1.18.1_22_" transform="matrix(1 0 0 1 75.509 139.0103)">
			
				<text id="_x30_.1.0.1.18.1_22_" transform="matrix(1 0 0 1 -43.2321 -123.1973)" fill="#FFFFFF" font-family="'OCRA'" font-size="4">13</text>
		</g>
		<g id="_x30_.2.0.1.18.1_21_" transform="matrix(1 0 0 1 75.509 139.0103)">
			
				<text id="_x30_.1.0.1.18.1_21_" transform="matrix(1 0 0 1 -36.1169 -123.1973)" fill="#FFFFFF" font-family="'OCRA'" font-size="4">12</text>
		</g>
		<g id="_x30_.2.0.1.18.1_18_" transform="matrix(1 0 0 1 75.509 139.0103)">
			
				<text id="_x30_.1.0.1.18.1_18_" transform="matrix(1 0 0 1 -28.8498 -123.1094)" fill="#FFFFFF" font-family="'OCRA'" font-size="4">11</text>
		</g>
		<g id="_x30_.2.0.1.18.1_17_" transform="matrix(1 0 0 1 75.509 139.0103)">
			
				<text id="_x30_.1.0.1.18.1_17_" transform="matrix(1 0 0 1 -21.2326 -123.1973)" fill="#FFFFFF" font-family="'OCRA'" font-size="4">10</text>
		</g>
		<g id="_x30_.2.0.1.18.1_16_" transform="matrix(1 0 0 1 75.509 139.0103)">
			
				<text id="_x30_.1.0.1.18.1_16_" transform="matrix(1 0 0 1 -13.0232 -123.1094)" fill="#FFFFFF" font-family="'OCRA'" font-size="4">9</text>
		</g>
		<g id="_x30_.2.0.1.18.1_15_" transform="matrix(1 0 0 1 75.509 139.0103)">
			
				<text id="_x30_.1.0.1.18.1_15_" transform="matrix(1 0 0 1 -5.2419 -123.1973)" fill="#FFFFFF" font-family="'OCRA'" font-size="4">8</text>
		</g>
	</g>
</g>
<g id="copper1">
	<g id="copper0">
		<circle id="connector18pad" fill="none" stroke="#F7BD13" stroke-width="0.864" cx="133.656" cy="7.2" r="1.872"/>
		<rect id="_x30_.3.0.3" x="131.783" y="5.328" fill="none" stroke="#F7BD13" stroke-width="0.864" width="3.744" height="3.744"/>
		<circle id="connector19pad" fill="none" stroke="#F7BD13" stroke-width="0.864" cx="126.455" cy="7.2" r="1.872"/>
		<circle id="connector20pad" fill="none" stroke="#F7BD13" stroke-width="0.864" cx="119.256" cy="7.2" r="1.872"/>
		<circle id="connector21pad" fill="none" stroke="#F7BD13" stroke-width="0.864" cx="112.057" cy="7.2" r="1.872"/>
		<circle id="connector22pad" fill="none" stroke="#F7BD13" stroke-width="0.864" cx="104.854" cy="7.2" r="1.872"/>
		<circle id="connector23pad" fill="none" stroke="#F7BD13" stroke-width="0.864" cx="97.656" cy="7.2" r="1.872"/>
		<circle id="connector24pad" fill="none" stroke="#F7BD13" stroke-width="0.864" cx="90.457" cy="7.2" r="1.872"/>
		<circle id="connector25pad" fill="none" stroke="#F7BD13" stroke-width="0.864" cx="83.256" cy="7.2" r="1.872"/>
		<circle id="connector26pad" fill="none" stroke="#F7BD13" stroke-width="0.864" cx="97.656" cy="144" r="1.872"/>
		<circle id="connector27pad" fill="none" stroke="#F7BD13" stroke-width="0.864" cx="104.854" cy="144" r="1.872"/>
		<circle id="connector28pad" fill="none" stroke="#F7BD13" stroke-width="0.864" cx="112.057" cy="144" r="1.872"/>
		<circle id="connector29pad" fill="none" stroke="#F7BD13" stroke-width="0.864" cx="119.256" cy="144" r="1.872"/>
		<circle id="connector30pad" fill="none" stroke="#F7BD13" stroke-width="0.864" cx="126.455" cy="144" r="1.872"/>
		<circle id="connector31pad" fill="none" stroke="#F7BD13" stroke-width="0.864" cx="133.656" cy="144" r="1.872"/>
		<circle id="connector32pad" fill="none" stroke="#F7BD13" stroke-width="0.864" cx="71.377" cy="7.2" r="1.872"/>
		<rect id="_x30_.3.0.18" x="69.503" y="5.328" fill="none" stroke="#F7BD13" stroke-width="0.864" width="3.745" height="3.744"/>
		<circle id="connector33pad" fill="none" stroke="#F7BD13" stroke-width="0.864" cx="64.176" cy="7.2" r="1.872"/>
		<circle id="connector34pad" fill="none" stroke="#F7BD13" stroke-width="0.864" cx="56.976" cy="7.2" r="1.872"/>
		<circle id="connector35pad" fill="none" stroke="#F7BD13" stroke-width="0.864" cx="49.776" cy="7.2" r="1.872"/>
		<circle id="connector36pad" fill="none" stroke="#F7BD13" stroke-width="0.864" cx="42.577" cy="7.2" r="1.872"/>
		<circle id="connector37pad" fill="none" stroke="#F7BD13" stroke-width="0.864" cx="35.375" cy="7.2" r="1.872"/>
		<circle id="connector38pad" fill="none" stroke="#F7BD13" stroke-width="0.864" cx="28.177" cy="7.2" r="1.872"/>
		<circle id="connector39pad" fill="none" stroke="#F7BD13" stroke-width="0.864" cx="20.976" cy="7.2" r="1.872"/>
		<circle id="connector44pad" fill="none" stroke="#F7BD13" stroke-width="0.864" cx="47.257" cy="144" r="1.872"/>
		<circle id="connector45pad" fill="none" stroke="#F7BD13" stroke-width="0.864" cx="54.456" cy="144" r="1.872"/>
		<circle id="connector46pad" fill="none" stroke="#F7BD13" stroke-width="0.864" cx="61.657" cy="144" r="1.872"/>
		<circle id="connector47pad" fill="none" stroke="#F7BD13" stroke-width="0.864" cx="68.855" cy="144" r="1.872"/>
		<circle id="connector48pad" fill="none" stroke="#F7BD13" stroke-width="0.864" cx="76.057" cy="144" r="1.872"/>
		<circle id="connector49pad" fill="none" stroke="#F7BD13" stroke-width="0.864" cx="83.256" cy="144" r="1.872"/>
	</g>
</g>
</svg>
