<?xml version='1.0' encoding='UTF-8' standalone='no'?>
<!-- Created with Fritzing (http://www.fritzing.org/) -->
<svg xmlns="http://www.w3.org/2000/svg"  width="2in" x="0in" version="1.2" y="0in" height="2.01025in" viewBox="0 0 144 144.738" baseProfile="tiny">
 <desc >Fritzing footprint generated by brd2svg</desc>
 <g  id="silkscreen">
  <path  fill="none" stroke="white" stroke-width="0.576" d="M0.288,72.738a71.712,71.712,0,1,0,143.424,0,71.712,71.712,0,1,0,-143.424,0zM107.083,68.4864a0.916726,0.916726,0,1,1,1.83345,0,0.916726,0.916726,0,1,1,-1.83345,0zM107.083,76.9903a0.916726,0.916726,0,1,1,1.83345,0,0.916726,0.916726,0,1,1,-1.83345,0z"/>
  <g >
   <title >element:+</title>
   <g >
    <title >package:PETAL-LONG-1-2SIDE</title>
   </g>
  </g>
  <g >
   <title >element:-</title>
   <g >
    <title >package:PETAL-LONG-1-2SIDE</title>
   </g>
  </g>
  <g >
   <title >element:A2</title>
   <g >
    <title >package:PETAL-LONG-1-2SIDE</title>
   </g>
  </g>
  <g >
   <title >element:A3</title>
   <g >
    <title >package:PETAL-LONG-1-2SIDE</title>
   </g>
  </g>
  <g >
   <title >element:A4</title>
   <g >
    <title >package:PETAL-LONG-1-2SIDE</title>
   </g>
  </g>
  <g >
   <title >element:A5</title>
   <g >
    <title >package:PETAL-LONG-1-2SIDE</title>
   </g>
  </g>
  <g >
   <title >element:D5</title>
   <g >
    <title >package:PETAL-LONG-1-2SIDE</title>
   </g>
  </g>
  <g >
   <title >element:D6</title>
   <g >
    <title >package:PETAL-LONG-1-2SIDE</title>
   </g>
  </g>
  <g >
   <title >element:D9</title>
   <g >
    <title >package:PETAL-LONG-1-2SIDE</title>
   </g>
  </g>
  <g >
   <title >element:D10</title>
   <g >
    <title >package:PETAL-LONG-1-2SIDE</title>
   </g>
  </g>
  <g >
   <title >element:D11</title>
   <g >
    <title >package:PETAL-LONG-1-2SIDE</title>
   </g>
  </g>
  <g >
   <title >element:JP1</title>
   <g >
    <title >package:JST-2-SMD</title>
    <line  stroke="white" stroke-linecap="round" y1="109.503" x1="76.1386" y2="99.5825" stroke-width="0.576" x2="76.1386"/>
    <line  stroke="white" stroke-linecap="round" y1="99.5825" x1="76.1386" y2="99.5825" stroke-width="0.576" x2="73.8706"/>
    <line  stroke="white" stroke-linecap="round" y1="99.5825" x1="73.8706" y2="106.669" stroke-width="0.576" x2="73.8706"/>
    <line  stroke="white" stroke-linecap="round" y1="106.669" x1="73.8706" y2="106.669" stroke-width="0.576" x2="70.4693"/>
    <line  stroke="white" stroke-linecap="round" y1="106.669" x1="59.1307" y2="106.669" stroke-width="0.576" x2="55.7292"/>
    <line  stroke="white" stroke-linecap="round" y1="106.669" x1="55.7292" y2="99.5825" stroke-width="0.576" x2="55.7292"/>
    <line  stroke="white" stroke-linecap="round" y1="99.5825" x1="55.7292" y2="99.5825" stroke-width="0.576" x2="53.4614"/>
    <line  stroke="white" stroke-linecap="round" y1="99.5825" x1="53.4614" y2="109.503" stroke-width="0.576" x2="53.4614"/>
    <line  stroke="white" stroke-linecap="round" y1="120.842" x1="59.1307" y2="120.842" stroke-width="0.576" x2="70.4693"/>
   </g>
  </g>
  <g >
   <title >element:S1</title>
   <g >
    <title >package:AYZ0202</title>
    <line  stroke="white" stroke-linecap="round" y1="82.9433" x1="103.039" y2="82.9433" stroke-width="0.576" x2="112.961"/>
    <line  stroke="white" stroke-linecap="round" y1="82.9433" x1="112.961" y2="62.5336" stroke-width="0.576" x2="112.961"/>
    <line  stroke="white" stroke-linecap="round" y1="62.5336" x1="112.961" y2="62.5336" stroke-width="0.576" x2="103.039"/>
    <line  stroke="white" stroke-linecap="round" y1="62.5336" x1="103.039" y2="82.9433" stroke-width="0.576" x2="103.039"/>
   </g>
  </g>
  <g >
   <title >element:U$1</title>
   <g >
    <title >package:LOGO-LPA</title>
   </g>
  </g>
  <g >
   <title >element:U$13</title>
   <g >
    <title >package:LOGO-LILYPAD</title>
    <line  stroke="white" stroke-linecap="round" y1="106.434" x1="102.277" y2="100.481" stroke-width="0.576" x2="102.277"/>
    <path  fill="none" stroke="white" stroke-width="0.576" d="M103.977,99.0634A1.56549,1.56549,0,0,0,102.277,100.481"/>
    <path  fill="none" stroke="white" stroke-width="0.576" d="M105.679,100.481A1.56574,1.56574,0,0,0,103.977,99.0634"/>
    <line  stroke="white" stroke-linecap="round" y1="100.481" x1="105.679" y2="101.048" stroke-width="0.576" x2="105.679"/>
    <path  fill="none" stroke="white" stroke-width="0.576" d="M104.261,102.324A1.34859,1.34859,0,0,0,105.679,101.048"/>
    <line  stroke="white" stroke-linecap="round" y1="102.324" x1="104.261" y2="102.324" stroke-width="0.576" x2="103.411"/>
    <path  fill="none" stroke="white" stroke-width="0.576" d="M105.537,106.434A1.0022,1.0022,0,0,0,106.387,105.3"/>
    <line  stroke="white" stroke-linecap="round" y1="106.434" x1="105.537" y2="106.434" stroke-width="0.576" x2="104.97"/>
    <path  fill="none" stroke="white" stroke-width="0.576" d="M103.836,105.016A1.28344,1.28344,0,0,0,104.97,106.434"/>
    <path  fill="none" stroke="white" stroke-width="0.576" d="M104.97,103.599A1.28344,1.28344,0,0,0,103.836,105.016"/>
    <line  stroke="white" stroke-linecap="round" y1="103.599" x1="104.97" y2="103.599" stroke-width="0.576" x2="105.253"/>
    <path  fill="none" stroke="white" stroke-width="0.576" d="M106.387,104.733A1.13386,1.13386,0,0,0,105.253,103.599"/>
    <line  stroke="white" stroke-linecap="round" y1="104.733" x1="106.387" y2="105.3" stroke-width="0.576" x2="106.387"/>
    <path  fill="none" stroke="white" stroke-width="0.576" d="M106.387,105.3A0.945468,0.945468,0,0,0,107.096,106.434"/>
    <path  fill="none" stroke="white" stroke-width="0.576" d="M107.096,106.434A0.807998,0.807998,0,0,0,108.088,105.867"/>
    <line  stroke="white" stroke-linecap="round" y1="105.867" x1="108.088" y2="105.725" stroke-width="0.576" x2="108.088"/>
    <line  stroke="white" stroke-linecap="round" y1="105.725" x1="108.088" y2="105.016" stroke-width="0.576" x2="108.088"/>
    <path  fill="none" stroke="white" stroke-width="0.576" d="M109.364,103.599A1.34832,1.34832,0,0,0,108.088,105.016"/>
    <path  fill="none" stroke="white" stroke-width="0.576" d="M110.639,105.158A1.42439,1.42439,0,0,0,109.364,103.599"/>
    <path  fill="none" stroke="white" stroke-width="0.576" d="M110.639,105.725A1.16875,1.16875,0,0,0,110.639,105.158"/>
    <path  fill="none" stroke="white" stroke-width="0.576" d="M109.788,106.576A1.16875,1.16875,0,0,0,110.639,105.725"/>
    <path  fill="none" stroke="white" stroke-width="0.576" d="M108.088,105.725A1.34459,1.34459,0,0,0,109.788,106.576"/>
    <line  stroke="white" stroke-linecap="round" y1="105.725" x1="110.639" y2="106.008" stroke-width="0.576" x2="110.639"/>
    <path  fill="none" stroke="white" stroke-width="0.576" d="M110.639,106.008A0.566929,0.566929,0,0,0,111.206,106.576"/>
    <path  fill="none" stroke="white" stroke-width="0.576" d="M111.206,106.576A0.566929,0.566929,0,0,0,111.773,106.008"/>
    <line  stroke="white" stroke-linecap="round" y1="105.442" x1="110.639" y2="99.7726" stroke-width="0.576" x2="110.639"/>
    <line  stroke="white" stroke-linecap="round" y1="103.032" x1="92.214" y2="102.89" stroke-width="0.576" x2="92.214"/>
    <path  fill="none" stroke="white" stroke-width="0.576" d="M86.261,98.0712A3.68504,3.68504,0,0,0,89.946,101.757"/>
    <line  stroke="white" stroke-linecap="round" y1="101.757" x1="89.946" y2="101.757" stroke-width="0.576" x2="90.3715"/>
    <path  fill="none" stroke="white" stroke-width="0.576" d="M90.3715,101.757A1.9147,1.9147,0,0,0,92.3558,99.9144"/>
    <path  fill="none" stroke="white" stroke-width="0.576" d="M92.3558,99.9144A0.850392,0.850392,0,0,0,91.5055,99.0634"/>
    <path  fill="none" stroke="white" stroke-width="0.576" d="M88.529,105.3A2.25216,2.25216,0,0,0,85.8362,103.599"/>
    <line  stroke="white" stroke-linecap="round" y1="99.0634" x1="91.2218" y2="99.0634" stroke-width="0.576" x2="91.5055"/>
    <path  fill="none" stroke="white" stroke-width="0.576" d="M91.2218,99.0634A1.98426,1.98426,0,0,0,89.2375,101.048"/>
    <path  fill="none" stroke="white" stroke-width="0.576" d="M85.8362,103.599A1.5033,1.5033,0,0,0,84.5604,105.3"/>
    <line  stroke="white" stroke-linecap="round" y1="103.032" x1="89.2375" y2="101.048" stroke-width="0.576" x2="89.2375"/>
    <path  fill="none" stroke="white" stroke-width="0.576" d="M85.8362,106.434A3.40158,3.40158,0,0,0,89.2375,103.032"/>
    <path  fill="none" stroke="white" stroke-width="0.576" d="M84.5604,105.3A1.20681,1.20681,0,0,0,85.8362,106.434"/>
    <path  fill="none" stroke="white" stroke-width="0.576" d="M89.2375,106.292A2.25216,2.25216,0,0,0,92.214,105.158"/>
    <line  stroke="white" stroke-linecap="round" y1="104.733" x1="92.214" y2="103.882" stroke-width="0.576" x2="92.214"/>
    <line  stroke="white" stroke-linecap="round" y1="104.733" x1="92.214" y2="105.158" stroke-width="0.576" x2="92.214"/>
    <line  stroke="white" stroke-linecap="round" y1="104.45" x1="94.9068" y2="99.7726" stroke-width="0.576" x2="94.9068"/>
    <path  fill="none" stroke="white" stroke-width="0.576" d="M92.214,104.733A1.5033,1.5033,0,0,0,93.4891,106.434"/>
    <path  fill="none" stroke="white" stroke-width="0.576" d="M93.4891,106.434A1.61842,1.61842,0,0,0,94.9068,104.874"/>
    <path  fill="none" stroke="white" stroke-width="0.576" d="M94.9068,104.874A2.77166,2.77166,0,0,0,94.9068,104.45"/>
    <line  stroke="white" stroke-linecap="round" y1="105.016" x1="94.9068" y2="104.874" stroke-width="0.576" x2="94.9068"/>
    <path  fill="none" stroke="white" stroke-width="0.576" d="M94.9068,105.016A1.41732,1.41732,0,0,0,96.3238,106.434"/>
    <path  fill="none" stroke="white" stroke-width="0.576" d="M96.3238,106.434A1.41732,1.41732,0,0,0,97.7414,105.016"/>
    <line  stroke="white" stroke-linecap="round" y1="105.016" x1="97.7414" y2="103.316" stroke-width="0.576" x2="97.7414"/>
    <path  fill="none" stroke="white" stroke-width="0.576" d="M97.7414,105.016A1.41732,1.41732,0,0,0,99.1584,106.434"/>
    <path  fill="none" stroke="white" stroke-width="0.576" d="M101.426,111.253A3.69593,3.69593,0,0,0,97.4578,107.851"/>
    <path  fill="none" stroke="white" stroke-width="0.576" d="M99.1584,106.434A1.41732,1.41732,0,0,0,100.576,105.016"/>
    <line  stroke="white" stroke-linecap="round" y1="105.016" x1="100.576" y2="103.316" stroke-width="0.576" x2="100.576"/>
    <line  stroke="white" stroke-linecap="round" y1="107.284" x1="100.576" y2="105.016" stroke-width="0.576" x2="100.576"/>
    <line  stroke="white" stroke-linecap="round" y1="107.851" x1="96.8911" y2="107.851" stroke-width="0.576" x2="97.4578"/>
    <path  fill="none" stroke="white" stroke-width="0.576" d="M96.8911,107.851A1.70078,1.70078,0,0,0,95.1905,109.552"/>
    <path  fill="none" stroke="white" stroke-width="0.576" d="M96.8911,110.969A3.68504,3.68504,0,0,0,100.576,107.284"/>
    <line  stroke="white" stroke-linecap="round" y1="110.969" x1="96.6074" y2="110.969" stroke-width="0.576" x2="96.8911"/>
    <path  fill="none" stroke="white" stroke-width="0.576" d="M95.1905,109.552A1.41732,1.41732,0,0,0,96.6074,110.969"/>
    <path  fill="none" stroke="white" stroke-width="0.576" d="M88.529,105.3A1.44539,1.44539,0,0,0,90.2297,106.434"/>
   </g>
  </g>
  <g >
   <title >element:U3</title>
   <g >
    <title >package:QFN-44</title>
    <line  stroke="white" stroke-linecap="round" y1="66.6155" x1="62.0788" y2="71.8596" stroke-width="0.576" x2="62.0788"/>
    <line  stroke="white" stroke-linecap="round" y1="71.8596" x1="67.3228" y2="71.8596" stroke-width="0.576" x2="62.0788"/>
    <line  stroke="white" stroke-linecap="round" y1="57.2612" x1="62.0788" y2="52.0171" stroke-width="0.576" x2="62.0788"/>
    <line  stroke="white" stroke-linecap="round" y1="52.0171" x1="62.0788" y2="52.0171" stroke-width="0.576" x2="63.2126"/>
    <line  stroke="white" stroke-linecap="round" y1="71.8596" x1="76.6771" y2="71.8596" stroke-width="0.576" x2="81.9216"/>
    <line  stroke="white" stroke-linecap="round" y1="71.8596" x1="81.9216" y2="66.6155" stroke-width="0.576" x2="81.9216"/>
    <line  stroke="white" stroke-linecap="round" y1="53.4344" x1="81.9216" y2="52.0171" stroke-width="0.576" x2="80.5039"/>
   </g>
  </g>
  <g >
   <title >element:X1</title>
   <g >
    <title >package:USB-MICROB</title>
    <line  stroke="white" stroke-linecap="round" y1="11.4816" x1="81.6379" y2="16.0171" stroke-width="0.576" x2="81.6379"/>
    <line  stroke="white" stroke-linecap="round" y1="16.0171" x1="81.6379" y2="16.0171" stroke-width="0.576" x2="78.2359"/>
    <line  stroke="white" stroke-linecap="round" y1="16.0171" x1="62.3622" y2="16.0171" stroke-width="0.576" x2="65.7638"/>
    <line  stroke="white" stroke-linecap="round" y1="11.4816" x1="62.3622" y2="16.0171" stroke-width="0.576" x2="62.3622"/>
    <line  stroke="white" stroke-linecap="round" y1="3.82811" x1="81.6379" y2="3.82811" stroke-width="0.576" x2="62.3622"/>
    <line  stroke="white" stroke-linecap="round" y1="16.0171" x1="78.2359" y2="12.0486" stroke-width="0.576" x2="78.2359"/>
    <line  stroke="white" stroke-linecap="round" y1="12.0486" x1="78.2359" y2="12.0486" stroke-width="0.576" x2="65.7638"/>
    <line  stroke="white" stroke-linecap="round" y1="12.0486" x1="65.7638" y2="16.0171" stroke-width="0.576" x2="65.7638"/>
   </g>
  </g>
  <line  fill="none" stroke="white" fill-opacity="1" y1="0.288" x1="60.6614" y2="0.288" stroke-width="0.576" x2="83.3386"/>
  <line  fill="none" stroke="white" fill-opacity="1" y1="0.738338" x1="60.6614" y2="0.288" stroke-width="0.576" x2="60.6614"/>
  <line  fill="none" stroke="white" fill-opacity="1" y1="0.738338" x1="83.3386" y2="0.288" stroke-width="0.576" x2="83.3386"/>
 </g>
 <g  id="copper1">
  <g  id="copper0">
   <circle  fill="none" cx="40.8614" cy="126.523" connectorname="GND" stroke="#F7BD13" r="4.86" id="connector1pad" stroke-width="1.8"/>
   <circle  fill="none" cx="40.8614" cy="18.9537" connectorname="N$17" stroke="#F7BD13" r="4.86" id="connector2pad" stroke-width="1.8"/>
   <circle  fill="none" cx="18.2154" cy="41.5997" connectorname="N$16" stroke="#F7BD13" r="4.86" id="connector3pad" stroke-width="1.8"/>
   <circle  fill="none" cx="9.72288" cy="72.738" connectorname="N$15" stroke="#F7BD13" r="4.86" id="connector4pad" stroke-width="1.8"/>
   <circle  fill="none" cx="18.2154" cy="103.877" connectorname="N$14" stroke="#F7BD13" r="4.86" id="connector5pad" stroke-width="1.8"/>
   <circle  fill="none" cx="103.139" cy="126.523" connectorname="N$12" stroke="#F7BD13" r="4.86" id="connector24pad" stroke-width="1.8"/>
   <circle  fill="none" cx="125.785" cy="103.877" connectorname="N$13" stroke="#F7BD13" r="4.86" id="connector25pad" stroke-width="1.8"/>
   <circle  fill="none" cx="134.277" cy="72.738" connectorname="N$11" stroke="#F7BD13" r="4.86" id="connector26pad" stroke-width="1.8"/>
   <circle  fill="none" cx="125.785" cy="41.5997" connectorname="N$10" stroke="#F7BD13" r="4.86" id="connector27pad" stroke-width="1.8"/>
   <circle  fill="none" cx="103.139" cy="18.9537" connectorname="1" stroke="#F7BD13" r="4.86" id="connector28pad" stroke-width="1.8"/>
   <circle  fill="none" cx="72" cy="135.016" connectorname="3.3V" stroke="#F7BD13" r="4.86" id="connector0pad" stroke-width="1.8"/>
  </g>
 </g>
</svg>
