<?xml version='1.0' encoding='UTF-8' standalone='no'?>
<!-- Created with Fritzing (http://www.fritzing.org/) -->
<svg xmlns="http://www.w3.org/2000/svg"  width="1.9685in" x="0in" version="1.2" y="0in" height="1.9685in" viewBox="0 0 141.732 141.732" baseProfile="tiny">
 <desc >Fritzing footprint generated by brd2svg</desc>
 <g  id="silkscreen">
  <path  fill="none" stroke="white" stroke-width="0.576" d="M0.288,70.8661a70.5781,70.5781,0,1,0,141.156,0,70.5781,70.5781,0,1,0,-141.156,0zM83.5697,36.8504a1.69626,1.69626,0,1,1,3.3925,0,1.69626,1.69626,0,1,1,-3.3925,0zM54.7699,36.8504a1.69626,1.69626,0,1,1,3.3925,0,1.69626,1.69626,0,1,1,-3.3925,0zM74.201,95.5274a0.916726,0.916726,0,1,1,1.83345,0,0.916726,0.916726,0,1,1,-1.83345,0zM65.6975,95.5274a0.916726,0.916726,0,1,1,1.83345,0,0.916726,0.916726,0,1,1,-1.83345,0z"/>
  <g >
   <title >element:A2/16</title>
   <g >
    <title >package:PETAL-LONG-1-2SIDE</title>
   </g>
  </g>
  <g >
   <title >element:A3/17</title>
   <g >
    <title >package:PETAL-LONG-1-2SIDE</title>
   </g>
  </g>
  <g >
   <title >element:A4/18</title>
   <g >
    <title >package:PETAL-LONG-1-2SIDE</title>
   </g>
  </g>
  <g >
   <title >element:A5/19</title>
   <g >
    <title >package:PETAL-LONG-1-2SIDE</title>
   </g>
  </g>
  <g >
   <title >element:JP1</title>
   <g >
    <title >package:JST-2-SMD</title>
    <line  stroke="white" stroke-linecap="round" y1="82.2046" x1="34.0158" y2="82.2046" stroke-width="0.576" x2="43.937"/>
    <line  stroke="white" stroke-linecap="round" y1="82.2046" x1="43.937" y2="79.9373" stroke-width="0.576" x2="43.937"/>
    <line  stroke="white" stroke-linecap="round" y1="79.9373" x1="43.937" y2="79.9373" stroke-width="0.576" x2="36.8504"/>
    <line  stroke="white" stroke-linecap="round" y1="79.9373" x1="36.8504" y2="76.5353" stroke-width="0.576" x2="36.8504"/>
    <line  stroke="white" stroke-linecap="round" y1="65.1969" x1="36.8504" y2="61.7953" stroke-width="0.576" x2="36.8504"/>
    <line  stroke="white" stroke-linecap="round" y1="61.7953" x1="36.8504" y2="61.7953" stroke-width="0.576" x2="43.937"/>
    <line  stroke="white" stroke-linecap="round" y1="61.7953" x1="43.937" y2="59.5276" stroke-width="0.576" x2="43.937"/>
    <line  stroke="white" stroke-linecap="round" y1="59.5276" x1="43.937" y2="59.5276" stroke-width="0.576" x2="34.0158"/>
    <line  stroke="white" stroke-linecap="round" y1="65.1969" x1="22.6772" y2="76.5353" stroke-width="0.576" x2="22.6772"/>
   </g>
  </g>
  <g >
   <title >element:JP2</title>
   <g >
    <title >package:1X06-SMD</title>
   </g>
  </g>
  <g >
   <title >element:S2</title>
   <g >
    <title >package:AYZ0202</title>
    <line  stroke="white" stroke-linecap="round" y1="90.5666" x1="60.6614" y2="100.488" stroke-width="0.576" x2="60.6614"/>
    <line  stroke="white" stroke-linecap="round" y1="100.488" x1="60.6614" y2="100.488" stroke-width="0.576" x2="81.0706"/>
    <line  stroke="white" stroke-linecap="round" y1="100.488" x1="81.0706" y2="90.5666" stroke-width="0.576" x2="81.0706"/>
    <line  stroke="white" stroke-linecap="round" y1="90.5666" x1="81.0706" y2="90.5666" stroke-width="0.576" x2="60.6614"/>
   </g>
  </g>
  <g >
   <title >element:U$1</title>
   <g >
    <title >package:LOGO-LPA</title>
    <line  stroke="white" stroke-linecap="round" y1="113.386" x1="60.1795" y2="107.433" stroke-width="0.576" x2="60.1795"/>
    <path  fill="none" stroke="white" stroke-width="0.576" d="M61.8803,106.016A1.56549,1.56549,0,0,0,60.1795,107.433"/>
    <path  fill="none" stroke="white" stroke-width="0.576" d="M63.5811,107.433A1.56574,1.56574,0,0,0,61.8803,106.016"/>
    <line  stroke="white" stroke-linecap="round" y1="107.433" x1="63.5811" y2="108" stroke-width="0.576" x2="63.5811"/>
    <path  fill="none" stroke="white" stroke-width="0.576" d="M62.1638,109.276A1.34859,1.34859,0,0,0,63.5811,108"/>
    <line  stroke="white" stroke-linecap="round" y1="109.276" x1="62.1638" y2="109.276" stroke-width="0.576" x2="61.3134"/>
    <path  fill="none" stroke="white" stroke-width="0.576" d="M63.4393,113.386A1.0022,1.0022,0,0,0,64.2897,112.252"/>
    <line  stroke="white" stroke-linecap="round" y1="113.386" x1="63.4393" y2="113.386" stroke-width="0.576" x2="62.8724"/>
    <path  fill="none" stroke="white" stroke-width="0.576" d="M61.7386,111.969A1.28344,1.28344,0,0,0,62.8724,113.386"/>
    <path  fill="none" stroke="white" stroke-width="0.576" d="M62.8724,110.551A1.28344,1.28344,0,0,0,61.7386,111.969"/>
    <line  stroke="white" stroke-linecap="round" y1="110.551" x1="62.8724" y2="110.551" stroke-width="0.576" x2="63.1559"/>
    <path  fill="none" stroke="white" stroke-width="0.576" d="M64.2897,111.685A1.13386,1.13386,0,0,0,63.1559,110.551"/>
    <line  stroke="white" stroke-linecap="round" y1="111.685" x1="64.2897" y2="112.252" stroke-width="0.576" x2="64.2897"/>
    <path  fill="none" stroke="white" stroke-width="0.576" d="M64.2897,112.252A0.945468,0.945468,0,0,0,64.9984,113.386"/>
    <path  fill="none" stroke="white" stroke-width="0.576" d="M64.9984,113.386A0.807998,0.807998,0,0,0,65.9905,112.819"/>
    <line  stroke="white" stroke-linecap="round" y1="112.819" x1="65.9905" y2="112.677" stroke-width="0.576" x2="65.9905"/>
    <line  stroke="white" stroke-linecap="round" y1="112.677" x1="65.9905" y2="111.969" stroke-width="0.576" x2="65.9905"/>
    <path  fill="none" stroke="white" stroke-width="0.576" d="M67.2661,110.551A1.34832,1.34832,0,0,0,65.9905,111.969"/>
    <path  fill="none" stroke="white" stroke-width="0.576" d="M68.5418,112.11A1.42439,1.42439,0,0,0,67.2661,110.551"/>
    <path  fill="none" stroke="white" stroke-width="0.576" d="M68.5418,112.677A1.16875,1.16875,0,0,0,68.5418,112.11"/>
    <path  fill="none" stroke="white" stroke-width="0.576" d="M67.6913,113.527A1.16875,1.16875,0,0,0,68.5418,112.677"/>
    <path  fill="none" stroke="white" stroke-width="0.576" d="M65.9905,112.677A1.34459,1.34459,0,0,0,67.6913,113.527"/>
    <line  stroke="white" stroke-linecap="round" y1="112.677" x1="68.5418" y2="112.961" stroke-width="0.576" x2="68.5418"/>
    <path  fill="none" stroke="white" stroke-width="0.576" d="M68.5418,112.961A0.566929,0.566929,0,0,0,69.1087,113.527"/>
    <path  fill="none" stroke="white" stroke-width="0.576" d="M69.1087,113.527A0.566929,0.566929,0,0,0,69.6756,112.961"/>
    <line  stroke="white" stroke-linecap="round" y1="112.393" x1="68.5418" y2="106.724" stroke-width="0.576" x2="68.5418"/>
    <path  fill="none" stroke="white" stroke-width="0.576" d="M72.9353,107.433A3.47461,3.47461,0,0,0,77.0458,110.126"/>
    <path  fill="none" stroke="white" stroke-width="0.576" d="M82.5732,113.386A0.708661,0.708661,0,0,0,83.2817,112.677"/>
    <line  stroke="white" stroke-linecap="round" y1="112.677" x1="83.2817" y2="112.535" stroke-width="0.576" x2="83.2817"/>
    <line  stroke="white" stroke-linecap="round" y1="112.535" x1="83.2817" y2="111.827" stroke-width="0.576" x2="83.2817"/>
    <path  fill="none" stroke="white" stroke-width="0.576" d="M84.5575,110.551A1.27559,1.27559,0,0,0,83.2817,111.827"/>
    <path  fill="none" stroke="white" stroke-width="0.576" d="M85.8334,111.969A1.34832,1.34832,0,0,0,84.5575,110.551"/>
    <path  fill="none" stroke="white" stroke-width="0.576" d="M85.8334,112.535A1.16875,1.16875,0,0,0,85.8334,111.969"/>
    <path  fill="none" stroke="white" stroke-width="0.576" d="M84.9823,113.386A1.16875,1.16875,0,0,0,85.8334,112.535"/>
    <path  fill="none" stroke="white" stroke-width="0.576" d="M83.2817,112.535A1.34459,1.34459,0,0,0,84.9823,113.386"/>
    <line  stroke="white" stroke-linecap="round" y1="112.535" x1="85.8334" y2="112.819" stroke-width="0.576" x2="85.8334"/>
    <path  fill="none" stroke="white" stroke-width="0.576" d="M85.8334,112.819A0.722693,0.722693,0,0,0,86.6837,113.386"/>
    <path  fill="none" stroke="white" stroke-width="0.576" d="M86.6837,113.386A0.566929,0.566929,0,0,0,87.2503,112.819"/>
    <line  stroke="white" stroke-linecap="round" y1="112.252" x1="85.8334" y2="106.582" stroke-width="0.576" x2="85.8334"/>
    <path  fill="none" stroke="white" stroke-width="0.576" d="M97.8804,110.835A1.28344,1.28344,0,0,0,96.7464,112.252"/>
    <line  stroke="white" stroke-linecap="round" y1="110.835" x1="97.8804" y2="110.835" stroke-width="0.576" x2="98.1641"/>
    <path  fill="none" stroke="white" stroke-width="0.576" d="M99.2974,111.969A1.13386,1.13386,0,0,0,98.1641,110.835"/>
    <line  stroke="white" stroke-linecap="round" y1="112.252" x1="99.2974" y2="111.969" stroke-width="0.576" x2="99.2974"/>
    <path  fill="none" stroke="white" stroke-width="0.576" d="M98.1641,113.527A1.20681,1.20681,0,0,0,99.2974,112.252"/>
    <line  stroke="white" stroke-linecap="round" y1="113.527" x1="97.8804" y2="113.527" stroke-width="0.576" x2="98.1641"/>
    <path  fill="none" stroke="white" stroke-width="0.576" d="M96.7464,112.252A1.20681,1.20681,0,0,0,97.8804,113.527"/>
    <path  fill="none" stroke="white" stroke-width="0.576" d="M97.4549,110.976A1.58461,1.58461,0,0,0,99.2974,112.252"/>
    <line  stroke="white" stroke-linecap="round" y1="112.252" x1="99.2974" y2="112.252" stroke-width="0.576" x2="99.1562"/>
    <path  fill="none" stroke="white" stroke-width="0.576" d="M99.1562,112.252A1.08404,1.08404,0,0,0,100.431,111.401"/>
    <line  stroke="white" stroke-linecap="round" y1="111.401" x1="100.431" y2="110.976" stroke-width="0.576" x2="100.431"/>
    <path  fill="none" stroke="white" stroke-width="0.576" d="M96.1798,113.386A0.722693,0.722693,0,0,0,96.7464,112.535"/>
    <line  stroke="white" stroke-linecap="round" y1="113.386" x1="95.7542" y2="113.386" stroke-width="0.576" x2="96.1798"/>
    <path  fill="none" stroke="white" stroke-width="0.576" d="M95.3294,112.677A0.58438,0.58438,0,0,0,95.7542,113.386"/>
    <line  stroke="white" stroke-linecap="round" y1="111.543" x1="95.3294" y2="112.677" stroke-width="0.576" x2="95.3294"/>
    <path  fill="none" stroke="white" stroke-width="0.576" d="M95.3294,111.543A0.782741,0.782741,0,0,0,94.4784,110.835"/>
    <line  stroke="white" stroke-linecap="round" y1="110.835" x1="94.0536" y2="110.835" stroke-width="0.576" x2="94.4784"/>
    <path  fill="none" stroke="white" stroke-width="0.576" d="M94.0536,110.835A0.850392,0.850392,0,0,0,93.2033,111.685"/>
    <line  stroke="white" stroke-linecap="round" y1="112.535" x1="93.2033" y2="110.551" stroke-width="0.576" x2="93.2033"/>
    <line  stroke="white" stroke-linecap="round" y1="112.535" x1="93.2033" y2="111.685" stroke-width="0.576" x2="93.2033"/>
    <path  fill="none" stroke="white" stroke-width="0.576" d="M92.353,113.386A0.850392,0.850392,0,0,0,93.2033,112.535"/>
    <path  fill="none" stroke="white" stroke-width="0.576" d="M91.219,112.252A1.13386,1.13386,0,0,0,92.353,113.386"/>
    <line  stroke="white" stroke-linecap="round" y1="112.11" x1="91.219" y2="110.835" stroke-width="0.576" x2="91.219"/>
    <line  stroke="white" stroke-linecap="round" y1="112.11" x1="91.219" y2="112.252" stroke-width="0.576" x2="91.219"/>
    <line  stroke="white" stroke-linecap="round" y1="112.535" x1="91.219" y2="112.11" stroke-width="0.576" x2="91.219"/>
    <path  fill="none" stroke="white" stroke-width="0.576" d="M90.3686,113.386A0.850392,0.850392,0,0,0,91.219,112.535"/>
    <line  stroke="white" stroke-linecap="round" y1="112.252" x1="89.5183" y2="110.835" stroke-width="0.576" x2="89.5183"/>
    <path  fill="none" stroke="white" stroke-width="0.576" d="M89.5183,112.252A1.0022,1.0022,0,0,0,90.3686,113.386"/>
    <line  stroke="white" stroke-linecap="round" y1="112.535" x1="87.2503" y2="110.835" stroke-width="0.576" x2="87.2503"/>
    <path  fill="none" stroke="white" stroke-width="0.576" d="M87.2503,112.535A1.08404,1.08404,0,0,0,88.5262,113.386"/>
    <path  fill="none" stroke="white" stroke-width="0.576" d="M88.5262,113.386A1.06535,1.06535,0,0,0,89.5183,112.252"/>
    <line  stroke="white" stroke-linecap="round" y1="111.118" x1="81.1562" y2="111.118" stroke-width="0.576" x2="81.7229"/>
    <path  fill="none" stroke="white" stroke-width="0.576" d="M79.4549,109.701A1.56574,1.56574,0,0,0,81.1562,111.118"/>
    <line  stroke="white" stroke-linecap="round" y1="112.535" x1="79.4549" y2="109.701" stroke-width="0.576" x2="79.4549"/>
    <path  fill="none" stroke="white" stroke-width="0.576" d="M78.3216,113.386A1.0022,1.0022,0,0,0,79.4549,112.535"/>
    <path  fill="none" stroke="white" stroke-width="0.576" d="M77.1876,112.252A1.13386,1.13386,0,0,0,78.3216,113.386"/>
    <line  stroke="white" stroke-linecap="round" y1="107.716" x1="76.9039" y2="112.252" stroke-width="0.576" x2="77.1876"/>
    <path  fill="none" stroke="white" stroke-width="0.576" d="M76.9039,107.716A1.70078,1.70078,0,0,0,75.2033,106.016"/>
    <line  stroke="white" stroke-linecap="round" y1="106.016" x1="74.9196" y2="106.016" stroke-width="0.576" x2="75.2033"/>
    <line  stroke="white" stroke-linecap="round" y1="109.701" x1="74.9196" y2="106.016" stroke-width="0.576" x2="74.9196"/>
    <path  fill="none" stroke="white" stroke-width="0.576" d="M69.2504,115.795A5.88573,5.88573,0,0,0,74.9196,109.701"/>
    <line  stroke="white" stroke-linecap="round" y1="111.118" x1="81.7229" y2="112.677" stroke-width="0.576" x2="81.7229"/>
    <path  fill="none" stroke="white" stroke-width="0.576" d="M81.7229,112.677A0.708661,0.708661,0,0,0,82.4314,113.386"/>
    <line  stroke="white" stroke-linecap="round" y1="109.984" x1="50.1165" y2="109.842" stroke-width="0.576" x2="50.1165"/>
    <line  stroke="white" stroke-linecap="round" y1="109.842" x1="91.219" y2="109.984" stroke-width="0.576" x2="91.219"/>
    <path  fill="none" stroke="white" stroke-width="0.576" d="M44.1638,105.024A3.68504,3.68504,0,0,0,47.8488,108.708"/>
    <line  stroke="white" stroke-linecap="round" y1="108.708" x1="47.8488" y2="108.708" stroke-width="0.576" x2="48.274"/>
    <path  fill="none" stroke="white" stroke-width="0.576" d="M48.274,108.708A1.9147,1.9147,0,0,0,50.2582,106.866"/>
    <path  fill="none" stroke="white" stroke-width="0.576" d="M50.2582,106.866A0.850392,0.850392,0,0,0,49.4078,106.016"/>
    <path  fill="none" stroke="white" stroke-width="0.576" d="M46.4315,112.252A2.25216,2.25216,0,0,0,43.7386,110.551"/>
    <line  stroke="white" stroke-linecap="round" y1="106.016" x1="49.1244" y2="106.016" stroke-width="0.576" x2="49.4078"/>
    <path  fill="none" stroke="white" stroke-width="0.576" d="M49.1244,106.016A1.98426,1.98426,0,0,0,47.1401,108"/>
    <path  fill="none" stroke="white" stroke-width="0.576" d="M43.7386,110.551A1.5033,1.5033,0,0,0,42.463,112.252"/>
    <line  stroke="white" stroke-linecap="round" y1="109.984" x1="47.1401" y2="108" stroke-width="0.576" x2="47.1401"/>
    <path  fill="none" stroke="white" stroke-width="0.576" d="M43.7386,113.386A3.40158,3.40158,0,0,0,47.1401,109.984"/>
    <path  fill="none" stroke="white" stroke-width="0.576" d="M42.463,112.252A1.20681,1.20681,0,0,0,43.7386,113.386"/>
    <path  fill="none" stroke="white" stroke-width="0.576" d="M47.1401,113.244A2.25216,2.25216,0,0,0,50.1165,112.11"/>
    <line  stroke="white" stroke-linecap="round" y1="111.685" x1="50.1165" y2="110.835" stroke-width="0.576" x2="50.1165"/>
    <line  stroke="white" stroke-linecap="round" y1="111.685" x1="50.1165" y2="112.11" stroke-width="0.576" x2="50.1165"/>
    <line  stroke="white" stroke-linecap="round" y1="111.401" x1="52.8095" y2="106.724" stroke-width="0.576" x2="52.8095"/>
    <path  fill="none" stroke="white" stroke-width="0.576" d="M50.1165,111.685A1.5033,1.5033,0,0,0,51.3922,113.386"/>
    <path  fill="none" stroke="white" stroke-width="0.576" d="M51.3922,113.386A1.61842,1.61842,0,0,0,52.8095,111.827"/>
    <path  fill="none" stroke="white" stroke-width="0.576" d="M52.8095,111.827A2.77166,2.77166,0,0,0,52.8095,111.401"/>
    <line  stroke="white" stroke-linecap="round" y1="111.969" x1="52.8095" y2="111.827" stroke-width="0.576" x2="52.8095"/>
    <path  fill="none" stroke="white" stroke-width="0.576" d="M52.8095,111.969A1.41732,1.41732,0,0,0,54.2268,113.386"/>
    <path  fill="none" stroke="white" stroke-width="0.576" d="M54.2268,113.386A1.41732,1.41732,0,0,0,55.6441,111.969"/>
    <line  stroke="white" stroke-linecap="round" y1="111.969" x1="55.6441" y2="110.268" stroke-width="0.576" x2="55.6441"/>
    <path  fill="none" stroke="white" stroke-width="0.576" d="M55.6441,111.969A1.41732,1.41732,0,0,0,57.0614,113.386"/>
    <path  fill="none" stroke="white" stroke-width="0.576" d="M59.3292,118.205A3.69593,3.69593,0,0,0,55.3607,114.803"/>
    <path  fill="none" stroke="white" stroke-width="0.576" d="M57.0614,113.386A1.41732,1.41732,0,0,0,58.4788,111.969"/>
    <line  stroke="white" stroke-linecap="round" y1="111.969" x1="58.4788" y2="110.268" stroke-width="0.576" x2="58.4788"/>
    <line  stroke="white" stroke-linecap="round" y1="114.236" x1="58.4788" y2="111.969" stroke-width="0.576" x2="58.4788"/>
    <line  stroke="white" stroke-linecap="round" y1="114.803" x1="54.7937" y2="114.803" stroke-width="0.576" x2="55.3607"/>
    <path  fill="none" stroke="white" stroke-width="0.576" d="M54.7937,114.803A1.70078,1.70078,0,0,0,53.0929,116.504"/>
    <path  fill="none" stroke="white" stroke-width="0.576" d="M54.7937,117.922A3.68504,3.68504,0,0,0,58.4788,114.236"/>
    <line  stroke="white" stroke-linecap="round" y1="117.922" x1="54.5103" y2="117.922" stroke-width="0.576" x2="54.7937"/>
    <path  fill="none" stroke="white" stroke-width="0.576" d="M53.0929,116.504A1.41732,1.41732,0,0,0,54.5103,117.922"/>
    <path  fill="none" stroke="white" stroke-width="0.576" d="M46.4315,112.252A1.44539,1.44539,0,0,0,48.1323,113.386"/>
   </g>
  </g>
  <g >
   <title >element:U$4</title>
   <g >
    <title >package:PETAL-LONG-1-2SIDE</title>
   </g>
  </g>
  <g >
   <title >element:U$35</title>
   <g >
    <title >package:PETAL-LONG-1-2SIDE</title>
   </g>
  </g>
  <g >
   <title >element:U$37</title>
   <g >
    <title >package:PETAL-LONG-1-2SIDE</title>
   </g>
  </g>
  <g >
   <title >element:U$39</title>
   <g >
    <title >package:PETAL-LONG-1-2SIDE</title>
   </g>
  </g>
  <g >
   <title >element:U$41</title>
   <g >
    <title >package:PETAL-LONG-1-2SIDE</title>
   </g>
  </g>
  <g >
   <title >element:U$43</title>
   <g >
    <title >package:PETAL-LONG-1-2SIDE</title>
   </g>
  </g>
  <g >
   <title >element:U$45</title>
   <g >
    <title >package:PETAL-LONG-1-2SIDE</title>
   </g>
  </g>
  <g >
   <title >element:U1</title>
   <g >
    <title >package:TQFP32-08</title>
    <line  stroke="white" stroke-linecap="round" y1="60.9307" x1="80.8013" y2="80.8013" stroke-width="0.432" x2="80.8013"/>
    <line  stroke="white" stroke-linecap="round" y1="80.8013" x1="80.8013" y2="80.8013" stroke-width="0.432" x2="60.9307"/>
    <line  stroke="white" stroke-linecap="round" y1="80.8013" x1="60.9307" y2="61.937" stroke-width="0.432" x2="60.9307"/>
    <line  stroke="white" stroke-linecap="round" y1="60.9307" x1="61.937" y2="60.9307" stroke-width="0.432" x2="80.8013"/>
    <line  stroke="white" stroke-linecap="round" y1="60.9307" x1="61.937" y2="61.937" stroke-width="0.432" x2="60.9307"/>
    <circle  fill="none" cx="63.0901" cy="63.0901" stroke="white" r="1.0182" stroke-width="0.432"/>
   </g>
  </g>
 </g>
 <g  id="copper1">
  <g  id="copper0">
   <circle  fill="none" cx="104.099" cy="19.1771" connectorname="A3" stroke="#F7BD13" r="4.86" id="connector1pad" stroke-width="1.8"/>
   <circle  fill="none" cx="70.8661" cy="9.43934" connectorname="A4" stroke="#F7BD13" r="4.86" id="connector2pad" stroke-width="1.8"/>
   <circle  fill="none" cx="37.2705" cy="19.2451" connectorname="A5" stroke="#F7BD13" r="4.86" id="connector3pad" stroke-width="1.8"/>
   <circle  fill="none" cx="53.5703" cy="129.83" connectorname="D6" stroke="#F7BD13" r="4.86" id="connector57pad" stroke-width="1.8"/>
   <circle  fill="none" cx="14.9026" cy="45.3046" connectorname="GND" stroke="#F7BD13" r="4.86" id="connector61pad" stroke-width="1.8"/>
   <circle  fill="none" cx="117.29" cy="111.091" connectorname="D10" stroke="#F7BD13" r="4.86" id="connector59pad" stroke-width="1.8"/>
   <circle  fill="none" cx="131.67" cy="79.6133" connectorname="D11" stroke="#F7BD13" r="4.86" id="connector56pad" stroke-width="1.8"/>
   <circle  fill="none" cx="88.1618" cy="129.83" connectorname="D9" stroke="#F7BD13" r="4.86" id="connector58pad" stroke-width="1.8"/>
   <circle  fill="none" cx="24.4423" cy="111.091" connectorname="D5" stroke="#F7BD13" r="4.86" id="connector60pad" stroke-width="1.8"/>
   <circle  fill="none" cx="10.3399" cy="79.5737" connectorname="VCC" stroke="#F7BD13" r="4.86" id="connector62pad" stroke-width="1.8"/>
   <circle  fill="none" cx="126.829" cy="45.2762" connectorname="A2" stroke="#F7BD13" r="4.86" id="connector0pad" stroke-width="1.8"/>
  </g>
 </g>
</svg>
