<?xml version='1.0' encoding='UTF-8' standalone='no'?>
<!-- Created with Inkscape (http://www.inkscape.org/) -->
<svg xmlns="http://www.w3.org/2000/svg"  width="303.30707" version="1.1" height="190.98425" id="0">
 <desc   id="0.0" oldid="0.0">
  <referenceFile   id="0.0.0" oldid="0.0.0">Raspberry_Pi__5889ebdacacba08460c01af1fc__pcb__5eb56eba11868dbcedacabe058efa32c.svg</referenceFile>
 </desc>
 <defs   id="0.1" oldid="0.1"/>
 <metadata   id="0.2" oldid="0.2">
  <rdf:RDF xmlns:rdf="http://www.w3.org/1999/02/22-rdf-syntax-ns#"  id="0.2.0" oldid="0.2.0">
   <cc:Work xmlns:cc="http://creativecommons.org/ns#"  rdf:about="" xmlns:rdf="http://www.w3.org/1999/02/22-rdf-syntax-ns#" id="0.2.0.0" oldid="0.2.0.0">
    <dc:format xmlns:dc="http://purl.org/dc/elements/1.1/"  id="0.2.0.0.0" oldid="0.2.0.0.0">image/svg+xml</dc:format>
    <dc:type xmlns:dc="http://purl.org/dc/elements/1.1/"  id="0.2.0.0.1" oldid="0.2.0.0.1" rdf:resource="http://purl.org/dc/dcmitype/StillImage" xmlns:rdf="http://www.w3.org/1999/02/22-rdf-syntax-ns#"/>
    <dc:title xmlns:dc="http://purl.org/dc/elements/1.1/"  id="0.2.0.0.2" oldid="0.2.0.0.2"/>
   </cc:Work>
  </rdf:RDF>
 </metadata>
 <g   id="0.3" transform="translate(0,-861.37794)">
  <g   id="0.3">
   <g   id="layer1">
    <g   id="0.3.0.0.0" transform="matrix(1.2499997,0,0,1.2499997,80.417165,280.90006)">
     <g   id="0.3.0.0">
      <g   id="copper1">
       <g   id="copper0">
        <g   id="0.3.0.0.0.0.0.0.0" transform="translate(-60.592923,467.91902)">
         <g   id="0.3.0.0.0.0.0">
          <g   id="0.2.0.0.0">
           <circle  cx="1.98"  cy="2.484" style="fill:none;stroke:#ffbf00;stroke-width:1.5" id="connector1pin" r="1.98" d="m 3.96,2.484 c 0,1.0935238 -0.8864762,1.98 -1.98,1.98 C 0.8864762,4.464 0,3.5775238 0,2.484 0,1.3904762 0.8864762,0.50399995 1.98,0.50399995 c 1.0935238,0 1.98,0.88647625 1.98,1.98000005 z"/>
          </g>
         </g>
        </g>
        <g   id="0.3.0.0.0.0.0.0.1" transform="translate(-60.592923,467.91902)">
         <g   id="0.3.0.0.0.0.1">
          <g   id="0.2.0.0.1">
           <circle  cx="9.1800003"  cy="2.484" style="fill:none;stroke:#ffbf00;stroke-width:1.5" id="connector27pin" r="1.98" d="m 11.16,2.484 c 0,1.0935238 -0.886476,1.98 -1.9799997,1.98 -1.0935238,0 -1.98,-0.8864762 -1.98,-1.98 0,-1.0935238 0.8864762,-1.98000005 1.98,-1.98000005 C 10.273524,0.50399995 11.16,1.3904762 11.16,2.484 z"/>
          </g>
         </g>
        </g>
        <g   id="0.3.0.0.0.0.0.0.2" transform="translate(-60.592923,467.91902)">
         <g   id="0.3.0.0.0.0.2">
          <g   id="0.2.0.0.2">
           <circle  cx="16.884001"  cy="2.484" style="fill:none;stroke:#ffbf00;stroke-width:1.5" id="connector5pin" r="1.98" d="m 18.864001,2.484 c 0,1.0935238 -0.886476,1.98 -1.98,1.98 -1.093524,0 -1.98,-0.8864762 -1.98,-1.98 0,-1.0935238 0.886476,-1.98000005 1.98,-1.98000005 1.093524,0 1.98,0.88647625 1.98,1.98000005 z"/>
          </g>
         </g>
        </g>
        <g   id="0.3.0.0.0.0.0.0.3" transform="translate(-60.592923,467.91902)">
         <g   id="0.3.0.0.0.0.3">
          <g   id="0.2.0.0.3">
           <circle  cx="24.084"  cy="2.484" style="fill:none;stroke:#ffbf00;stroke-width:1.5" id="connector7pin" r="1.98" d="m 26.064,2.484 c 0,1.0935238 -0.886477,1.98 -1.98,1.98 -1.093524,0 -1.98,-0.8864762 -1.98,-1.98 0,-1.0935238 0.886476,-1.98000005 1.98,-1.98000005 1.093523,0 1.98,0.88647625 1.98,1.98000005 z"/>
          </g>
         </g>
        </g>
        <g   id="0.3.0.0.0.0.0.0.4" transform="translate(-60.592923,467.91902)">
         <g   id="0.3.0.0.0.0.4">
          <g   id="0.2.0.0.4">
           <circle  cx="31.284"  cy="2.484" style="fill:none;stroke:#ffbf00;stroke-width:1.5" id="connector9pin" r="1.98" d="m 33.264,2.484 c 0,1.0935238 -0.886476,1.98 -1.98,1.98 -1.093523,0 -1.98,-0.8864762 -1.98,-1.98 0,-1.0935238 0.886477,-1.98000005 1.98,-1.98000005 1.093524,0 1.98,0.88647625 1.98,1.98000005 z"/>
          </g>
         </g>
        </g>
        <g   id="0.3.0.0.0.0.0.0.5" transform="translate(-60.592923,467.91902)">
         <g   id="0.3.0.0.0.0.5">
          <g   id="0.2.0.0.5">
           <circle  cx="38.485001"  cy="2.484" style="fill:none;stroke:#ffbf00;stroke-width:1.5" id="connector11pin" r="1.98" d="m 40.465001,2.484 c 0,1.0935238 -0.886477,1.98 -1.98,1.98 -1.093524,0 -1.98,-0.8864762 -1.98,-1.98 0,-1.0935238 0.886476,-1.98000005 1.98,-1.98000005 1.093523,0 1.98,0.88647625 1.98,1.98000005 z"/>
          </g>
         </g>
        </g>
        <g   id="0.3.0.0.0.0.0.0.6" transform="translate(-60.592923,467.91902)">
         <g   id="0.3.0.0.0.0.6">
          <g   id="0.2.0.0.6">
           <circle  cx="45.685001"  cy="2.484" style="fill:none;stroke:#ffbf00;stroke-width:1.5" id="connector28pin" r="1.98" d="m 47.665001,2.484 c 0,1.0935238 -0.886476,1.98 -1.98,1.98 -1.093523,0 -1.98,-0.8864762 -1.98,-1.98 0,-1.0935238 0.886477,-1.98000005 1.98,-1.98000005 1.093524,0 1.98,0.88647625 1.98,1.98000005 z"/>
          </g>
         </g>
        </g>
        <g   id="0.3.0.0.0.0.0.0.7" transform="translate(-60.592923,467.91902)">
         <g   id="0.3.0.0.0.0.7">
          <g   id="0.2.0.0.7">
           <circle  cx="52.883999"  cy="2.484" style="fill:none;stroke:#ffbf00;stroke-width:1.5" id="connector15pin" r="1.98" d="m 54.863999,2.484 c 0,1.0935238 -0.886476,1.98 -1.98,1.98 -1.093524,0 -1.98,-0.8864762 -1.98,-1.98 0,-1.0935238 0.886476,-1.98000005 1.98,-1.98000005 1.093524,0 1.98,0.88647625 1.98,1.98000005 z"/>
          </g>
         </g>
        </g>
        <g   id="0.3.0.0.0.0.0.0.8" transform="translate(-60.592923,467.91902)">
         <g   id="0.3.0.0.0.0.8">
          <g   id="0.2.0.0.8">
           <circle  cx="60.084"  cy="2.484" style="fill:none;stroke:#ffbf00;stroke-width:1.5" id="connector17pin" r="1.98" d="m 62.064,2.484 c 0,1.0935238 -0.886477,1.98 -1.98,1.98 -1.093524,0 -1.98,-0.8864762 -1.98,-1.98 0,-1.0935238 0.886476,-1.98000005 1.98,-1.98000005 1.093523,0 1.98,0.88647625 1.98,1.98000005 z"/>
          </g>
         </g>
        </g>
        <g   id="0.3.0.0.0.0.0.0.9" transform="translate(-60.592923,467.91902)">
         <g   id="0.3.0.0.0.0.9">
          <g   id="0.2.0.0.9">
           <circle  cx="67.283997"  cy="2.484" style="fill:none;stroke:#ffbf00;stroke-width:1.5" id="connector29pin" r="1.98" d="m 69.263997,2.484 c 0,1.0935238 -0.886477,1.98 -1.98,1.98 -1.093524,0 -1.98,-0.8864762 -1.98,-1.98 0,-1.0935238 0.886476,-1.98000005 1.98,-1.98000005 1.093523,0 1.98,0.88647625 1.98,1.98000005 z"/>
          </g>
         </g>
        </g>
        <g   id="0.3.0.0.0.0.0.0.10" transform="translate(-39.039706,467.89043)">
         <g   id="0.3.0.0.0.0.10">
          <g   id="0.2.0.0.10">
           <circle  cx="52.883999"  cy="2.484" style="fill:none;stroke:#ffbf00;stroke-width:1.5" id="connector21pin" r="1.98" d="m 54.863999,2.484 c 0,1.0935238 -0.886476,1.98 -1.98,1.98 -1.093524,0 -1.98,-0.8864762 -1.98,-1.98 0,-1.0935238 0.886476,-1.98000005 1.98,-1.98000005 1.093524,0 1.98,0.88647625 1.98,1.98000005 z"/>
          </g>
         </g>
        </g>
        <g   id="0.3.0.0.0.0.0.0.11" transform="translate(-39.039706,467.89043)">
         <g   id="0.3.0.0.0.0.11">
          <g   id="0.2.0.0.11">
           <circle  cx="60.084"  cy="2.484" style="fill:none;stroke:#ffbf00;stroke-width:1.5" id="connector23pin" r="1.98" d="m 62.064,2.484 c 0,1.0935238 -0.886477,1.98 -1.98,1.98 -1.093524,0 -1.98,-0.8864762 -1.98,-1.98 0,-1.0935238 0.886476,-1.98000005 1.98,-1.98000005 1.093523,0 1.98,0.88647625 1.98,1.98000005 z"/>
          </g>
         </g>
        </g>
        <g   id="0.3.0.0.0.0.0.0.12" transform="translate(-39.039706,467.89043)">
         <g   id="0.3.0.0.0.0.12">
          <g   id="0.2.0.0.12">
           <circle  cx="67.283997"  cy="2.484" style="fill:none;stroke:#ffbf00;stroke-width:1.5" id="connector25pin" r="1.98" d="m 69.263997,2.484 c 0,1.0935238 -0.886477,1.98 -1.98,1.98 -1.093524,0 -1.98,-0.8864762 -1.98,-1.98 0,-1.0935238 0.886476,-1.98000005 1.98,-1.98000005 1.093523,0 1.98,0.88647625 1.98,1.98000005 z"/>
          </g>
         </g>
        </g>
        <g   id="0.3.0.0.0.0.0.0.13" transform="translate(-60.531669,475.09702)">
         <g   id="0.3.0.0.0.0.13">
          <g   id="0.2.0.0.13">
           <circle  cx="1.98"  cy="2.484" style="fill:none;stroke:#ffbf00;stroke-width:1.5" id="connector0pin" r="1.98" d="m 3.96,2.484 c 0,1.0935238 -0.8864762,1.98 -1.98,1.98 C 0.8864762,4.464 0,3.5775238 0,2.484 0,1.3904762 0.8864762,0.50399995 1.98,0.50399995 c 1.0935238,0 1.98,0.88647625 1.98,1.98000005 z"/>
          </g>
         </g>
        </g>
        <g   id="0.3.0.0.0.0.0.0.14" transform="translate(-60.531669,475.09702)">
         <g   id="0.3.0.0.0.0.14">
          <g   id="0.2.0.0.14">
           <circle  cx="9.1800003"  cy="2.484" style="fill:none;stroke:#ffbf00;stroke-width:1.5" id="connector2pin" r="1.98" d="m 11.16,2.484 c 0,1.0935238 -0.886476,1.98 -1.9799997,1.98 -1.0935238,0 -1.98,-0.8864762 -1.98,-1.98 0,-1.0935238 0.8864762,-1.98000005 1.98,-1.98000005 C 10.273524,0.50399995 11.16,1.3904762 11.16,2.484 z"/>
          </g>
         </g>
        </g>
        <g   id="0.3.0.0.0.0.0.0.15" transform="translate(-60.531669,475.09702)">
         <g   id="0.3.0.0.0.0.15">
          <g   id="0.2.0.0.15">
           <circle  cx="16.884001"  cy="2.484" style="fill:none;stroke:#ffbf00;stroke-width:1.5" id="connector4pin" r="1.98" d="m 18.864001,2.484 c 0,1.0935238 -0.886476,1.98 -1.98,1.98 -1.093524,0 -1.98,-0.8864762 -1.98,-1.98 0,-1.0935238 0.886476,-1.98000005 1.98,-1.98000005 1.093524,0 1.98,0.88647625 1.98,1.98000005 z"/>
          </g>
         </g>
        </g>
        <g   id="0.3.0.0.0.0.0.0.16" transform="translate(-60.531669,475.09702)">
         <g   id="0.3.0.0.0.0.16">
          <g   id="0.2.0.0.16">
           <circle  cx="24.084"  cy="2.484" style="fill:none;stroke:#ffbf00;stroke-width:1.5" id="connector6pin" r="1.98" d="m 26.064,2.484 c 0,1.0935238 -0.886477,1.98 -1.98,1.98 -1.093524,0 -1.98,-0.8864762 -1.98,-1.98 0,-1.0935238 0.886476,-1.98000005 1.98,-1.98000005 1.093523,0 1.98,0.88647625 1.98,1.98000005 z"/>
          </g>
         </g>
        </g>
        <g   id="0.3.0.0.0.0.0.0.17" transform="translate(-60.531669,475.09702)">
         <g   id="0.3.0.0.0.0.17">
          <g   id="0.2.0.0.17">
           <circle  cx="31.284"  cy="2.484" style="fill:none;stroke:#ffbf00;stroke-width:1.5" id="connector26pin" r="1.98" d="m 33.264,2.484 c 0,1.0935238 -0.886476,1.98 -1.98,1.98 -1.093523,0 -1.98,-0.8864762 -1.98,-1.98 0,-1.0935238 0.886477,-1.98000005 1.98,-1.98000005 1.093524,0 1.98,0.88647625 1.98,1.98000005 z"/>
          </g>
         </g>
        </g>
        <g   id="0.3.0.0.0.0.0.0.18" transform="translate(-60.531669,475.09702)">
         <g   id="0.3.0.0.0.0.18">
          <g   id="0.2.0.0.18">
           <circle  cx="38.485001"  cy="2.484" style="fill:none;stroke:#ffbf00;stroke-width:1.5" id="connector10pin" r="1.98" d="m 40.465001,2.484 c 0,1.0935238 -0.886477,1.98 -1.98,1.98 -1.093524,0 -1.98,-0.8864762 -1.98,-1.98 0,-1.0935238 0.886476,-1.98000005 1.98,-1.98000005 1.093523,0 1.98,0.88647625 1.98,1.98000005 z"/>
          </g>
         </g>
        </g>
        <g   id="0.3.0.0.0.0.0.0.19" transform="translate(-60.531669,475.09702)">
         <g   id="0.3.0.0.0.0.19">
          <g   id="0.2.0.0.19">
           <circle  cx="45.685001"  cy="2.484" style="fill:none;stroke:#ffbf00;stroke-width:1.5" id="connector12pin" r="1.98" d="m 47.665001,2.484 c 0,1.0935238 -0.886476,1.98 -1.98,1.98 -1.093523,0 -1.98,-0.8864762 -1.98,-1.98 0,-1.0935238 0.886477,-1.98000005 1.98,-1.98000005 1.093524,0 1.98,0.88647625 1.98,1.98000005 z"/>
          </g>
         </g>
        </g>
        <g   id="0.3.0.0.0.0.0.0.20" transform="translate(-60.531669,475.09702)">
         <g   id="0.3.0.0.0.0.20">
          <g   id="0.2.0.0.20">
           <circle  cx="52.883999"  cy="2.484" style="fill:none;stroke:#ffbf00;stroke-width:1.5" id="connector14pin" r="1.98" d="m 54.863999,2.484 c 0,1.0935238 -0.886476,1.98 -1.98,1.98 -1.093524,0 -1.98,-0.8864762 -1.98,-1.98 0,-1.0935238 0.886476,-1.98000005 1.98,-1.98000005 1.093524,0 1.98,0.88647625 1.98,1.98000005 z"/>
          </g>
         </g>
        </g>
        <g   id="0.3.0.0.0.0.0.0.21" transform="translate(-60.531669,475.09702)">
         <g   id="0.3.0.0.0.0.21">
          <g   id="0.2.0.0.21">
           <circle  cx="60.084"  cy="2.484" style="fill:none;stroke:#ffbf00;stroke-width:1.5" id="connector30pin" r="1.98" d="m 62.064,2.484 c 0,1.0935238 -0.886477,1.98 -1.98,1.98 -1.093524,0 -1.98,-0.8864762 -1.98,-1.98 0,-1.0935238 0.886476,-1.98000005 1.98,-1.98000005 1.093523,0 1.98,0.88647625 1.98,1.98000005 z"/>
          </g>
         </g>
        </g>
        <g   id="0.3.0.0.0.0.0.0.22" transform="translate(-60.531669,475.09702)">
         <g   id="0.3.0.0.0.0.22">
          <g   id="0.2.0.0.22">
           <circle  cx="67.283997"  cy="2.484" style="fill:none;stroke:#ffbf00;stroke-width:1.5" id="connector18pin" r="1.98" d="m 69.263997,2.484 c 0,1.0935238 -0.886477,1.98 -1.98,1.98 -1.093524,0 -1.98,-0.8864762 -1.98,-1.98 0,-1.0935238 0.886476,-1.98000005 1.98,-1.98000005 1.093523,0 1.98,0.88647625 1.98,1.98000005 z"/>
          </g>
         </g>
        </g>
        <g   id="0.3.0.0.0.0.0.0.23" transform="translate(-38.978452,475.06844)">
         <g   id="0.3.0.0.0.0.23">
          <g   id="0.2.0.0.23">
           <circle  cx="52.883999"  cy="2.484" style="fill:none;stroke:#ffbf00;stroke-width:1.5" id="connector20pin" r="1.98" d="m 54.863999,2.484 c 0,1.0935238 -0.886476,1.98 -1.98,1.98 -1.093524,0 -1.98,-0.8864762 -1.98,-1.98 0,-1.0935238 0.886476,-1.98000005 1.98,-1.98000005 1.093524,0 1.98,0.88647625 1.98,1.98000005 z"/>
          </g>
         </g>
        </g>
        <g   id="0.3.0.0.0.0.0.0.24" transform="translate(-38.978452,475.06844)">
         <g   id="0.3.0.0.0.0.24">
          <g   id="0.2.0.0.24">
           <circle  cx="60.084"  cy="2.484" style="fill:none;stroke:#ffbf00;stroke-width:1.5" id="connector22pin" r="1.98" d="m 62.064,2.484 c 0,1.0935238 -0.886477,1.98 -1.98,1.98 -1.093524,0 -1.98,-0.8864762 -1.98,-1.98 0,-1.0935238 0.886476,-1.98000005 1.98,-1.98000005 1.093523,0 1.98,0.88647625 1.98,1.98000005 z"/>
          </g>
         </g>
        </g>
        <g   id="0.3.0.0.0.0.0.0.25" transform="translate(-38.978452,475.06844)">
         <g   id="0.3.0.0.0.0.25">
          <g   id="0.2.0.0.25">
           <circle  cx="67.283997"  cy="2.484" style="fill:none;stroke:#ffbf00;stroke-width:1.5" id="connector31pin" r="1.98" d="m 69.263997,2.484 c 0,1.0935238 -0.886477,1.98 -1.98,1.98 -1.093524,0 -1.98,-0.8864762 -1.98,-1.98 0,-1.0935238 0.886476,-1.98000005 1.98,-1.98000005 1.093523,0 1.98,0.88647625 1.98,1.98000005 z"/>
          </g>
         </g>
        </g>
       </g>
      </g>
     </g>
    </g>
   </g>
  </g>
 </g>
</svg>
