<?xml version="1.0" encoding="utf-8"?>
<!-- Generator: Adobe Illustrator 15.1.0, SVG Export Plug-In . SVG Version: 6.00 Build 0)  -->
<!DOCTYPE svg PUBLIC "-//W3C//DTD SVG 1.1//EN" "http://www.w3.org/Graphics/SVG/1.1/DTD/svg11.dtd">
<svg version="1.1" id="Ebene_1" xmlns:svg="http://www.w3.org/2000/svg"
	 xmlns="http://www.w3.org/2000/svg" xmlns:xlink="http://www.w3.org/1999/xlink" x="0px" y="0px" width="22.496px"
	 height="22.498px" viewBox="0 0 22.496 22.498" enable-background="new 0 0 22.496 22.498" xml:space="preserve">
<g>
	<g id="copper1">
		<circle id="connector0pad" fill="none" cx="4.431" cy="19.127" r="1.636"/>
		<circle id="connector3pad" fill="none" cx="19.349" cy="19.161" r="1.635"/>
		<circle id="connector1pad" fill="none" cx="4.419" cy="4.222" r="1.635"/>
		<circle id="connector2pad" fill="none" cx="19.337" cy="4.256" r="1.636"/>
		<g id="copper0">
			<circle id="connector0pad_1_" fill="none" cx="4.431" cy="19.127" r="1.636"/>
			<circle id="connector3pad_1_" fill="none" cx="18.906" cy="19.161" r="1.635"/>
			<circle id="connector1pad_1_" fill="none" cx="4.419" cy="4.222" r="1.635"/>
			<circle id="connector2pad_1_" fill="none" cx="18.894" cy="4.256" r="1.636"/>
		</g>
	</g>
	<polyline opacity="0.24" enable-background="new    " points="0.896,0.898 19.996,0.906 22.5,3.412 22.496,22.498 0.896,22.498 
		0.896,1.082 	"/>
	<g>
		<polyline opacity="0.5" fill="#CCCCCC" enable-background="new    " points="0,0 19.099,0.009 21.605,2.513 21.603,3.937 
			21.599,21.599 0,21.599 0,0.183 		"/>
		<g id="breadboard">
			<g>
				<rect x="2.699" y="3.597" fill="#8C8C8C" width="3.6" height="1.802"/>
				<rect x="17.099" y="3.599" fill="#8C8C8C" width="3.6" height="1.801"/>
				<rect x="17.099" y="17.998" fill="#8C8C8C" width="3.6" height="1.802"/>
				<rect x="2.699" y="17.998" fill="#8C8C8C" width="3.6" height="1.802"/>
				<circle fill="#8C8C8C" cx="11.699" cy="11.666" r="3.566"/>
				<path fill="#8C8C8C" d="M5.399,6.3v-1.8h-1.8l-0.013,5.742l2.184,1l1.192,0.25l1.521,0.021l0.125-1.208
					C8.608,10.303,5.399,6.3,5.399,6.3z M4.949,8.998c-0.249,0-0.45-0.201-0.45-0.449c0-0.25,0.202-0.451,0.45-0.451
					S5.399,8.3,5.399,8.55C5.399,8.798,5.198,8.998,4.949,8.998z"/>
				<path fill="#8C8C8C" d="M18.019,4.499l0.025,3.159l-2.342,1.913l0.4,0.88l3.713-0.001L19.82,4.5L18.019,4.499L18.019,4.499z
					 M18.47,8.999c-0.25,0-0.451-0.2-0.451-0.45c0-0.248,0.203-0.449,0.451-0.449s0.449,0.201,0.449,0.449
					C18.919,8.8,18.718,8.999,18.47,8.999z"/>
				<path fill="#8C8C8C" d="M5.387,18.888l-0.024-3.16l2.341-1.911l-0.4-0.88H3.59l-0.004,5.951H5.387z M4.937,14.388
					c0.25,0,0.45,0.199,0.45,0.449c0,0.248-0.203,0.448-0.45,0.448c-0.248,0-0.449-0.2-0.449-0.448
					C4.487,14.587,4.689,14.388,4.937,14.388z"/>
				<path fill="#8C8C8C" d="M19.82,18.888l-0.004-5.951h-3.713l-0.4,0.88l2.342,1.911l-0.025,3.16H19.82z M18.919,14.837
					c0,0.248-0.201,0.449-0.449,0.449s-0.451-0.201-0.451-0.449c0-0.25,0.201-0.449,0.451-0.449
					C18.718,14.388,18.919,14.587,18.919,14.837z"/>
			</g>
			
				<circle opacity="0.5" fill="#E6E6E6" stroke="#FFFFFF" stroke-width="0.5" enable-background="new    " cx="10.913" cy="10.912" r="7.087"/>
			<path opacity="0.6" fill="#FFFFFF" enable-background="new    " d="M9.876,6.648c0.332-0.08,0.68-0.123,1.037-0.123
				c0.303,0,0.598,0.029,0.883,0.089l0.361-1.765c-0.4-0.082-0.818-0.125-1.245-0.125c-0.453,0-1.166,0.084-1.591,0.176L9.876,6.648
				z M8.101,5.4c-2.003,1.024-3.374,3.108-3.374,5.513c0,0.414,0.041,0.817,0.118,1.21l1.758-0.395
				c-0.05-0.264-0.076-0.535-0.076-0.814c0-1.649,0.911-3.088,2.258-3.837L8.101,5.4z"/>
			<polygon opacity="0.24" enable-background="new    " points="0,21.599 0.896,22.498 22.496,22.498 22.5,3.412 21.605,2.513 
				21.599,21.599 			"/>
		</g>
	</g>
</g>
</svg>
