<?xml version="1.0" encoding="utf-8"?>
<!-- Generator: Adobe Illustrator 16.0.0, SVG Export Plug-In . SVG Version: 6.00 Build 0)  -->
<!DOCTYPE svg PUBLIC "-//W3C//DTD SVG 1.1 Basic//EN" "http://www.w3.org/Graphics/SVG/1.1/DTD/svg11-basic.dtd">
<svg version="1.1" baseProfile="basic" id="Ebene_1" xmlns:svg="http://www.w3.org/2000/svg"
	 xmlns="http://www.w3.org/2000/svg" xmlns:xlink="http://www.w3.org/1999/xlink" x="0px" y="0px" width="7.371px" height="3.834px"
	 viewBox="0 0 7.371 3.834" xml:space="preserve">
<g id="led-0603_1_" transform="matrix(1, 0, 0, 1, 21.5539, 31.3385)">
	<g transform="matrix(0, -1, 1, 0, 1.7065, 4.8135)">
		<g>
			<g>
				<line fill="none" x1="32.32" y1="-23.212" x2="32.32" y2="-15.975"/>
			</g>
			<g>
				
					<rect x="31.575" y="-21.512" transform="matrix(-2.547107e-006 -1 1 -2.547107e-006 53.83 14.6386)" fill="#F2F2F2" width="5.319" height="3.833"/>
				<path fill="#22B573" fill-opacity="0.7" d="M32.318-18.464c0,0,0.467,0.646,0.426,0.867c-0.041,0.219,0.148,0.541,0,0.676
					l-0.424-0.016L32.318-18.464z"/>
				<g>
					<g>
						
							<rect x="33.836" y="-20.09" transform="matrix(-2.547107e-006 -1 1 -2.547107e-006 53.8727 14.654)" fill="#FFFFFF" width="0.854" height="0.961"/>
						
							<rect x="33.355" y="-19.634" transform="matrix(-2.547107e-006 -1 1 -2.547107e-006 53.3913 14.1726)" fill="#B3B3B3" width="0.854" height="0.049"/>
					</g>
					<g>
						<polygon fill="#D1C690" points="32.742,-17.883 32.638,-16.921 33.369,-16.921 33.265,-17.883 						"/>
						<g>
							<path fill="#D1C690" d="M32.941-17.823c0-0.002,0-0.004,0-0.008c0.035-0.266,0.104-0.447,0.162-0.598
								c0.08-0.209,0.783-0.557,0.697-0.828c-0.012-0.027,0.01-0.059,0.043-0.066c0.035-0.008,0.068,0.01,0.078,0.039
								c0.094,0.305-0.617,0.674-0.701,0.893c-0.06,0.148-0.123,0.318-0.156,0.572c-0.004,0.029-0.033,0.055-0.068,0.049
								C32.965-17.772,32.941-17.796,32.941-17.823z"/>
						</g>
						<polygon fill="#D1C690" points="35.63,-21.304 35.733,-22.269 35.003,-22.269 35.106,-21.304 						"/>
						<g>
							<path fill="#D1C690" d="M34.109-19.651c0-0.025,0.02-0.049,0.047-0.055c0.292-0.063,1.152-1.087,1.152-1.885
								c0-0.033,0.027-0.057,0.063-0.057c0.034,0.002,0.063,0.025,0.063,0.057v0.002c0,0.749-0.769,1.891-1.245,1.993
								c-0.035,0.008-0.068-0.012-0.078-0.041C34.109-19.641,34.109-19.645,34.109-19.651z"/>
						</g>
						<path fill="#D1C690" d="M34.093-19.18c0,0,0.002-0.357-0.311-0.383c0,0.07,0,0.383,0,0.383H34.093z"/>
						<path fill="#D1C690" d="M34.412-19.616c0,0-0.306,0.158-0.351,0.053c-0.047-0.107-0.051-0.178,0.029-0.241
							C34.173-19.864,34.412-19.616,34.412-19.616z"/>
						<path fill="#9D956C" d="M33.744-19.257c0.084,0.271-0.618,0.619-0.698,0.828c-0.06,0.146-0.127,0.33-0.162,0.598h0.058
							c0.035-0.266,0.104-0.447,0.162-0.598c0.08-0.209,0.783-0.557,0.697-0.828H33.744z"/>
						<polygon fill="#9D956C" points="35.051,-21.304 34.948,-22.269 35.003,-22.269 35.106,-21.304 						"/>
						<path fill="#9D956C" d="M34.099-19.708c0.291-0.061,1.212-1.07,1.15-1.885h0.059c0.06,0.877-0.86,1.826-1.152,1.887
							L34.099-19.708z"/>
						<path fill="#9D956C" d="M33.726-19.563c0,0.07,0,0.381,0,0.381h0.057c0,0,0-0.311,0-0.381H33.726z"/>
						<path fill="#9D956C" d="M34.037-19.804c-0.08,0.063-0.076,0.131-0.031,0.239l0.059,0.002
							c-0.049-0.107-0.051-0.179,0.029-0.241H34.037z"/>
					</g>
				</g>
				
					<rect x="34.014" y="-19.647" transform="matrix(-2.547107e-006 -1 1 -2.547107e-006 55.7477 16.5036)" opacity="0.5" fill="#FFFFFF" width="4.223" height="0.051"/>
				<g opacity="0.25">
					<path fill="#FFFFFF" d="M32.9-17.682v-0.207c0-0.041,0.039-0.076,0.088-0.076h0.031c-0.047,0-0.086,0.035-0.086,0.076v0.205
						L32.9-17.682L32.9-17.682z"/>
				</g>
				<g>
					<path opacity="0.5" fill="#F2F2F2" d="M36.151-22.253H32.32v5.317l3.831,0.004V-22.253z"/>
					<path opacity="0.55" fill="#FFFFFF" d="M35.499-22.202h0.27c0.152,0.018,0.271-0.012,0.271,0.098c0,0.611,0,4.704,0,4.854
						c0,0.168-0.066,0.176-0.066-0.012c0-0.131,0-3.893,0-4.346c0-0.457-0.105-0.518-0.197-0.518l-0.272,0.002
						C35.325-22.124,35.325-22.202,35.499-22.202z"/>
					<path opacity="0.03" d="M32.539-17.075c-0.068,0-0.137,0.012-0.137-0.098c0-0.611,0-4.667,0-4.817
						c0-0.168,0.065-0.176,0.065,0.008c0,0.135,0.003,3.137,0.003,3.59C32.47-17.798,32.539-17.075,32.539-17.075z"/>
				</g>
			</g>
			<g>
				<path fill="#D1C690" d="M32.318-23.21v0.771h0.52c0.125,0,0.213,0.08,0.268,0.188h3.047v-1.01h-3.784h-0.05"/>
				
					<rect x="35.623" y="-22.784" transform="matrix(-2.547107e-006 -1 1 -2.547107e-006 58.8842 13.3681)" opacity="0.5" fill="#FFFFFF" width="1.006" height="0.052"/>
			</g>
			<g>
				<path fill="#D1C690" d="M32.318-15.864h0.049h3.784v-1.072h-3.464c-0.055,0.105-0.145,0.191-0.271,0.191h-0.099v0.831"/>
				
					<rect x="35.59" y="-16.425" transform="matrix(-2.547107e-006 -1 1 -2.547107e-006 52.5258 19.7255)" opacity="0.5" fill="#FFFFFF" width="1.072" height="0.051"/>
			</g>
		</g>
	</g>
</g>
</svg>
