<?xml version="1.0" encoding="utf-8"?>
<!-- Generator: Adobe Illustrator 16.0.0, SVG Export Plug-In . SVG Version: 6.00 Build 0)  -->
<!DOCTYPE svg PUBLIC "-//W3C//DTD SVG 1.1 Basic//EN" "http://www.w3.org/Graphics/SVG/1.1/DTD/svg11-basic.dtd">
<svg version="1.1" baseProfile="basic" id="Ebene_1" xmlns:svg="http://www.w3.org/2000/svg"
	 xmlns="http://www.w3.org/2000/svg" xmlns:xlink="http://www.w3.org/1999/xlink" x="0px" y="0px" width="42.357px"
	 height="38.03px" viewBox="0 0 42.357 38.03" xml:space="preserve">
<g id="sdcard-15tw-8821" transform="matrix(1, 0, 0, 1, 169.844, 75.5201)">
	<g transform="matrix(0, -1, 1, 0, -1.60729, 40.7503)">
		
			<rect x="68.152" y="-144.832" transform="matrix(-2.547107e-006 -1 1 -2.547107e-006 223.0725 -57.7276)" width="29.041" height="8.864"/>
		
			<rect x="92.16" y="-148.356" transform="matrix(-2.547107e-006 -1 1 -2.547107e-006 239.0589 -34.0645)" width="20.675" height="23.59"/>
		<path fill="#404040" d="M93.339-125.879v-1.033c0-0.429,0.24-0.781,0.531-0.781h2.076c0.291,0,0.527,0.354,0.527,0.781v1.033"/>
		<path opacity="0.1" d="M96.296-129.27l-0.105,2.053c-0.018,0.36-0.25,0.656-0.518,0.656c-0.266,0-1.262,0-1.527,0
			s-0.5-0.296-0.52-0.656l-0.111-2.161"/>
		<path fill="#404040" d="M108.9-125.879v-1.033c0-0.429,0.238-0.781,0.529-0.781h2.076c0.293,0,0.529,0.354,0.529,0.781v1.033"/>
		<path opacity="0.1" d="M111.857-129.27l-0.105,2.053c-0.02,0.36-0.25,0.656-0.518,0.656s-1.262,0-1.527,0
			c-0.268,0-0.5-0.296-0.52-0.656l-0.111-2.161"/>
		
			<rect x="100.249" y="-163.516" transform="matrix(-2.547107e-006 -1 1 -2.547107e-006 253.2459 -49.2242)" fill="#404040" width="3.523" height="24.563"/>
		<g>
			<g>
				
					<rect x="98.376" y="-155.898" transform="matrix(-2.547107e-006 -1 1 -2.547107e-006 255.9388 -54.882)" fill="#B7B7B7" width="4.306" height="0.977"/>
				
					<rect x="95.415" y="-155.898" transform="matrix(-2.547107e-006 -1 1 -2.547107e-006 252.9778 -57.8429)" fill="#B7B7B7" width="4.306" height="0.977"/>
				
					<rect x="92.456" y="-155.898" transform="matrix(-2.547107e-006 -1 1 -2.547107e-006 250.0188 -60.8019)" fill="#B7B7B7" width="4.306" height="0.977"/>
				
					<rect x="89.495" y="-155.898" transform="matrix(-2.547107e-006 -1 1 -2.547107e-006 247.0579 -63.7628)" fill="#B7B7B7" width="4.306" height="0.977"/>
			</g>
		</g>
		<g>
			<g>
				
					<rect x="110.692" y="-155.898" transform="matrix(-2.547107e-006 -1 1 -2.547107e-006 268.2552 -42.5656)" fill="#B7B7B7" width="4.306" height="0.977"/>
				
					<rect x="107.732" y="-155.899" transform="matrix(-2.547107e-006 -1 1 -2.547107e-006 265.2952 -45.5255)" fill="#B7B7B7" width="4.306" height="0.979"/>
				
					<rect x="104.772" y="-155.898" transform="matrix(-2.547107e-006 -1 1 -2.547107e-006 262.3353 -48.4855)" fill="#B7B7B7" width="4.306" height="0.977"/>
				
					<rect x="101.811" y="-155.898" transform="matrix(-2.547107e-006 -1 1 -2.547107e-006 259.3743 -51.4464)" fill="#B7B7B7" width="4.306" height="0.977"/>
			</g>
		</g>
		<g opacity="0.15">
			<polygon points="101.351,-153.489 101.351,-153.745 99.694,-153.745 99.694,-153.489 98.396,-153.489 98.396,-153.745 
				96.739,-153.745 96.739,-153.489 95.437,-153.489 95.437,-153.745 93.78,-153.745 93.78,-153.489 92.452,-153.489 
				92.452,-153.745 90.796,-153.745 90.796,-153.489 90.542,-153.489 90.542,-151.134 101.708,-151.134 101.708,-153.489 			"/>
		</g>
		<g opacity="0.15">
			<polygon points="113.718,-153.489 113.718,-153.745 112.062,-153.745 112.062,-153.489 110.763,-153.489 110.763,-153.745 
				109.107,-153.745 109.107,-153.489 107.804,-153.489 107.804,-153.745 106.148,-153.745 106.148,-153.489 104.818,-153.489 
				104.818,-153.745 103.163,-153.745 103.163,-153.489 102.909,-153.489 102.909,-151.134 114.075,-151.134 114.075,-153.489 			
				"/>
		</g>
		<g>
			<g>
				
					<rect x="91.507" y="-153.877" transform="matrix(-2.547107e-006 -1 1 -2.547107e-006 244.8162 -61.5211)" fill="#B7B7B7" width="0.281" height="1.418"/>
				
					<rect x="94.466" y="-153.877" transform="matrix(-2.547107e-006 -1 1 -2.547107e-006 247.7752 -58.5621)" fill="#B7B7B7" width="0.281" height="1.418"/>
				
					<rect x="97.427" y="-153.877" transform="matrix(-2.547107e-006 -1 1 -2.547107e-006 250.7361 -55.6012)" fill="#B7B7B7" width="0.281" height="1.418"/>
				
					<rect x="100.388" y="-153.877" transform="matrix(-2.547107e-006 -1 1 -2.547107e-006 253.6971 -52.6403)" fill="#B7B7B7" width="0.281" height="1.418"/>
				
					<rect x="99.528" y="-152.657" transform="matrix(-2.547107e-006 -1 1 -2.547107e-006 252.6971 -51.6403)" fill="#B7B7B7" width="2" height="0.977"/>
				
					<rect x="96.568" y="-152.657" transform="matrix(-2.547107e-006 -1 1 -2.547107e-006 249.7361 -54.6012)" fill="#B7B7B7" width="2" height="0.977"/>
				
					<rect x="93.609" y="-152.657" transform="matrix(-2.547107e-006 -1 1 -2.547107e-006 246.7771 -57.5602)" fill="#B7B7B7" width="2" height="0.977"/>
				
					<rect x="90.648" y="-152.657" transform="matrix(-2.547107e-006 -1 1 -2.547107e-006 243.8162 -60.5211)" fill="#B7B7B7" width="2" height="0.977"/>
			</g>
			
				<rect x="95.486" y="-156.815" transform="matrix(-2.547107e-006 -1 1 -2.547107e-006 247.2542 -54.4747)" opacity="0.15" width="1.808" height="11.902"/>
		</g>
		<g>
			<g>
				
					<rect x="103.823" y="-153.877" transform="matrix(-2.547107e-006 -1 1 -2.547107e-006 257.1326 -49.2047)" fill="#B7B7B7" width="0.281" height="1.418"/>
				
					<rect x="106.784" y="-153.877" transform="matrix(-2.547107e-006 -1 1 -2.547107e-006 260.0936 -46.2438)" fill="#B7B7B7" width="0.281" height="1.418"/>
				
					<rect x="109.743" y="-153.877" transform="matrix(-2.547107e-006 -1 1 -2.547107e-006 263.0526 -43.2848)" fill="#B7B7B7" width="0.281" height="1.418"/>
				
					<rect x="112.704" y="-153.877" transform="matrix(-2.547107e-006 -1 1 -2.547107e-006 266.0135 -40.3238)" fill="#B7B7B7" width="0.281" height="1.418"/>
				
					<rect x="111.845" y="-152.657" transform="matrix(-2.547107e-006 -1 1 -2.547107e-006 265.0135 -39.3238)" fill="#B7B7B7" width="2" height="0.977"/>
				
					<rect x="108.885" y="-152.658" transform="matrix(-2.547107e-006 -1 1 -2.547107e-006 262.0535 -42.2838)" fill="#B7B7B7" width="2" height="0.979"/>
				
					<rect x="105.925" y="-152.657" transform="matrix(-2.547107e-006 -1 1 -2.547107e-006 259.0936 -45.2438)" fill="#B7B7B7" width="2" height="0.977"/>
				
					<rect x="102.964" y="-152.657" transform="matrix(-2.547107e-006 -1 1 -2.547107e-006 256.1326 -48.2047)" fill="#B7B7B7" width="2" height="0.977"/>
			</g>
			
				<rect x="107.802" y="-156.815" transform="matrix(-2.547107e-006 -1 1 -2.547107e-006 259.5706 -42.1583)" opacity="0.15" width="1.808" height="11.902"/>
		</g>
		<g opacity="0.2">
			<path fill="#666666" d="M114.232-165.987l-1.471,2.338H89.077l-1.375-2.151h-2.213l-1.412-2.437h-4.838v2.599
				c0,0,1.451,0,1.875,0c0.277,0,0.277,0.479,0,0.479h-0.299c-0.375,0-0.5,0.078-0.5,0.313v0.986c0,0.233,0.125,0.312,0.5,0.312
				h0.299c0.277,0,0.277,0.479,0,0.479H78.24v3.16h38.03v-6.077H114.232z"/>
		</g>
		<g>
			<path fill="#606060" d="M114.232-165.67l-1.471,2.338H89.077l-1.375-2.15h-2.213l-1.412-2.438h-4.838v2.6c0,0,1.451,0,1.875,0
				c0.277,0,0.277,0.479,0,0.479h-0.299c-0.375,0-0.5,0.078-0.5,0.313v0.985c0,0.234,0.125,0.313,0.5,0.313h0.299
				c0.277,0,0.277,0.479,0,0.479H78.24v36.874h2.683l0.08-0.619c0.02-0.154,0.164-0.281,0.318-0.281h0.172
				c0.154,0,0.301,0.127,0.318,0.281l0.08,0.619h10.703l-0.521-18.567c-0.01-0.312,0.174-0.566,0.402-0.566
				c0.23,0,0.432,0.256,0.447,0.565l0.881,17.125c0.018,0.313,0.217,0.566,0.445,0.566h1.316c0.229,0,0.43-0.256,0.445-0.566
				l0.881-17.125c0.018-0.311,0.217-0.565,0.447-0.565c0.229,0,0.412,0.256,0.402,0.566l-0.521,18.567h10.938l-0.521-18.567
				c-0.01-0.312,0.172-0.566,0.402-0.566c0.229,0,0.432,0.256,0.447,0.565l0.881,17.125c0.016,0.313,0.217,0.566,0.445,0.566h1.316
				c0.229,0,0.43-0.256,0.445-0.566l0.881-17.125c0.016-0.311,0.217-0.565,0.445-0.565c0.23,0,0.412,0.256,0.404,0.566
				l-0.521,18.567h3.484v-39.791H114.232z M83.8-151.462h0.375c0.154,0,0.283,0.118,0.283,0.263c0,0.146-0.053,0.265-0.117,0.265
				c-0.066,0-0.119,0.127-0.119,0.282v12.479c0,0.156-0.127,0.284-0.283,0.284h-5.615v-15.766h0.441
				c0.154,0,0.301,0.126,0.324,0.279l1.137,7.674c0.021,0.154-0.049,0.373-0.156,0.484l-0.449,0.467
				c-0.107,0.113-0.197,0.332-0.197,0.488v2.589c0,0.156,0.129,0.284,0.283,0.284h3.469c0.156,0,0.283-0.128,0.283-0.284v-2.433
				c0-0.156-0.098-0.365-0.217-0.467l-0.984-0.822c-0.119-0.101-0.229-0.31-0.24-0.465l-0.609-7.515
				c-0.014-0.154,0.104-0.282,0.26-0.282c0,0,2.514,0,2.613,0c0.098,0,0.18,0.116,0.18,0.26c0,0.141-0.129,0.258-0.283,0.258H83.8
				c-0.156,0-0.283,0.127-0.283,0.283v1.108C83.517-151.59,83.644-151.462,83.8-151.462z M101.384-152.03
				c0,0.313-0.254,0.567-0.566,0.567h-9.449c-0.313,0-0.566-0.255-0.566-0.567v-5.782c0-0.313,0.254-0.567,0.566-0.567h9.447
				c0.313,0,0.568,0.255,0.568,0.567V-152.03L101.384-152.03z M113.728-152.03c0,0.313-0.254,0.567-0.566,0.567h-9.449
				c-0.313,0-0.566-0.255-0.566-0.567v-5.782c0-0.313,0.256-0.567,0.566-0.567h9.449c0.313,0,0.566,0.255,0.566,0.567V-152.03z"/>
		</g>
		<g opacity="0.24">
			
				<rect x="78.921" y="-167.332" transform="matrix(-2.547107e-006 -1 1 -2.547107e-006 246.8415 -86.4001)" fill="#FFFFFF" width="2.6" height="1.424"/>
		</g>
		<g opacity="0.15">
			
				<rect x="95.857" y="-146.124" transform="matrix(-2.547107e-006 -1 1 -2.547107e-006 261.5276 -30.0216)" fill="#FFFFFF" width="39.792" height="0.699"/>
		</g>
		<path opacity="0.24" fill="none" stroke="#FFFFFF" stroke-width="0.25" stroke-linecap="round" stroke-linejoin="round" d="
			M79.202-153.447l1.158,7.724c0.023,0.154-0.043,0.376-0.146,0.493l-0.486,0.553c-0.104,0.116-0.188,0.34-0.188,0.496v2.342"/>
		
			<rect x="70.44" y="-145.854" transform="matrix(-2.547107e-006 -1 1 -2.547107e-006 224.095 -67.4483)" opacity="0.24" fill="#FFFFFF" width="15.767" height="0.166"/>
		<g>
			<path opacity="0.15" fill="none" stroke="#FFFFFF" stroke-width="0.1984" stroke-linecap="round" d="M96.794-144.513
				c0,0-0.814,16.493-0.867,16.967c-0.051,0.473-0.26,0.488-0.26,0.488"/>
			<path opacity="0.15" fill="none" stroke="#FFFFFF" stroke-width="0.1984" stroke-linecap="round" d="M93.028-144.542
				c0,0,0.828,16.521,0.881,16.995c0.053,0.473,0.246,0.488,0.246,0.488"/>
		</g>
		<g>
			<path opacity="0.15" fill="none" stroke="#FFFFFF" stroke-width="0.1984" stroke-linecap="round" d="M112.357-144.513
				c0,0-0.813,16.493-0.865,16.967c-0.053,0.473-0.26,0.488-0.26,0.488"/>
			<path opacity="0.15" fill="none" stroke="#FFFFFF" stroke-width="0.1984" stroke-linecap="round" d="M108.593-144.542
				c0,0,0.83,16.521,0.881,16.995c0.053,0.473,0.246,0.488,0.246,0.488"/>
		</g>
		<path opacity="0.3" fill="none" stroke="#FFFFFF" stroke-width="0.2" stroke-linecap="round" d="M90.702-157.862v5.851
			c0,0.357,0.293,0.652,0.652,0.652h9.467c0.359,0,0.652-0.295,0.652-0.652v-5.851"/>
		
			<line opacity="0.77" fill="none" stroke="#353535" stroke-width="0.2" stroke-linecap="round" x1="91.366" y1="-158.489" x2="100.952" y2="-158.489"/>
		<path opacity="0.3" fill="none" stroke="#FFFFFF" stroke-width="0.2" stroke-linecap="round" d="M103.05-157.862v5.851
			c0,0.357,0.293,0.652,0.652,0.652h9.467c0.359,0,0.652-0.295,0.652-0.652v-5.851"/>
		
			<line opacity="0.77" fill="none" stroke="#353535" stroke-width="0.2" stroke-linecap="round" x1="103.714" y1="-158.489" x2="113.3" y2="-158.489"/>
		
			<line opacity="0.15" fill="none" stroke="#FFFFFF" stroke-width="0.1984" stroke-linecap="round" x1="91.962" y1="-144.498" x2="92.484" y2="-126.215"/>
		
			<line opacity="0.15" fill="none" stroke="#FFFFFF" stroke-width="0.1984" stroke-linecap="round" x1="97.847" y1="-144.498" x2="97.325" y2="-126.215"/>
		
			<line opacity="0.15" fill="none" stroke="#FFFFFF" stroke-width="0.1984" stroke-linecap="round" x1="107.532" y1="-144.498" x2="108.056" y2="-126.215"/>
		
			<line opacity="0.15" fill="none" stroke="#FFFFFF" stroke-width="0.1984" stroke-linecap="round" x1="113.417" y1="-144.498" x2="112.896" y2="-126.215"/>
		<path opacity="0.2" fill="none" stroke="#FFFFFF" stroke-width="0.2" stroke-miterlimit="10" d="M84.038-137.819
			c0.154,0,0.283-0.127,0.283-0.282v-12.48c0-0.156,0.053-0.283,0.117-0.283"/>
		<path opacity="0.24" fill="#FFFFFF" d="M84.175-151.462H83.8c-0.156,0-0.283-0.128-0.283-0.284v-1.108
			c0-0.156,0.127-0.283,0.283-0.283h0.375"/>
		<polyline opacity="0.3" fill="none" stroke="#FFFFFF" stroke-width="0.2" stroke-linecap="round" points="84.021,-167.819 
			85.433,-165.381 87.646,-165.381 89.021,-163.23 112.821,-163.23 114.292,-165.569 		"/>
		<path opacity="0.24" fill="#FFFFFF" d="M80.816-164.842c-0.375,0-0.5,0.078-0.5,0.313v0.985c0,0.234,0.125,0.313,0.5,0.313
			V-164.842z"/>
	</g>
</g>
</svg>
