<?xml version="1.0" encoding="utf-8"?>
<!-- Generator: Adobe Illustrator 15.1.0, SVG Export Plug-In . SVG Version: 6.00 Build 0)  -->
<!DOCTYPE svg PUBLIC "-//W3C//DTD SVG 1.1//EN" "http://www.w3.org/Graphics/SVG/1.1/DTD/svg11.dtd">
<svg version="1.1" id="svg2" xmlns:svg="http://www.w3.org/2000/svg"
	 xmlns="http://www.w3.org/2000/svg" xmlns:xlink="http://www.w3.org/1999/xlink" x="0px" y="0px" width="44.576px" height="28.8px"
	 viewBox="0 0 44.576 28.8" enable-background="new 0 0 44.576 28.8" xml:space="preserve">
<line fill="none" stroke="#000000" stroke-width="0.7" stroke-linecap="round" x1="39.599" y1="21.6" x2="35.997" y2="21.6"/>
<line fill="none" stroke="#000000" stroke-width="0.7" stroke-linecap="round" x1="35.997" y1="21.6" x2="32.399" y2="21.6"/>
<polygon fill="#FFFFFF" stroke="#000000" stroke-width="0.7" stroke-linecap="round" points="35.997,21.6 32.399,14.4 35.997,14.4 
	39.599,14.4 "/>
<line fill="none" stroke="#000000" stroke-width="0.45" stroke-linecap="round" x1="35.997" y1="14.4" x2="35.997" y2="21.6"/>
<line fill="none" stroke="#787878" stroke-width="0.7" stroke-linecap="round" x1="35.997" y1="28.8" x2="35.997" y2="21.6"/>
<text transform="matrix(1 0 0 1 37.3987 12.6411)" fill="#787878" font-family="'DroidSans'" font-size="4.5">B</text>
<line fill="none" stroke="#000000" stroke-width="0.45" stroke-linecap="round" x1="42.956" y1="22.5" x2="40.616" y2="20.16"/>
<line fill="none" stroke="#000000" stroke-width="0.45" stroke-linecap="round" x1="42.597" y1="25.74" x2="40.257" y2="23.4"/>
<path d="M42.057,23.041l1.439-1.438l1.08,2.521L42.057,23.041z"/>
<path d="M41.698,26.278l1.438-1.438l1.08,2.521L41.698,26.278z"/>
<line fill="none" stroke="#000000" stroke-width="0.7" stroke-linecap="round" x1="25.198" y1="21.6" x2="21.599" y2="21.6"/>
<line fill="none" stroke="#000000" stroke-width="0.7" stroke-linecap="round" x1="21.599" y1="21.6" x2="17.998" y2="21.6"/>
<polygon fill="#FFFFFF" stroke="#000000" stroke-width="0.7" stroke-linecap="round" points="21.599,21.6 17.998,14.4 21.599,14.4 
	25.198,14.4 "/>
<line fill="none" stroke="#000000" stroke-width="0.45" stroke-linecap="round" x1="21.599" y1="14.4" x2="21.599" y2="21.6"/>
<line fill="none" stroke="#787878" stroke-width="0.7" stroke-linecap="round" x1="21.599" y1="28.8" x2="21.599" y2="21.6"/>
<line fill="none" stroke="#000000" stroke-width="0.7" stroke-linecap="round" x1="21.599" y1="7.2" x2="21.599" y2="14.4"/>
<path fill="none" stroke="#787878" stroke-miterlimit="10" d="M18,7.2L18,7.2L18,7.2z"/>
<text transform="matrix(1 0 0 1 22.9993 12.6411)" fill="#787878" font-family="'DroidSans'" font-size="4.5">G</text>
<line fill="none" stroke="#000000" stroke-width="0.45" stroke-linecap="round" x1="28.557" y1="22.5" x2="26.217" y2="20.16"/>
<line fill="none" stroke="#000000" stroke-width="0.45" stroke-linecap="round" x1="28.197" y1="25.74" x2="25.857" y2="23.4"/>
<path d="M27.656,23.041l1.439-1.438l1.08,2.521L27.656,23.041z"/>
<path d="M27.299,26.278l1.438-1.438l1.079,2.521L27.299,26.278z"/>
<line fill="none" stroke="#000000" stroke-width="0.7" stroke-linecap="round" x1="10.799" y1="21.6" x2="7.198" y2="21.6"/>
<line fill="none" stroke="#000000" stroke-width="0.7" stroke-linecap="round" x1="7.198" y1="21.6" x2="3.599" y2="21.6"/>
<polygon fill="#FFFFFF" stroke="#000000" stroke-width="0.7" stroke-linecap="round" points="7.198,21.6 3.599,14.4 7.198,14.4 
	10.799,14.4 "/>
<line fill="none" stroke="#000000" stroke-width="0.45" stroke-linecap="round" x1="7.198" y1="14.4" x2="7.198" y2="21.6"/>
<line fill="none" stroke="#787878" stroke-width="0.7" stroke-linecap="round" x1="7.198" y1="28.8" x2="7.198" y2="21.6"/>
<polyline fill="none" stroke="#000000" stroke-width="0.7" stroke-linecap="round" points="7.198,14.4 7.198,7.2 35.997,7.2 
	35.997,14.4 "/>
<text transform="matrix(1 0 0 1 8.5989 12.6411)" fill="#787878" font-family="'DroidSans'" font-size="4.5">R</text>
<line fill="none" stroke="#000000" stroke-width="0.45" stroke-linecap="round" x1="14.156" y1="22.5" x2="11.817" y2="20.16"/>
<line fill="none" stroke="#000000" stroke-width="0.45" stroke-linecap="round" x1="13.797" y1="25.74" x2="11.456" y2="23.4"/>
<path d="M13.257,23.041l1.439-1.438l1.08,2.521L13.257,23.041z"/>
<path d="M12.899,26.278l1.438-1.438l1.08,2.521L12.899,26.278z"/>
<line id="connector0pin_2_" fill="none" stroke="#787878" stroke-width="0.7" stroke-linecap="round" x1="21.6" y1="0" x2="21.6" y2="7.2"/>
</svg>
