<?xml version="1.0" encoding="utf-8"?>
<!-- Generator: Adobe Illustrator 15.1.0, SVG Export Plug-In . SVG Version: 6.00 Build 0)  -->
<!DOCTYPE svg PUBLIC "-//W3C//DTD SVG 1.1//EN" "http://www.w3.org/Graphics/SVG/1.1/DTD/svg11.dtd">
<svg version="1.1" id="svg2" xmlns:svg="http://www.w3.org/2000/svg"
	 xmlns="http://www.w3.org/2000/svg" xmlns:xlink="http://www.w3.org/1999/xlink" x="0px" y="0px" width="44.576px" height="28.8px"
	 viewBox="0 0 44.576 28.8" enable-background="new 0 0 44.576 28.8" xml:space="preserve">
<text transform="matrix(1 0 0 1 36.7737 12.6411)" fill="#787878" font-family="'DroidSans'" font-size="4.5">B</text>
<line fill="none" stroke="#000000" stroke-width="0.7" stroke-linecap="round" x1="21.599" y1="7.2" x2="21.599" y2="14.4"/>
<path fill="none" stroke="#787878" stroke-miterlimit="10" d="M21.599,7.2L21.599,7.2L21.599,7.2z"/>
<text transform="matrix(1 0 0 1 22.3743 12.6411)" fill="#787878" font-family="'DroidSans'" font-size="4.5">G</text>
<polyline fill="none" stroke="#000000" stroke-width="0.7" stroke-linecap="round" points="7.198,14.4 7.198,7.2 35.997,7.2 
	35.997,14.4 "/>
<text transform="matrix(1 0 0 1 7.9739 12.6411)" fill="#787878" font-family="'DroidSans'" font-size="4.5">R</text>
<g>
	<line fill="none" stroke="#000000" stroke-width="0.7" stroke-linecap="round" x1="35.997" y1="14.4" x2="39.599" y2="14.4"/>
	<line fill="none" stroke="#000000" stroke-width="0.7" stroke-linecap="round" x1="32.399" y1="14.4" x2="35.997" y2="14.4"/>
	<polygon fill="#FFFFFF" stroke="#000000" stroke-width="0.7" stroke-linecap="round" points="39.599,21.6 35.997,21.6 32.399,21.6 
		35.997,14.4 	"/>
	<line fill="none" stroke="#000000" stroke-width="0.45" stroke-linecap="round" x1="35.997" y1="14.4" x2="35.997" y2="21.6"/>
	<line fill="none" stroke="#000000" stroke-width="0.45" stroke-linecap="round" x1="40.616" y1="15.839" x2="42.956" y2="13.5"/>
	<line fill="none" stroke="#000000" stroke-width="0.45" stroke-linecap="round" x1="40.257" y1="12.601" x2="42.597" y2="10.261"/>
	<path d="M44.576,11.881l-1.08,2.52l-1.439-1.439L44.576,11.881z"/>
	<path d="M44.217,8.641l-1.08,2.52l-1.438-1.438L44.217,8.641z"/>
	<line fill="none" stroke="#000000" stroke-width="0.7" stroke-linecap="round" x1="21.599" y1="14.4" x2="25.198" y2="14.4"/>
	<line fill="none" stroke="#000000" stroke-width="0.7" stroke-linecap="round" x1="17.998" y1="14.4" x2="21.599" y2="14.4"/>
	<polygon fill="#FFFFFF" stroke="#000000" stroke-width="0.7" stroke-linecap="round" points="25.198,21.6 21.599,21.6 17.998,21.6 
		21.599,14.4 	"/>
	<line fill="none" stroke="#000000" stroke-width="0.45" stroke-linecap="round" x1="21.599" y1="14.4" x2="21.599" y2="21.6"/>
	<line fill="none" stroke="#000000" stroke-width="0.45" stroke-linecap="round" x1="26.217" y1="15.839" x2="28.557" y2="13.5"/>
	<line fill="none" stroke="#000000" stroke-width="0.45" stroke-linecap="round" x1="25.857" y1="12.601" x2="28.197" y2="10.261"/>
	<path d="M30.177,11.881l-1.08,2.52l-1.439-1.439L30.177,11.881z"/>
	<path d="M29.817,8.641l-1.079,2.52l-1.438-1.438L29.817,8.641z"/>
	<line fill="none" stroke="#000000" stroke-width="0.7" stroke-linecap="round" x1="7.198" y1="14.4" x2="10.799" y2="14.4"/>
	<line fill="none" stroke="#000000" stroke-width="0.7" stroke-linecap="round" x1="3.599" y1="14.4" x2="7.198" y2="14.4"/>
	<polygon fill="#FFFFFF" stroke="#000000" stroke-width="0.7" stroke-linecap="round" points="10.799,21.6 7.198,21.6 3.599,21.6 
		7.198,14.4 	"/>
	<line fill="none" stroke="#000000" stroke-width="0.45" stroke-linecap="round" x1="7.198" y1="14.4" x2="7.198" y2="21.6"/>
	<line fill="none" stroke="#000000" stroke-width="0.45" stroke-linecap="round" x1="11.817" y1="15.839" x2="14.156" y2="13.5"/>
	<line fill="none" stroke="#000000" stroke-width="0.45" stroke-linecap="round" x1="11.456" y1="12.601" x2="13.797" y2="10.261"/>
	<path d="M15.777,11.881l-1.08,2.52l-1.439-1.439L15.777,11.881z"/>
	<path d="M15.416,8.641l-1.08,2.52l-1.438-1.438L15.416,8.641z"/>
</g>
<line id="connector0pin_2_" fill="none" stroke="#787878" stroke-width="0.7" stroke-linecap="round" x1="21.599" y1="0" x2="21.599" y2="7.2"/>
<line fill="none" stroke="#787878" stroke-width="0.7" stroke-linecap="round" x1="35.997" y1="28.8" x2="35.997" y2="21.6"/>
<line fill="none" stroke="#787878" stroke-width="0.7" stroke-linecap="round" x1="21.599" y1="28.8" x2="21.599" y2="21.6"/>
<line fill="none" stroke="#787878" stroke-width="0.7" stroke-linecap="round" x1="7.198" y1="28.8" x2="7.198" y2="21.6"/>
</svg>
