<?xml version="1.0" encoding="utf-8"?>
<!-- Generator: Adobe Illustrator 15.1.0, SVG Export Plug-In . SVG Version: 6.00 Build 0)  -->
<!DOCTYPE svg PUBLIC "-//W3C//DTD SVG 1.1//EN" "http://www.w3.org/Graphics/SVG/1.1/DTD/svg11.dtd">
<svg version="1.1"
	 id="svg2" inkscape:version="0.46" sodipodi:docname="peltier_sensor.svg" sodipodi:version="0.32" inkscape:output_extension="org.inkscape.output.svg.inkscape" xmlns:svg="http://www.w3.org/2000/svg" xmlns:cc="http://creativecommons.org/ns#" xmlns:rdf="http://www.w3.org/1999/02/22-rdf-syntax-ns#" xmlns:dc="http://purl.org/dc/elements/1.1/" xmlns:sodipodi="http://sodipodi.sourceforge.net/DTD/sodipodi-0.dtd" xmlns:inkscape="http://www.inkscape.org/namespaces/inkscape"
	 xmlns="http://www.w3.org/2000/svg" xmlns:xlink="http://www.w3.org/1999/xlink" x="0px" y="0px" width="28.8px" height="36px"
	 viewBox="0 0 28.8 36" enable-background="new 0 0 28.8 36" xml:space="preserve">
<g id="schematic">
	<polyline fill="none" stroke="#000000" stroke-width="0.7" stroke-linecap="round" stroke-linejoin="round" points="7.2,13.636 
		10.894,13.636 13.623,16.35 17.06,16.35 21.6,13.284 	"/>
	<polyline fill="none" stroke="#000000" stroke-width="0.7" stroke-linecap="round" stroke-linejoin="round" points="7.2,20.748 
		11.81,20.748 19.977,20.748 	"/>
	<rect id="connector2terminal" y="13.284" fill="none" width="0.353" height="0.706"/>
	<rect id="connector0terminal" y="13.284" fill="none" width="0.353" height="0.706"/>
	<rect id="connector1terminal" y="20.34" fill="none" width="0.353" height="0.705"/>
	<polyline id="box_1_" fill="none" stroke="#000000" stroke-width="0.9" stroke-linecap="round" stroke-linejoin="round" points="
		21.6,28.8 7.2,28.8 7.2,7.2 21.6,7.2 	"/>
	<polygon points="10.035,14.817 8.541,16.866 9.56,17.067 8.282,19.555 10.781,16.55 9.718,16.278 	"/>
	
		<line id="connector0pin" fill="none" stroke="#787878" stroke-width="0.7" stroke-linecap="round" stroke-linejoin="round" x1="7.2" y1="13.692" x2="0" y2="13.692"/>
	
		<line id="connector1pin" fill="none" stroke="#787878" stroke-width="0.7" stroke-linecap="round" stroke-linejoin="round" x1="7.2" y1="20.748" x2="0" y2="20.748"/>
	<text transform="matrix(1 0 0 1 19.0342 25.5854)" fill="#787878" font-family="'DroidSans'" font-size="4.5">-</text>
	<text transform="matrix(1 0 0 1 18.2012 12.1563)" fill="#787878" font-family="'DroidSans'" font-size="4.5">+</text>
</g>
</svg>
