<?xml version="1.0" encoding="utf-8"?>
<!-- Generator: Adobe Illustrator 15.1.0, SVG Export Plug-In . SVG Version: 6.00 Build 0)  -->
<!DOCTYPE svg PUBLIC "-//W3C//DTD SVG 1.1//EN" "http://www.w3.org/Graphics/SVG/1.1/DTD/svg11.dtd">
<svg version="1.1" id="Ebene_1" xmlns:svg="http://www.w3.org/2000/svg"
	 xmlns="http://www.w3.org/2000/svg" xmlns:xlink="http://www.w3.org/1999/xlink" x="0px" y="0px" width="22.176px"
	 height="27.236px" viewBox="0 0 22.176 27.236" enable-background="new 0 0 22.176 27.236" xml:space="preserve">
<g>
	<g>
		<path fill="#808080" d="M17.831,27.238h1.051v-8h-1.051V27.238z"/>
	</g>
</g>
<g>
	<g>
		<path fill="#808080" d="M10.62,27.238h1.051v-8H10.62V27.238z"/>
	</g>
</g>
<g>
	<g>
		<path fill="#808080" d="M3.415,27.269h1.051v-8h-1.05L3.415,27.269L3.415,27.269z"/>
	</g>
</g>
<g>
	<g>
		<path fill="#B3B3B3" d="M17.71,27.238h1.052v-8H17.71V27.238z"/>
	</g>
</g>
<g>
	<g>
		<path fill="#B3B3B3" d="M10.499,27.238h1.052v-8H10.5L10.499,27.238L10.499,27.238z"/>
	</g>
</g>
<g>
	<g>
		<path fill="#B3B3B3" d="M3.294,27.269h1.051v-8h-1.05L3.294,27.269L3.294,27.269z"/>
	</g>
</g>
<g>
	<g id="connector0pin">
		<circle fill="none" cx="3.879" cy="26.398" r="1.71"/>
	</g>
	<g id="connector1pin">
		<circle fill="none" cx="11.079" cy="26.398" r="1.71"/>
	</g>
	<g id="connector2pin">
		<circle fill="none" cx="18.296" cy="26.398" r="1.71"/>
	</g>
</g>
<g>
	<g>
		<rect x="4.013" y="1.566" fill="#999999" width="14.492" height="15.93"/>
	</g>
	<g>
		<polygon fill="#333333" points="16.818,8.652 12.182,8.652 12.182,4.014 9.995,4.014 9.995,8.652 5.357,8.652 5.357,10.837 
			9.995,10.837 9.995,15.476 12.182,15.476 12.182,10.837 16.818,10.837 		"/>
	</g>
	<g>
		<polygon fill="#1A1A1A" points="5.357,8.652 9.995,8.652 9.995,4.014 10.511,4.014 10.511,9.189 5.357,9.189 		"/>
	</g>
	<g>
		<polygon fill="#1A1A1A" points="9.995,10.837 9.995,14.839 10.511,14.839 10.511,11.481 		"/>
	</g>
	<g>
		<polygon fill="#1A1A1A" points="12.18,8.655 16.039,8.655 16.039,9.171 12.68,9.171 		"/>
	</g>
	<g>
		<path fill="#3250BE" d="M0-0.048v19.583h22.176V-0.048H0z M11.088,14.286c-2.509,0-4.542-2.033-4.542-4.542
			c0-2.51,2.033-4.542,4.542-4.542c2.51,0,4.542,2.032,4.542,4.542C15.63,12.253,13.598,14.286,11.088,14.286z"/>
	</g>
	<g>
		<circle fill="#E6E6E6" cx="2.161" cy="15.242" r="0.42"/>
	</g>
	<g>
		<circle fill="#E6E6E6" cx="2.161" cy="15.242" r="0.42"/>
	</g>
	<g>
		<circle fill="#B3B3B3" cx="2.162" cy="15.242" r="0.42"/>
	</g>
	<g>
		<path fill="#E6E6E6" d="M1.865,15.54c-0.165-0.164-0.164-0.431,0-0.595c0.164-0.164,0.429-0.164,0.594,0
			c0.164,0.164-0.218-0.306-0.511,0.097C1.647,15.452,2.028,15.704,1.865,15.54z"/>
	</g>
	<g>
		<path fill="#808080" d="M2.458,14.946c0.165,0.164,0.164,0.431,0,0.595s-0.429,0.164-0.594,0
			c-0.163-0.163,0.219,0.306,0.512-0.096C2.676,15.033,2.295,14.781,2.458,14.946z"/>
	</g>
	<g>
		<circle fill="#333333" cx="8.043" cy="6.622" r="0.42"/>
	</g>
	<g>
		<circle fill="#333333" cx="14.209" cy="6.622" r="0.42"/>
	</g>
	<g>
		<g>
			<path fill="#263C8F" d="M7.624,6.838L5.541,5.444L4.984,6.275L7.069,7.67C7.224,7.371,7.409,7.094,7.624,6.838z"/>
		</g>
		<g>
			<path fill="#263C8F" d="M11.088,5.202c0.157,0,0.305,0.03,0.458,0.046l-0.035-3.684l-1,0.011l0.035,3.682
				C10.726,5.236,10.902,5.202,11.088,5.202z"/>
		</g>
		<g>
			<path fill="#263C8F" d="M9.295,5.573L8.148,3.545l-0.87,0.492L8.43,6.075C8.7,5.879,8.985,5.706,9.295,5.573z"/>
		</g>
		<g>
			<path fill="#263C8F" d="M15.63,9.744c0,0.042-0.011,0.079-0.013,0.122l2.46-0.216l-0.089-0.996l-2.446,0.215
				C15.598,9.153,15.63,9.445,15.63,9.744z"/>
		</g>
		<g>
			<path fill="#263C8F" d="M13.684,6.024l1.092-2.001l-0.879-0.479l-1.09,1.999C13.117,5.671,13.41,5.833,13.684,6.024z"/>
		</g>
		<g>
			<path fill="#263C8F" d="M15.115,7.687l1.949-1.295l-0.553-0.833l-1.949,1.294C14.777,7.109,14.962,7.386,15.115,7.687z"/>
		</g>
		<g>
			<path fill="#263C8F" d="M15.068,11.892l2.55,1.021l0.37-0.929l-2.545-1.021C15.352,11.29,15.227,11.599,15.068,11.892z"/>
		</g>
		<g>
			<path fill="#263C8F" d="M13.784,13.382l2.965,3.179l0.729-0.684l-2.967-3.181C14.294,12.951,14.055,13.183,13.784,13.382z"/>
		</g>
		<g>
			<path fill="#263C8F" d="M7.646,12.678L5.55,14.9l0.728,0.686l2.095-2.219C8.104,13.164,7.864,12.934,7.646,12.678z"/>
		</g>
		<g>
			<path fill="#263C8F" d="M6.546,9.744c0-0.316,0.033-0.625,0.095-0.925L3.99,8.56L3.893,9.554l2.661,0.263
				C6.553,9.792,6.546,9.77,6.546,9.744z"/>
		</g>
		<g>
			<path fill="#263C8F" d="M6.708,10.883l-2.694,1.021l0.354,0.937l2.701-1.021C6.915,11.522,6.792,11.211,6.708,10.883z"/>
		</g>
	</g>
	<g>
		<polygon fill="#CCCCCC" points="12.316,10.982 16.529,10.964 16.529,10.837 12.182,10.837 12.182,14.628 12.307,14.628 		"/>
	</g>
	<g>
		<path fill="#263C8F" d="M11.088,3.976c-3.187,0-5.77,2.583-5.77,5.771c0,3.188,2.583,5.771,5.77,5.771
			c3.188,0,5.77-2.583,5.77-5.771S14.273,3.976,11.088,3.976z M11.088,14.286c-2.509,0-4.542-2.033-4.542-4.542
			c0-2.51,2.033-4.542,4.542-4.542c2.51,0,4.542,2.032,4.542,4.542C15.63,12.253,13.598,14.286,11.088,14.286z"/>
	</g>
	<g opacity="0.32">
		<g>
			<path d="M16.749,16.551l-2.114-2.27l-0.006,0.005c-1.023,0.799-2.248,1.221-3.541,1.221c-1.306,0-2.539-0.429-3.565-1.24
				L7.516,14.26l-1.239,1.315L5.562,14.9l1.239-1.314l-0.004-0.005c-0.359-0.404-0.658-0.85-0.889-1.327l-0.003-0.006l-1.533,0.579
				l-0.349-0.919l1.529-0.578L5.55,11.322c-0.148-0.524-0.224-1.055-0.224-1.577V9.702L5.298,9.684L3.902,9.547l0.096-0.979
				L5.424,8.71l0.001-0.008c0.111-0.612,0.316-1.192,0.609-1.724l0.003-0.005l-1.042-0.7l0.547-0.817l1.043,0.698l0.005-0.006
				c0.357-0.443,0.771-0.829,1.232-1.148l0.006-0.004L7.289,4.04l0.856-0.485l0.542,0.957l0.007-0.003
				C9.28,4.238,9.9,4.07,10.535,4.01l0.007,0l-0.023-2.425l0.984-0.012l0.032,2.434c0.645,0.049,1.272,0.205,1.861,0.461
				l0.006,0.003l0.498-0.913l0.865,0.469l-0.5,0.915l0.006,0.004c0.509,0.338,0.955,0.75,1.327,1.223l0.006,0.006L16.51,5.57
				l0.546,0.819l-0.905,0.6l0.003,0.006c0.293,0.539,0.497,1.133,0.609,1.767l0.002,0.009l1.223-0.105l0.084,0.979l-1.224,0.114
				c-0.001,0.569-0.085,1.131-0.25,1.669l-0.003,0.008l1.385,0.554l-0.365,0.914l-1.39-0.556l-0.004,0.006
				c-0.229,0.45-0.52,0.871-0.863,1.251l-0.004,0.005l2.115,2.268L16.749,16.551z M14.654,14.009l2.104,2.258l0.427-0.399
				l-2.105-2.257l0.13-0.141c0.331-0.366,0.611-0.772,0.833-1.207l0.086-0.169l1.374,0.55L17.72,12.1l-1.369-0.548l0.056-0.184
				c0.159-0.52,0.241-1.062,0.242-1.612l0.003-0.189l1.203-0.104l-0.049-0.581l-1.203,0.104l-0.036-0.187
				c-0.108-0.614-0.307-1.188-0.588-1.707l-0.094-0.167l0.894-0.591l-0.323-0.486l-0.893,0.595l-0.12-0.149
				c-0.36-0.458-0.791-0.854-1.282-1.181l-0.159-0.105l0.492-0.9l-0.514-0.279l-0.49,0.9l-0.175-0.078
				c-0.567-0.247-1.172-0.397-1.796-0.445l-0.19-0.017l-0.023-2.415l-0.583,0.007l0.023,2.411L10.553,4.21
				c-0.611,0.058-1.209,0.22-1.777,0.481L8.602,4.769L8.069,3.827L7.561,4.115l0.532,0.938L7.937,5.163
				c-0.445,0.309-0.846,0.682-1.19,1.109L6.628,6.421L5.597,5.732L5.272,6.218L6.3,6.908L6.21,7.074
				C5.928,7.587,5.73,8.146,5.622,8.738L5.587,8.927l-1.41-0.14l-0.057,0.58l1.266,0.136l0.139,0.091v0.151
				c0,0.503,0.073,1.015,0.216,1.522l0.052,0.184l-1.513,0.572l0.208,0.545l1.517-0.573l0.083,0.171
				c0.223,0.46,0.511,0.891,0.858,1.281l0.127,0.141l-1.229,1.303l0.425,0.4l1.229-1.304l0.15,0.122
				c0.99,0.783,2.18,1.197,3.44,1.197c1.248,0,2.43-0.408,3.417-1.179L14.654,14.009z"/>
		</g>
	</g>
	<g enable-background="new    ">
		<path fill="#263C8F" d="M3.642,18.745H3.093v-2.068c-0.201,0.188-0.437,0.326-0.709,0.416v-0.498
			c0.143-0.047,0.299-0.136,0.467-0.267s0.283-0.283,0.346-0.458h0.445V18.745z"/>
		<path fill="#263C8F" d="M5.554,17.985l0.531-0.064c0.017,0.136,0.063,0.239,0.137,0.311s0.164,0.107,0.27,0.107
			c0.113,0,0.208-0.043,0.286-0.129s0.116-0.202,0.116-0.348c0-0.138-0.037-0.247-0.111-0.328s-0.165-0.121-0.271-0.121
			c-0.07,0-0.154,0.014-0.252,0.041l0.061-0.447c0.148,0.004,0.262-0.028,0.34-0.097s0.117-0.159,0.117-0.272
			c0-0.097-0.029-0.173-0.086-0.23s-0.133-0.086-0.229-0.086c-0.094,0-0.174,0.032-0.24,0.098s-0.107,0.16-0.121,0.285l-0.506-0.086
			c0.035-0.173,0.088-0.312,0.159-0.415s0.17-0.185,0.297-0.244S6.32,15.87,6.478,15.87c0.27,0,0.486,0.086,0.648,0.258
			c0.134,0.141,0.201,0.3,0.201,0.477c0,0.251-0.137,0.452-0.412,0.602c0.164,0.035,0.295,0.114,0.394,0.236
			s0.147,0.271,0.147,0.443c0,0.251-0.092,0.466-0.275,0.643s-0.412,0.266-0.686,0.266c-0.259,0-0.474-0.074-0.645-0.224
			S5.582,18.226,5.554,17.985z"/>
		<path fill="#263C8F" d="M7.779,17.985l0.531-0.064c0.017,0.136,0.063,0.239,0.137,0.311s0.164,0.107,0.27,0.107
			c0.113,0,0.208-0.043,0.286-0.129s0.116-0.202,0.116-0.348c0-0.138-0.037-0.247-0.111-0.328s-0.165-0.121-0.271-0.121
			c-0.07,0-0.154,0.014-0.252,0.041l0.061-0.447c0.148,0.004,0.262-0.028,0.34-0.097s0.117-0.159,0.117-0.272
			c0-0.097-0.029-0.173-0.086-0.23s-0.133-0.086-0.229-0.086c-0.094,0-0.174,0.032-0.24,0.098s-0.107,0.16-0.121,0.285L7.82,16.618
			c0.035-0.173,0.088-0.312,0.159-0.415s0.17-0.185,0.297-0.244s0.269-0.089,0.427-0.089c0.27,0,0.486,0.086,0.648,0.258
			c0.134,0.141,0.201,0.3,0.201,0.477c0,0.251-0.137,0.452-0.412,0.602c0.164,0.035,0.295,0.114,0.394,0.236
			s0.147,0.271,0.147,0.443c0,0.251-0.092,0.466-0.275,0.643s-0.412,0.266-0.686,0.266c-0.259,0-0.474-0.074-0.645-0.224
			S7.806,18.226,7.779,17.985z"/>
		<path fill="#263C8F" d="M11.883,16.583l-0.532,0.059c-0.013-0.109-0.047-0.19-0.102-0.242s-0.125-0.078-0.213-0.078
			c-0.116,0-0.214,0.052-0.294,0.156s-0.13,0.321-0.151,0.65c0.137-0.161,0.307-0.242,0.51-0.242c0.229,0,0.425,0.087,0.588,0.262
			c0.164,0.175,0.246,0.399,0.246,0.676c0,0.293-0.086,0.528-0.258,0.705c-0.172,0.177-0.393,0.266-0.663,0.266
			c-0.289,0-0.527-0.112-0.713-0.337s-0.279-0.593-0.279-1.104c0-0.524,0.097-0.903,0.291-1.135s0.446-0.348,0.756-0.348
			c0.217,0,0.397,0.061,0.54,0.183C11.752,16.175,11.844,16.351,11.883,16.583z M10.638,17.78c0,0.179,0.041,0.316,0.123,0.413
			s0.176,0.146,0.281,0.146c0.102,0,0.186-0.04,0.254-0.119s0.102-0.21,0.102-0.391c0-0.187-0.037-0.322-0.109-0.409
			s-0.164-0.13-0.273-0.13c-0.105,0-0.195,0.041-0.268,0.124S10.638,17.619,10.638,17.78z"/>
		<path fill="#263C8F" d="M14.102,18.235v0.51h-1.924c0.021-0.192,0.083-0.375,0.188-0.548c0.104-0.173,0.31-0.401,0.617-0.687
			c0.247-0.23,0.398-0.387,0.455-0.469c0.075-0.113,0.113-0.226,0.113-0.336c0-0.122-0.033-0.217-0.1-0.282
			c-0.065-0.065-0.156-0.099-0.271-0.099s-0.206,0.034-0.273,0.104c-0.068,0.069-0.107,0.184-0.117,0.344l-0.547-0.055
			c0.032-0.302,0.135-0.519,0.307-0.65s0.387-0.197,0.645-0.197c0.282,0,0.504,0.076,0.666,0.229
			c0.161,0.152,0.242,0.342,0.242,0.568c0,0.129-0.023,0.252-0.07,0.368c-0.046,0.116-0.119,0.238-0.219,0.366
			c-0.066,0.085-0.187,0.206-0.359,0.365c-0.174,0.159-0.283,0.265-0.33,0.316c-0.046,0.052-0.083,0.103-0.111,0.152H14.102z"/>
		<path fill="#263C8F" d="M16.676,17.985l0.531-0.064c0.017,0.136,0.063,0.239,0.137,0.311s0.164,0.107,0.27,0.107
			c0.113,0,0.208-0.043,0.285-0.129c0.078-0.086,0.117-0.202,0.117-0.348c0-0.138-0.037-0.247-0.111-0.328s-0.165-0.121-0.271-0.121
			c-0.07,0-0.154,0.014-0.252,0.041l0.061-0.447c0.148,0.004,0.262-0.028,0.34-0.097s0.117-0.159,0.117-0.272
			c0-0.097-0.029-0.173-0.086-0.23c-0.058-0.058-0.134-0.086-0.229-0.086c-0.094,0-0.174,0.032-0.24,0.098s-0.107,0.16-0.121,0.285
			l-0.506-0.086c0.035-0.173,0.088-0.312,0.158-0.415c0.071-0.104,0.17-0.185,0.297-0.244s0.27-0.089,0.428-0.089
			c0.27,0,0.485,0.086,0.648,0.258c0.134,0.141,0.201,0.3,0.201,0.477c0,0.251-0.138,0.452-0.412,0.602
			c0.164,0.035,0.295,0.114,0.393,0.236c0.099,0.122,0.148,0.271,0.148,0.443c0,0.251-0.092,0.466-0.275,0.643
			s-0.412,0.266-0.686,0.266c-0.26,0-0.475-0.074-0.645-0.224C16.802,18.421,16.703,18.226,16.676,17.985z"/>
	</g>
	<g opacity="0.35" enable-background="new    ">
		<path d="M6.858,10.101c0-2.511,2.033-4.542,4.542-4.542c0.94,0,2.227,0.42,2.227,0.42c-0.725-0.49-1.6-0.775-2.539-0.775
			c-2.509,0-4.542,2.032-4.542,4.542c0,0.655,0.139,1.279,0.39,1.844C6.936,11.588,6.858,10.756,6.858,10.101z"/>
	</g>
</g>
<g>
	<rect y="19.536" fill="#131E48" width="22.176" height="6.487"/>
</g>
<g opacity="0.18" enable-background="new    ">
	<rect y="19.025" fill="#FFFFFF" width="22.176" height="1.054"/>
</g>
</svg>
