<?xml version="1.0" encoding="utf-8"?>
<!-- Generator: Adobe Illustrator 15.1.0, SVG Export Plug-In . SVG Version: 6.00 Build 0)  -->
<!DOCTYPE svg PUBLIC "-//W3C//DTD SVG 1.1//EN" "http://www.w3.org/Graphics/SVG/1.1/DTD/svg11.dtd">
<svg version="1.1" id="Ebene_1" xmlns:svg="http://www.w3.org/2000/svg"
	 xmlns="http://www.w3.org/2000/svg" xmlns:xlink="http://www.w3.org/1999/xlink" x="0px" y="0px" width="42.022px"
	 height="75.02px" viewBox="0 0 42.022 75.02" enable-background="new 0 0 42.022 75.02" xml:space="preserve">
<image overflow="visible" width="600" height="600" xlink:href="5A50EB32.jpg"  transform="matrix(0.1776 0 0 0.1776 50.7725 -44.9768)">
</image>
<g>
	<g>
		<path fill="#6C6B5D" d="M40.854,68.144c0,1.1-0.9,2-2,2H3.169c-1.1,0-2-0.9-2-2v-38.52c0-1.1,0.9-2,2-2h35.685c1.1,0,2,0.9,2,2
			V68.144z"/>
	</g>
	<g>
		<path fill="#A1A18C" d="M40.854,67.394c0,1.1-0.9,2-2,2H3.169c-1.1,0-2-0.9-2-2v-38.52c0-1.1,0.9-2,2-2h35.685c1.1,0,2,0.9,2,2
			V67.394z"/>
	</g>
	<circle id="connector3pin" fill="none" stroke="#9A916C" stroke-width="0.254" cx="36.177" cy="33.855" r="2.344"/>
	<circle id="connector0pin" fill="none" stroke="#9A916C" stroke-width="0.254" cx="5.846" cy="33.855" r="2.344"/>
	<circle id="connector1pin" fill="none" stroke="#9A916C" stroke-width="0.254" cx="5.846" cy="60.783" r="2.344"/>
	<circle id="connector2pin" fill="none" stroke="#9A916C" stroke-width="0.254" cx="36.177" cy="60.783" r="2.344"/>
	<path fill="#333333" d="M38.814,47.319H3.217c0,0-1.079,2.508-0.748,6.694c0.112,1.418-0.097,3.756-0.151,5.812
		c-0.055,2.104,0.042,3.933,0.004,5.75C2.288,67.223,4.356,68.7,4.356,68.7h33.333c0,0,2.177-0.013,2.177-3.186
		c0-1.527-0.343-3.759-0.437-7.075c-0.025-0.893,0.104-5.464,0.133-6.399C39.651,49.233,38.814,47.319,38.814,47.319z"/>
	<g>
		<path fill="#6C6B5D" d="M40.854,49.45c0,1.1-0.9,2-2,2H3.169c-1.1,0-2-0.9-2-2V10.93c0-1.1,0.9-2,2-2h35.685c1.1,0,2,0.9,2,2
			V49.45z"/>
	</g>
	<rect x="11.651" y="52.04" fill="#CCCCCC" width="18.719" height="22.979"/>
	<rect x="30.37" y="59.04" fill="#B3B3B3" width="1.157" height="15.979"/>
	<rect x="10.494" y="59.04" fill="#E6E6E6" width="1.157" height="15.979"/>
	<g>
		<path fill="#D7D6BA" d="M40.854,48.779c0,1.1-0.9,2-2,2H3.169c-1.1,0-2-0.9-2-2V10.26c0-1.1,0.9-2,2-2h35.685c1.1,0,2,0.9,2,2
			V48.779z"/>
	</g>
	<path fill="#E6E6E6" d="M29.348,0H12.673c-0.377,0.017-0.727,0.051-1.021,0.137V59.04H30.37V0.136
		C30.074,0.051,29.725,0.016,29.348,0z"/>
	<path fill="#CCCCCC" d="M30.37,0.136V59.04h1.157V1.908C31.527,0.822,31.084,0.344,30.37,0.136z"/>
	<path fill="#F2F2F2" d="M10.494,1.908V59.04h1.157V0.136C10.937,0.344,10.494,0.822,10.494,1.908z"/>
</g>
</svg>
