<?xml version="1.0" encoding="utf-8"?>
<!-- Generator: Adobe Illustrator 15.1.0, SVG Export Plug-In . SVG Version: 6.00 Build 0)  -->
<!DOCTYPE svg PUBLIC "-//W3C//DTD SVG 1.1//EN" "http://www.w3.org/Graphics/SVG/1.1/DTD/svg11.dtd">
<svg version="1.1" id="Ebene_1" xmlns:svg="http://www.w3.org/2000/svg"
	 xmlns="http://www.w3.org/2000/svg" xmlns:xlink="http://www.w3.org/1999/xlink" x="0px" y="0px" width="52.92px"
	 height="109.91px" viewBox="0 0 52.92 109.91" enable-background="new 0 0 52.92 109.91" xml:space="preserve">
<polygon fill="#333333" points="13.459,28.063 39.255,28.063 39.255,25.229 39.255,0 13.459,0 "/>
<g>
	<path fill="#1A1A1A" d="M39.255,48.655c0-2.49-2.038-4.528-4.528-4.528H18.193c-2.49,0-4.528,2.038-4.528,4.528v33.443
		c0,2.49,2.038,4.528,4.528,4.528h16.534c2.49,0,4.528-2.038,4.528-4.528V48.655z"/>
</g>
<g>
	<path d="M52.92,105.91c0,2.2-1.8,4-4,4H4c-2.2,0-4-1.8-4-4V81.293c0-2.2,1.8-4,4-4h44.92c2.2,0,4,1.8,4,4V105.91z"/>
</g>
<rect x="8.357" y="4.864" fill="#CCCCCC" width="5.103" height="2.178"/>
<rect x="8.357" y="10.533" fill="#CCCCCC" width="5.103" height="2.178"/>
<rect x="8.357" y="16.203" fill="#CCCCCC" width="5.103" height="2.178"/>
<rect x="8.357" y="21.872" fill="#CCCCCC" width="5.103" height="2.178"/>
<rect x="39.255" y="19.037" fill="#CCCCCC" width="5.103" height="2.178"/>
<rect x="39.255" y="13.367" fill="#CCCCCC" width="5.103" height="2.178"/>
<rect x="39.255" y="7.699" fill="#CCCCCC" width="5.103" height="2.178"/>
<rect x="39.255" y="2.029" fill="#CCCCCC" width="5.103" height="2.178"/>
<rect x="20.96" fill="#1A1A1A" width="11" height="44.127"/>
<path fill="#4D4D4D" d="M13.665,66.085v43.825h25.59V66.085H13.665z M37.255,103.835c0,1.1-0.9,2-2,2H17.667c-1.1,0-2-0.9-2-2v-7.75
	c0-1.1,0.9-2,2-2h17.587c1.1,0,2,0.9,2,2V103.835z"/>
<path opacity="0.3" fill="#1A1A1A" d="M39.255,66.085h-25.59v0.047c0,0.027,0.011,0.052,0.016,0.078h-0.016v0.094
	c0,0.054,0.011,0.104,0.016,0.156c0.007,0.084,0.012,0.169,0.03,0.25c0.019,0.086,0.048,0.169,0.078,0.25
	c0.032,0.087,0.072,0.169,0.116,0.25c0.048,0.088,0.101,0.171,0.161,0.25c0.069,0.09,0.145,0.174,0.229,0.25
	c0.106,0.097,0.225,0.179,0.351,0.25c0.275,0.154,0.588,0.25,0.927,0.25h21.777c0.338,0,0.651-0.096,0.927-0.25
	c0.126-0.071,0.244-0.153,0.351-0.25c0.084-0.076,0.159-0.16,0.229-0.25c0.061-0.079,0.114-0.162,0.162-0.25
	c0.044-0.081,0.083-0.163,0.116-0.25c0.03-0.081,0.059-0.164,0.078-0.25c0.018-0.081,0.023-0.166,0.03-0.25
	c0.004-0.053,0.016-0.103,0.016-0.156V66.21h-0.016c0.004-0.026,0.016-0.051,0.016-0.078V66.085z"/>
<g>
	<path opacity="0.4" fill="#FFFFFF" d="M15.417,68.188v41.753h0.25V68.21h-0.096C15.518,68.21,15.47,68.193,15.417,68.188z"/>
	<path opacity="0.35" fill="#FFFFFF" d="M15.167,68.154v41.787h0.25V68.188C15.333,68.182,15.249,68.173,15.167,68.154z"/>
	<path opacity="0.3" fill="#FFFFFF" d="M14.917,68.073v41.868h0.25V68.154C15.081,68.134,15,68.104,14.917,68.073z"/>
	<path opacity="0.25" fill="#FFFFFF" d="M14.667,67.97v41.972h0.25V68.073C14.833,68.041,14.746,68.013,14.667,67.97z"/>
	<path opacity="0.2" fill="#FFFFFF" d="M14.645,67.96c-0.082-0.046-0.153-0.105-0.227-0.162v42.144h0.25V67.97
		C14.66,67.966,14.652,67.964,14.645,67.96z"/>
	<path opacity="0.15" fill="#FFFFFF" d="M14.294,67.71c-0.046-0.042-0.085-0.092-0.126-0.139v42.37h0.25V67.798
		C14.377,67.768,14.332,67.744,14.294,67.71z"/>
	<path opacity="0.1" fill="#FFFFFF" d="M14.065,67.46c-0.056-0.072-0.103-0.149-0.148-0.229v42.711h0.25v-42.37
		C14.134,67.534,14.096,67.5,14.065,67.46z"/>
	<path opacity="0.05" fill="#FFFFFF" d="M13.904,67.21c-0.044-0.081-0.084-0.163-0.116-0.25c-0.03-0.081-0.059-0.164-0.078-0.25
		c-0.018-0.081-0.023-0.166-0.03-0.25c-0.004-0.045-0.011-0.088-0.013-0.132v43.613h0.25V67.23
		C13.914,67.224,13.908,67.217,13.904,67.21z"/>
	<path opacity="0.4" fill="#FFFFFF" d="M37.505,109.941V68.188c-0.053,0.005-0.102,0.021-0.156,0.021h-0.094v41.731H37.505z"/>
	<path opacity="0.35" fill="#FFFFFF" d="M37.755,109.941V68.154c-0.081,0.019-0.165,0.026-0.25,0.034v41.753H37.755z"/>
	<path opacity="0.3" fill="#FFFFFF" d="M38.005,109.941V68.072c-0.082,0.032-0.163,0.062-0.25,0.082v41.787H38.005z"/>
	<path opacity="0.25" fill="#FFFFFF" d="M38.255,109.941V67.969c-0.079,0.043-0.166,0.071-0.25,0.104v41.869H38.255z"/>
	<path opacity="0.2" fill="#FFFFFF" d="M38.505,109.941V67.796c-0.075,0.058-0.147,0.117-0.229,0.164
		c-0.006,0.004-0.014,0.005-0.021,0.009v41.973H38.505z"/>
	<path opacity="0.15" fill="#FFFFFF" d="M38.755,109.941V67.569c-0.042,0.047-0.082,0.098-0.129,0.141
		c-0.037,0.033-0.082,0.057-0.121,0.086v42.146H38.755z"/>
	<path opacity="0.1" fill="#FFFFFF" d="M39.005,109.941V67.228c-0.045,0.081-0.094,0.159-0.15,0.232
		c-0.03,0.039-0.067,0.072-0.1,0.109v42.372H39.005z"/>
	<path opacity="0.05" fill="#FFFFFF" d="M39.255,109.941V66.304c0,0.054-0.011,0.104-0.016,0.156
		c-0.007,0.084-0.012,0.169-0.03,0.25c-0.019,0.086-0.048,0.169-0.078,0.25c-0.032,0.087-0.072,0.169-0.116,0.25
		c-0.003,0.006-0.008,0.012-0.011,0.018v42.714H39.255z"/>
</g>
<rect x="20.147" y="98.397" fill="#1A1A1A" width="12.625" height="7.438"/>
<rect x="21.647" y="94.085" fill="#999999" width="3" height="4.313"/>
<rect x="28.272" y="94.085" fill="#999999" width="3" height="4.313"/>
<circle cx="26.46" cy="58.772" r="2.188"/>
</svg>
