<?xml version="1.0" encoding="utf-8"?>
<!-- Generator: Adobe Illustrator 15.1.0, SVG Export Plug-In . SVG Version: 6.00 Build 0)  -->
<!DOCTYPE svg PUBLIC "-//W3C//DTD SVG 1.1//EN" "http://www.w3.org/Graphics/SVG/1.1/DTD/svg11.dtd">
<svg version="1.1" id="Ebene_1" xmlns:svg="http://www.w3.org/2000/svg"
	 xmlns="http://www.w3.org/2000/svg" xmlns:xlink="http://www.w3.org/1999/xlink" x="0px" y="0px" width="68.738px"
	 height="77.295px" viewBox="0 0 68.738 77.295" enable-background="new 0 0 68.738 77.295" xml:space="preserve">
<path fill="#E6E6E6" d="M30.71,6.313c0,1.754,1.639,3.175,3.664,3.175s3.664-1.421,3.664-3.175v3.175
	c0,1.754-1.639,3.175-3.664,3.175s-3.664-1.421-3.664-3.175V6.313z"/>
<g>
	<path fill="#E6E6E6" d="M65.826,0H2.913L0,7.723v22.074h68.738V7.723L65.826,0z M34.375,12.662c-2.025,0-3.664-1.421-3.664-3.175
		c0-1.752,1.639-3.174,3.664-3.174c2.024,0,3.664,1.422,3.664,3.174C38.039,11.241,36.4,12.662,34.375,12.662z"/>
	<path fill="#CCCCCC" d="M65.826,3.793H2.913L0,11.518v22.074h68.738V11.518L65.826,3.793z M34.375,12.662
		c-2.025,0-3.664-1.421-3.664-3.175c0-1.752,1.639-3.174,3.664-3.174c2.024,0,3.664,1.422,3.664,3.174
		C38.039,11.241,36.4,12.662,34.375,12.662z"/>
	<rect x="0.001" y="20.631" fill="#333333" width="68.737" height="3.834"/>
	<rect x="0.002" y="29.797" width="68.736" height="21.76"/>
	<path fill="#1A1A1A" d="M64.015,40.42c0-2.609,2.113-4.726,4.723-4.726V24.465H0.001v11.229c0,0,0,0,0.001,0
		c2.608,0,4.723,2.115,4.723,4.726c0,2.606-2.115,4.723-4.723,4.723c0,0,0,0-0.001,0v8.859h68.737v-8.859
		C66.128,45.143,64.015,43.026,64.015,40.42z"/>
	<g>
		<g>
			<g>
				<rect x="55.248" y="51.557" fill="#CCCCCC" width="3.033" height="7.572"/>
				<rect x="55.248" y="59.129" fill="#E6E6E6" width="3.033" height="3.199"/>
				<rect x="55.248" y="51.557" opacity="0.2" enable-background="new    " width="3.033" height="1.24"/>
				<polygon fill="#E6E6E6" points="58.281,62.328 55.248,62.328 55.755,64.455 57.773,64.455 				"/>
			</g>
		</g>
		<g>
			<g>
				<rect x="48.046" y="51.557" fill="#CCCCCC" width="3.033" height="7.572"/>
				<rect x="48.046" y="59.129" fill="#E6E6E6" width="3.033" height="3.199"/>
				<rect x="48.046" y="51.557" opacity="0.2" enable-background="new    " width="3.033" height="1.24"/>
				<polygon fill="#E6E6E6" points="51.08,62.328 48.046,62.328 48.555,64.455 50.572,64.455 				"/>
			</g>
		</g>
		<g>
			<g>
				<rect x="40.847" y="51.557" fill="#CCCCCC" width="3.033" height="7.572"/>
				<rect x="40.847" y="59.129" fill="#E6E6E6" width="3.033" height="3.199"/>
				<rect x="40.847" y="51.557" opacity="0.2" enable-background="new    " width="3.033" height="1.24"/>
				<polygon fill="#E6E6E6" points="43.88,62.328 40.847,62.328 41.355,64.455 43.373,64.455 				"/>
			</g>
		</g>
		<g>
			<g>
				<rect x="33.647" y="51.557" fill="#CCCCCC" width="3.033" height="7.572"/>
				<rect x="33.647" y="59.129" fill="#E6E6E6" width="3.033" height="3.199"/>
				<rect x="33.647" y="51.557" opacity="0.2" enable-background="new    " width="3.033" height="1.24"/>
				<polygon fill="#E6E6E6" points="36.68,62.328 33.647,62.328 34.154,64.455 36.171,64.455 				"/>
			</g>
		</g>
		<g>
			<g>
				<rect x="26.447" y="51.557" fill="#CCCCCC" width="3.033" height="7.572"/>
				<rect x="26.447" y="59.129" fill="#E6E6E6" width="3.033" height="3.199"/>
				<rect x="26.447" y="51.557" opacity="0.2" enable-background="new    " width="3.033" height="1.24"/>
				<polygon fill="#E6E6E6" points="29.48,62.328 26.447,62.328 26.955,64.455 28.972,64.455 				"/>
			</g>
		</g>
		<g>
			<g>
				<rect x="19.247" y="51.557" fill="#CCCCCC" width="3.033" height="7.572"/>
				<rect x="19.247" y="59.129" fill="#E6E6E6" width="3.033" height="3.199"/>
				<rect x="19.247" y="51.557" opacity="0.2" enable-background="new    " width="3.033" height="1.24"/>
				<polygon fill="#E6E6E6" points="22.28,62.328 19.247,62.328 19.755,64.455 21.772,64.455 				"/>
			</g>
		</g>
		<g>
			<g>
				<rect x="12.047" y="51.557" fill="#CCCCCC" width="3.033" height="7.572"/>
				<rect x="12.047" y="59.129" fill="#E6E6E6" width="3.033" height="3.199"/>
				<rect x="12.047" y="51.557" opacity="0.2" enable-background="new    " width="3.033" height="1.24"/>
				<polygon fill="#E6E6E6" points="15.08,62.328 12.047,62.328 12.554,64.455 14.572,64.455 				"/>
			</g>
		</g>
	</g>
	<g>
		<g>
			<g>
				<rect x="58.89" y="51.557" fill="#CCCCCC" width="3.033" height="16.602"/>
				<rect x="58.89" y="51.5" opacity="0.2" enable-background="new    " width="3.033" height="4.354"/>
				<rect x="58.89" y="68.157" fill="#E6E6E6" width="3.033" height="7.013"/>
				<polygon fill="#E6E6E6" points="61.923,75.17 58.89,75.17 59.398,77.295 61.416,77.295 				"/>
			</g>
		</g>
		<g>
			<g>
				<rect x="51.69" y="51.557" fill="#CCCCCC" width="3.033" height="16.602"/>
				<rect x="51.69" y="51.5" opacity="0.2" enable-background="new    " width="3.033" height="4.354"/>
				<rect x="51.69" y="68.157" fill="#E6E6E6" width="3.033" height="7.013"/>
				<polygon fill="#E6E6E6" points="54.723,75.17 51.69,75.17 52.197,77.295 54.215,77.295 				"/>
			</g>
		</g>
		<g>
			<g>
				<rect x="44.49" y="51.557" fill="#CCCCCC" width="3.032" height="16.602"/>
				<rect x="44.49" y="51.5" opacity="0.2" enable-background="new    " width="3.032" height="4.354"/>
				<rect x="44.49" y="68.157" fill="#E6E6E6" width="3.032" height="7.013"/>
				<polygon fill="#E6E6E6" points="47.523,75.17 44.49,75.17 44.998,77.295 47.015,77.295 				"/>
			</g>
		</g>
		<g>
			<g>
				<rect x="37.289" y="51.557" fill="#CCCCCC" width="3.033" height="16.602"/>
				<rect x="37.289" y="51.5" opacity="0.2" enable-background="new    " width="3.033" height="4.354"/>
				<rect x="37.289" y="68.157" fill="#E6E6E6" width="3.033" height="7.013"/>
				<polygon fill="#E6E6E6" points="40.322,75.17 37.289,75.17 37.796,77.295 39.815,77.295 				"/>
			</g>
		</g>
		<g>
			<g>
				<rect x="30.09" y="51.557" fill="#CCCCCC" width="3.032" height="16.602"/>
				<rect x="30.09" y="51.5" opacity="0.2" enable-background="new    " width="3.032" height="4.354"/>
				<rect x="30.09" y="68.157" fill="#E6E6E6" width="3.032" height="7.013"/>
				<polygon fill="#E6E6E6" points="33.123,75.17 30.09,75.17 30.597,77.295 32.615,77.295 				"/>
			</g>
		</g>
		<g>
			<g>
				<rect x="22.889" y="51.557" fill="#CCCCCC" width="3.033" height="16.602"/>
				<rect x="22.889" y="51.5" opacity="0.2" enable-background="new    " width="3.033" height="4.354"/>
				<rect x="22.889" y="68.157" fill="#E6E6E6" width="3.033" height="7.013"/>
				<polygon fill="#E6E6E6" points="25.923,75.17 22.889,75.17 23.397,77.295 25.415,77.295 				"/>
			</g>
		</g>
		<g>
			<g>
				<rect x="15.689" y="51.557" fill="#CCCCCC" width="3.033" height="16.602"/>
				<rect x="15.689" y="51.5" opacity="0.2" enable-background="new    " width="3.033" height="4.354"/>
				<rect x="15.689" y="68.157" fill="#E6E6E6" width="3.033" height="7.013"/>
				<polygon fill="#E6E6E6" points="18.722,75.17 15.689,75.17 16.197,77.295 18.215,77.295 				"/>
			</g>
		</g>
		<g>
			<g>
				<rect x="8.489" y="51.557" fill="#CCCCCC" width="3.033" height="16.602"/>
				<rect x="8.489" y="51.5" opacity="0.2" enable-background="new    " width="3.033" height="4.354"/>
				<rect x="8.489" y="68.157" fill="#E6E6E6" width="3.033" height="7.013"/>
				<polygon fill="#E6E6E6" points="11.522,75.17 8.489,75.17 8.997,77.295 11.014,77.295 				"/>
			</g>
		</g>
	</g>
</g>
</svg>
