<?xml version='1.0' encoding='UTF-8' standalone='no'?>
<!-- Created with Fritzing (http://www.fritzing.org/) -->
<svg xmlns="http://www.w3.org/2000/svg" width="0.655in" x="0in" version="1.2" y="0in"  height="0.6in" viewBox="0 0 655 600" baseProfile="tiny" xmlns:svg="http://www.w3.org/2000/svg">
 <desc>Fritzing breadboard generated by brd2svg</desc>
 <g id="breadboard">
  <g id="icon">
   <path fill="#1F7A34" stroke="none" stroke-width="0" d="M0,0L0,270A30,30 0 0 1 0,330L0,600L655,600L655,0L0,0z"/>
   <g transform="translate(100,155.493)">
    <rect width="455" x="-175" y="0" fill="#4D4D4D" height="105.014"/>
    <g>
     <g>
      <rect width="18.4167" x="218.278" y="244.111" fill="#CCCCCC" height="44.8889"/>
     </g>
     <g>
      <rect width="18.4167" x="168.278" y="244.111" fill="#CCCCCC" height="44.8889"/>
     </g>
     <g>
      <rect width="18.4167" x="118.278" y="244.111" fill="#CCCCCC" height="44.8889"/>
     </g>
     <g>
      <rect width="18.4167" x="68.2917" y="244.111" fill="#CCCCCC" height="44.8889"/>
     </g>
     <g>
      <rect width="18.4167" x="18.2917" y="244.111" fill="#CCCCCC" height="44.8889"/>
     </g>
     <g>
      <rect width="18.4167" x="-31.7083" y="244.111" fill="#CCCCCC" height="44.8889"/>
     </g>
     <g>
      <rect width="18.4167" x="-81.7222" y="244.111" fill="#CCCCCC" height="44.8889"/>
     </g>
     <g>
      <rect width="18.4167" x="-131.722" y="244.111" fill="#CCCCCC" height="44.8889"/>
     </g>
    </g>
    <g opacity="0.2">
     <g>
      <rect width="18.4167" x="218.278" y="244.111" height="13.8889"/>
     </g>
     <g>
      <rect width="18.4167" x="168.278" y="244.111" height="13.8889"/>
     </g>
     <g>
      <rect width="18.4167" x="118.278" y="244.111" height="13.8889"/>
     </g>
     <g>
      <rect width="18.4167" x="68.2917" y="244.111" height="13.8889"/>
     </g>
     <g>
      <rect width="18.4167" x="18.2917" y="244.111" height="13.8889"/>
     </g>
     <g>
      <rect width="18.4167" x="-31.7083" y="244.111" height="13.8889"/>
     </g>
     <g>
      <rect width="18.4167" x="-81.7222" y="244.111" height="13.8889"/>
     </g>
     <g>
      <rect width="18.4167" x="-131.722" y="244.111" height="13.8889"/>
     </g>
    </g>
    <rect width="455" x="-175" opacity="0.2" y="0" fill="#FFFFFF" height="3.54167"/>
    <rect width="455" x="-175" opacity="0.2" y="101.472" height="3.54167"/>
    <g>
     <path fill="#333333" d="M109.208,201.681c-1.625,0,-2.875,0.541667,-3.76389,1.625c-1.25,1.51389,-1.73611,4.22222,-1.73611,8.11111c0,3.90278,0.486111,6.5,1.48611,7.90278c1.125,1.30556,2.375,1.94444,4,1.94444c1.5,0,2.875,-0.75,3.875,-2.04167c1.125,-1.29167,1.61111,-3.90278,1.61111,-7.80556c0,-3.88889,-0.486111,-6.59722,-1.61111,-7.79167C112.083,202.333,110.708,201.681,109.208,201.681M152.083,201.681c-1.625,0,-2.75,0.541667,-3.75,1.625c-1.125,1.51389,-1.75,4.22222,-1.75,8.11111c0,3.90278,0.486111,6.5,1.61111,7.90278c1,1.30556,2.38889,1.94444,3.875,1.94444c1.625,0,2.875,-0.75,4,-2.04167c1,-1.29167,1.5,-3.90278,1.5,-7.80556c0,-3.88889,-0.5,-6.59722,-1.5,-7.79167C154.958,202.333,153.708,201.681,152.083,201.681M73.7083,155.236c-1.5,0,-2.75,0.652778,-3.76389,1.73611c-1.125,1.51389,-1.75,4.22222,-1.75,8.11111c0,3.90278,0.625,6.5,1.625,7.80556c1.125,1.30556,2.375,1.94444,4,1.94444c1.48611,0,2.75,-0.638889,3.875,-1.94444s1.61111,-3.90278,1.61111,-7.80556c0,-3.88889,-0.486111,-6.59722,-1.61111,-7.90278C76.5833,155.889,75.3333,155.236,73.7083,155.236M-24.9167,115.181c-2.625,0,-4.875,0.75,-6.75,2.27778C-33.5417,118.972,-34.4167,121.569,-34.4167,125.139c0,2.93056,0.875,5.20833,2.625,6.81944C-29.9167,133.583,-27.6667,134.444,-25.0417,134.444c2.75,0,5,-0.861111,6.875,-2.48611c1.75,-1.73611,2.625,-4.01389,2.625,-7.13889c0,-1.95833,-0.375,-3.68056,-1.125,-5.08333c-0.75,-1.41667,-1.875,-2.61111,-3.375,-3.36111C-21.5417,115.514,-23.1667,115.181,-24.9167,115.181M-152.417,217.806c-4.25,0,-7.75,-3.02778,-7.75,-6.70833c0,-3.77778,3.5,-6.81944,7.75,-6.81944c4.375,0,7.875,3.02778,7.875,6.81944C-144.542,214.778,-148.042,217.806,-152.417,217.806M-63.6667,208.167l0,-2.27778l2.5,0l0,-4.33333l3.375,-1.73611l0,6.06944l3.375,0l0,2.27778l-3.375,0l0,10.1806l0.125,1.625l0.625,0.541667l1.125,0.208333l1.5,-0.111111l0.5,2.59722l-2.5,0.222222l-2.875,-0.541667l-1.5,-1.30556c-0.25,-0.541667,-0.375,-1.73611,-0.375,-3.47222l0,-9.95833L-63.6667,208.153M-40.4167,223.222l0,-23.9167l3.375,0l0,23.9167L-40.4167,223.222M109.208,223.653c-2.625,0,-4.75,-0.875,-6.25,-2.48611c-1.875,-1.94444,-2.75,-5.19444,-2.75,-9.75c0,-2.81944,0.375,-5.08333,1,-6.81944c0.625,-1.73611,1.625,-3.02778,3,-4.01389c1.25,-0.972222,3.01389,-1.40278,5,-1.40278c1.5,0,2.75,0.319444,3.875,0.763889L115.833,202.222c0.763889,0.972222,1.38889,2.16667,1.75,3.56944c0.375,1.41667,0.625,3.25,0.625,5.625c0,2.81944,-0.361111,5.09722,-0.986111,6.81944c-0.625,1.73611,-1.625,3.02778,-3,4C112.958,223.111,111.208,223.653,109.208,223.653M124.208,208.069l0,-2.81944c2,-0.875,3.625,-1.73611,5,-2.81944c1.375,-1.08333,2.375,-2.16667,3,-3.25l2.25,0l0,24.0278L131.083,223.208l0,-18.7222c-0.875,0.638889,-1.875,1.40278,-3.25,2.05556C126.458,207.194,125.333,207.736,124.208,208.069M152.083,223.653c-2.625,0,-4.75,-0.875,-6.25,-2.48611c-1.875,-1.94444,-2.75,-5.19444,-2.75,-9.75c0,-2.81944,0.375,-5.08333,1,-6.81944c0.763889,-1.73611,1.75,-3.02778,3,-4.01389c1.38889,-0.972222,3.01389,-1.40278,5,-1.40278c1.5,0,2.75,0.319444,3.875,0.763889l2.875,2.27778c0.625,0.972222,1.25,2.16667,1.625,3.56944c0.486111,1.41667,0.625,3.25,0.625,5.625c0,2.81944,-0.263889,5.09722,-1,6.81944c-0.625,1.73611,-1.625,3.02778,-3,4C155.833,223.111,154.083,223.653,152.083,223.653M168.208,206.444l-3.375,-0.333333c0.25,-2.27778,1.125,-4,2.625,-5.08333c1.61111,-1.19444,3.625,-1.83333,6.23611,-1.83333c2.75,0,4.76389,0.638889,6.375,1.94444c1.5,1.30556,2.25,2.81944,2.25,4.65278l-0.625,2.93056l-2.25,2.91667c-1.125,0.972222,-2.875,2.38889,-5.25,4.11111c-2,1.51389,-3.375,2.48611,-3.86111,3.02778l-1.5,1.63889l13.625,0l0,2.80556l-18.375,0l0.5,-2.05556l2.25,-3.13889c0.986111,-1.08333,2.375,-2.27778,4.36111,-3.68056c3,-2.05556,5,-3.79167,6.125,-4.98611c0.986111,-1.29167,1.48611,-2.48611,1.48611,-3.56944c0,-1.18056,-0.5,-2.16667,-1.375,-2.91667c-1,-0.861111,-2.25,-1.18056,-3.76389,-1.18056c-1.61111,0,-3,0.430556,-3.98611,1.18056C168.833,203.736,168.333,204.931,168.208,206.444M89.9583,165.944l-3.13889,-0.430556l2.625,-12.2361l13.75,0l0,2.81944L92.2083,156.097l-1.5,6.375c1.625,-0.972222,3.375,-1.51389,5.25,-1.51389c2.375,0,4.5,0.763889,6.125,2.16667c1.625,1.51389,2.5,3.34722,2.5,5.625c0,2.16667,-0.75,4.01389,-2.25,5.63889c-1.75,1.94444,-4.125,2.91667,-7.23611,2.91667c-2.51389,0,-4.5,-0.638889,-6.125,-1.83333c-1.625,-1.29167,-2.5,-2.81944,-2.75,-4.875l3.625,-0.222222c0.263889,1.40278,0.875,2.59722,1.76389,3.36111c0.986111,0.75,2.11111,1.08333,3.5,1.08333c1.61111,0,3,-0.541667,4.125,-1.51389c1.125,-1.08333,1.75,-2.5,1.75,-4.33333c0,-1.625,-0.5,-2.91667,-1.625,-3.90278c-1.125,-0.972222,-2.5,-1.51389,-4.25,-1.51389L92.0833,164.222L89.9583,165.944M-39.4167,162.806l14.375,0l0,-9.84722l3.625,0l0,23.9306l-3.625,0l0,-11.2639l-14.375,0l0,11.2639l-3.625,0l0,-23.9306l3.625,0L-39.4167,162.806M-2.04167,173.431c0.25,-0.875,0.75,-2.16667,1.375,-3.79167l6.625,-16.6667l5,0l0,23.9306L7.45833,176.903l0,-20.0278l-8.125,20.0278l-3.25,0l-8,-20.3611l0,20.3611L-15.4167,176.903l0,-23.9306l5.5,0l6.5,16.8889C-2.79167,171.472,-2.29167,172.667,-2.04167,173.431M129.958,155.778l0,-2.81944l19.75,0l0,2.81944l-15.5,16.5556l-1.625,1.73611l17.6389,0l0,2.81944L128.333,176.889l0,-2.91667l14.125,-15.375c1,-1.08333,2.01389,-2.05556,2.875,-2.81944L129.958,155.778M45.9583,161.736l0,-2.93056c1.875,-0.75,3.5,-1.625,4.875,-2.69444c1.5,-1.19444,2.5,-2.16667,3.125,-3.25l2.125,0l0,24.0278L52.7083,176.889l0,-18.7361c-0.875,0.638889,-1.875,1.29167,-3.25,2.05556C48.2083,160.861,46.9583,161.403,45.9583,161.736M73.8333,177.319c-2.75,0,-4.75,-0.861111,-6.375,-2.48611c-1.75,-2.05556,-2.625,-5.30556,-2.625,-9.75c0,-2.81944,0.263889,-5.08333,1,-6.81944c0.625,-1.73611,1.625,-3.02778,3,-4.01389c1.25,-0.972222,3,-1.40278,5,-1.40278c1.375,0,2.75,0.222222,3.875,0.763889l2.73611,2.27778c0.763889,0.972222,1.25,2.16667,1.75,3.56944c0.375,1.41667,0.625,3.25,0.625,5.625c0,2.81944,-0.361111,5.09722,-0.986111,6.81944c-0.763889,1.73611,-1.75,3.02778,-3,4.01389C77.4583,176.778,75.8333,177.319,73.8333,177.319M110.333,161.736l0,-2.93056c1.875,-0.75,3.5,-1.625,4.875,-2.69444c1.5,-1.19444,2.51389,-2.16667,3.13889,-3.25l2.11111,0l0,24.0278L117.083,176.889l0,-18.7361c-0.875,0.638889,-1.88889,1.29167,-3.25,2.05556C112.583,160.861,111.333,161.403,110.333,161.736M28.7083,177.319c-3,0,-5.375,-0.541667,-7.25,-1.625c-1.875,-1.08333,-3.25,-2.59722,-4.25,-4.54167c-1,-1.95833,-1.5,-4.11111,-1.5,-6.38889c0,-2.48611,0.625,-4.63889,1.75,-6.59722c1,-1.83333,2.625,-3.25,4.625,-4.22222c2,-0.861111,4.25,-1.41667,6.75,-1.41667c2.75,0,5,0.652778,6.875,1.84722c2,1.19444,3.25,2.91667,4,5.08333l-3.625,0.763889C35.4583,158.486,34.5833,157.181,33.3333,156.431c-1.25,-0.763889,-2.75,-1.19444,-4.625,-1.19444c-2.125,0,-3.875,0.430556,-5.25,1.29167c-1.5,0.875,-2.5,2.05556,-3.125,3.58333c-0.5,1.51389,-0.75,3.02778,-0.75,4.63889c0,1.95833,0.25,3.79167,1,5.30556c0.625,1.51389,1.75,2.61111,3.125,3.36111c1.5,0.763889,3,1.19444,4.75,1.19444c2,0,3.75,-0.555556,5.125,-1.625c1.5,-0.972222,2.375,-2.48611,2.875,-4.54167l3.76389,0.861111c-0.75,2.59722,-2.125,4.55556,-4.125,5.95833C34.0833,176.556,31.5833,177.319,28.7083,177.319M-61.1667,122.653l14.375,0L-46.7917,112.806l3.625,0l0,23.9167l-3.625,0L-46.7917,125.458l-14.375,0l0,11.2639l-3.75,0L-64.9167,112.806l3.75,0L-61.1667,122.653M11.0833,131.639L11.0833,112.806L14.5833,112.806l0,23.9167L10.8333,136.722l-14.5,-18.7222l0,18.7222l-3.5,0L-7.16667,112.806l3.75,0L11.0833,131.639M20.8333,136.722L20.8333,112.806l20,0l0,2.91667L24.4583,115.722l0,7.25l15.375,0l0,2.81944L24.4583,125.792l0,8.11111l17,0l0,2.81944L20.8333,136.722M56.3333,124.056c0.875,-1.19444,1.875,-2.61111,3,-4.22222l5.375,-7.02778l4.25,0L57.9583,126.653l0,10.0694L54.3333,136.722L54.3333,126.653L43.5833,112.806l4.5,0l5.5,7.25C54.5833,121.458,55.4583,122.764,56.3333,124.056M105.208,112.806l-7.5,23.9167L94.2083,136.722L88.3333,118.542C87.8333,117.028,87.5833,116.056,87.4583,115.722C87.2083,116.806,86.9444,117.778,86.7083,118.542L80.8333,136.722L77.0833,136.722l-7.36111,-23.9167l3.75,0l4.26389,15.6944c0.486111,1.625,0.875,3.36111,1.125,4.875c0.75,-2.5,1.11111,-4.01389,1.25,-4.33333l5.25,-16.2361l4.48611,0l3.875,12.125C94.7083,127.958,95.4583,130.778,95.8333,133.375c0.361111,-1.41667,0.875,-3.15278,1.375,-5.20833l4.375,-15.3611L105.208,112.806M108.708,136.722L108.708,112.806l20,0l0,2.91667l-16.25,0l0,7.25l15.25,0l0,2.81944L112.458,125.792l0,8.11111l16.875,0l0,2.81944L108.708,136.722M134.208,136.722L134.208,112.806l3.76389,0l0,21.1111l13.6111,0l0,2.81944L134.208,136.736M155.708,136.722L155.708,112.806l3.63889,0l0,21.1111l13.6111,0l0,2.81944L155.708,136.736M-25.0417,137.153c-2.5,0,-4.875,-0.541667,-7,-1.625C-34.0417,134.444,-35.5417,132.944,-36.6667,131.097c-1,-1.83333,-1.5,-3.88889,-1.5,-5.95833c0,-4,1.125,-7.13889,3.625,-9.30556c2.5,-2.27778,5.625,-3.36111,9.5,-3.36111c2.625,0,4.875,0.430556,7,1.51389c2,1.08333,3.5,2.59722,4.625,4.43056c1.125,1.84722,1.625,4.01389,1.625,6.38889c0,2.48611,-0.625,4.63889,-1.75,6.48611c-1.125,1.95833,-2.625,3.36111,-4.75,4.43056C-20.4167,136.722,-22.6667,137.153,-25.0417,137.153M279.958,105.014l-455,0l0,139.111l455,0L279.958,105.014"/>
     <polyline fill="#999999" points="-43.1667,112.806,-46.7917,112.806,-46.7917,122.653,-61.1667,122.653,-61.1667,112.806,-64.9167,112.806,-64.9167,136.722,-61.1667,136.722,-61.1667,125.458,-46.7917,125.458,-46.7917,136.722,-43.1667,136.722,-43.1667,112.806"/>
     <path fill="#999999" d="M-25.0417,134.444c-2.625,0,-4.875,-0.861111,-6.75,-2.48611c-1.75,-1.625,-2.625,-3.88889,-2.625,-6.81944c0,-3.56944,0.875,-6.16667,2.75,-7.68056c1.875,-1.51389,4.125,-2.27778,6.75,-2.27778c1.75,0,3.375,0.319444,4.875,1.18056C-18.5417,117.125,-17.4167,118.319,-16.6667,119.736c0.75,1.40278,1.125,3.13889,1.125,5.08333c0,3.13889,-0.875,5.40278,-2.625,7.13889C-20.0417,133.583,-22.2917,134.444,-25.0417,134.444M-25.0417,112.472c-3.875,0,-7,1.08333,-9.5,3.36111c-2.5,2.16667,-3.625,5.30556,-3.625,9.30556c0,2.05556,0.5,4.11111,1.5,5.95833c1.125,1.84722,2.625,3.36111,4.625,4.44444c2.125,1.08333,4.5,1.625,7,1.625c2.375,0,4.625,-0.430556,6.75,-1.41667c2.125,-1.08333,3.625,-2.48611,4.75,-4.43056c1.125,-1.84722,1.75,-4,1.75,-6.48611c0,-2.38889,-0.5,-4.55556,-1.625,-6.38889c-1.125,-1.83333,-2.625,-3.34722,-4.625,-4.43056C-20.1667,112.903,-22.4167,112.472,-25.0417,112.472"/>
     <polyline fill="#999999" points="14.5833,112.806,11.0833,112.806,11.0833,131.639,-3.41667,112.806,-7.16667,112.806,-7.16667,136.722,-3.66667,136.722,-3.66667,118,10.8333,136.722,14.5833,136.722,14.5833,112.806"/>
     <polyline fill="#999999" points="40.8333,112.806,20.8333,112.806,20.8333,136.722,41.4583,136.722,41.4583,133.903,24.4583,133.903,24.4583,125.792,39.8333,125.792,39.8333,122.972,24.4583,122.972,24.4583,115.722,40.8333,115.722,40.8333,112.806"/>
     <path fill="#999999" d="M68.9583,112.806L64.7083,112.806L59.3333,119.833C58.2083,121.458,57.2083,122.861,56.3333,124.056C55.4583,122.764,54.5833,121.458,53.5833,120.056L48.0833,112.806L43.5833,112.806l10.75,13.8611l0,10.0694l3.625,0L57.9583,126.653L68.9583,112.806"/>
     <path fill="#999999" d="M105.208,112.806L101.583,112.806L97.2083,128.167C96.7083,130.222,96.2083,131.958,95.8333,133.375c-0.375,-2.59722,-1.125,-5.41667,-2.125,-8.44444L89.8333,112.806L85.3333,112.806L80.0833,129.042c-0.138889,0.319444,-0.5,1.83333,-1.25,4.33333C78.5833,131.847,78.2083,130.125,77.7083,128.5l-4.26389,-15.6944l-3.75,0l7.36111,23.9167L80.8333,136.722l5.875,-18.1806C86.9444,117.778,87.2083,116.806,87.4583,115.722c0.138889,0.319444,0.375,1.30556,0.875,2.81944l5.875,18.1806l3.5,0L105.208,112.806"/>
     <polyline fill="#999999" points="128.708,112.806,108.708,112.806,108.708,136.722,129.333,136.722,129.333,133.903,112.458,133.903,112.458,125.792,127.708,125.792,127.708,122.972,112.458,122.972,112.458,115.722,128.708,115.722,128.708,112.806"/>
     <polyline fill="#999999" points="137.958,112.806,134.208,112.806,134.208,136.722,151.583,136.722,151.583,133.903,137.958,133.903,137.958,112.806"/>
     <polyline fill="#999999" points="159.333,112.806,155.708,112.806,155.708,136.722,172.958,136.722,172.958,133.903,159.333,133.903,159.333,112.806"/>
     <polyline fill="#999999" points="-21.4167,152.958,-25.0417,152.958,-25.0417,162.806,-39.4167,162.806,-39.4167,152.958,-43.0417,152.958,-43.0417,176.889,-39.4167,176.889,-39.4167,165.639,-25.0417,165.639,-25.0417,176.889,-21.4167,176.889,-21.4167,152.958"/>
     <path fill="#999999" d="M10.9583,152.958l-5,0l-6.625,16.6667c-0.625,1.625,-1.125,2.91667,-1.375,3.79167c-0.25,-0.763889,-0.75,-1.95833,-1.375,-3.56944l-6.5,-16.8889L-15.4167,152.958l0,23.9306l3.5,0L-11.9167,156.528l8,20.3611l3.25,0l8.125,-20.0278l0,20.0278l3.5,0L10.9583,152.958"/>
     <path fill="#999999" d="M28.8333,152.528c-2.5,0,-4.75,0.555556,-6.75,1.41667c-2,0.972222,-3.625,2.38889,-4.625,4.22222c-1.125,1.95833,-1.75,4.11111,-1.75,6.59722c0,2.27778,0.5,4.44444,1.5,6.38889c1,1.94444,2.375,3.47222,4.25,4.54167c1.875,1.08333,4.25,1.625,7.25,1.625c2.875,0,5.375,-0.763889,7.375,-2.05556c2,-1.40278,3.375,-3.36111,4.125,-5.95833l-3.76389,-0.861111c-0.5,2.05556,-1.375,3.56944,-2.875,4.54167c-1.375,1.08333,-3.125,1.625,-5.125,1.625c-1.75,0,-3.25,-0.430556,-4.75,-1.19444c-1.375,-0.763889,-2.5,-1.84722,-3.125,-3.36111c-0.75,-1.51389,-1,-3.34722,-1,-5.30556c0,-1.61111,0.25,-3.13889,0.75,-4.63889c0.625,-1.51389,1.625,-2.70833,3.125,-3.58333c1.375,-0.861111,3.125,-1.29167,5.25,-1.29167c1.875,0,3.375,0.430556,4.625,1.19444c1.25,0.75,2.125,2.05556,2.75,3.77778l3.625,-0.763889c-0.75,-2.16667,-2,-3.88889,-4,-5.08333C33.8333,153.181,31.5833,152.528,28.8333,152.528"/>
     <path fill="#999999" d="M56.0833,152.861L53.9583,152.861C53.3333,153.931,52.3333,154.917,50.8333,156.111c-1.375,1.08333,-3,1.94444,-4.875,2.69444l0,2.93056c1,-0.319444,2.25,-0.875,3.5,-1.51389c1.375,-0.763889,2.375,-1.41667,3.25,-2.05556l0,18.7361l3.375,0L56.0833,152.861"/>
     <path fill="#999999" d="M73.8333,174.833c-1.625,0,-2.875,-0.638889,-4,-1.94444c-1,-1.30556,-1.625,-3.90278,-1.625,-7.80556c0,-3.88889,0.625,-6.59722,1.75,-8.11111c1,-1.08333,2.25,-1.73611,3.76389,-1.73611c1.61111,0,2.875,0.652778,4,1.94444c1.125,1.30556,1.61111,4.01389,1.61111,7.90278c0,3.90278,-0.486111,6.5,-1.61111,7.80556S75.3333,174.833,73.8333,174.833M73.8333,152.861c-2.01389,0,-3.76389,0.430556,-5,1.40278c-1.375,0.972222,-2.375,2.27778,-3,4.01389c-0.75,1.73611,-1,4,-1,6.81944c0,4.44444,0.875,7.69444,2.625,9.75c1.625,1.625,3.625,2.48611,6.375,2.48611c2,0,3.625,-0.541667,5,-1.40278c1.25,-0.972222,2.23611,-2.27778,3,-4.01389c0.625,-1.73611,0.986111,-4,0.986111,-6.81944c0,-2.375,-0.25,-4.22222,-0.625,-5.625c-0.5,-1.40278,-0.986111,-2.59722,-1.75,-3.56944L77.7083,153.611C76.5833,153.069,75.2083,152.861,73.8333,152.861"/>
     <path fill="#999999" d="M103.208,153.278l-13.75,0l-2.625,12.2361l3.13889,0.430556l2.11111,-1.73611l3.01389,-0.652778c1.75,0,3.125,0.541667,4.25,1.51389c1.125,0.972222,1.625,2.27778,1.625,3.90278c0,1.83333,-0.625,3.25,-1.75,4.33333c-1.125,0.972222,-2.51389,1.51389,-4.125,1.51389c-1.38889,0,-2.51389,-0.319444,-3.5,-1.08333c-0.875,-0.763889,-1.5,-1.95833,-1.76389,-3.36111l-3.625,0.222222c0.263889,2.05556,1.125,3.56944,2.75,4.875c1.625,1.19444,3.625,1.83333,6.125,1.83333c3.125,0,5.5,-0.972222,7.23611,-2.91667c1.5,-1.625,2.25,-3.47222,2.25,-5.63889c0,-2.27778,-0.875,-4.11111,-2.5,-5.625C100.458,161.736,98.3333,160.972,95.9583,160.972c-1.875,0,-3.625,0.541667,-5.25,1.51389l1.5,-6.375l11,0L103.208,153.278"/>
     <path fill="#999999" d="M120.458,152.861L118.333,152.861c-0.625,1.08333,-1.625,2.05556,-3.13889,3.25c-1.375,1.08333,-3,1.94444,-4.875,2.69444l0,2.93056c1,-0.319444,2.25,-0.875,3.5,-1.51389c1.375,-0.763889,2.375,-1.41667,3.25,-2.05556l0,18.7361l3.36111,0L120.431,152.861"/>
     <path fill="#999999" d="M149.708,152.958L129.958,152.958l0,2.81944l15.3611,0c-0.875,0.75,-1.875,1.73611,-2.875,2.81944L128.333,173.972l0,2.91667l21.875,0l0,-2.81944l-17.6389,0l1.625,-1.73611l15.5,-16.5556L149.694,152.958"/>
     <path fill="#999999" d="M109.208,221.264c-1.625,0,-2.875,-0.638889,-4,-1.94444c-1,-1.40278,-1.48611,-4,-1.48611,-7.90278c0,-3.88889,0.486111,-6.59722,1.73611,-8.11111c0.875,-1.08333,2.125,-1.625,3.76389,-1.625c1.5,0,2.875,0.652778,3.875,1.94444c1.125,1.19444,1.61111,3.90278,1.61111,7.79167c0,3.90278,-0.486111,6.5,-1.61111,7.80556C112.083,220.514,110.708,221.264,109.208,221.264M109.208,199.194c-2,0,-3.76389,0.430556,-5,1.40278c-1.375,0.972222,-2.375,2.27778,-3,4.01389c-0.625,1.73611,-1,4,-1,6.81944c0,4.55556,0.875,7.80556,2.75,9.75c1.5,1.625,3.625,2.48611,6.25,2.48611c2,0,3.75,-0.541667,5,-1.41667c1.375,-0.972222,2.375,-2.26389,3,-4c0.625,-1.73611,0.986111,-4,0.986111,-6.81944c0,-2.375,-0.25,-4.22222,-0.625,-5.625C117.208,204.389,116.583,203.194,115.833,202.222l-2.73611,-2.27778C111.958,199.514,110.708,199.194,109.208,199.194"/>
     <path fill="#999999" d="M134.458,199.194L132.208,199.194c-0.625,1.08333,-1.625,2.16667,-3,3.25c-1.38889,1.08333,-3.01389,1.94444,-5,2.81944l0,2.81944c1.125,-0.319444,2.25,-0.875,3.625,-1.51389c1.38889,-0.652778,2.375,-1.41667,3.25,-2.05556l0,18.7222l3.375,0L134.458,199.194"/>
     <path fill="#999999" d="M152.083,221.264c-1.48611,0,-2.875,-0.638889,-3.875,-1.94444c-1.125,-1.40278,-1.61111,-4,-1.61111,-7.90278c0,-3.88889,0.625,-6.59722,1.75,-8.11111c0.986111,-1.08333,2.11111,-1.625,3.75,-1.625s2.875,0.652778,4,1.94444c1,1.19444,1.5,3.90278,1.5,7.79167c0,3.90278,-0.5,6.5,-1.5,7.80556C154.958,220.514,153.708,221.264,152.083,221.264M152.083,199.194c-2,0,-3.625,0.430556,-5,1.40278c-1.25,0.972222,-2.23611,2.27778,-3,4.01389c-0.625,1.73611,-1,4,-1,6.81944c0,4.55556,0.875,7.80556,2.75,9.75c1.5,1.625,3.625,2.48611,6.25,2.48611c2.01389,0,3.76389,-0.541667,5,-1.41667c1.375,-0.972222,2.375,-2.26389,3,-4c0.75,-1.73611,1,-4,1,-6.81944c0,-2.375,-0.138889,-4.22222,-0.625,-5.625c-0.375,-1.40278,-1,-2.59722,-1.625,-3.56944l-2.875,-2.27778C154.833,199.514,153.583,199.194,152.083,199.194"/>
     <path fill="#999999" d="M173.708,199.194c-2.61111,0,-4.625,0.638889,-6.23611,1.83333c-1.5,1.08333,-2.38889,2.81944,-2.625,5.08333l3.375,0.333333c0.125,-1.51389,0.625,-2.70833,1.5,-3.58333c0.986111,-0.75,2.375,-1.18056,3.98611,-1.18056c1.5,0,2.75,0.319444,3.76389,1.18056c0.875,0.763889,1.375,1.73611,1.375,2.91667c0,1.08333,-0.5,2.27778,-1.48611,3.56944c-1.125,1.19444,-3.13889,2.91667,-6.125,4.98611c-2,1.40278,-3.375,2.59722,-4.36111,3.68056l-2.25,3.13889l-0.5,2.05556l18.375,0l0,-2.80556l-13.625,0l1.5,-1.63889c0.486111,-0.541667,1.875,-1.51389,3.86111,-3.02778c2.375,-1.73611,4.125,-3.13889,5.25,-4.11111l2.25,-2.91667l0.625,-2.93056c0,-1.83333,-0.75,-3.34722,-2.25,-4.65278C178.458,199.833,176.458,199.194,173.708,199.194"/>
     <path fill="#999999" d="M-57.7917,199.833l-3.375,1.73611l0,4.33333l-2.5,0l0,2.27778l2.5,0l0,9.95833c0,1.73611,0.125,2.91667,0.375,3.47222l1.5,1.30556l2.875,0.541667l2.5,-0.222222l-0.5,-2.59722l-1.5,0.111111l-1.125,-0.208333l-0.625,-0.541667l-0.125,-1.625l0,-10.1806l3.375,0l0,-2.27778l-3.375,0L-57.7917,199.833"/>
     <polyline fill="#999999" points="-37.0417,199.292,-40.4167,199.292,-40.4167,223.222,-37.0417,223.222,-37.0417,199.292"/>
     <path fill="#999999" d="M-152.417,204.278c-4.25,0,-7.75,3.02778,-7.75,6.81944c0,3.69444,3.5,6.70833,7.75,6.70833c4.375,0,7.875,-3.02778,7.875,-6.70833C-144.542,207.306,-148.042,204.278,-152.417,204.278"/>
    </g>
   </g>
  </g>
  <g transform="translate(161.535,534.05)">
   <rect width="31.93" x="0" y="0" fill="#8D8C8C" height="31.9" id="connector0pin"/>
   <rect width="16.4442" x="7.79153" y="7.73544" fill="#8C8663" height="16.4152"/>
   <polygon fill="#B8AF82" points="0,31.9,7.79153,24.1368,7.79153,6.97162,0,0"/>
   <polygon fill="#80795B" points="24.2079,7.76321,7.90264,7.76321,0,0,31.93,0"/>
   <polygon fill="#5E5B43" points="24.2079,24.1368,24.2079,7.76321,31.93,0,31.93,31.9"/>
   <polygon fill="#9A916C" points="0,31.9,7.87486,24.1368,24.2079,24.1368,31.93,31.9"/>
  </g>
  <g transform="translate(161.535,34.05)">
   <rect width="31.93" x="0" y="0" fill="#8D8C8C" height="31.9" id="connector7pin"/>
   <rect width="16.4442" x="7.79153" y="7.73544" fill="#8C8663" height="16.4152"/>
   <polygon fill="#B8AF82" points="0,31.9,7.79153,24.1368,7.79153,6.97162,0,0"/>
   <polygon fill="#80795B" points="24.2079,7.76321,7.90264,7.76321,0,0,31.93,0"/>
   <polygon fill="#5E5B43" points="24.2079,24.1368,24.2079,7.76321,31.93,0,31.93,31.9"/>
   <polygon fill="#9A916C" points="0,31.9,7.87486,24.1368,24.2079,24.1368,31.93,31.9"/>
  </g>
  <g transform="translate(261.535,534.05)">
   <rect width="31.93" x="0" y="0" fill="#8D8C8C" height="31.9" id="connector1pin"/>
   <rect width="16.4442" x="7.79153" y="7.73544" fill="#8C8663" height="16.4152"/>
   <polygon fill="#B8AF82" points="0,31.9,7.79153,24.1368,7.79153,6.97162,0,0"/>
   <polygon fill="#80795B" points="24.2079,7.76321,7.90264,7.76321,0,0,31.93,0"/>
   <polygon fill="#5E5B43" points="24.2079,24.1368,24.2079,7.76321,31.93,0,31.93,31.9"/>
   <polygon fill="#9A916C" points="0,31.9,7.87486,24.1368,24.2079,24.1368,31.93,31.9"/>
  </g>
  <g transform="translate(261.535,34.05)">
   <rect width="31.93" x="0" y="0" fill="#8D8C8C" height="31.9" id="connector6pin"/>
   <rect width="16.4442" x="7.79153" y="7.73544" fill="#8C8663" height="16.4152"/>
   <polygon fill="#B8AF82" points="0,31.9,7.79153,24.1368,7.79153,6.97162,0,0"/>
   <polygon fill="#80795B" points="24.2079,7.76321,7.90264,7.76321,0,0,31.93,0"/>
   <polygon fill="#5E5B43" points="24.2079,24.1368,24.2079,7.76321,31.93,0,31.93,31.9"/>
   <polygon fill="#9A916C" points="0,31.9,7.87486,24.1368,24.2079,24.1368,31.93,31.9"/>
  </g>
  <g transform="translate(361.535,534.05)">
   <rect width="31.93" x="0" y="0" fill="#8D8C8C" height="31.9" id="connector2pin"/>
   <rect width="16.4442" x="7.79153" y="7.73544" fill="#8C8663" height="16.4152"/>
   <polygon fill="#B8AF82" points="0,31.9,7.79153,24.1368,7.79153,6.97162,0,0"/>
   <polygon fill="#80795B" points="24.2079,7.76321,7.90264,7.76321,0,0,31.93,0"/>
   <polygon fill="#5E5B43" points="24.2079,24.1368,24.2079,7.76321,31.93,0,31.93,31.9"/>
   <polygon fill="#9A916C" points="0,31.9,7.87486,24.1368,24.2079,24.1368,31.93,31.9"/>
  </g>
  <g transform="translate(361.535,34.05)">
   <rect width="31.93" x="0" y="0" fill="#8D8C8C" height="31.9" id="connector5pin"/>
   <rect width="16.4442" x="7.79153" y="7.73544" fill="#8C8663" height="16.4152"/>
   <polygon fill="#B8AF82" points="0,31.9,7.79153,24.1368,7.79153,6.97162,0,0"/>
   <polygon fill="#80795B" points="24.2079,7.76321,7.90264,7.76321,0,0,31.93,0"/>
   <polygon fill="#5E5B43" points="24.2079,24.1368,24.2079,7.76321,31.93,0,31.93,31.9"/>
   <polygon fill="#9A916C" points="0,31.9,7.87486,24.1368,24.2079,24.1368,31.93,31.9"/>
  </g>
  <g transform="translate(461.535,534.05)">
   <rect width="31.93" x="0" y="0" fill="#8D8C8C" height="31.9" id="connector3pin"/>
   <rect width="16.4442" x="7.79153" y="7.73544" fill="#8C8663" height="16.4152"/>
   <polygon fill="#B8AF82" points="0,31.9,7.79153,24.1368,7.79153,6.97162,0,0"/>
   <polygon fill="#80795B" points="24.2079,7.76321,7.90264,7.76321,0,0,31.93,0"/>
   <polygon fill="#5E5B43" points="24.2079,24.1368,24.2079,7.76321,31.93,0,31.93,31.9"/>
   <polygon fill="#9A916C" points="0,31.9,7.87486,24.1368,24.2079,24.1368,31.93,31.9"/>
  </g>
  <g transform="translate(461.535,34.05)">
   <rect width="31.93" x="0" y="0" fill="#8D8C8C" height="31.9" id="connector4pin"/>
   <rect width="16.4442" x="7.79153" y="7.73544" fill="#8C8663" height="16.4152"/>
   <polygon fill="#B8AF82" points="0,31.9,7.79153,24.1368,7.79153,6.97162,0,0"/>
   <polygon fill="#80795B" points="24.2079,7.76321,7.90264,7.76321,0,0,31.93,0"/>
   <polygon fill="#5E5B43" points="24.2079,24.1368,24.2079,7.76321,31.93,0,31.93,31.9"/>
   <polygon fill="#9A916C" points="0,31.9,7.87486,24.1368,24.2079,24.1368,31.93,31.9"/>
  </g>
 </g>
</svg>
