<?xml version='1.0' encoding='UTF-8' standalone='no'?>
<!-- Created with Fritzing (http://www.fritzing.org/) -->
<svg xmlns="http://www.w3.org/2000/svg" width="2.44924in" x="0in" version="1.2" y="0in"  height="1in" viewBox="0 0 2449.24 1000" baseProfile="tiny" xmlns:svg="http://www.w3.org/2000/svg">
 <desc>Fritzing breadboard generated by brd2svg</desc>
 <g id="breadboard">
  <g id="icon">
   <path fill="#1F7A34" stroke="none" stroke-width="0" d="M0,0L0,470A30,30 0 0 1 0,530L0,1000L2449.24,1000L2449.24,0L0,0z"/>
   <g transform="translate(100,160.903)">
    <path fill="#999999" stroke-width="0" d="M307.014,242.528L-10.9722,242.528c-22.9167,0,-41.6667,-6.65278,-41.6667,-14.7639l0,-1.94444c0,8.11111,18.75,14.7639,41.6667,14.7639l318,0"/>
    <g stroke-width="0">
     <path fill="#CCCCCC" stroke-width="0" d="M167.931,350.167l-318,0c-22.9167,0,-41.6667,6.63889,-41.6667,14.7639c0,8.11111,18.75,16.6944,41.6667,16.6944l318,-1.94444c22.9167,0,41.6667,-6.65278,41.6667,-14.7639C209.597,356.806,190.833,350.167,167.931,350.167zM-33.75,370.139l-131.083,0l0,-8.47222l131.083,0L-33.75,370.139z"/>
     <path fill="#B3B3B3" stroke-width="0" d="M307.014,211.083L-10.9722,211.083c-22.9167,0,-41.6667,6.63889,-41.6667,14.7639c0,8.11111,18.75,14.7639,41.6667,14.7639l318,0c22.9167,0,41.6667,-6.65278,41.6667,-14.7639C348.681,217.722,329.931,211.083,307.014,211.083zM105.347,231.042l-131.083,0l0,-10.4167l131.083,0L105.347,231.042zM167.931,381.625l-318,0c-22.9167,0,-41.6667,-6.65278,-41.6667,-14.7639l0,-1.94444c0,8.11111,18.75,14.7639,41.6667,14.7639l318,0M-33.75,361.667l-131.083,0L-164.833,359.722l131.083,0L-33.75,361.667z"/>
     <g stroke-width="0">
      <rect width="1142.65" x="411.319" y="39.7083" fill="#634530" height="600.014" stroke-width="0"/>
      <rect width="51.7917" x="359.514" y="88.0417" fill="#5B2918" height="503.333" stroke-width="0"/>
      <rect width="213.639" x="145.889" y="39.7083" fill="#634530" height="600.014" stroke-width="0"/>
      <rect width="64.1389" x="81.7361" y="272.069" fill="#CCCCCC" height="135.278" stroke-width="0"/>
      <path fill="#FF0000" stroke-width="0" d="M2057.5,339.708c0,-26.2222,-15.25,-48.6806,-37.2361,-59.625c-1.98611,-83.2222,-8.05556,-154.764,-16.4583,-200.639l0,-8.75c0,-38.1944,-31.25,-69.4444,-69.4444,-69.4444l-380.417,0l0,676.944l380.417,0c38.1944,0,69.4444,-31.25,69.4444,-69.4444l0,-8.76389c8.38889,-45.875,14.4722,-117.417,16.4583,-200.625C2042.26,388.403,2057.5,365.944,2057.5,339.708z"/>
      <g stroke-width="0">
       <g stroke-width="0">
        <rect width="1142.65" x="411.319" opacity="0.2" y="630.556" height="9.16667" stroke-width="0"/>
        <rect width="51.7917" x="359.514" opacity="0.2" y="582.208" height="9.16667" stroke-width="0"/>
        <rect width="213.639" x="145.889" opacity="0.2" y="630.556" height="9.16667" stroke-width="0"/>
        <rect width="64.1389" x="81.7361" opacity="0.2" y="397.917" height="9.44444" stroke-width="0"/>
       </g>
       <path opacity="0.2" stroke-width="0" d="M1553.96,667.014l380.417,0c38.1944,0,69.4444,-31.25,69.4444,-69.4444l0,11.1806c0,38.1944,-31.25,69.4444,-69.4444,69.4444l-380.417,0L1553.96,667.014z"/>
      </g>
      <g stroke-width="0">
       <g stroke-width="0">
        <rect width="1142.65" x="411.319" opacity="0.2" y="38.4722" fill="#FFFFFF" height="9.16667" stroke-width="0"/>
        <rect width="51.7917" x="359.514" opacity="0.2" y="86.8056" fill="#FFFFFF" height="9.16667" stroke-width="0"/>
        <rect width="213.639" x="145.889" opacity="0.2" y="38.4722" fill="#FFFFFF" height="9.16667" stroke-width="0"/>
        <rect width="64.1389" x="81.7361" opacity="0.2" y="270.833" fill="#FFFFFF" height="9.44444" stroke-width="0"/>
       </g>
       <path opacity="0.2" fill="#FFFFFF" stroke-width="0" d="M1553.96,11.1806l380.417,0c38.1944,0,69.4444,31.25,69.4444,69.4444L2003.82,69.4444c0,-38.1944,-31.25,-69.4444,-69.4444,-69.4444l-380.417,0L1553.96,11.1806z"/>
      </g>
     </g>
     <g opacity="0.2" stroke-width="0">
      <path fill="#FFFFFF" stroke-width="0" d="M1535.69,141.042c0,22.875,-18.75,41.5972,-41.6667,41.5972c0,0,-996.236,0,-1077.69,0c-3.04167,0,-4.75,9.11111,-5.01389,9.11111c-7.625,0,-43.9583,0,-51.8056,0c-0.722222,0,-3,-9.11111,-6.54167,-9.11111c-34.5278,0,-147.139,0,-147.139,0c-22.9167,0,-41.6667,-18.7222,-41.6667,-41.5972c0,-22.875,18.75,-41.5972,41.6667,-41.5972c0,0,113.847,0,147.569,0c3.26389,0,5.38889,9.11111,6.11111,9.11111c8.20833,0,44.625,0,51.8056,0c0.25,0,1.80556,-9.11111,4.58333,-9.11111c78.0556,0,1078.13,0,1078.13,0C1516.94,99.4444,1535.69,118.167,1535.69,141.042z"/>
     </g>
     <g opacity="0.2" stroke-width="0">
      <path fill="#FFFFFF" stroke-width="0" d="M2009.63,258.083c2.25,22.8056,-3.73611,41.4583,-13.2778,41.4583s-24.8056,-17.2083,-33.8889,-38.2361l-47.9583,-110.875c-9.08333,-21.0278,-35.2778,-38.2361,-58.1944,-38.2361L1619.03,112.194c-22.9167,0,-41.6667,-18.7222,-41.6667,-41.5972c0,-22.875,18.75,-41.5972,41.6667,-41.5972l326.389,0c22.9167,0,43.5,18.6528,45.75,41.4583L2009.63,258.083z"/>
     </g>
     <g opacity="0.2" stroke-width="0">
      <path stroke-width="0" d="M1535.69,539.056c0,-22.875,-18.75,-41.5972,-41.6667,-41.5972c0,0,-996.236,0,-1077.69,0c-3.04167,0,-4.75,-9.11111,-5.01389,-9.11111c-7.625,0,-43.9583,0,-51.8056,0c-0.722222,0,-3,9.11111,-6.54167,9.11111c-34.5278,0,-147.139,0,-147.139,0c-22.9167,0,-41.6667,18.7222,-41.6667,41.5972c0,22.8611,18.75,41.5833,41.6667,41.5833c0,0,113.847,0,147.569,0c3.26389,0,5.38889,-9.11111,6.11111,-9.11111c8.20833,0,44.625,0,51.8056,0c0.25,0,1.80556,9.11111,4.58333,9.11111c78.0556,0,1078.13,0,1078.13,0C1516.94,580.639,1535.69,561.917,1535.69,539.056z"/>
     </g>
     <g opacity="0.2" stroke-width="0">
      <path stroke-width="0" d="M2009.63,425.486c2.25,-22.8056,-3.73611,-41.4583,-13.2778,-41.4583s-21.6528,18.25,-26.8889,40.5694l-24.9444,106.222c-5.23611,22.3056,-28.2639,40.5694,-51.1944,40.5694l-274.306,0c-22.9167,0,-41.6667,18.7222,-41.6667,41.5972s18.75,41.5972,41.6667,41.5972l326.389,0c22.9167,0,43.5,-18.6667,45.75,-41.4583L2009.63,425.486z"/>
     </g>
     <path fill="none" stroke="#CCCCCC" stroke-width="0" d="M255.014,39.7083c0,0,0.0138889,-2.90278,-2.31944,-21.4167c-2.68056,-21.375,-38.7639,48.6111,-29.5139,81.1528s-59.0278,172.625,-59.0278,279.958c0,21.9861,0,31.5417,0,31.5417" stroke-miterlimit="10"/>
    </g>
    <rect width="131.083" x="-25.7361" y="220.625" fill="#999999" height="1.94444" stroke-width="0"/>
   </g>
  </g>
  <g transform="translate(1208.65,934.05)">
   <rect width="31.93" x="0" y="0" fill="#8D8C8C" height="31.9" id="connector0pin" stroke-width="0"/>
   <rect width="16.4442" x="7.79153" y="7.73544" fill="#8C8663" height="16.4152" stroke-width="0"/>
   <polygon fill="#B8AF82" points="0,31.9,7.79153,24.1368,7.79153,6.97162,0,0" stroke-width="0"/>
   <polygon fill="#80795B" points="24.2079,7.76321,7.90264,7.76321,0,0,31.93,0" stroke-width="0"/>
   <polygon fill="#5E5B43" points="24.2079,24.1368,24.2079,7.76321,31.93,0,31.93,31.9" stroke-width="0"/>
   <polygon fill="#9A916C" points="0,31.9,7.87486,24.1368,24.2079,24.1368,31.93,31.9" stroke-width="0"/>
  </g>
  <g transform="translate(1208.65,34.05)">
   <rect width="31.93" x="0" y="0" fill="#8D8C8C" height="31.9" id="connector1pin" stroke-width="0"/>
   <rect width="16.4442" x="7.79153" y="7.73544" fill="#8C8663" height="16.4152" stroke-width="0"/>
   <polygon fill="#B8AF82" points="0,31.9,7.79153,24.1368,7.79153,6.97162,0,0" stroke-width="0"/>
   <polygon fill="#80795B" points="24.2079,7.76321,7.90264,7.76321,0,0,31.93,0" stroke-width="0"/>
   <polygon fill="#5E5B43" points="24.2079,24.1368,24.2079,7.76321,31.93,0,31.93,31.9" stroke-width="0"/>
   <polygon fill="#9A916C" points="0,31.9,7.87486,24.1368,24.2079,24.1368,31.93,31.9" stroke-width="0"/>
  </g>
 </g>
</svg>
