<?xml version='1.0' encoding='UTF-8' standalone='no'?>
<!-- Created with Fritzing (http://www.fritzing.org/) -->
<svg xmlns="http://www.w3.org/2000/svg" width="0.499972in" x="0in" version="1.2" y="0in"  height="1.4in" viewBox="0 0 499.972 1400" baseProfile="tiny" xmlns:svg="http://www.w3.org/2000/svg">
 <desc>Fritzing breadboard generated by brd2svg</desc>
 <g id="breadboard">
  <g id="icon">
   <path fill="#1F7A34" stroke="none" stroke-width="0" d="M0,0L0,670A30,30 0 0 1 0,730L0,1400L499.972,1400L499.972,0L0,0z"/>
   <g transform="translate(100,189.63)">
    <g id="silkscreen"/>
    <g id="Ebene_1_1_">
     <g>
      <path fill="#6B6B6B" d="M52.8194,204.514l-13.8889,0l0,-6.94444c0,-35.1806,37,-42.7222,72.7639,-50.0278c41.2639,-8.38889,111.361,-16.3333,111.361,-58.7083l0,-6.94444l13.8889,0l0,6.94444c0,53.7083,-81.8056,64.0278,-122.472,72.3194c-38.3611,7.81944,-61.6528,14.1667,-61.6528,36.4028L52.8194,204.514L52.8194,204.514z"/>
     </g>
     <g>
      <path fill="#6B6B6B" d="M52.8194,204.514l-13.8889,0l0,-6.94444c0,-35.1806,-1.11111,-53.875,34.6528,-61.1667c18.3056,-6.625,44.9306,-3.80556,44.9306,-47.5556l0,-6.94444l13.8889,0l0,6.94444c0,37.75,-15.375,52.8889,-56.0556,61.1667c-30.4722,9.98611,-23.5417,25.3056,-23.5417,47.5556L52.8194,204.514L52.8194,204.514z"/>
     </g>
     <path fill="none" stroke="#3A3A3A" stroke-width="34.7222" d="M45.875,197.569c0,171.111,84.6667,-22.4861,84.6667,293.486" stroke-miterlimit="10"/>
     <polygon fill="#262626" points="156.444,476.403,156.444,425.111,96.2778,425.111,96.2778,476.458,78.5694,511.861,78.5694,656.444,174.139,656.444,174.139,511.861"/>
     <g>
      <g>
       <rect width="195.583" x="25.0278" y="876.819" fill="#F3CC7D" height="168.208"/>
       <rect width="6.02778" x="200.694" y="876.819" fill="#9A7C47" height="168.208"/>
       <rect width="70.6944" x="75.9861" y="876.819" fill="#9B6A25" height="168.208"/>
       <rect width="13.6806" x="147.486" opacity="0.5" y="876.819" fill="#F2E0C0" height="168.208" enable-background="new    "/>
       <rect width="28.2917" x="75.9861" y="876.819" fill="#533A14" height="168.208"/>
       <rect width="28.2917" x="104.292" y="876.819" fill="#80581E" height="168.208"/>
      </g>
      <g>
       <rect width="203.889" x="20.875" y="1045.03" fill="#F3CC7D" height="51.2222"/>
       <rect width="6.25" x="204.014" y="1045.03" fill="#9A7C47" height="51.2222"/>
       <rect width="73.6944" x="74" y="1045.03" fill="#9B6A25" height="51.2222"/>
       <rect width="14.2639" x="148.556" opacity="0.5" y="1045.03" fill="#F2E0C0" height="51.2222" enable-background="new    "/>
       <rect width="29.4861" x="74" y="1045.03" fill="#533A14" height="51.2222"/>
       <rect width="29.4861" x="103.486" y="1045.03" fill="#80581E" height="51.2222"/>
      </g>
      <g>
       <rect width="203.889" x="20.875" y="837.736" fill="#F3CC7D" height="39.0556"/>
       <rect width="6.25" x="204.014" y="837.736" fill="#9A7C47" height="39.0556"/>
       <rect width="73.6944" x="74" y="837.736" fill="#9B6A25" height="39.0556"/>
       <rect width="14.2639" x="148.556" opacity="0.5" y="837.736" fill="#F2E0C0" height="39.0556" enable-background="new    "/>
       <rect width="29.4861" x="74" y="837.736" fill="#533A14" height="39.0556"/>
       <rect width="29.4861" x="103.486" y="837.736" fill="#80581E" height="39.0556"/>
      </g>
      <rect width="204.097" x="20.6528" opacity="0.2" y="837.736" fill="#9B6A25" height="8.27778" enable-background="new    "/>
      <rect width="204.097" x="20.6528" opacity="0.5" y="1087.94" fill="#F2E0C0" height="8.30556" enable-background="new    "/>
      <rect width="195.611" x="25" opacity="0.2" y="876.361" fill="#9B6A25" height="5.80556" enable-background="new    "/>
      <rect width="195.611" x="25" opacity="0.2" y="1039.22" fill="#9B6A25" height="5.80556" enable-background="new    "/>
      <g>
       <polygon fill="#9A7C47" points="226.667,879.972,235.903,872.722,226.667,865.542,212.472,866.208,212.472,880.639"/>
       <polygon fill="#9A7C47" points="18.75,875.542,9.5,883.167,18.75,889.972,62.125,887.889,62.125,873.458"/>
       <polygon fill="#9A7C47" points="192.833,867.167,125.042,870.417,125.042,884.847,192.833,881.597"/>
       <polygon fill="#9A7C47" points="112.097,871.042,112.097,885.472,125.042,884.847,125.042,870.417"/>
       <polygon opacity="0.5" fill="#F2E0C0" points="112.097,871.042,112.097,885.472,125.042,884.847,125.042,870.417" enable-background="new    "/>
       <polygon fill="#80581E" points="84.0972,872.403,62.125,873.458,62.125,887.889,84.0972,886.833"/>
       <polygon fill="#80581E" points="84.0972,886.833,112.097,885.472,112.097,871.042,84.0972,872.403"/>
       <polygon fill="#9A7C47" points="212.472,880.639,212.472,866.208,192.833,867.167,192.833,881.597"/>
       <polygon opacity="0.5" fill="#846330" points="212.472,880.639,212.472,866.208,192.833,867.167,192.833,881.597" enable-background="new    "/>
      </g>
      <g>
       <polygon fill="#9A7C47" points="226.667,904.403,235.903,897.194,226.667,889.972,212.472,890.625,212.472,905.083"/>
       <polygon fill="#9A7C47" points="18.75,899.958,9.5,907.639,18.75,914.417,62.125,912.333,62.125,897.903"/>
       <polygon fill="#9A7C47" points="192.833,891.611,125.042,894.861,125.042,909.319,192.833,906.042"/>
       <polygon fill="#9A7C47" points="112.097,895.486,112.097,909.944,125.042,909.319,125.042,894.861"/>
       <polygon opacity="0.5" fill="#F2E0C0" points="112.097,895.486,112.097,909.944,125.042,909.319,125.042,894.861" enable-background="new    "/>
       <polygon fill="#80581E" points="84.0972,896.847,62.125,897.903,62.125,912.333,84.0972,911.278"/>
       <polygon fill="#80581E" points="84.0972,911.278,112.097,909.944,112.097,895.486,84.0972,896.847"/>
       <polygon fill="#9A7C47" points="212.472,905.083,212.472,890.625,192.833,891.611,192.833,906.042"/>
       <polygon opacity="0.5" fill="#846330" points="212.472,905.083,212.472,890.625,192.833,891.611,192.833,906.042" enable-background="new    "/>
      </g>
      <g>
       <polygon fill="#9A7C47" points="226.667,928.847,235.903,921.639,226.667,914.389,212.472,915.069,212.472,929.528"/>
       <polygon fill="#9A7C47" points="18.75,924.431,9.5,932.083,18.75,938.861,62.125,936.778,62.125,922.333"/>
       <polygon fill="#9A7C47" points="192.833,916.042,125.042,919.306,125.042,933.764,192.833,930.472"/>
       <polygon fill="#9A7C47" points="112.097,919.931,112.097,934.389,125.042,933.764,125.042,919.306"/>
       <polygon opacity="0.5" fill="#F2E0C0" points="112.097,919.931,112.097,934.389,125.042,933.764,125.042,919.306" enable-background="new    "/>
       <polygon fill="#80581E" points="84.0972,921.278,62.125,922.333,62.125,936.778,84.0972,935.708"/>
       <polygon fill="#80581E" points="84.0972,935.708,112.097,934.389,112.097,919.931,84.0972,921.278"/>
       <polygon fill="#9A7C47" points="212.472,929.528,212.472,915.069,192.833,916.042,192.833,930.472"/>
       <polygon opacity="0.5" fill="#846330" points="212.472,929.528,212.472,915.069,192.833,916.042,192.833,930.472" enable-background="new    "/>
      </g>
      <g>
       <polygon fill="#9A7C47" points="226.667,953.292,235.903,946.069,226.667,938.861,212.472,939.542,212.472,953.972"/>
       <polygon fill="#9A7C47" points="18.75,948.875,9.5,956.514,18.75,963.306,62.125,961.208,62.125,946.75"/>
       <polygon fill="#9A7C47" points="192.833,940.458,125.042,943.736,125.042,958.194,192.833,954.917"/>
       <polygon fill="#9A7C47" points="112.097,944.361,112.097,958.819,125.042,958.194,125.042,943.736"/>
       <polygon opacity="0.5" fill="#F2E0C0" points="112.097,944.361,112.097,958.819,125.042,958.194,125.042,943.736" enable-background="new    "/>
       <polygon fill="#80581E" points="84.0972,945.694,62.125,946.75,62.125,961.208,84.0972,960.153"/>
       <polygon fill="#80581E" points="84.0972,960.153,112.097,958.819,112.097,944.361,84.0972,945.694"/>
       <polygon fill="#9A7C47" points="212.472,953.972,212.472,939.542,192.833,940.458,192.833,954.917"/>
       <polygon opacity="0.5" fill="#846330" points="212.472,953.972,212.472,939.542,192.833,940.458,192.833,954.917" enable-background="new    "/>
      </g>
      <g>
       <polygon fill="#9A7C47" points="226.667,977.736,235.903,970.486,226.667,963.306,212.472,963.972,212.472,978.417"/>
       <polygon fill="#9A7C47" points="18.75,973.306,9.5,980.931,18.75,987.736,62.125,985.653,62.125,971.194"/>
       <polygon fill="#9A7C47" points="192.833,964.931,125.042,968.181,125.042,982.611,192.833,979.361"/>
       <polygon fill="#9A7C47" points="112.097,968.806,112.097,983.236,125.042,982.611,125.042,968.181"/>
       <polygon opacity="0.5" fill="#F2E0C0" points="112.097,968.806,112.097,983.236,125.042,982.611,125.042,968.181" enable-background="new    "/>
       <polygon fill="#80581E" points="84.0972,970.167,62.125,971.194,62.125,985.653,84.0972,984.597"/>
       <polygon fill="#80581E" points="84.0972,984.597,112.097,983.236,112.097,968.806,84.0972,970.167"/>
       <polygon fill="#9A7C47" points="212.472,978.417,212.472,963.972,192.833,964.931,192.833,979.361"/>
       <polygon opacity="0.5" fill="#846330" points="212.472,978.417,212.472,963.972,192.833,964.931,192.833,979.361" enable-background="new    "/>
      </g>
      <g>
       <polygon fill="#9A7C47" points="226.667,1002.17,235.903,994.931,226.667,987.736,212.472,988.417,212.472,1002.85"/>
       <polygon fill="#9A7C47" points="18.75,997.722,9.5,1005.4,18.75,1012.18,62.125,1010.1,62.125,995.667"/>
       <polygon fill="#9A7C47" points="192.833,989.375,125.042,992.625,125.042,1007.06,192.833,1003.81"/>
       <polygon fill="#9A7C47" points="112.097,993.25,112.097,1007.71,125.042,1007.06,125.042,992.625"/>
       <polygon opacity="0.5" fill="#F2E0C0" points="112.097,993.25,112.097,1007.71,125.042,1007.06,125.042,992.625" enable-background="new    "/>
       <polygon fill="#80581E" points="84.0972,994.611,62.125,995.667,62.125,1010.1,84.0972,1009.04"/>
       <polygon fill="#80581E" points="84.0972,1009.04,112.097,1007.71,112.097,993.25,84.0972,994.611"/>
       <polygon fill="#9A7C47" points="212.472,1002.85,212.472,988.417,192.833,989.375,192.833,1003.81"/>
       <polygon opacity="0.5" fill="#846330" points="212.472,1002.85,212.472,988.417,192.833,989.375,192.833,1003.81" enable-background="new    "/>
      </g>
      <g>
       <polygon fill="#9A7C47" points="226.667,1026.61,235.903,1019.4,226.667,1012.15,212.472,1012.83,212.472,1027.29"/>
       <polygon fill="#9A7C47" points="18.75,1022.19,9.5,1029.85,18.75,1036.62,62.125,1034.54,62.125,1020.11"/>
       <polygon fill="#9A7C47" points="192.833,1013.81,125.042,1017.07,125.042,1031.53,192.833,1028.24"/>
       <polygon fill="#9A7C47" points="112.097,1017.69,112.097,1032.15,125.042,1031.53,125.042,1017.07"/>
       <polygon opacity="0.5" fill="#F2E0C0" points="112.097,1017.69,112.097,1032.15,125.042,1031.53,125.042,1017.07" enable-background="new    "/>
       <polygon fill="#80581E" points="84.0972,1019.04,62.125,1020.11,62.125,1034.54,84.0972,1033.47"/>
       <polygon fill="#80581E" points="84.0972,1033.47,112.097,1032.15,112.097,1017.69,84.0972,1019.04"/>
       <polygon fill="#9A7C47" points="212.472,1027.29,212.472,1012.83,192.833,1013.81,192.833,1028.24"/>
       <polygon opacity="0.5" fill="#846330" points="212.472,1027.29,212.472,1012.83,192.833,1013.81,192.833,1028.24" enable-background="new    "/>
      </g>
      <g>
       <polygon fill="#9A7C47" points="226.667,1051.06,235.903,1043.83,226.667,1036.6,212.472,1037.31,212.472,1051.74"/>
       <polygon fill="#9A7C47" points="18.75,1046.64,9.5,1054.28,18.75,1061.07,62.125,1058.97,62.125,1044.54"/>
       <polygon fill="#9A7C47" points="192.833,1038.22,125.042,1041.51,125.042,1055.97,192.833,1052.68"/>
       <polygon fill="#9A7C47" points="112.097,1042.12,112.097,1056.58,125.042,1055.97,125.042,1041.51"/>
       <polygon opacity="0.5" fill="#F2E0C0" points="112.097,1042.12,112.097,1056.58,125.042,1055.97,125.042,1041.51" enable-background="new    "/>
       <polygon fill="#80581E" points="84.0972,1043.46,62.125,1044.54,62.125,1058.97,84.0972,1057.92"/>
       <polygon fill="#80581E" points="84.0972,1057.92,112.097,1056.58,112.097,1042.12,84.0972,1043.46"/>
       <polygon fill="#9A7C47" points="212.472,1051.74,212.472,1037.31,192.833,1038.22,192.833,1052.68"/>
       <polygon opacity="0.5" fill="#846330" points="212.472,1051.74,212.472,1037.31,192.833,1038.22,192.833,1052.68" enable-background="new    "/>
      </g>
     </g>
     <g>
      <rect width="249.264" x="0.388889" y="763.319" fill="#F3CC7D" height="31.3056"/>
      <rect width="7.65278" x="224.292" y="763.319" fill="#9A7C47" height="31.3056"/>
      <rect width="90.0972" x="65.3611" y="763.319" fill="#9B6A25" height="31.3056"/>
      <rect width="17.4583" x="156.472" opacity="0.5" y="763.319" fill="#F2E0C0" height="31.3056" enable-background="new    "/>
      <rect width="36.0556" x="65.3611" y="763.319" fill="#533A14" height="31.3056"/>
      <rect width="36.0694" x="101.417" y="763.319" fill="#80581E" height="31.3056"/>
     </g>
     <rect width="249.444" x="0.305556" opacity="0.2" y="788.764" fill="#897E6E" height="5.88889" enable-background="new    "/>
     <rect width="249.444" x="0.305556" opacity="0.2" y="760.361" fill="#897E6E" height="5.88889" enable-background="new    "/>
     <g>
      <g>
       <polygon fill="#533A14" points="254.014,791.694,-1.25,791.694,-23.625,795.444,-23.625,834.806,-5.93056,837.708,259.347,837.708,276.347,834.806,276.347,795.444"/>
       <path fill="#9B6A25" d="M52.0833,834.833c19.1944,1.79167,45.4306,2.90278,74.3472,2.90278s55.125,-1.11111,74.3056,-2.90278l0,-38.2222C181.542,793.514,155.333,791.667,126.417,791.667s-55.1528,1.90278,-74.3472,4.93056L52.0694,834.833z"/>
       <path fill="#F3CC7D" d="M200.694,798.319l0,36.5139c9.65278,1.70833,23.0694,2.76389,37.9167,2.76389c14.75,0,28.0833,-1.05556,37.7361,-2.73611l0,-36.2639l0,-0.597222C275.444,794.486,258.958,791.667,238.611,791.667C217.653,791.694,200.694,794.653,200.694,798.319z"/>
       <path fill="#F2D49E" d="M52.0833,798.319l0,36.5139c-9.66667,1.70833,-23.0417,2.76389,-37.9028,2.76389c-14.7778,0,-28.0972,-1.05556,-37.7639,-2.73611l0,-36.2639l0,-0.597222C-22.6944,794.486,-6.20833,791.667,14.1667,791.667C35.0972,791.694,52.0833,794.653,52.0833,798.319z"/>
      </g>
      <path fill="#80581E" d="M65.3611,794.875c-4.65278,0.513889,-9.19444,1.08333,-13.2778,1.73611l0,38.2222c4.08333,0.319444,8.61111,0.708333,13.2778,1.02778L65.3611,794.875z"/>
     </g>
     <g>
      <g>
       <polygon fill="#533A14" points="254.014,717.694,-1.25,717.694,-23.625,721.444,-23.625,760.806,-5.93056,763.708,259.347,763.708,276.347,760.806,276.347,721.444"/>
       <path fill="#9B6A25" d="M52.0833,760.833c19.1944,1.79167,45.4306,2.90278,74.3472,2.90278s55.125,-1.11111,74.3056,-2.90278l0,-38.2222c-19.1806,-3.04167,-45.3889,-4.93056,-74.3056,-4.93056s-55.1528,1.90278,-74.3472,4.93056L52.0833,760.833z"/>
       <path fill="#F3CC7D" d="M200.694,724.319l0,36.5139c9.65278,1.70833,23.0694,2.76389,37.9167,2.76389c14.75,0,28.0833,-1.05556,37.7361,-2.73611L276.347,724.583l0,-0.597222c-0.902778,-3.5,-17.3889,-6.29167,-37.7361,-6.29167C217.653,717.694,200.694,720.681,200.694,724.319z"/>
       <path fill="#F2D49E" d="M52.0833,724.319l0,36.5139c-9.66667,1.70833,-23.0417,2.76389,-37.9028,2.76389c-14.7778,0,-28.0972,-1.05556,-37.7639,-2.73611L-23.5833,724.583l0,-0.597222c0.902778,-3.5,17.3889,-6.29167,37.7639,-6.29167C35.0972,717.694,52.0833,720.681,52.0833,724.319z"/>
      </g>
      <path fill="#80581E" d="M65.3611,720.875c-4.65278,0.513889,-9.19444,1.08333,-13.2778,1.73611l0,38.2222c4.08333,0.375,8.61111,0.708333,13.2778,1.02778L65.3611,720.875z"/>
     </g>
     <g>
      <g>
       <polygon fill="#533A14" points="208.556,647.958,44.1667,647.958,29.7639,651.667,29.7639,714.764,41.1667,717.667,212,717.667,222.958,714.764,222.958,651.667"/>
       <path fill="#9B6A25" d="M78.5278,714.792c12.3611,1.79167,29.25,2.90278,47.8611,2.90278c18.6389,0,35.5,-1.11111,47.8472,-2.90278l0,-61.9583c-12.3611,-3.01389,-29.2222,-4.88889,-47.8472,-4.88889c-18.6111,0,-35.5139,1.875,-47.8611,4.88889L78.5278,714.792z"/>
       <path fill="#F3CC7D" d="M174.25,654.542l0,60.2222c6.20833,1.70833,14.8472,2.76389,24.4167,2.76389c9.5,0,18.0972,-1.05556,24.3056,-2.73611l0,-59.9444l0,-0.597222c-0.597222,-3.5,-11.2083,-6.31944,-24.3056,-6.31944C185.153,647.958,174.25,650.903,174.25,654.542z"/>
       <path fill="#F2D49E" d="M78.5278,654.542l0,60.2222c-6.23611,1.70833,-14.8472,2.76389,-24.4306,2.76389c-9.54167,0,-18.0972,-1.05556,-24.3333,-2.73611l0,-59.9444l0,-0.597222c0.597222,-3.5,11.2222,-6.31944,24.3333,-6.31944C67.5833,647.958,78.5278,650.903,78.5278,654.542z"/>
      </g>
      <path fill="#80581E" d="M87.0556,651.097c-2.98611,0.541667,-5.91667,1.08333,-8.52778,1.73611l0,61.9583c2.61111,0.375,5.54167,0.708333,8.52778,1.02778L87.0556,651.097z"/>
     </g>
     <polyline opacity="0.1" fill="none" points="104.444,636.75,104.444,515.792,122.264,480.333,122.264,440.861" stroke="#FFFFFF" enable-background="new    " stroke-width="16.1083" stroke-miterlimit="10"/>
     <rect width="26.6806" x="112.125" y="75.5139" fill="#6B6B6B" height="26.6806"/>
     <rect width="26.6806" x="112.125" y="75.5139" fill="#6B6B6B" height="26.6806"/>
     <rect width="26.6667" x="216.667" y="75.5139" fill="#6B6B6B" height="26.6806"/>
     <g>
      <g>
       <polygon fill="#533A14" points="254.014,883.125,-1.25,883.125,-23.625,886.875,-23.625,1067.36,-5.93056,1070.26,259.347,1070.26,276.347,1067.36,276.347,886.875"/>
       <path fill="#9B6A25" d="M52.0833,1067.39c19.1944,1.79167,45.4306,2.90278,74.3472,2.90278s55.125,-1.11111,74.3056,-2.90278L200.736,888.042c-19.1806,-3.09722,-45.3889,-4.93056,-74.3056,-4.93056S71.2778,885,52.0833,888.042L52.0833,1067.39z"/>
       <path fill="#F3CC7D" d="M200.694,889.75l0,177.639c9.65278,1.70833,23.0694,2.76389,37.9167,2.76389c14.75,0,28.0833,-1.05556,37.7361,-2.73611L276.347,890.014l0,-0.597222c-0.902778,-3.5,-17.3889,-6.31944,-37.7361,-6.31944C217.653,883.125,200.694,886.083,200.694,889.75z"/>
       <path fill="#F2D49E" d="M52.0833,889.75l0,177.639c-9.66667,1.70833,-23.0417,2.76389,-37.9028,2.76389c-14.7778,0,-28.0972,-1.05556,-37.7639,-2.73611L-23.5833,890.014l0,-0.597222c0.902778,-3.5,17.3889,-6.31944,37.7639,-6.31944C35.0972,883.125,52.0833,886.083,52.0833,889.75z"/>
      </g>
      <path fill="#80581E" d="M65.3611,886.306c-4.65278,0.513889,-9.19444,1.08333,-13.2778,1.73611l0,179.347c4.08333,0.319444,8.61111,0.708333,13.2778,1.02778L65.3611,886.306z"/>
     </g>
     <g>
      <path fill="#6B6B6B" d="M52.8194,204.514l-13.8889,0l0,-6.94444c0,-20.9306,-5.29167,-41.0833,-10.4167,-60.5694C24.0278,119.889,19.7778,103.736,19.7778,88.8611l0,-6.94444l13.8889,0l0,6.94444c0,13.0694,4.02778,28.3889,8.27778,44.6111c5.09722,19.375,10.875,41.375,10.875,64.0972L52.8194,204.514z"/>
     </g>
     <rect width="26.6806" x="13.375" y="75.5139" fill="#6B6B6B" height="26.6806"/>
    </g>
   </g>
  </g>
  <g transform="translate(134.021,1334.05)">
   <rect width="31.93" x="0" y="0" fill="#8D8C8C" height="31.9" id="connector0pin"/>
   <rect width="16.4442" x="7.79153" y="7.73544" fill="#8C8663" height="16.4152"/>
   <polygon fill="#B8AF82" points="0,31.9,7.79153,24.1368,7.79153,6.97162,0,0"/>
   <polygon fill="#80795B" points="24.2079,7.76321,7.90264,7.76321,0,0,31.93,0"/>
   <polygon fill="#5E5B43" points="24.2079,24.1368,24.2079,7.76321,31.93,0,31.93,31.9"/>
   <polygon fill="#9A916C" points="0,31.9,7.87486,24.1368,24.2079,24.1368,31.93,31.9"/>
  </g>
  <g transform="translate(234.021,1334.05)">
   <rect width="31.93" x="0" y="0" fill="#8D8C8C" height="31.9" id="connector1pin"/>
   <rect width="16.4442" x="7.79153" y="7.73544" fill="#8C8663" height="16.4152"/>
   <polygon fill="#B8AF82" points="0,31.9,7.79153,24.1368,7.79153,6.97162,0,0"/>
   <polygon fill="#80795B" points="24.2079,7.76321,7.90264,7.76321,0,0,31.93,0"/>
   <polygon fill="#5E5B43" points="24.2079,24.1368,24.2079,7.76321,31.93,0,31.93,31.9"/>
   <polygon fill="#9A916C" points="0,31.9,7.87486,24.1368,24.2079,24.1368,31.93,31.9"/>
  </g>
  <g transform="translate(234.021,34.05)">
   <rect width="31.93" x="0" y="0" fill="#8D8C8C" height="31.9" id="connector4pin"/>
   <rect width="16.4442" x="7.79153" y="7.73544" fill="#8C8663" height="16.4152"/>
   <polygon fill="#B8AF82" points="0,31.9,7.79153,24.1368,7.79153,6.97162,0,0"/>
   <polygon fill="#80795B" points="24.2079,7.76321,7.90264,7.76321,0,0,31.93,0"/>
   <polygon fill="#5E5B43" points="24.2079,24.1368,24.2079,7.76321,31.93,0,31.93,31.9"/>
   <polygon fill="#9A916C" points="0,31.9,7.87486,24.1368,24.2079,24.1368,31.93,31.9"/>
  </g>
  <g transform="translate(334.021,1334.05)">
   <rect width="31.93" x="0" y="0" fill="#8D8C8C" height="31.9" id="connector2pin"/>
   <rect width="16.4442" x="7.79153" y="7.73544" fill="#8C8663" height="16.4152"/>
   <polygon fill="#B8AF82" points="0,31.9,7.79153,24.1368,7.79153,6.97162,0,0"/>
   <polygon fill="#80795B" points="24.2079,7.76321,7.90264,7.76321,0,0,31.93,0"/>
   <polygon fill="#5E5B43" points="24.2079,24.1368,24.2079,7.76321,31.93,0,31.93,31.9"/>
   <polygon fill="#9A916C" points="0,31.9,7.87486,24.1368,24.2079,24.1368,31.93,31.9"/>
  </g>
  <g transform="translate(334.021,34.05)">
   <rect width="31.93" x="0" y="0" fill="#8D8C8C" height="31.9" id="connector3pin"/>
   <rect width="16.4442" x="7.79153" y="7.73544" fill="#8C8663" height="16.4152"/>
   <polygon fill="#B8AF82" points="0,31.9,7.79153,24.1368,7.79153,6.97162,0,0"/>
   <polygon fill="#80795B" points="24.2079,7.76321,7.90264,7.76321,0,0,31.93,0"/>
   <polygon fill="#5E5B43" points="24.2079,24.1368,24.2079,7.76321,31.93,0,31.93,31.9"/>
   <polygon fill="#9A916C" points="0,31.9,7.87486,24.1368,24.2079,24.1368,31.93,31.9"/>
  </g>
 </g>
</svg>
