<?xml version="1.0" encoding="utf-8"?>
<!-- Generator: Adobe Illustrator 15.1.0, SVG Export Plug-In . SVG Version: 6.00 Build 0)  -->
<!DOCTYPE svg PUBLIC "-//W3C//DTD SVG 1.1//EN" "http://www.w3.org/Graphics/SVG/1.1/DTD/svg11.dtd">
<svg version="1.1" id="Ebene_1" xmlns:svg="http://www.w3.org/2000/svg"
	 xmlns="http://www.w3.org/2000/svg" xmlns:xlink="http://www.w3.org/1999/xlink" x="0px" y="0px" width="79.92px"
	 height="57.962px" viewBox="0 0 79.92 57.962" enable-background="new 0 0 79.92 57.962" xml:space="preserve">
<path fill="#00325F" d="M0,3.24v15.105c0.804,0,1.456,0.651,1.456,1.455c0,0.805-0.652,1.457-1.456,1.457v0.688
	c0.804,0,1.456,0.651,1.456,1.455c0,0.805-0.652,1.457-1.456,1.457v0.688c0.804,0,1.456,0.651,1.456,1.455
	c0,0.805-0.652,1.457-1.456,1.457v0.688c0.804,0,1.456,0.651,1.456,1.455c0,0.806-0.652,1.456-1.456,1.456v0.689
	c0.804,0,1.456,0.65,1.456,1.455S0.804,35.657,0,35.657v0.689c0.804,0,1.456,0.65,1.456,1.455S0.804,39.257,0,39.257v0.689
	c0.804,0,1.456,0.65,1.456,1.455S0.804,42.856,0,42.856v15.105h4.32c0-0.795,0.645-1.439,1.44-1.439c0.795,0,1.44,0.645,1.44,1.439
	h0.72c0-0.795,0.645-1.439,1.44-1.439c0.795,0,1.44,0.645,1.44,1.439h0.72c0-0.795,0.645-1.439,1.44-1.439
	c0.795,0,1.44,0.645,1.44,1.439h0.72c0-0.795,0.645-1.439,1.44-1.439c0.795,0,1.44,0.645,1.44,1.439h0.72
	c0-0.795,0.645-1.439,1.44-1.439c0.795,0,1.44,0.645,1.44,1.439h0.72c0-0.795,0.645-1.439,1.44-1.439c0.795,0,1.44,0.645,1.44,1.439
	h0.72c0-0.795,0.645-1.439,1.44-1.439c0.795,0,1.44,0.645,1.44,1.439h0.72c0-0.795,0.645-1.439,1.44-1.439
	c0.795,0,1.44,0.645,1.44,1.439h0.72c0-0.795,0.645-1.439,1.44-1.439c0.795,0,1.44,0.645,1.44,1.439h0.72
	c0-0.795,0.645-1.439,1.44-1.439c0.795,0,1.44,0.645,1.44,1.439h0.72c0-0.795,0.645-1.439,1.44-1.439s1.44,0.645,1.44,1.439h0.72
	c0-0.795,0.645-1.439,1.439-1.439s1.44,0.645,1.44,1.439h0.72c0-0.795,0.645-1.439,1.439-1.439s1.44,0.645,1.44,1.439h0.72
	c0-0.795,0.645-1.439,1.439-1.439S54,57.167,54,57.962h0.72c0-0.795,0.645-1.439,1.439-1.439s1.44,0.645,1.44,1.439h0.72
	c0-0.795,0.645-1.439,1.439-1.439s1.44,0.645,1.44,1.439h0.72c0-0.795,0.645-1.439,1.439-1.439s1.44,0.645,1.44,1.439h0.72
	c0-0.795,0.645-1.439,1.439-1.439s1.44,0.645,1.44,1.439h0.72c0-0.795,0.645-1.439,1.439-1.439s1.44,0.645,1.44,1.439h0.72
	c0-0.795,0.645-1.439,1.439-1.439s1.44,0.645,1.44,1.439h4.322V3.24H0z"/>
<g>
	<g>
		<path fill="#A49574" d="M0,17.917v0.438c0.804,0,1.455,0.652,1.455,1.455c0,0.805-0.651,1.456-1.455,1.456v-0.842
			c0.804,0,1.455-0.65,1.455-1.455c0-0.803-0.651-1.455-1.455-1.455v-0.438"/>
	</g>
	<g>
		<path fill="#A49574" d="M0,21.517v0.438c0.804,0,1.455,0.652,1.455,1.455c0,0.805-0.651,1.456-1.455,1.456v-0.842
			c0.804,0,1.455-0.65,1.455-1.455c0-0.803-0.651-1.455-1.455-1.455v-0.438"/>
	</g>
	<g>
		<path fill="#A49574" d="M0,25.117v0.438c0.804,0,1.455,0.652,1.455,1.455c0,0.805-0.651,1.456-1.455,1.456v-0.842
			c0.804,0,1.455-0.65,1.455-1.455c0-0.803-0.651-1.455-1.455-1.455v-0.438"/>
	</g>
	<g>
		<path fill="#A49574" d="M0,28.718v0.438c0.804,0,1.455,0.652,1.455,1.455c0,0.805-0.651,1.455-1.455,1.455v-0.842
			c0.804,0,1.455-0.65,1.455-1.455c0-0.803-0.651-1.455-1.455-1.455v-0.438"/>
	</g>
	<g>
		<path fill="#A49574" d="M0,32.317v0.438c0.804,0,1.455,0.652,1.455,1.455c0,0.805-0.651,1.455-1.455,1.455v-0.842
			c0.804,0,1.455-0.65,1.455-1.455c0-0.803-0.651-1.455-1.455-1.455v-0.438"/>
	</g>
	<g>
		<path fill="#A49574" d="M0,35.917v0.438c0.804,0,1.455,0.652,1.455,1.455c0,0.805-0.651,1.455-1.455,1.455v-0.842
			c0.804,0,1.455-0.65,1.455-1.455c0-0.803-0.651-1.455-1.455-1.455v-0.438"/>
	</g>
	<g>
		<path fill="#A49574" d="M0,39.516v0.438c0.804,0,1.455,0.652,1.455,1.455c0,0.805-0.651,1.455-1.455,1.455v-0.842
			c0.804,0,1.455-0.65,1.455-1.455c0-0.803-0.651-1.455-1.455-1.455v-0.438"/>
	</g>
</g>
<g>
	<g>
		<path fill="#A49574" d="M75.612,57.128c0-0.805-0.651-1.455-1.455-1.455s-1.455,0.65-1.455,1.455v0.834
			c0-0.805,0.651-1.455,1.455-1.455s1.455,0.65,1.455,1.455"/>
	</g>
	<g>
		<path fill="#A49574" d="M72.013,57.128c0-0.805-0.651-1.455-1.455-1.455s-1.455,0.65-1.455,1.455v0.834
			c0-0.805,0.651-1.455,1.455-1.455s1.455,0.65,1.455,1.455"/>
	</g>
	<g>
		<path fill="#A49574" d="M68.413,57.128c0-0.805-0.651-1.455-1.455-1.455s-1.455,0.65-1.455,1.455v0.834
			c0-0.805,0.651-1.455,1.455-1.455s1.455,0.65,1.455,1.455"/>
	</g>
	<g>
		<path fill="#A49574" d="M64.813,57.128c0-0.805-0.651-1.455-1.455-1.455s-1.455,0.65-1.455,1.455v0.834
			c0-0.805,0.651-1.455,1.455-1.455s1.455,0.65,1.455,1.455"/>
	</g>
	<g>
		<path fill="#A49574" d="M61.214,57.128c0-0.805-0.651-1.455-1.455-1.455s-1.455,0.65-1.455,1.455v0.834
			c0-0.805,0.651-1.455,1.455-1.455s1.455,0.65,1.455,1.455"/>
	</g>
	<g>
		<path fill="#A49574" d="M57.614,57.128c0-0.805-0.651-1.455-1.455-1.455s-1.455,0.65-1.455,1.455v0.834
			c0-0.805,0.651-1.455,1.455-1.455s1.455,0.65,1.455,1.455"/>
	</g>
	<g>
		<path fill="#A49574" d="M54.015,57.128c0-0.805-0.651-1.455-1.455-1.455s-1.455,0.65-1.455,1.455v0.834
			c0-0.805,0.651-1.455,1.455-1.455s1.455,0.65,1.455,1.455"/>
	</g>
	<g>
		<path fill="#A49574" d="M50.415,57.128c0-0.805-0.651-1.455-1.455-1.455s-1.455,0.65-1.455,1.455v0.834
			c0-0.805,0.651-1.455,1.455-1.455s1.455,0.65,1.455,1.455"/>
	</g>
	<g>
		<path fill="#A49574" d="M46.815,57.128c0-0.805-0.651-1.455-1.455-1.455s-1.455,0.65-1.455,1.455v0.834
			c0-0.805,0.651-1.455,1.455-1.455s1.455,0.65,1.455,1.455"/>
	</g>
	<g>
		<path fill="#A49574" d="M43.216,57.128c0-0.805-0.651-1.455-1.455-1.455s-1.456,0.65-1.456,1.455v0.834
			c0-0.805,0.652-1.455,1.456-1.455s1.455,0.65,1.455,1.455"/>
	</g>
	<g>
		<path fill="#A49574" d="M39.616,57.128c0-0.805-0.652-1.455-1.456-1.455s-1.456,0.65-1.456,1.455v0.834
			c0-0.805,0.652-1.455,1.456-1.455s1.456,0.65,1.456,1.455"/>
	</g>
	<g>
		<path fill="#A49574" d="M36.016,57.128c0-0.805-0.652-1.455-1.456-1.455s-1.456,0.65-1.456,1.455v0.834
			c0-0.805,0.652-1.455,1.456-1.455s1.456,0.65,1.456,1.455"/>
	</g>
	<g>
		<path fill="#A49574" d="M32.416,57.128c0-0.805-0.652-1.455-1.456-1.455s-1.456,0.65-1.456,1.455v0.834
			c0-0.805,0.652-1.455,1.456-1.455s1.456,0.65,1.456,1.455"/>
	</g>
	<g>
		<path fill="#A49574" d="M28.816,57.128c0-0.805-0.652-1.455-1.456-1.455s-1.456,0.65-1.456,1.455v0.834
			c0-0.805,0.652-1.455,1.456-1.455s1.456,0.65,1.456,1.455"/>
	</g>
	<g>
		<path fill="#A49574" d="M25.216,57.128c0-0.805-0.652-1.455-1.456-1.455s-1.456,0.65-1.456,1.455v0.834
			c0-0.805,0.652-1.455,1.456-1.455s1.456,0.65,1.456,1.455"/>
	</g>
	<g>
		<path fill="#A49574" d="M21.616,57.128c0-0.805-0.652-1.455-1.456-1.455s-1.456,0.65-1.456,1.455v0.834
			c0-0.805,0.652-1.455,1.456-1.455s1.456,0.65,1.456,1.455"/>
	</g>
	<g>
		<path fill="#A49574" d="M18.016,57.128c0-0.805-0.652-1.455-1.456-1.455s-1.456,0.65-1.456,1.455v0.834
			c0-0.805,0.652-1.455,1.456-1.455s1.456,0.65,1.456,1.455"/>
	</g>
	<g>
		<path fill="#A49574" d="M14.416,57.128c0-0.805-0.652-1.455-1.456-1.455s-1.456,0.65-1.456,1.455v0.834
			c0-0.805,0.652-1.455,1.456-1.455s1.456,0.65,1.456,1.455"/>
	</g>
	<g>
		<path fill="#A49574" d="M10.815,57.128c0-0.805-0.652-1.455-1.456-1.455s-1.456,0.65-1.456,1.455v0.834
			c0-0.805,0.652-1.455,1.456-1.455s1.456,0.65,1.456,1.455"/>
	</g>
	<g>
		<path fill="#A49574" d="M7.215,57.128c0-0.805-0.652-1.455-1.456-1.455s-1.456,0.65-1.456,1.455v0.834
			c0-0.805,0.652-1.455,1.456-1.455s1.456,0.65,1.456,1.455"/>
	</g>
</g>
<path fill="#00437F" d="M0,2.406v15.105c0.804,0,1.456,0.651,1.456,1.455c0,0.805-0.652,1.457-1.456,1.457v0.688
	c0.804,0,1.456,0.651,1.456,1.455c0,0.805-0.652,1.457-1.456,1.457v0.688c0.804,0,1.456,0.651,1.456,1.455
	c0,0.805-0.652,1.457-1.456,1.457v0.688c0.804,0,1.456,0.651,1.456,1.455c0,0.806-0.652,1.456-1.456,1.456v0.689
	c0.804,0,1.456,0.65,1.456,1.455S0.804,34.823,0,34.823v0.689c0.804,0,1.456,0.65,1.456,1.455S0.804,38.423,0,38.423v0.689
	c0.804,0,1.456,0.65,1.456,1.455S0.804,42.022,0,42.022v15.105h4.32c0-0.795,0.645-1.439,1.44-1.439c0.795,0,1.44,0.645,1.44,1.439
	h0.72c0-0.795,0.645-1.439,1.44-1.439c0.795,0,1.44,0.645,1.44,1.439h0.72c0-0.795,0.645-1.439,1.44-1.439
	c0.795,0,1.44,0.645,1.44,1.439h0.72c0-0.795,0.645-1.439,1.44-1.439c0.795,0,1.44,0.645,1.44,1.439h0.72
	c0-0.795,0.645-1.439,1.44-1.439c0.795,0,1.44,0.645,1.44,1.439h0.72c0-0.795,0.645-1.439,1.44-1.439c0.795,0,1.44,0.645,1.44,1.439
	h0.72c0-0.795,0.645-1.439,1.44-1.439c0.795,0,1.44,0.645,1.44,1.439h0.72c0-0.795,0.645-1.439,1.44-1.439
	c0.795,0,1.44,0.645,1.44,1.439h0.72c0-0.795,0.645-1.439,1.44-1.439c0.795,0,1.44,0.645,1.44,1.439h0.72
	c0-0.795,0.645-1.439,1.44-1.439c0.795,0,1.44,0.645,1.44,1.439h0.72c0-0.795,0.645-1.439,1.44-1.439s1.44,0.645,1.44,1.439h0.72
	c0-0.795,0.645-1.439,1.439-1.439s1.44,0.645,1.44,1.439h0.72c0-0.795,0.645-1.439,1.439-1.439s1.44,0.645,1.44,1.439h0.72
	c0-0.795,0.645-1.439,1.439-1.439S54,56.333,54,57.128h0.72c0-0.795,0.645-1.439,1.439-1.439s1.44,0.645,1.44,1.439h0.72
	c0-0.795,0.645-1.439,1.439-1.439s1.44,0.645,1.44,1.439h0.72c0-0.795,0.645-1.439,1.439-1.439s1.44,0.645,1.44,1.439h0.72
	c0-0.795,0.645-1.439,1.439-1.439s1.44,0.645,1.44,1.439h0.72c0-0.795,0.645-1.439,1.439-1.439s1.44,0.645,1.44,1.439h0.72
	c0-0.795,0.645-1.439,1.439-1.439s1.44,0.645,1.44,1.439h4.322V2.406H0z"/>
<polyline opacity="0.7" points="78.315,53.6 22.856,53.6 2.7,37.768 2.7,35.902 78.315,53.6 "/>
<g>
	<g>
		<g>
			<path fill="#DBC69B" d="M76.049,57.128c0-1.045-0.847-1.893-1.892-1.893s-1.892,0.848-1.892,1.893v0.834h0.437v-0.834
				c0-0.805,0.651-1.455,1.455-1.455s1.455,0.65,1.455,1.455v0.834h0.437V57.128z"/>
		</g>
	</g>
	<g>
		<g>
			<path fill="#DBC69B" d="M72.449,57.128c0-1.045-0.847-1.893-1.892-1.893s-1.892,0.848-1.892,1.893v0.834h0.437v-0.834
				c0-0.805,0.651-1.455,1.455-1.455s1.455,0.65,1.455,1.455v0.834h0.437V57.128z"/>
		</g>
	</g>
	<g>
		<g>
			<path fill="#DBC69B" d="M68.85,57.128c0-1.045-0.847-1.893-1.892-1.893s-1.892,0.848-1.892,1.893v0.834h0.437v-0.834
				c0-0.805,0.651-1.455,1.455-1.455s1.455,0.65,1.455,1.455v0.834h0.437V57.128z"/>
		</g>
	</g>
	<g>
		<g>
			<path fill="#DBC69B" d="M65.25,57.128c0-1.045-0.847-1.893-1.892-1.893s-1.892,0.848-1.892,1.893v0.834h0.437v-0.834
				c0-0.805,0.651-1.455,1.455-1.455s1.455,0.65,1.455,1.455v0.834h0.437V57.128z"/>
		</g>
	</g>
	<g>
		<g>
			<path fill="#DBC69B" d="M61.65,57.128c0-1.045-0.847-1.893-1.892-1.893s-1.892,0.848-1.892,1.893v0.834h0.437v-0.834
				c0-0.805,0.651-1.455,1.455-1.455s1.455,0.65,1.455,1.455v0.834h0.437V57.128z"/>
		</g>
	</g>
	<g>
		<g>
			<path fill="#DBC69B" d="M58.051,57.128c0-1.045-0.847-1.893-1.892-1.893s-1.892,0.848-1.892,1.893v0.834h0.437v-0.834
				c0-0.805,0.651-1.455,1.455-1.455s1.455,0.65,1.455,1.455v0.834h0.437V57.128z"/>
		</g>
	</g>
	<g>
		<g>
			<path fill="#DBC69B" d="M54.451,57.128c0-1.045-0.847-1.893-1.892-1.893s-1.892,0.848-1.892,1.893v0.834h0.437v-0.834
				c0-0.805,0.651-1.455,1.455-1.455s1.455,0.65,1.455,1.455v0.834h0.437V57.128z"/>
		</g>
	</g>
	<g>
		<g>
			<path fill="#DBC69B" d="M50.852,57.128c0-1.045-0.847-1.893-1.892-1.893s-1.892,0.848-1.892,1.893v0.834h0.437v-0.834
				c0-0.805,0.651-1.455,1.455-1.455s1.455,0.65,1.455,1.455v0.834h0.437V57.128z"/>
		</g>
	</g>
	<g>
		<g>
			<path fill="#DBC69B" d="M47.252,57.128c0-1.045-0.847-1.893-1.892-1.893s-1.892,0.848-1.892,1.893v0.834h0.437v-0.834
				c0-0.805,0.651-1.455,1.455-1.455s1.455,0.65,1.455,1.455v0.834h0.437V57.128z"/>
		</g>
	</g>
	<g>
		<g>
			<path fill="#DBC69B" d="M43.652,57.128c0-1.045-0.847-1.893-1.892-1.893s-1.892,0.848-1.892,1.893v0.834h0.437v-0.834
				c0-0.805,0.652-1.455,1.456-1.455s1.455,0.65,1.455,1.455v0.834h0.437V57.128z"/>
		</g>
	</g>
	<g>
		<g>
			<path fill="#DBC69B" d="M40.053,57.128c0-1.045-0.847-1.893-1.892-1.893s-1.892,0.848-1.892,1.893v0.834h0.437v-0.834
				c0-0.805,0.652-1.455,1.456-1.455s1.456,0.65,1.456,1.455l0,0.834h0.437V57.128z"/>
		</g>
	</g>
	<g>
		<g>
			<path fill="#DBC69B" d="M36.453,57.128c0-1.045-0.847-1.893-1.892-1.893s-1.892,0.848-1.892,1.893v0.834h0.437v-0.834
				c0-0.805,0.652-1.455,1.456-1.455s1.456,0.65,1.456,1.455l0,0.834h0.437V57.128z"/>
		</g>
	</g>
	<g>
		<g>
			<path fill="#DBC69B" d="M32.853,57.128c0-1.045-0.847-1.893-1.892-1.893s-1.892,0.848-1.892,1.893v0.834h0.437v-0.834
				c0-0.805,0.652-1.455,1.456-1.455s1.456,0.65,1.456,1.455l0,0.834h0.437V57.128z"/>
		</g>
	</g>
	<g>
		<g>
			<path fill="#DBC69B" d="M29.252,57.128c0-1.045-0.847-1.893-1.892-1.893s-1.892,0.848-1.892,1.893v0.834h0.437v-0.834
				c0-0.805,0.652-1.455,1.456-1.455s1.456,0.65,1.456,1.455l0,0.834h0.437V57.128z"/>
		</g>
	</g>
	<g>
		<g>
			<path fill="#DBC69B" d="M25.652,57.128c0-1.045-0.847-1.893-1.892-1.893s-1.892,0.848-1.892,1.893v0.834h0.437v-0.834
				c0-0.805,0.652-1.455,1.456-1.455s1.456,0.65,1.456,1.455l0,0.834h0.437V57.128z"/>
		</g>
	</g>
	<g>
		<g>
			<path fill="#DBC69B" d="M22.052,57.128c0-1.045-0.847-1.893-1.892-1.893s-1.892,0.848-1.892,1.893v0.834h0.437v-0.834
				c0-0.805,0.652-1.455,1.456-1.455s1.456,0.65,1.456,1.455l0,0.834h0.437V57.128z"/>
		</g>
	</g>
	<g>
		<g>
			<path fill="#DBC69B" d="M18.452,57.128c0-1.045-0.847-1.893-1.892-1.893s-1.892,0.848-1.892,1.893v0.834h0.437v-0.834
				c0-0.805,0.652-1.455,1.456-1.455s1.456,0.65,1.456,1.455l0,0.834h0.437V57.128z"/>
		</g>
	</g>
	<g>
		<g>
			<path fill="#DBC69B" d="M14.852,57.128c0-1.045-0.847-1.893-1.892-1.893s-1.892,0.848-1.892,1.893v0.834h0.437v-0.834
				c0-0.805,0.652-1.455,1.456-1.455s1.456,0.65,1.456,1.455l0,0.834h0.437V57.128z"/>
		</g>
	</g>
	<g>
		<g>
			<path fill="#DBC69B" d="M11.252,57.128c0-1.045-0.847-1.893-1.892-1.893s-1.892,0.848-1.892,1.893v0.834h0.437v-0.834
				c0-0.805,0.652-1.455,1.456-1.455s1.456,0.65,1.456,1.455l0,0.834h0.437V57.128z"/>
		</g>
	</g>
	<g>
		<g>
			<path fill="#DBC69B" d="M7.652,57.128c0-1.045-0.847-1.893-1.892-1.893s-1.892,0.848-1.892,1.893v0.834h0.437v-0.834
				c0-0.805,0.652-1.455,1.456-1.455s1.456,0.65,1.456,1.455l0,0.834h0.437V57.128z"/>
		</g>
	</g>
</g>
<g>
	<g>
		<g>
			<path fill="#DBC69B" d="M0,20.861c1.045,0,1.892-0.848,1.892-1.893S1.045,17.075,0,17.075v0.438c0.804,0,1.455,0.652,1.455,1.455
				c0,0.805-0.651,1.455-1.455,1.455V20.861z"/>
		</g>
	</g>
	<g>
		<g>
			<path fill="#DBC69B" d="M0,24.461c1.045,0,1.892-0.848,1.892-1.893S1.045,20.676,0,20.676v0.438c0.804,0,1.455,0.652,1.455,1.455
				c0,0.805-0.651,1.455-1.455,1.455V24.461z"/>
		</g>
	</g>
	<g>
		<g>
			<path fill="#DBC69B" d="M0,28.061c1.045,0,1.892-0.848,1.892-1.893S1.045,24.276,0,24.276v0.438c0.804,0,1.455,0.652,1.455,1.455
				c0,0.805-0.651,1.455-1.455,1.455V28.061z"/>
		</g>
	</g>
	<g>
		<g>
			<path fill="#DBC69B" d="M0,31.661c1.045,0,1.892-0.848,1.892-1.893S1.045,27.876,0,27.876v0.438c0.804,0,1.455,0.652,1.455,1.455
				c0,0.805-0.651,1.455-1.455,1.455V31.661z"/>
		</g>
	</g>
	<g>
		<g>
			<path fill="#DBC69B" d="M0,35.26c1.045,0,1.892-0.848,1.892-1.893S1.045,31.475,0,31.475v0.438c0.804,0,1.455,0.652,1.455,1.455
				c0,0.805-0.651,1.455-1.455,1.455V35.26z"/>
		</g>
	</g>
	<g>
		<g>
			<path fill="#DBC69B" d="M0,38.86c1.045,0,1.892-0.848,1.892-1.893S1.045,35.075,0,35.075v0.438c0.804,0,1.455,0.652,1.455,1.455
				c0,0.805-0.651,1.455-1.455,1.455V38.86z"/>
		</g>
	</g>
	<g>
		<g>
			<path fill="#DBC69B" d="M0,42.46c1.045,0,1.892-0.848,1.892-1.893S1.045,38.675,0,38.675v0.438c0.804,0,1.455,0.652,1.455,1.455
				c0,0.805-0.651,1.455-1.455,1.455V42.46z"/>
		</g>
	</g>
</g>
<path fill="#CCCCCC" d="M78.315,53.6H23.46c0,0-0.083-3.24-0.604-3.24s-0.608,2.763-0.608,2.763L2.991,37.997
	c0,0,0.003-1.149-0.292-1.387V4.573h75.616V53.6z"/>
<polygon fill="#E6E6E6" points="78.315,49.026 22.856,49.026 2.7,33.194 2.7,0 78.315,0 "/>
<polygon opacity="0.2" points="2.7,38.29 22.856,54.122 78.315,54.122 78.315,53.6 22.856,53.6 2.7,37.768 "/>
<polygon opacity="0.2" points="2.7,33.716 22.856,49.548 78.315,49.548 78.315,49.026 22.856,49.026 2.7,33.194 "/>
<rect x="2.7" y="0" opacity="0.2" fill="#FFFFFF" width="75.616" height="0.86"/>
<text transform="matrix(1 0 0 1 37.96 8.7063)" fill="#4D4D4D" font-family="'MyriadPro-Regular'" font-size="6.7224">WiFly RN-171</text>
</svg>
