<?xml version="1.0" encoding="UTF-8"?><!-- Generator: Adobe Illustrator 14.0.0, SVG Export Plug-In . SVG Version: 6.00 Build 43363)  --><!DOCTYPE svg  PUBLIC '-//W3C//DTD SVG 1.1//EN'  'http://www.w3.org/Graphics/SVG/1.1/DTD/svg11.dtd'><svg enable-background="new 0 0 33.046 39.852" height="0.5535in" id="svg2" version="1.1" viewBox="0 0 33.046 39.852" width="0.458972in" x="0" xml:space="preserve" xmlns="http://www.w3.org/2000/svg" xmlns:xlink="http://www.w3.org/1999/xlink" xmlns:xml="http://www.w3.org/XML/1998/namespace" y="0">
<rect fill="none" height="2.5" id="connector0pin" width="2.834" x="8.215" y="36.422"/>
<rect fill="none" height="2.269" id="connector0terminal" width="1.418" x="8.922" y="36.538"/>
<rect fill="none" height="2.25" id="connector1pin" width="2.835" x="15.424" y="36.501"/>
<rect fill="none" height="2.041" id="connector1terminal" width="1.418" x="16.132" y="36.605"/>
<rect fill="none" height="2.25" id="connector2pin" width="2.836" x="22.736" y="36.626"/>
<rect fill="none" height="2.041" id="connector2terminal" width="1.418" x="23.445" y="36.73"/>
<g id="breadboard">
	<path d="M31.203,33.371c0,1.564-1.271,2.835-2.834,2.835H5.453   c-1.565,0-2.834-1.271-2.834-2.835V5.875c0-1.564,1.269-2.835,2.834-2.835h22.916c1.564,0,2.834,1.271,2.834,2.835V33.371   L31.203,33.371z" stroke="#000000" stroke-width="0.8826"/>
	<rect fill="#CCCCCC" height="4.416" width="30.833" x="1.452" y="17.415"/>
	<rect fill="#CCCCCC" height="2.666" width="1.734" x="23.187" y="36.197"/>
	<rect fill="#CCCCCC" height="2.666" width="1.735" x="15.986" y="36.197"/>
	<rect fill="#CCCCCC" height="2.666" width="1.735" x="8.786" y="36.197"/>
	<path d="M30.482,31.932c0,1.565-1.269,2.836-2.834,2.836H4.733   c-1.565,0-2.834-1.271-2.834-2.836V4.435c0-1.564,1.269-2.834,2.834-2.834h22.915c1.564,0,2.834,1.27,2.834,2.834V31.932   L30.482,31.932z" fill="none" stroke="#000000" stroke-width="0.8826"/>
	<polygon fill="#CCCCCC" points="31.703,6.956 31.703,32.29 30.982,30.852 1.399,30.852 1.399,5.517 30.982,5.517  "/>
	<polygon fill="#ABABAB" points="32.287,17.415 32.287,21.831 31.566,20.392 1.399,20.31 1.385,21.811 0.732,20.392 0.732,15.976    31.566,15.976  "/>
	<path d="M30.267,31.689c0,1.539-1.246,2.785-2.785,2.785H4.971c-1.538,0-2.785-1.246-2.785-2.785V4.678   c0-1.537,1.247-2.785,2.785-2.785h22.511c1.537,0,2.784,1.248,2.784,2.785L30.267,31.689L30.267,31.689z" fill="#ABABAB"/>
	<circle cx="27.386" cy="31.429" r="1.917"/>
	<circle cx="5.065" cy="31.429" r="1.917"/>
	<circle cx="27.386" cy="4.787" r="1.917"/>
	<circle cx="5.065" cy="4.787" r="1.917"/>
	<circle cx="16.194" cy="18.162" fill="#878787" r="8.125" stroke="#777777" stroke-width="1"/>
	<circle cx="16.194" cy="18.162" fill="#878787" r="6.5"/>
	<circle cx="15.476" cy="16.722" fill="#3A3A3A" r="6.5"/>
	<polygon fill="#3A3A3A" points="6.731,13.768 9.862,19.923 21.428,14.111 18.394,8.098  "/>
	<path d="M13.37,20.268l7.149-7.957c0.122,0.496,0.109,0.963,0.109,1.498c0,3.59-2.91,6.502-6.501,6.502   C13.871,20.312,13.619,20.297,13.37,20.268z" fill="#595959"/>
	<path d="M13.364,20.309c-3.275-0.335-5.831-3.105-5.831-6.469c0-3.59,2.91-6.5,6.5-6.5   c3.122,0,5.728,2.198,6.357,5.13L13.364,20.309z" fill="#3A3A3A"/>
	<path d="M11.924,17.429c-3.275-0.335-5.831-3.105-5.831-6.469c0-3.59,2.91-6.5,6.5-6.5   c3.122,0,5.729,2.198,6.357,5.13L11.924,17.429z" fill="#3A3A3A"/>
	<polygon fill="#828282" points="11.924,17.429 13.37,20.268 20.521,12.312 19.066,9.493  "/>
</g>
</svg>