<?xml version="1.0" encoding="utf-8"?>
<!-- Generator: Adobe Illustrator 15.1.0, SVG Export Plug-In . SVG Version: 6.00 Build 0)  -->
<!DOCTYPE svg PUBLIC "-//W3C//DTD SVG 1.1//EN" "http://www.w3.org/Graphics/SVG/1.1/DTD/svg11.dtd">
<svg version="1.1" id="svg" xmlns:xml="http://www.w3.org/XML/1998/namespace"
	 xmlns="http://www.w3.org/2000/svg" xmlns:xlink="http://www.w3.org/1999/xlink" x="0px" y="0px" width="103.465px"
	 height="50.598px" viewBox="0 0 103.465 50.598" enable-background="new 0 0 103.465 50.598" xml:space="preserve">
<path fill="#1A1A1A" d="M2.835,0v50.598h100.63V0H2.835z M42.349,1.905c0.998,0,1.812,0.813,1.812,1.813S43.347,5.53,42.349,5.53
	c-1,0-1.812-0.813-1.812-1.813C40.538,2.72,41.349,1.905,42.349,1.905z M42.349,10.133c0.998,0,1.812,0.813,1.812,1.813
	s-0.813,1.813-1.812,1.813c-1,0-1.812-0.813-1.812-1.813C40.538,10.947,41.349,10.133,42.349,10.133z M6.348,48.682
	c-1,0-1.812-0.811-1.812-1.811c0-0.998,0.812-1.813,1.812-1.813c0.998,0,1.812,0.813,1.812,1.813S7.346,48.682,6.348,48.682z
	 M6.348,5.53c-1,0-1.812-0.813-1.812-1.813c0-0.998,0.812-1.813,1.812-1.813c0.998,0,1.812,0.813,1.812,1.813S7.346,5.53,6.348,5.53
	z M13.549,48.682c-1,0-1.812-0.811-1.812-1.811c0-0.998,0.812-1.813,1.812-1.813c0.998,0,1.812,0.813,1.812,1.813
	S14.547,48.682,13.549,48.682z M13.549,13.758c-1,0-1.812-0.813-1.812-1.813c0-0.998,0.812-1.813,1.812-1.813
	c0.998,0,1.812,0.813,1.812,1.813S14.547,13.758,13.549,13.758z M13.549,5.53c-1,0-1.812-0.813-1.812-1.813
	c0-0.998,0.812-1.813,1.812-1.813c0.998,0,1.812,0.813,1.812,1.813S14.547,5.53,13.549,5.53z M20.749,48.682
	c-1,0-1.812-0.811-1.812-1.811c0-0.998,0.812-1.813,1.812-1.813c0.998,0,1.812,0.813,1.812,1.813S21.747,48.682,20.749,48.682z
	 M20.749,5.53c-1,0-1.812-0.813-1.812-1.813c0-0.998,0.812-1.813,1.812-1.813c0.998,0,1.812,0.813,1.812,1.813
	S21.747,5.53,20.749,5.53z M27.949,48.682c-1,0-1.812-0.811-1.812-1.811c0-0.998,0.812-1.813,1.812-1.813
	c0.998,0,1.812,0.813,1.812,1.813S28.947,48.682,27.949,48.682z M27.949,13.758c-1,0-1.812-0.813-1.812-1.813
	c0-0.998,0.812-1.813,1.812-1.813c0.998,0,1.812,0.813,1.812,1.813S28.947,13.758,27.949,13.758z M27.949,5.53
	c-1,0-1.812-0.813-1.812-1.813c0-0.998,0.812-1.813,1.812-1.813c0.998,0,1.812,0.813,1.812,1.813S28.947,5.53,27.949,5.53z
	 M35.149,48.682c-1,0-1.812-0.811-1.812-1.811c0-0.998,0.812-1.813,1.812-1.813c0.998,0,1.812,0.813,1.812,1.813
	S36.147,48.682,35.149,48.682z M35.149,13.758c-1,0-1.812-0.813-1.812-1.813c0-0.998,0.812-1.813,1.812-1.813
	c0.998,0,1.812,0.813,1.812,1.813S36.147,13.758,35.149,13.758z M35.149,5.53c-1,0-1.812-0.813-1.812-1.813
	c0-0.998,0.812-1.813,1.812-1.813c0.998,0,1.812,0.813,1.812,1.813S36.147,5.53,35.149,5.53z M39.087,22.723
	c0-0.533,0.433-0.968,0.967-0.968c0.533,0,0.968,0.434,0.968,0.968s-0.435,0.968-0.968,0.968
	C39.52,23.69,39.087,23.257,39.087,22.723z M42.349,48.682c-1,0-1.812-0.811-1.812-1.811c0-0.998,0.812-1.813,1.812-1.813
	c0.998,0,1.812,0.813,1.812,1.813S43.347,48.682,42.349,48.682z M43.901,23.69c-0.534,0-0.968-0.434-0.968-0.968
	c0-0.533,0.434-0.968,0.968-0.968c0.533,0,0.967,0.434,0.967,0.968S44.433,23.69,43.901,23.69z M49.55,48.682
	c-1,0-1.812-0.811-1.812-1.811c0-0.998,0.812-1.813,1.812-1.813c0.998,0,1.812,0.813,1.812,1.813S50.548,48.682,49.55,48.682z
	 M49.55,5.53c-1,0-1.812-0.813-1.812-1.813c0-0.998,0.812-1.813,1.812-1.813c0.998,0,1.812,0.813,1.812,1.813
	S50.548,5.53,49.55,5.53z M56.75,48.682c-1,0-1.812-0.811-1.812-1.811c0-0.998,0.812-1.813,1.812-1.813
	c0.998,0,1.812,0.813,1.812,1.813S57.748,48.682,56.75,48.682z M56.75,5.53c-1,0-1.812-0.813-1.812-1.813
	c0-0.998,0.812-1.813,1.812-1.813c0.998,0,1.812,0.813,1.812,1.813S57.748,5.53,56.75,5.53z M63.95,48.682
	c-1,0-1.812-0.811-1.812-1.811c0-0.998,0.812-1.813,1.812-1.813c0.998,0,1.812,0.813,1.812,1.813S64.948,48.682,63.95,48.682z
	 M63.95,5.53c-1,0-1.812-0.813-1.812-1.813c0-0.998,0.812-1.813,1.812-1.813c0.998,0,1.812,0.813,1.812,1.813
	S64.948,5.53,63.95,5.53z M71.15,48.682c-1,0-1.812-0.811-1.812-1.811c0-0.998,0.812-1.813,1.812-1.813
	c0.998,0,1.812,0.813,1.812,1.813S72.148,48.682,71.15,48.682z M71.15,5.53c-1,0-1.812-0.813-1.812-1.813
	c0-0.998,0.812-1.813,1.812-1.813c0.998,0,1.812,0.813,1.812,1.813S72.148,5.53,71.15,5.53z M78.352,48.682
	c-1,0-1.813-0.811-1.813-1.811c0-0.998,0.813-1.813,1.813-1.813c0.998,0,1.811,0.813,1.811,1.813S79.35,48.682,78.352,48.682z
	 M78.352,5.53c-1,0-1.813-0.813-1.813-1.813c0-0.998,0.813-1.813,1.813-1.813c0.998,0,1.811,0.813,1.811,1.813
	S79.35,5.53,78.352,5.53z M85.551,48.682c-1,0-1.811-0.811-1.811-1.811c0-0.998,0.811-1.813,1.811-1.813
	c0.998,0,1.813,0.813,1.813,1.813S86.549,48.682,85.551,48.682z M85.551,5.53c-1,0-1.811-0.813-1.811-1.813
	c0-0.998,0.811-1.813,1.811-1.813c0.998,0,1.813,0.813,1.813,1.813S86.549,5.53,85.551,5.53z M92.752,48.682
	c-1,0-1.813-0.811-1.813-1.811c0-0.998,0.813-1.813,1.813-1.813c0.998,0,1.811,0.813,1.811,1.813S93.75,48.682,92.752,48.682z
	 M92.752,5.53c-1,0-1.813-0.813-1.813-1.813c0-0.998,0.813-1.813,1.813-1.813c0.998,0,1.811,0.813,1.811,1.813
	S93.75,5.53,92.752,5.53z M99.951,48.682c-1,0-1.811-0.811-1.811-1.811c0-0.998,0.811-1.813,1.811-1.813
	c0.998,0,1.813,0.813,1.813,1.813S100.949,48.682,99.951,48.682z M99.951,41.53c-1,0-1.811-0.811-1.811-1.811
	c0-0.998,0.811-1.813,1.811-1.813c0.998,0,1.813,0.813,1.813,1.813S100.949,41.53,99.951,41.53z M99.951,34.331
	c-1,0-1.811-0.811-1.811-1.811c0-0.998,0.811-1.813,1.811-1.813c0.998,0,1.813,0.813,1.813,1.813S100.949,34.331,99.951,34.331z
	 M99.951,27.129c-1,0-1.811-0.811-1.811-1.81c0-0.998,0.811-1.813,1.811-1.813c0.998,0,1.813,0.813,1.813,1.813
	C101.764,26.319,100.949,27.129,99.951,27.129z M99.951,19.93c-1,0-1.811-0.811-1.811-1.811c0-0.998,0.811-1.813,1.811-1.813
	c0.998,0,1.813,0.813,1.813,1.813S100.949,19.93,99.951,19.93z M99.951,12.729c-1,0-1.811-0.811-1.811-1.811
	c0-0.998,0.811-1.813,1.811-1.813c0.998,0,1.813,0.813,1.813,1.813S100.949,12.729,99.951,12.729z M99.951,5.53
	c-1,0-1.811-0.813-1.811-1.813c0-0.998,0.811-1.813,1.811-1.813c0.998,0,1.813,0.813,1.813,1.813S100.949,5.53,99.951,5.53z"/>
<g>
	<g>
		<g>
			<path fill="#9A916C" d="M6.348,1.167c-1.405,0-2.554,1.146-2.554,2.555c0,1.406,1.146,2.555,2.554,2.555
				c1.408,0,2.554-1.146,2.554-2.555C8.901,2.313,7.757,1.167,6.348,1.167z M6.348,5.53c-1,0-1.812-0.813-1.812-1.813
				c0-0.998,0.812-1.813,1.812-1.813c0.998,0,1.812,0.813,1.812,1.813S7.346,5.53,6.348,5.53z"/>
		</g>
		<g>
			<path fill="#9A916C" d="M13.549,1.167c-1.405,0-2.554,1.146-2.554,2.555c0,1.406,1.146,2.555,2.554,2.555
				c1.408,0,2.554-1.146,2.554-2.555C16.101,2.313,14.957,1.167,13.549,1.167z M13.549,5.53c-1,0-1.812-0.813-1.812-1.813
				c0-0.998,0.812-1.813,1.812-1.813c0.998,0,1.812,0.813,1.812,1.813S14.547,5.53,13.549,5.53z"/>
		</g>
		<g>
			<path fill="#9A916C" d="M20.749,1.167c-1.405,0-2.554,1.146-2.554,2.555c0,1.406,1.146,2.555,2.554,2.555
				c1.408,0,2.554-1.146,2.554-2.555C23.302,2.313,22.157,1.167,20.749,1.167z M20.749,5.53c-1,0-1.812-0.813-1.812-1.813
				c0-0.998,0.812-1.813,1.812-1.813c0.998,0,1.812,0.813,1.812,1.813S21.747,5.53,20.749,5.53z"/>
		</g>
		<g>
			<path fill="#9A916C" d="M27.949,1.167c-1.405,0-2.554,1.146-2.554,2.555c0,1.406,1.146,2.555,2.554,2.555
				c1.408,0,2.554-1.146,2.554-2.555C30.502,2.313,29.357,1.167,27.949,1.167z M27.949,5.53c-1,0-1.812-0.813-1.812-1.813
				c0-0.998,0.812-1.813,1.812-1.813c0.998,0,1.812,0.813,1.812,1.813S28.947,5.53,27.949,5.53z"/>
		</g>
		<g>
			<path fill="#9A916C" d="M35.149,1.167c-1.405,0-2.554,1.146-2.554,2.555c0,1.406,1.146,2.555,2.554,2.555
				c1.408,0,2.554-1.146,2.554-2.555C37.702,2.313,36.557,1.167,35.149,1.167z M35.149,5.53c-1,0-1.812-0.813-1.812-1.813
				c0-0.998,0.812-1.813,1.812-1.813c0.998,0,1.812,0.813,1.812,1.813S36.147,5.53,35.149,5.53z"/>
		</g>
		<g>
			<path fill="#9A916C" d="M42.349,1.167c-1.405,0-2.554,1.146-2.554,2.555c0,1.406,1.146,2.555,2.554,2.555
				c1.408,0,2.554-1.146,2.554-2.555C44.902,2.313,43.758,1.167,42.349,1.167z M42.349,5.53c-1,0-1.812-0.813-1.812-1.813
				c0-0.998,0.812-1.813,1.812-1.813c0.998,0,1.812,0.813,1.812,1.813S43.347,5.53,42.349,5.53z"/>
		</g>
		<g>
			<path fill="#9A916C" d="M49.55,1.167c-1.405,0-2.554,1.146-2.554,2.555c0,1.406,1.146,2.555,2.554,2.555
				c1.408,0,2.554-1.146,2.554-2.555C52.102,2.313,50.958,1.167,49.55,1.167z M49.55,5.53c-1,0-1.812-0.813-1.812-1.813
				c0-0.998,0.812-1.813,1.812-1.813c0.998,0,1.812,0.813,1.812,1.813S50.548,5.53,49.55,5.53z"/>
		</g>
		<g>
			<path fill="#9A916C" d="M56.75,1.167c-1.405,0-2.554,1.146-2.554,2.555c0,1.406,1.146,2.555,2.554,2.555
				c1.408,0,2.554-1.146,2.554-2.555C59.302,2.313,58.158,1.167,56.75,1.167z M56.75,5.53c-1,0-1.812-0.813-1.812-1.813
				c0-0.998,0.812-1.813,1.812-1.813c0.998,0,1.812,0.813,1.812,1.813S57.748,5.53,56.75,5.53z"/>
		</g>
		<g>
			<path fill="#9A916C" d="M63.95,1.167c-1.405,0-2.554,1.146-2.554,2.555c0,1.406,1.146,2.555,2.554,2.555
				c1.408,0,2.554-1.146,2.554-2.555C66.503,2.313,65.358,1.167,63.95,1.167z M63.95,5.53c-1,0-1.812-0.813-1.812-1.813
				c0-0.998,0.812-1.813,1.812-1.813c0.998,0,1.812,0.813,1.812,1.813S64.948,5.53,63.95,5.53z"/>
		</g>
		<g>
			<path fill="#9A916C" d="M71.15,1.167c-1.405,0-2.554,1.146-2.554,2.555c0,1.406,1.146,2.555,2.554,2.555
				c1.408,0,2.554-1.146,2.554-2.555C73.703,2.313,72.558,1.167,71.15,1.167z M71.15,5.53c-1,0-1.812-0.813-1.812-1.813
				c0-0.998,0.812-1.813,1.812-1.813c0.998,0,1.812,0.813,1.812,1.813S72.148,5.53,71.15,5.53z"/>
		</g>
		<g>
			<path fill="#9A916C" d="M78.352,1.167c-1.406,0-2.555,1.146-2.555,2.555c0,1.406,1.146,2.555,2.555,2.555
				s2.553-1.146,2.553-2.555S79.76,1.167,78.352,1.167z M78.352,5.53c-1,0-1.813-0.813-1.813-1.813c0-0.998,0.813-1.813,1.813-1.813
				c0.998,0,1.811,0.813,1.811,1.813S79.35,5.53,78.352,5.53z"/>
		</g>
		<g>
			<path fill="#9A916C" d="M85.551,1.167c-1.404,0-2.553,1.146-2.553,2.555c0,1.406,1.146,2.555,2.553,2.555
				c1.408,0,2.555-1.146,2.555-2.555C88.104,2.313,86.959,1.167,85.551,1.167z M85.551,5.53c-1,0-1.811-0.813-1.811-1.813
				c0-0.998,0.811-1.813,1.811-1.813c0.998,0,1.813,0.813,1.813,1.813S86.549,5.53,85.551,5.53z"/>
		</g>
		<g>
			<path fill="#9A916C" d="M92.752,1.167c-1.406,0-2.555,1.146-2.555,2.555c0,1.406,1.146,2.555,2.555,2.555
				s2.553-1.146,2.553-2.555S94.16,1.167,92.752,1.167z M92.752,5.53c-1,0-1.813-0.813-1.813-1.813c0-0.998,0.813-1.813,1.813-1.813
				c0.998,0,1.811,0.813,1.811,1.813S93.75,5.53,92.752,5.53z"/>
		</g>
		<g>
			<path fill="#9A916C" d="M99.951,1.167c-1.404,0-2.553,1.146-2.553,2.555c0,1.406,1.146,2.555,2.553,2.555
				c1.408,0,2.555-1.146,2.555-2.555C102.504,2.313,101.36,1.167,99.951,1.167z M99.951,5.53c-1,0-1.811-0.813-1.811-1.813
				c0-0.998,0.811-1.813,1.811-1.813c0.998,0,1.813,0.813,1.813,1.813S100.949,5.53,99.951,5.53z"/>
		</g>
		<g>
			<path fill="#9A916C" d="M13.549,9.395c-1.405,0-2.554,1.146-2.554,2.555c0,1.406,1.146,2.555,2.554,2.555
				c1.408,0,2.554-1.146,2.554-2.555C16.101,10.541,14.957,9.395,13.549,9.395z M13.549,13.758c-1,0-1.812-0.813-1.812-1.813
				c0-0.998,0.812-1.813,1.812-1.813c0.998,0,1.812,0.813,1.812,1.813S14.547,13.758,13.549,13.758z"/>
		</g>
		<g>
			<path fill="#9A916C" d="M27.949,9.395c-1.405,0-2.554,1.146-2.554,2.555c0,1.406,1.146,2.555,2.554,2.555
				c1.408,0,2.554-1.146,2.554-2.555C30.502,10.541,29.357,9.395,27.949,9.395z M27.949,13.758c-1,0-1.812-0.813-1.812-1.813
				c0-0.998,0.812-1.813,1.812-1.813c0.998,0,1.812,0.813,1.812,1.813S28.947,13.758,27.949,13.758z"/>
		</g>
		<g>
			<path fill="#9A916C" d="M35.149,9.395c-1.405,0-2.554,1.146-2.554,2.555c0,1.406,1.146,2.555,2.554,2.555
				c1.408,0,2.554-1.146,2.554-2.555C37.702,10.541,36.557,9.395,35.149,9.395z M35.149,13.758c-1,0-1.812-0.813-1.812-1.813
				c0-0.998,0.812-1.813,1.812-1.813c0.998,0,1.812,0.813,1.812,1.813S36.147,13.758,35.149,13.758z"/>
		</g>
		<g>
			<path fill="#9A916C" d="M42.349,9.395c-1.405,0-2.554,1.146-2.554,2.555c0,1.406,1.146,2.555,2.554,2.555
				c1.408,0,2.554-1.146,2.554-2.555C44.902,10.541,43.758,9.395,42.349,9.395z M42.349,13.758c-1,0-1.812-0.813-1.812-1.813
				c0-0.998,0.812-1.813,1.812-1.813c0.998,0,1.812,0.813,1.812,1.813S43.347,13.758,42.349,13.758z"/>
		</g>
		<g>
			<path fill="#9A916C" d="M40.054,21.36c-0.75,0-1.364,0.612-1.364,1.364c0,0.751,0.612,1.364,1.364,1.364
				c0.752,0,1.364-0.612,1.364-1.364C41.418,21.973,40.807,21.36,40.054,21.36z M40.054,23.69c-0.534,0-0.967-0.434-0.967-0.968
				c0-0.533,0.433-0.968,0.967-0.968c0.533,0,0.968,0.434,0.968,0.968S40.588,23.69,40.054,23.69z"/>
		</g>
		<g>
			<path fill="#9A916C" d="M43.901,21.36c-0.751,0-1.364,0.612-1.364,1.364c0,0.751,0.612,1.364,1.364,1.364
				s1.364-0.612,1.364-1.364C45.264,21.973,44.653,21.36,43.901,21.36z M43.901,23.69c-0.534,0-0.968-0.434-0.968-0.968
				c0-0.533,0.434-0.968,0.968-0.968c0.533,0,0.967,0.434,0.967,0.968S44.433,23.69,43.901,23.69z"/>
		</g>
	</g>
	<g>
		<g>
			<path fill="#9A916C" d="M99.951,37.168c-1.404,0-2.553,1.146-2.553,2.555c0,1.406,1.146,2.555,2.553,2.555
				c1.408,0,2.555-1.146,2.555-2.555C102.504,38.313,101.36,37.168,99.951,37.168z M99.951,41.53c-1,0-1.811-0.811-1.811-1.811
				c0-0.998,0.811-1.813,1.811-1.813c0.998,0,1.813,0.813,1.813,1.813S100.949,41.53,99.951,41.53z"/>
		</g>
		<g>
			<path fill="#9A916C" d="M99.951,29.969c-1.404,0-2.553,1.146-2.553,2.555c0,1.406,1.146,2.555,2.553,2.555
				c1.408,0,2.555-1.146,2.555-2.555C102.504,31.114,101.36,29.969,99.951,29.969z M99.951,34.331c-1,0-1.811-0.811-1.811-1.811
				c0-0.998,0.811-1.813,1.811-1.813c0.998,0,1.813,0.813,1.813,1.813S100.949,34.331,99.951,34.331z"/>
		</g>
		<g>
			<path fill="#9A916C" d="M99.951,22.769c-1.404,0-2.553,1.146-2.553,2.555c0,1.406,1.146,2.554,2.553,2.554
				c1.408,0,2.555-1.146,2.555-2.554C102.504,23.913,101.36,22.769,99.951,22.769z M99.951,27.129c-1,0-1.811-0.811-1.811-1.81
				c0-0.998,0.811-1.813,1.811-1.813c0.998,0,1.813,0.813,1.813,1.813C101.764,26.319,100.949,27.129,99.951,27.129z"/>
		</g>
		<g>
			<path fill="#9A916C" d="M99.951,15.568c-1.404,0-2.553,1.146-2.553,2.555c0,1.406,1.146,2.555,2.553,2.555
				c1.408,0,2.555-1.146,2.555-2.555C102.504,16.713,101.36,15.568,99.951,15.568z M99.951,19.93c-1,0-1.811-0.811-1.811-1.811
				c0-0.998,0.811-1.813,1.811-1.813c0.998,0,1.813,0.813,1.813,1.813S100.949,19.93,99.951,19.93z"/>
		</g>
		<g>
			<path fill="#9A916C" d="M99.951,8.368c-1.404,0-2.553,1.146-2.553,2.555c0,1.406,1.146,2.555,2.553,2.555
				c1.408,0,2.555-1.146,2.555-2.555C102.504,9.513,101.36,8.368,99.951,8.368z M99.951,12.729c-1,0-1.811-0.811-1.811-1.811
				c0-0.998,0.811-1.813,1.811-1.813c0.998,0,1.813,0.813,1.813,1.813S100.949,12.729,99.951,12.729z"/>
		</g>
	</g>
	<g>
		<g>
			<path fill="#9A916C" d="M6.348,44.321c-1.405,0-2.554,1.146-2.554,2.555c0,1.406,1.146,2.555,2.554,2.555
				c1.408,0,2.554-1.146,2.554-2.555C8.901,45.465,7.757,44.321,6.348,44.321z M6.348,48.682c-1,0-1.812-0.811-1.812-1.811
				c0-0.998,0.812-1.813,1.812-1.813c0.998,0,1.812,0.813,1.812,1.813S7.346,48.682,6.348,48.682z"/>
		</g>
		<g>
			<path fill="#9A916C" d="M13.549,44.321c-1.405,0-2.554,1.146-2.554,2.555c0,1.406,1.146,2.555,2.554,2.555
				c1.408,0,2.554-1.146,2.554-2.555C16.101,45.465,14.957,44.321,13.549,44.321z M13.549,48.682c-1,0-1.812-0.811-1.812-1.811
				c0-0.998,0.812-1.813,1.812-1.813c0.998,0,1.812,0.813,1.812,1.813S14.547,48.682,13.549,48.682z"/>
		</g>
		<g>
			<path fill="#9A916C" d="M20.749,44.321c-1.405,0-2.554,1.146-2.554,2.555c0,1.406,1.146,2.555,2.554,2.555
				c1.408,0,2.554-1.146,2.554-2.555C23.302,45.465,22.157,44.321,20.749,44.321z M20.749,48.682c-1,0-1.812-0.811-1.812-1.811
				c0-0.998,0.812-1.813,1.812-1.813c0.998,0,1.812,0.813,1.812,1.813S21.747,48.682,20.749,48.682z"/>
		</g>
		<g>
			<path fill="#9A916C" d="M27.949,44.321c-1.405,0-2.554,1.146-2.554,2.555c0,1.406,1.146,2.555,2.554,2.555
				c1.408,0,2.554-1.146,2.554-2.555C30.502,45.465,29.357,44.321,27.949,44.321z M27.949,48.682c-1,0-1.812-0.811-1.812-1.811
				c0-0.998,0.812-1.813,1.812-1.813c0.998,0,1.812,0.813,1.812,1.813S28.947,48.682,27.949,48.682z"/>
		</g>
		<g>
			<path fill="#9A916C" d="M35.149,44.321c-1.405,0-2.554,1.146-2.554,2.555c0,1.406,1.146,2.555,2.554,2.555
				c1.408,0,2.554-1.146,2.554-2.555C37.702,45.465,36.557,44.321,35.149,44.321z M35.149,48.682c-1,0-1.812-0.811-1.812-1.811
				c0-0.998,0.812-1.813,1.812-1.813c0.998,0,1.812,0.813,1.812,1.813S36.147,48.682,35.149,48.682z"/>
		</g>
		<g>
			<path fill="#9A916C" d="M42.349,44.321c-1.405,0-2.554,1.146-2.554,2.555c0,1.406,1.146,2.555,2.554,2.555
				c1.408,0,2.554-1.146,2.554-2.555C44.902,45.465,43.758,44.321,42.349,44.321z M42.349,48.682c-1,0-1.812-0.811-1.812-1.811
				c0-0.998,0.812-1.813,1.812-1.813c0.998,0,1.812,0.813,1.812,1.813S43.347,48.682,42.349,48.682z"/>
		</g>
		<g>
			<path fill="#9A916C" d="M49.55,44.321c-1.405,0-2.554,1.146-2.554,2.555c0,1.406,1.146,2.555,2.554,2.555
				c1.408,0,2.554-1.146,2.554-2.555C52.102,45.465,50.958,44.321,49.55,44.321z M49.55,48.682c-1,0-1.812-0.811-1.812-1.811
				c0-0.998,0.812-1.813,1.812-1.813c0.998,0,1.812,0.813,1.812,1.813S50.548,48.682,49.55,48.682z"/>
		</g>
		<g>
			<path fill="#9A916C" d="M56.75,44.321c-1.405,0-2.554,1.146-2.554,2.555c0,1.406,1.146,2.555,2.554,2.555
				c1.408,0,2.554-1.146,2.554-2.555C59.302,45.465,58.158,44.321,56.75,44.321z M56.75,48.682c-1,0-1.812-0.811-1.812-1.811
				c0-0.998,0.812-1.813,1.812-1.813c0.998,0,1.812,0.813,1.812,1.813S57.748,48.682,56.75,48.682z"/>
		</g>
		<g>
			<path fill="#9A916C" d="M63.95,44.321c-1.405,0-2.554,1.146-2.554,2.555c0,1.406,1.146,2.555,2.554,2.555
				c1.408,0,2.554-1.146,2.554-2.555C66.503,45.465,65.358,44.321,63.95,44.321z M63.95,48.682c-1,0-1.812-0.811-1.812-1.811
				c0-0.998,0.812-1.813,1.812-1.813c0.998,0,1.812,0.813,1.812,1.813S64.948,48.682,63.95,48.682z"/>
		</g>
		<g>
			<path fill="#9A916C" d="M71.15,44.321c-1.405,0-2.554,1.146-2.554,2.555c0,1.406,1.146,2.555,2.554,2.555
				c1.408,0,2.554-1.146,2.554-2.555C73.703,45.465,72.558,44.321,71.15,44.321z M71.15,48.682c-1,0-1.812-0.811-1.812-1.811
				c0-0.998,0.812-1.813,1.812-1.813c0.998,0,1.812,0.813,1.812,1.813S72.148,48.682,71.15,48.682z"/>
		</g>
		<g>
			<path fill="#9A916C" d="M78.352,44.321c-1.406,0-2.555,1.146-2.555,2.555c0,1.406,1.146,2.555,2.555,2.555
				s2.553-1.146,2.553-2.555C80.905,45.465,79.76,44.321,78.352,44.321z M78.352,48.682c-1,0-1.813-0.811-1.813-1.811
				c0-0.998,0.813-1.813,1.813-1.813c0.998,0,1.811,0.813,1.811,1.813S79.35,48.682,78.352,48.682z"/>
		</g>
		<g>
			<path fill="#9A916C" d="M85.551,44.321c-1.404,0-2.553,1.146-2.553,2.555c0,1.406,1.146,2.555,2.553,2.555
				c1.408,0,2.555-1.146,2.555-2.555C88.104,45.465,86.959,44.321,85.551,44.321z M85.551,48.682c-1,0-1.811-0.811-1.811-1.811
				c0-0.998,0.811-1.813,1.811-1.813c0.998,0,1.813,0.813,1.813,1.813S86.549,48.682,85.551,48.682z"/>
		</g>
		<g>
			<path fill="#9A916C" d="M92.752,44.321c-1.406,0-2.555,1.146-2.555,2.555c0,1.406,1.146,2.555,2.555,2.555
				s2.553-1.146,2.553-2.555C95.305,45.465,94.16,44.321,92.752,44.321z M92.752,48.682c-1,0-1.813-0.811-1.813-1.811
				c0-0.998,0.813-1.813,1.813-1.813c0.998,0,1.811,0.813,1.811,1.813S93.75,48.682,92.752,48.682z"/>
		</g>
		<g>
			<path fill="#9A916C" d="M99.951,44.321c-1.404,0-2.553,1.146-2.553,2.555c0,1.406,1.146,2.555,2.553,2.555
				c1.408,0,2.555-1.146,2.555-2.555C102.504,45.465,101.36,44.321,99.951,44.321z M99.951,48.682c-1,0-1.811-0.811-1.811-1.811
				c0-0.998,0.811-1.813,1.811-1.813c0.998,0,1.813,0.813,1.813,1.813S100.949,48.682,99.951,48.682z"/>
		</g>
	</g>
</g>
<g>
	<polygon fill="#B3B3B3" points="0.035,34.735 0.035,15.892 17.16,15.892 17.16,34.737 	"/>
	<rect x="7.504" y="34.936" fill="#666666" width="3.041" height="1.83"/>
	<rect x="7.504" y="13.832" fill="#666666" width="3.041" height="1.829"/>
	<rect x="17.03" y="15.892" fill="#CCCCCC" width="0.13" height="18.845"/>
	<rect x="0.307" y="20.152" fill="#333333" width="16.853" height="10.292"/>
	<rect x="0" y="14.658" fill="#B3B3B3" width="0.576" height="1.003"/>
	<rect x="0" y="15.021" fill="#CCCCCC" width="0.576" height="0.642"/>
	<rect x="0" y="34.934" fill="#B3B3B3" width="0.576" height="1.002"/>
	<rect x="0" y="34.934" fill="#CCCCCC" width="0.576" height="0.643"/>
	<path fill="#CCCCCC" d="M16.593,15.661l0.567,0.229v2.534c0,0-0.113-2.302-0.283-2.384s-0.284,0.11-0.284,0.11V15.661z"/>
	<path fill="#CCCCCC" d="M16.593,34.936l0.566-0.23v-2.533c0,0-0.113,2.301-0.283,2.383s-0.283-0.109-0.283-0.109V34.936z"/>
	<path fill="#E6E6E6" d="M16.593,31.547h-1.066v-1.605h1.634v-0.461h-0.566v-8.364h0.566v-0.525h-1.635v-1.606h1.067v-3.324H0.153
		v19.273h16.44V31.547z M3.303,20.592H2.489v-1.593h0.881c0.277-0.426,0.76-0.708,1.307-0.708c0.598,0,1.105,0.219,1.369,0.708l0,0
		h4.48v1.592H6.043c-0.264,0.488-0.773,0.825-1.371,0.825C4.076,21.416,3.567,21.08,3.303,20.592z M3.303,31.479H2.489v-1.592h0.881
		c0.277-0.426,0.76-0.707,1.307-0.707c0.598,0,1.105,0.217,1.369,0.707l0,0h4.48v1.592H6.043c-0.264,0.49-0.773,0.826-1.371,0.826
		C4.076,32.305,3.567,31.971,3.303,31.479z"/>
	<polygon fill="#F2F2F2" points="0.151,16.066 0.151,15.661 16.593,15.661 16.593,17.191 	"/>
	<polygon fill="#999999" points="0.151,34.936 11.129,34.368 16.593,33.799 16.593,34.936 	"/>
	<rect x="10.395" y="18.999" fill="#CCCCCC" width="0.131" height="1.592"/>
	<rect x="10.395" y="29.889" fill="#CCCCCC" width="0.131" height="1.592"/>
	<rect x="0.354" y="16.605" fill="#B3B3B3" width="0.66" height="17.387"/>
	<rect x="0.151" y="16.605" fill="#CCCCCC" width="0.313" height="17.387"/>
</g>
<g>
	<rect x="88.906" y="20.143" fill="#8C8B8B" width="7.07" height="10.313"/>
	<ellipse fill="#404040" cx="92.441" cy="25.299" rx="2.15" ry="3.041"/>
</g>
<rect x="51.449" y="11.149" width="28.347" height="28.347"/>
<rect x="90.198" y="36.834" width="5.778" height="5.777"/>
<rect x="17.86" y="9.311" width="5.778" height="5.778"/>
<rect x="17.86" y="30.007" width="11.14" height="11.139"/>
<rect x="84.005" y="37.168" width="2.101" height="4.289"/>
<rect x="78.791" y="40.408" width="4.289" height="2.101"/>
<rect x="88.887" y="11.149" width="4.289" height="2.101"/>
<rect x="48.692" y="7.416" width="2.101" height="3.733"/>
<rect x="45.946" y="7.416" width="2.101" height="3.733"/>
<rect x="30.05" y="38.542" width="2.101" height="3.732"/>
<g>
	<g>
		<rect x="27.949" y="17.146" width="2.101" height="3.733"/>
	</g>
	<g>
		<rect x="18.702" y="21.128" width="2.101" height="6.221"/>
	</g>
	<g>
		<rect x="31.925" y="17.146" width="2.101" height="3.733"/>
	</g>
	<g>
		<rect x="35.901" y="17.146" width="2.101" height="4.703"/>
	</g>
	<g>
		<rect x="39.877" y="17.146" width="2.101" height="3.733"/>
	</g>
	<g>
		<rect x="43.853" y="17.146" width="2.101" height="3.733"/>
	</g>
</g>
<rect x="88.887" y="8.368" width="5.704" height="2.101"/>
<rect x="82.203" y="8.368" width="5.704" height="2.101"/>
<rect x="18.702" y="16.141" width="4.093" height="2.101"/>
<rect x="34.379" y="33.554" fill="#B3B3B3" width="11.586" height="6.088"/>
<rect x="22.139" y="21.198" width="4.093" height="2.101"/>
<rect x="22.139" y="24.339" width="4.093" height="2.101"/>
<rect x="5.742" y="38.672" width="4.093" height="2.102"/>
<rect x="41.853" y="30.007" width="4.093" height="2.102"/>
</svg>
