<?xml version="1.0" encoding="utf-8"?>
<!-- Generator: Adobe Illustrator 15.1.0, SVG Export Plug-In . SVG Version: 6.00 Build 0)  -->
<!DOCTYPE svg PUBLIC "-//W3C//DTD SVG 1.1//EN" "http://www.w3.org/Graphics/SVG/1.1/DTD/svg11.dtd">
<svg version="1.1" id="Ebene_1" xmlns:svg="http://www.w3.org/2000/svg"
	 xmlns="http://www.w3.org/2000/svg" xmlns:xlink="http://www.w3.org/1999/xlink" x="0px" y="0px" width="40.521px"
	 height="38.143px" viewBox="0 0 40.521 38.143" enable-background="new 0 0 40.521 38.143" xml:space="preserve">
<g>
	<g>
		<g>
			<path fill="#4D4D4D" d="M0,18.247c0,10.146,8.226,18.371,18.37,18.371c7.736,0,14.351-4.783,17.06-11.555v1.526
				c-2.708,6.77-9.323,11.553-17.06,11.553C8.225,38.143,0,29.918,0,19.772V18.247z"/>
		</g>
	</g>
	<g>
		<path fill="#666666" d="M35.472,11.665C32.793,4.837,26.149,0,18.37,0C8.225,0,0,8.225,0,18.37
			c0,10.146,8.226,18.371,18.37,18.371c7.736,0,14.351-4.784,17.06-11.555v0.058h5.092V11.665H35.472z"/>
	</g>
	<g>
		<path fill="#CCCCCC" d="M0,18.37C0,8.225,8.212,0,18.37,0C7.123,0.615,0.262,9.148,0,18.37z"/>
	</g>
	<g transform="translate(100,171.639)">
		<g>
			<circle fill="#1A1A1A" cx="-81.698" cy="-153.186" r="17.761"/>
		</g>
		<g>
			<path fill="#4D4D4D" d="M-64.724-152.568c0,9.375-7.601,16.977-16.976,16.977s-16.976-7.602-16.976-16.977"/>
		</g>
		<g>
			<circle fill="#B3B3B3" cx="-81.698" cy="-153.185" r="16.975"/>
		</g>
		<g>
			<path fill="#FFFFFF" d="M-81.408-147.716v3.23h3.115v0.528h-3.115v3.259h-0.564v-3.259h-3.116v-0.528h3.115v-3.23H-81.408z"/>
		</g>
	</g>
	<g>
		<path fill="#F2F2F2" d="M12.202,2.587c0,0,2.065-0.688,2.795-0.815c1.06-0.454,15.227-2.837,19.978,12.115
			c0.17,0.534,0.119,1.288,0.119,1.288l0.486-0.125c0,0-0.396-1.545-0.437-1.659C33.467,8.508,28.419-0.503,14.929,1.286
			L12.202,2.587z"/>
	</g>
	<g>
		<g>
			<path fill="#F2F2F2" d="M12.22,34.315c0,0,2.064,0.688,2.795,0.816c1.059,0.453,15.117,2.814,19.869-12.137
				c0.17-0.535,0.226-1.268,0.226-1.268l0.488,0.125c0,0-0.243,1.109-0.438,1.659c-1.717,4.868-6.724,13.894-20.212,12.104
				L12.22,34.315z"/>
		</g>
		<g>
			<path fill="#CCCCCC" d="M35.276,15.387c-0.06,0-0.112-0.042-0.123-0.103c-0.004-0.022-0.418-2.272-1.021-3.566
				C28.522-0.313,16.552,1.241,15.046,1.886c-0.74,0.133-2.784,0.813-2.805,0.819c-0.064,0.022-0.136-0.013-0.158-0.079
				c-0.022-0.065,0.014-0.136,0.079-0.158c0.085-0.028,2.083-0.692,2.813-0.82C16.481,1,28.667-0.594,34.358,11.613
				c0.617,1.324,1.023,3.534,1.041,3.627c0.013,0.068-0.033,0.133-0.101,0.146C35.291,15.386,35.283,15.387,35.276,15.387z"/>
		</g>
		<g>
			<path fill="#B3B3B3" d="M18.35,35.975c-1.075,0-2.213-0.074-3.419-0.234c-0.013-0.002-0.025-0.006-0.037-0.011l-2.729-1.303
				c-0.063-0.03-0.089-0.104-0.059-0.167c0.029-0.063,0.105-0.088,0.167-0.06l2.711,1.295c13.146,1.736,18.211-6.787,20.058-12.025
				c0.19-0.535,0.432-1.632,0.435-1.643c0.015-0.067,0.082-0.108,0.148-0.096c0.067,0.015,0.11,0.081,0.096,0.148
				c-0.01,0.046-0.247,1.124-0.442,1.674C33.574,28.385,29.172,35.975,18.35,35.975z"/>
		</g>
		<g>
			<rect x="34.909" y="14.935" fill="#F2F2F2" width="1.507" height="7.113"/>
		</g>
		<g>
			<rect x="35.429" y="11.665" fill="#666666" width="5.092" height="13.579"/>
		</g>
	</g>
	<g>
		<rect x="35.429" y="25.244" fill="#333333" width="5.092" height="1.347"/>
	</g>
	<g opacity="0.41" enable-background="new    ">
		<path fill="#E6E6E6" d="M34.023,18.954c-0.276,0-0.5-0.224-0.5-0.5c0-8.394-6.829-15.223-15.223-15.223
			c-8.393,0-15.222,6.829-15.222,15.223c0,0.276-0.224,0.5-0.5,0.5s-0.5-0.224-0.5-0.5c0-8.945,7.277-16.223,16.222-16.223
			c8.945,0,16.223,7.277,16.223,16.223C34.523,18.731,34.3,18.954,34.023,18.954z"/>
	</g>
	<g opacity="0.41" enable-background="new    ">
		<path fill="#999999" d="M18.301,34.676c-8.945,0-16.222-7.277-16.222-16.222c0-0.276,0.224-0.5,0.5-0.5s0.5,0.224,0.5,0.5
			c0,8.394,6.829,15.222,15.222,15.222c8.394,0,15.223-6.828,15.223-15.222c0-0.276,0.224-0.5,0.5-0.5s0.5,0.224,0.5,0.5
			C34.523,27.399,27.246,34.676,18.301,34.676z"/>
	</g>
	<g>
		<rect x="40.009" y="11.665" fill="#4D4D4D" width="0.514" height="13.579"/>
	</g>
	<g>
		<rect x="40.009" y="25.244" fill="#1A1A1A" width="0.514" height="1.347"/>
	</g>
</g>
</svg>
