<?xml version="1.0" encoding="utf-8"?>
<!-- Generator: Adobe Illustrator 15.1.0, SVG Export Plug-In . SVG Version: 6.00 Build 0)  -->
<!DOCTYPE svg PUBLIC "-//W3C//DTD SVG 1.1//EN" "http://www.w3.org/Graphics/SVG/1.1/DTD/svg11.dtd">
<svg version="1.1" id="Ebene_1" xmlns:svg="http://www.w3.org/2000/svg"
	 xmlns="http://www.w3.org/2000/svg" xmlns:xlink="http://www.w3.org/1999/xlink" x="0px" y="0px" width="83.247px"
	 height="78.342px" viewBox="0 0 83.247 78.342" enable-background="new 0 0 83.247 78.342" xml:space="preserve">
<g>
	<g>
		<path fill="#666666" d="M72.875,23.953C67.372,9.927,53.719-0.011,37.74-0.011C16.896-0.011,0,16.887,0,37.729
			C0,58.573,16.896,75.47,37.74,75.47c15.893,0,29.482-9.828,35.045-23.736v0.117h10.461V23.953H72.875z"/>
	</g>
	<g>
		<g>
			<g>
				<path fill="#4D4D4D" d="M0,37.476c0,20.843,16.896,37.742,37.74,37.742c15.893,0,29.482-9.828,35.045-23.734v3.134
					C67.223,68.522,53.633,78.353,37.74,78.353C16.896,78.353,0,61.456,0,40.61V37.476z"/>
			</g>
		</g>
		<g>
			<path fill="#CCCCCC" d="M0,37.73C0,16.888,16.868-0.01,37.741-0.01C14.633,1.252,0.537,18.783,0,37.73z"/>
		</g>
		<g transform="translate(100,171.639)">
			<g>
				<path fill="#1A1A1A" d="M-62.402-170.227c20.15,0,36.486,16.337,36.486,36.489c0,20.148-16.336,36.489-36.486,36.489
					c-20.154,0-36.49-16.341-36.49-36.489C-98.892-153.89-82.556-170.227-62.402-170.227z"/>
			</g>
			<g>
				<path fill="#4D4D4D" d="M-27.531-132.469c0,19.259-15.613,34.872-34.871,34.872c-19.261,0-34.874-15.613-34.874-34.872"/>
			</g>
			<g>
				<circle fill="#B3B3B3" cx="-62.402" cy="-133.738" r="34.873"/>
			</g>
			<g>
				<path fill="#FFFFFF" d="M-61.804-122.499v6.641h6.396v1.084h-6.396v6.693h-1.166v-6.693h-6.398v-1.084h6.398v-6.641H-61.804z"/>
			</g>
		</g>
		<g>
			<path fill="#F2F2F2" d="M25.066,5.307c0,0,4.245-1.412,5.745-1.679C32.985,2.696,62.086-2.2,71.851,28.52
				c0.349,1.097,0.244,2.646,0.244,2.646l0.999-0.259c0,0-0.816-3.174-0.896-3.409C68.754,17.466,58.381-1.045,30.67,2.632
				L25.066,5.307z"/>
		</g>
		<g>
			<g>
				<path fill="#F2F2F2" d="M25.104,70.487c0,0,4.245,1.408,5.744,1.678c2.175,0.934,31.059,5.785,40.82-24.936
					c0.349-1.099,0.463-2.603,0.463-2.603l1.002,0.261c0,0-0.502,2.278-0.898,3.405c-3.529,10-13.813,28.543-41.526,24.865
					L25.104,70.487z"/>
			</g>
			<g>
				<path fill="#CCCCCC" d="M72.47,31.466c-0.06,0-0.112-0.042-0.123-0.103c-0.009-0.046-0.858-4.678-2.107-7.357
					C63.986,10.592,54.08,5.677,46.87,3.916C38.917,1.973,32.085,3.218,30.86,3.743c-1.501,0.271-5.712,1.669-5.755,1.683
					c-0.066,0.023-0.136-0.014-0.158-0.079s0.014-0.136,0.079-0.158c0.174-0.058,4.271-1.418,5.763-1.684
					c1.215-0.524,8.129-1.789,16.14,0.168C54.192,5.447,64.17,10.396,70.466,23.9c1.263,2.708,2.118,7.371,2.127,7.418
					c0.013,0.068-0.033,0.133-0.101,0.146C72.485,31.465,72.477,31.466,72.47,31.466z"/>
			</g>
			<g>
				<path fill="#B3B3B3" d="M37.646,73.761c-2.236,0-4.554-0.159-6.954-0.478c-0.013-0.002-0.025-0.006-0.037-0.011l-5.604-2.674
					c-0.063-0.03-0.089-0.104-0.059-0.167s0.104-0.089,0.167-0.06l5.586,2.666c27.113,3.587,37.56-13.987,41.372-24.786
					c0.39-1.106,0.89-3.368,0.895-3.392c0.015-0.066,0.076-0.109,0.149-0.095c0.067,0.015,0.109,0.081,0.095,0.149
					c-0.005,0.022-0.508,2.299-0.902,3.42c-1.78,5.044-5.261,12.194-11.731,17.616C54.422,71.146,46.715,73.761,37.646,73.761z"/>
			</g>
			<g>
				<rect x="71.715" y="30.671" fill="#F2F2F2" width="3.095" height="14.612"/>
			</g>
			<g>
				<rect x="72.786" y="23.953" fill="#666666" width="10.461" height="27.897"/>
			</g>
		</g>
		<g>
			<rect x="72.786" y="51.853" fill="#333333" width="10.461" height="2.765"/>
		</g>
		<g opacity="0.41" enable-background="new    ">
			<path fill="#E6E6E6" d="M69.897,38.402c-0.276,0-0.5-0.224-0.5-0.5c0-17.535-14.265-31.8-31.799-31.8
				c-17.535,0-31.801,14.265-31.801,31.8c0,0.276-0.224,0.5-0.5,0.5s-0.5-0.224-0.5-0.5c0-18.086,14.714-32.8,32.801-32.8
				c18.085,0,32.799,14.714,32.799,32.8C70.397,38.178,70.173,38.402,69.897,38.402z"/>
		</g>
		<g opacity="0.41" enable-background="new    ">
			<path fill="#999999" d="M37.598,70.704c-18.087,0-32.801-14.715-32.801-32.802c0-0.276,0.224-0.5,0.5-0.5s0.5,0.224,0.5,0.5
				c0,17.536,14.266,31.802,31.801,31.802c17.534,0,31.799-14.267,31.799-31.802c0-0.276,0.224-0.5,0.5-0.5s0.5,0.224,0.5,0.5
				C70.397,55.989,55.683,70.704,37.598,70.704z"/>
		</g>
		<g>
			<rect x="82.194" y="23.953" fill="#4D4D4D" width="1.053" height="27.897"/>
		</g>
		<g>
			<rect x="82.194" y="51.853" fill="#1A1A1A" width="1.053" height="2.765"/>
		</g>
	</g>
</g>
</svg>
