<?xml version="1.0" encoding="utf-8"?>
<!-- Generator: Adobe Illustrator 15.1.0, SVG Export Plug-In . SVG Version: 6.00 Build 0)  -->
<!DOCTYPE svg PUBLIC "-//W3C//DTD SVG 1.1//EN" "http://www.w3.org/Graphics/SVG/1.1/DTD/svg11.dtd">
<svg version="1.1" id="Ebene_1" xmlns:svg="http://www.w3.org/2000/svg"
	 xmlns="http://www.w3.org/2000/svg" xmlns:xlink="http://www.w3.org/1999/xlink" x="0px" y="0px" width="62.645px"
	 height="47.426px" viewBox="0 0 62.645 47.426" enable-background="new 0 0 62.645 47.426" xml:space="preserve">
<g>
	<g>
		<polygon fill="#4D4D4D" points="51.434,11.003 51.434,5.713 37.07,2.267 25.576,2.267 11.211,5.713 11.211,11.003 0,9.272 
			0,38.356 11.211,36.623 11.211,41.914 25.576,45.362 37.07,45.362 51.434,41.914 51.434,36.623 62.645,38.356 62.645,9.272 		"/>
	</g>
	<g>
		<polygon fill="#333333" points="0,40.421 11.211,38.689 11.211,43.98 25.576,47.428 37.07,47.428 51.434,43.98 51.434,38.689 
			62.645,40.421 62.645,38.356 51.434,36.623 51.434,41.914 37.07,45.362 25.576,45.362 11.211,41.914 11.211,36.623 0,38.356 		"/>
	</g>
	<g opacity="0.3" enable-background="new    ">
		<polygon points="51.434,38.4 62.645,40.132 62.645,40.421 51.434,38.689 		"/>
	</g>
	<g opacity="0.3" enable-background="new    ">
		<polygon points="11.211,43.691 25.576,47.139 37.07,47.139 51.434,43.691 51.434,43.98 37.07,47.428 25.576,47.428 11.211,43.98 
					"/>
	</g>
	<g opacity="0.3" enable-background="new    ">
		<polygon points="0,40.132 11.211,38.4 11.211,38.689 0,40.421 		"/>
	</g>
	<g opacity="0.3" enable-background="new    ">
		<polygon points="51.434,36.623 62.645,38.356 62.645,38.645 51.434,36.912 		"/>
	</g>
	<g opacity="0.3" enable-background="new    ">
		<polygon points="11.211,41.914 25.576,45.362 37.07,45.362 51.434,41.914 51.434,42.203 37.07,45.651 25.576,45.651 
			11.211,42.203 		"/>
	</g>
	<g opacity="0.3" enable-background="new    ">
		<polygon points="0,38.356 11.211,36.623 11.211,36.912 0,38.645 		"/>
	</g>
	<g>
		<circle fill="#1A1A1A" cx="31.323" cy="23.813" r="17.438"/>
	</g>
	<g>
		<path fill="#E4312C" d="M31.323,36.586c-8.813,0-15.983-7.17-15.983-15.982h1c0,8.262,6.722,14.982,14.983,14.982
			s14.983-6.721,14.983-14.982h1C47.306,29.416,40.136,36.586,31.323,36.586z"/>
	</g>
	<g>
		<path fill="#AB2521" d="M31.323,37.466c-8.813,0-15.983-7.17-15.983-15.982h1c0,8.262,6.722,14.982,14.983,14.982
			s14.983-6.721,14.983-14.982h1C47.306,30.296,40.136,37.466,31.323,37.466z"/>
	</g>
	<g>
		<path fill="#AB2521" d="M31.323,35.969c-8.813,0-15.983-7.17-15.983-15.983h1c0,8.262,6.722,14.983,14.983,14.983
			s14.983-6.722,14.983-14.983h1C47.306,28.799,40.136,35.969,31.323,35.969z"/>
	</g>
	<g>
		<path fill="#E4312C" d="M31.323,38.43c-8.813,0-15.983-7.17-15.983-15.982h1c0,8.262,6.722,14.982,14.983,14.982
			s14.983-6.721,14.983-14.982h1C47.306,31.26,40.136,38.43,31.323,38.43z"/>
	</g>
	<g>
		<path fill="#CCCCCC" d="M5.573,8.939v5.592c0.871,0.304,1.809,0.703,1.875,1.033c0.098,0.492,0.042,14.938,0.014,21.693
			l3.75-0.583V9.605L5.573,8.939z"/>
	</g>
	<g>
		<path fill="#CCCCCC" d="M57.071,8.939v5.592c-0.871,0.304-1.81,0.703-1.875,1.033c-0.098,0.492-0.042,14.938-0.014,21.693
			l-3.75-0.583V9.605L57.071,8.939z"/>
	</g>
	<g>
		<path fill="#B3B3B3" d="M5.573,14.893c0.871,0.304,1.809,0.703,1.875,1.032v-0.36c-0.066-0.33-1.004-0.729-1.875-1.033V14.893z"/>
	</g>
	<g>
		<path fill="#B3B3B3" d="M55.196,15.925c0.065-0.329,1.004-0.729,1.875-1.032v-0.361c-0.871,0.304-1.81,0.703-1.875,1.033V15.925z"
			/>
	</g>
	<g>
		<path fill="#E4312C" d="M11.711,30.189h-1c0-0.644,0.106-15.75,9.361-15.75v1C11.807,15.439,11.711,30.041,11.711,30.189z"/>
	</g>
	<g>
		<path fill="#E4312C" d="M50.932,32.689c0-0.147-0.103-14.75-8.361-14.75v-1c9.255,0,9.361,15.106,9.361,15.75H50.932z"/>
	</g>
	<g>
		<circle fill="#333333" cx="31.323" cy="18.648" r="17.438"/>
	</g>
	<g>
		<circle fill="#666666" cx="31.323" cy="17.438" r="17.438"/>
	</g>
	<g opacity="0.2" enable-background="new    ">
		<path d="M13.884,17.439c0,9.631,7.808,17.438,17.438,17.438S48.76,27.07,48.76,17.439v0.298c0,9.631-7.807,17.438-17.438,17.438
			c-9.63,0-17.438-7.807-17.438-17.438V17.439z"/>
	</g>
	<g>
		<circle fill="#5F5F5F" cx="31.384" cy="17.377" r="16.729"/>
	</g>
	<g opacity="0.2">
		<g>
			<polygon fill="#FFFFFF" points="57.071,10.363 62.645,9.501 62.645,9.272 57.071,10.133 			"/>
		</g>
		<g>
			<polygon fill="#FFFFFF" points="0,9.501 5.571,10.362 5.571,10.132 0,9.272 			"/>
		</g>
		<g>
			<polygon fill="#FFFFFF" points="5.573,9.168 11.211,9.834 11.211,9.606 5.573,8.939 			"/>
		</g>
		<g>
			<polygon fill="#FFFFFF" points="51.432,9.834 57.071,9.168 57.071,8.939 51.432,9.606 			"/>
		</g>
		<g>
			<path fill="#FFFFFF" d="M48.759,17.668c0-9.63-7.807-17.438-17.438-17.438c-9.63,0-17.438,7.807-17.438,17.438V17.44
				c0-9.63,7.808-17.438,17.438-17.438S48.759,7.809,48.759,17.44V17.668z"/>
		</g>
		<g>
			<g>
				<path fill="#FFFFFF" d="M11.211,5.713v0.229l9.423-2.261c0.148-0.115,0.301-0.228,0.452-0.338L11.211,5.713z"/>
			</g>
			<g>
				<path fill="#FFFFFF" d="M51.434,5.713l-9.875-2.369c0.151,0.11,0.304,0.223,0.451,0.338l9.424,2.261V5.713z"/>
			</g>
		</g>
		<g>
			<path fill="#FFFFFF" d="M48.114,17.449c0-9.239-7.489-16.729-16.729-16.729c-9.238,0-16.729,7.489-16.729,16.729v-0.073
				c0-9.238,7.49-16.729,16.729-16.729c9.239,0,16.729,7.49,16.729,16.729V17.449z"/>
		</g>
	</g>
	<g>
		<path fill="#CCCCCC" d="M11.211,35.469c0,0,2.021-6.155,1.028-6.243s-2.333,0-2.333,0L11.211,35.469z"/>
	</g>
	<g>
		<path fill="#CCCCCC" d="M51.429,36.844c0,0-2.02-6.155-1.027-6.243s2.333,0,2.333,0L51.429,36.844z"/>
	</g>
	<g>
		<polygon fill="#B3B3B3" points="7.461,37.258 11.211,36.675 11.211,39.03 7.461,39.613 		"/>
	</g>
	<g>
		<polygon fill="#B3B3B3" points="51.432,36.675 55.182,37.258 55.182,39.613 51.432,39.03 		"/>
	</g>
	<g>
		<polygon fill="#B3B3B3" points="11.211,39.104 5.176,40.028 5.176,39.613 11.211,38.689 		"/>
	</g>
	<g>
		<polygon fill="#B3B3B3" points="51.434,39.104 57.468,40.028 57.468,39.613 51.434,38.689 		"/>
	</g>
</g>
</svg>
